<svg width="20" height="20" viewBox="0 0 20 20" fill="none" xmlns="http://www.w3.org/2000/svg">
<path d="M7.49967 8.95833C6.23301 8.95833 5.20801 7.93333 5.20801 6.66667C5.20801 5.4 6.23301 4.375 7.49967 4.375C8.76634 4.375 9.79134 5.4 9.79134 6.66667C9.79134 7.93333 8.76634 8.95833 7.49967 8.95833ZM7.49967 5.625C6.92467 5.625 6.45801 6.09167 6.45801 6.66667C6.45801 7.24167 6.92467 7.70833 7.49967 7.70833C8.07467 7.70833 8.54134 7.24167 8.54134 6.66667C8.54134 6.09167 8.07467 5.625 7.49967 5.625Z" fill="#E5E5E5"/>
<path d="M12.5003 18.9587H7.50033C2.97533 18.9587 1.04199 17.0253 1.04199 12.5003V7.50033C1.04199 2.97533 2.97533 1.04199 7.50033 1.04199H10.8337C11.1753 1.04199 11.4587 1.32533 11.4587 1.66699C11.4587 2.00866 11.1753 2.29199 10.8337 2.29199H7.50033C3.65866 2.29199 2.29199 3.65866 2.29199 7.50033V12.5003C2.29199 16.342 3.65866 17.7087 7.50033 17.7087H12.5003C16.342 17.7087 17.7087 16.342 17.7087 12.5003V8.33366C17.7087 7.99199 17.992 7.70866 18.3337 7.70866C18.6753 7.70866 18.9587 7.99199 18.9587 8.33366V12.5003C18.9587 17.0253 17.0253 18.9587 12.5003 18.9587Z" fill="#E5E5E5"/>
<path d="M17.7083 4.79199H13.125C12.7833 4.79199 12.5 4.50866 12.5 4.16699C12.5 3.82533 12.7833 3.54199 13.125 3.54199H17.7083C18.05 3.54199 18.3333 3.82533 18.3333 4.16699C18.3333 4.50866 18.05 4.79199 17.7083 4.79199Z" fill="#E5E5E5"/>
<path d="M15.417 7.08333C15.0753 7.08333 14.792 6.8 14.792 6.45833V1.875C14.792 1.53333 15.0753 1.25 15.417 1.25C15.7587 1.25 16.042 1.53333 16.042 1.875V6.45833C16.042 6.8 15.7587 7.08333 15.417 7.08333Z" fill="#E5E5E5"/>
<path d="M2.22541 16.4168C2.02541 16.4168 1.82541 16.3168 1.70874 16.1418C1.51707 15.8585 1.59207 15.4668 1.87541 15.2751L5.98374 12.5168C6.88374 11.9168 8.12541 11.9835 8.94207 12.6751L9.21707 12.9168C9.63374 13.2751 10.3421 13.2751 10.7504 12.9168L14.2171 9.9418C15.1087 9.18346 16.4921 9.18346 17.3837 9.9418L18.7421 11.1085C19.0004 11.3335 19.0337 11.7251 18.8087 11.9918C18.5837 12.2501 18.1921 12.2835 17.9254 12.0585L16.5671 10.8918C16.1504 10.5335 15.4421 10.5335 15.0337 10.8918L11.5671 13.8668C10.6837 14.6251 9.29207 14.6251 8.40041 13.8668L8.12541 13.6251C7.74207 13.3001 7.10874 13.2668 6.68374 13.5585L2.58374 16.3168C2.46707 16.3835 2.34207 16.4168 2.22541 16.4168Z" fill="#E5E5E5"/>
</svg>
