<svg width="64" height="64" viewBox="0 0 64 64" fill="none" xmlns="http://www.w3.org/2000/svg">
<path d="M42.7666 29.0754L48.7456 26.6594C49.1867 26.3994 49.6785 26.2373 50.1877 26.1841C50.6969 26.1309 51.2116 26.1879 51.6968 26.3511C52.1821 26.5144 52.6265 26.7801 53 27.1302C53.3736 27.4803 53.6674 27.9067 53.8616 28.3804C53.9093 28.5028 53.9806 28.6146 54.0715 28.7094C54.1624 28.8042 54.2711 28.8802 54.3913 28.9331C54.5116 28.9859 54.641 29.0146 54.7724 29.0173C54.9037 29.0201 55.0343 28.997 55.1566 28.9494C55.279 28.9017 55.3908 28.8304 55.4857 28.7395C55.5805 28.6486 55.6565 28.54 55.7094 28.4197C55.7622 28.2995 55.7908 28.17 55.7936 28.0387C55.7964 27.9074 55.7733 27.7768 55.7256 27.6544C55.2078 26.3359 54.2003 25.2685 52.9139 24.6755C51.6274 24.0825 50.1615 24.0097 48.8226 24.4724L45.1786 16.8684C44.6109 15.8124 43.7589 14.9364 42.719 14.3398C41.679 13.7431 40.4928 13.4496 39.2946 13.4924H20.7956C19.5978 13.4498 18.4119 13.7435 17.3724 14.3401C16.3328 14.9368 15.4811 15.8126 14.9136 16.8684L11.2656 24.4754C10.4419 24.1954 9.56356 24.1151 8.70274 24.2409C7.84192 24.3667 7.02327 24.6952 6.31416 25.1991C5.60505 25.7031 5.02573 26.3683 4.62387 27.1399C4.22201 27.9115 4.0091 28.7674 4.00265 29.6374C4.00765 30.2874 3.99965 33.4704 4.00265 34.1854V42.2174C4.00264 42.7009 4.18767 43.1661 4.51978 43.5176C4.85188 43.869 5.30588 44.08 5.78865 44.1074V47.5884C5.78944 48.3278 6.08354 49.0368 6.6064 49.5596C7.12927 50.0825 7.8382 50.3766 8.57765 50.3774H12.1556C12.8951 50.3766 13.604 50.0825 14.1269 49.5596C14.6498 49.0368 14.9439 48.3278 14.9446 47.5884V44.1184H36.7536C37.0189 44.1184 37.2732 44.013 37.4608 43.8255C37.6483 43.6379 37.7536 43.3836 37.7536 43.1184C37.7536 42.8532 37.6483 42.5988 37.4608 42.4113C37.2732 42.2237 37.0189 42.1184 36.7536 42.1184H20.3136C20.2416 41.5734 20.4826 40.9904 21.1036 40.9884H36.4526C36.7179 40.9884 36.9722 40.883 37.1598 40.6955C37.3473 40.5079 37.4526 40.2536 37.4526 39.9884C37.4526 39.7232 37.3473 39.4688 37.1598 39.2813C36.9722 39.0937 36.7179 38.9884 36.4526 38.9884H21.1026C20.7079 38.9923 20.3184 39.0787 19.959 39.242C19.5996 39.4053 19.2782 39.6418 19.0156 39.9365C18.7529 40.2312 18.5547 40.5775 18.4337 40.9532C18.3126 41.3289 18.2714 41.7258 18.3126 42.1184C15.2396 42.1244 9.11265 42.1124 6.00265 42.1184V35.1694H12.1556C12.3521 35.1666 12.5435 35.1062 12.7061 34.9959C12.8687 34.8855 12.9954 34.73 13.0706 34.5484C13.1458 34.3669 13.1662 34.1673 13.1292 33.9743C13.0923 33.7813 12.9996 33.6033 12.8626 33.4624C11.3406 32.0374 9.47365 29.4084 7.09565 29.5924H6.00865C6.02003 29.0539 6.15584 28.5254 6.40545 28.0482C6.65507 27.5709 7.01172 27.1579 7.4475 26.8414C7.88329 26.525 8.38638 26.3136 8.91744 26.2239C9.44849 26.1342 9.99309 26.1686 10.5086 26.3244C13.0486 27.1974 18.3326 29.9894 21.0526 29.8064H39.0426C40.32 29.8088 41.5853 29.5611 42.7666 29.0754ZM7.78865 44.1174H12.9446V47.5884C12.9444 47.7977 12.861 47.9984 12.7129 48.1463C12.5648 48.2943 12.364 48.3774 12.1546 48.3774H8.57865C8.36947 48.3771 8.16894 48.2939 8.02103 48.146C7.87312 47.9981 7.78991 47.7976 7.78965 47.5884L7.78865 44.1174ZM8.91865 32.3474L9.74165 33.1704H6.00265V31.5934C6.99765 31.5614 8.19865 31.5354 8.91865 32.3474ZM18.0766 27.2204L13.1236 25.2244L16.7166 17.7324C17.1263 17.0211 17.7234 16.436 18.4429 16.0409C19.1624 15.6459 19.9766 15.4562 20.7966 15.4924H39.2946C40.1146 15.4567 40.9286 15.6467 41.648 16.0417C42.3674 16.4367 42.9646 17.0214 43.3746 17.7324L46.9646 25.2224L42.0126 27.2224C41.0705 27.61 40.0614 27.8087 39.0426 27.8074H21.0526C20.0316 27.8104 19.0201 27.6109 18.0766 27.2204Z" fill="white"/>
<path d="M24.0449 33.1699C23.7797 33.1699 23.5254 33.2753 23.3378 33.4628C23.1503 33.6504 23.0449 33.9047 23.0449 34.1699C23.0449 34.4351 23.1503 34.6895 23.3378 34.877C23.5254 35.0646 23.7797 35.1699 24.0449 35.1699H36.0449C36.3101 35.1699 36.5645 35.0646 36.752 34.877C36.9396 34.6895 37.0449 34.4351 37.0449 34.1699C37.0449 33.9047 36.9396 33.6504 36.752 33.4628C36.5645 33.2753 36.3101 33.1699 36.0449 33.1699H24.0449ZM54.2099 39.2829H50.7239V35.7969C50.7239 35.5317 50.6186 35.2773 50.431 35.0898C50.2435 34.9023 49.9891 34.7969 49.7239 34.7969C49.4587 34.7969 49.2043 34.9023 49.0168 35.0898C48.8293 35.2773 48.7239 35.5317 48.7239 35.7969V39.2829H45.2369C44.9717 39.2829 44.7174 39.3883 44.5298 39.5758C44.3423 39.7633 44.2369 40.0177 44.2369 40.2829C44.2369 40.5481 44.3423 40.8025 44.5298 40.99C44.7174 41.1776 44.9717 41.2829 45.2369 41.2829H48.7239V44.7689C48.7239 45.0341 48.8293 45.2885 49.0168 45.476C49.2043 45.6636 49.4587 45.7689 49.7239 45.7689C49.9891 45.7689 50.2435 45.6636 50.431 45.476C50.6186 45.2885 50.7239 45.0341 50.7239 44.7689V41.2829H54.2099C54.4751 41.2829 54.7295 41.1776 54.917 40.99C55.1046 40.8025 55.2099 40.5481 55.2099 40.2829C55.2099 40.0177 55.1046 39.7633 54.917 39.5758C54.7295 39.3883 54.4751 39.2829 54.2099 39.2829Z" fill="white"/>
<path d="M49.7243 30.0078C46.9997 30.0107 44.3876 31.0943 42.4609 33.0207C40.5342 34.9472 39.4504 37.5593 39.4473 40.2838C40.0123 53.9168 59.4373 53.9128 60.0003 40.2838C59.9971 37.5594 58.9134 34.9475 56.987 33.0211C55.0606 31.0947 52.4487 30.011 49.7243 30.0078ZM49.7243 48.5598C47.53 48.5574 45.4262 47.6848 43.8745 46.1333C42.3228 44.5818 41.4499 42.4781 41.4473 40.2838C41.8633 29.3198 57.5863 29.3228 58.0003 40.2838C57.9976 42.4779 57.1248 44.5814 55.5734 46.1329C54.0219 47.6844 51.9184 48.5572 49.7243 48.5598Z" fill="white"/>
</svg>
