<svg width="386" height="324" viewBox="0 0 386 324" fill="none" xmlns="http://www.w3.org/2000/svg">
<rect width="385.548" height="324" fill="#0D0D0D"/>
<path fill-rule="evenodd" clip-rule="evenodd" d="M328.243 110.952C329.366 111.493 333.662 111.532 334.61 111.009C337.261 109.558 337.494 109.364 338.075 108.165C338.384 107.507 338.868 106.558 339.139 106.055C339.565 105.242 339.623 104.893 339.623 103.113C339.623 101.759 339.546 100.985 339.391 100.79C339.256 100.636 339.081 100.112 338.984 99.6479C338.828 98.7755 335.733 92.2541 334.649 90.5317C334.32 89.9897 333.584 88.7125 333.023 87.6674C332.443 86.6419 331.881 85.7909 331.746 85.7905C331.61 85.7905 331.378 85.9454 331.223 86.1196C330.894 86.5068 329.523 88.844 329.52 89.0219C329.52 89.08 329.307 89.4097 329.055 89.7387C328.804 90.0679 328.203 91.1323 327.719 92.0805C327.216 93.0478 326.695 94.0347 326.54 94.3061C326.385 94.5771 326.055 95.2163 325.823 95.7583C325.591 96.2805 325.32 96.7643 325.243 96.8227C324.662 97.2292 323.327 101.313 323.327 102.726C323.327 104.081 323.829 106.209 324.41 107.274C325.048 108.435 327.062 110.371 328.243 110.952ZM343.397 158.932C346.707 160.345 349.726 161.235 349.959 160.868C350.017 160.771 349.416 160.287 348.642 159.803C347.868 159.319 346.882 158.68 346.456 158.39C345.681 157.887 344.752 157.403 343.842 157.016C343.571 156.9 343.01 156.59 342.585 156.338C342.159 156.068 341.598 155.739 341.327 155.623C341.056 155.487 340.59 155.216 340.261 154.984C339.951 154.771 338.21 153.841 336.391 152.932C334.591 152.003 332.404 150.9 331.552 150.455C328.339 148.809 323.558 146.564 323.268 146.564C323.113 146.564 322.397 146.215 321.681 145.809C320.965 145.383 319.881 144.861 319.281 144.628C318.681 144.396 317.811 144.048 317.327 143.855C316.843 143.642 316.146 143.428 315.778 143.351C315.41 143.274 314.442 142.926 313.649 142.539C311.462 141.532 310.765 141.241 309.391 140.777C307.03 139.983 305.617 139.596 305.094 139.596C304.804 139.596 304.533 139.519 304.456 139.403C304.397 139.306 303.758 139.055 303.043 138.842C297.062 137.042 296.442 136.906 290.52 135.841C289.572 135.667 288.294 135.493 287.713 135.435C287.133 135.396 285.875 135.281 284.907 135.165C278.21 134.429 270.855 134.371 261.1 134.971C257.6 135.184 254.583 135.358 254.423 135.358C254.075 135.377 242.984 135.939 242.036 136.016C235.377 136.442 213.352 136.519 207.003 136.113C205.03 135.997 202.553 135.861 201.488 135.803C191.269 135.358 186.623 134.971 176.52 133.694C175.243 133.539 172.94 133.267 171.391 133.093C169.843 132.938 168.062 132.706 167.423 132.628C166.785 132.532 165.313 132.339 164.132 132.184C161.829 131.874 160.184 131.583 158.288 131.158C157.63 131.003 156.875 130.887 156.604 130.887C156.333 130.887 155.733 130.771 155.288 130.616C154.823 130.48 153.72 130.248 152.81 130.113C151.9 129.977 150.332 129.707 149.326 129.494C148.319 129.281 146.655 128.932 145.649 128.739C143.152 128.274 139.513 127.441 138.681 127.17C138.313 127.054 137.19 126.764 136.165 126.532C134.345 126.106 131.345 125.312 128.326 124.499C127.474 124.267 126.042 123.823 125.132 123.494C124.223 123.184 123.236 122.855 122.907 122.758C122.094 122.545 121.204 122.216 119.52 121.578C118.727 121.268 117.991 121.016 117.875 121.016C117.778 120.997 117.43 120.803 117.139 120.551C116.365 119.932 116.482 119.158 117.391 118.635C118.456 118.054 124.106 116.197 124.919 116.177C125.094 116.158 125.578 116.042 126.003 115.868C126.429 115.713 127.688 115.422 128.81 115.19C129.933 114.977 131.23 114.687 131.713 114.532C134.83 113.583 143.713 111.803 147.197 111.435C147.777 111.358 149.055 111.184 150.003 111.048C158.055 109.771 164.946 109.287 174.391 109.326C179.152 109.326 184.687 109.616 186.971 109.984C187.61 110.081 189.042 110.293 190.165 110.467C193.223 110.932 195.526 111.299 197.036 111.532C197.791 111.667 198.875 111.842 199.456 111.919C201.062 112.171 202.63 112.538 207.062 113.7C208.204 113.99 209.269 114.242 209.423 114.242C209.579 114.242 210.256 114.416 210.914 114.628C211.997 114.957 213.236 115.287 217.165 116.293C217.803 116.468 218.539 116.719 218.81 116.855C219.081 116.99 219.914 117.261 220.649 117.435C221.404 117.629 222.217 117.881 222.488 118.016C222.759 118.152 223.669 118.422 224.52 118.596C225.371 118.79 226.164 119.003 226.261 119.081C226.348 119.139 226.806 119.327 227.388 119.54L228.619 119.976C229.2 120.19 229.653 120.382 229.726 120.455C229.842 120.551 230.094 120.628 230.288 120.628C230.501 120.629 231.411 120.938 232.339 121.306C233.249 121.674 234.604 122.061 235.339 122.177C236.288 122.332 236.772 122.507 236.946 122.758C237.101 122.971 237.313 123.145 237.429 123.145C237.661 123.145 239.694 123.996 240.526 124.422C240.797 124.577 241.204 124.694 241.417 124.694C241.649 124.694 241.862 124.771 241.939 124.868C241.997 124.964 242.326 125.119 242.674 125.177C243.758 125.429 247.455 126.919 247.649 127.209C247.707 127.287 248.056 127.461 248.423 127.558C248.792 127.674 250.107 128.12 251.326 128.545C253.745 129.397 254.636 129.552 254.229 129.048C254.094 128.894 253.881 128.758 253.765 128.758C253.649 128.739 253.242 128.487 252.875 128.177C252.507 127.848 252.12 127.596 252.003 127.596C251.887 127.596 251.5 127.345 251.171 127.055C250.378 126.339 249.003 125.662 248.345 125.662C247.997 125.662 247.765 125.526 247.61 125.177C247.494 124.926 247.049 124.519 246.604 124.287C246.159 124.074 245.249 123.513 244.552 123.048C243.294 122.235 241.688 121.345 238.456 119.662C237.507 119.178 236.539 118.674 236.326 118.539C235.415 118.015 228.662 114.803 227.694 114.435C226.707 114.048 225.739 113.623 224.926 113.216C224.384 112.965 221.19 111.745 220.165 111.415C219.681 111.261 219.12 111.068 218.907 110.971C217.823 110.487 216.758 110.12 214.746 109.481C213.527 109.094 211.998 108.61 211.359 108.377C210.72 108.165 209.888 107.913 209.52 107.835C209.152 107.758 207.971 107.468 206.907 107.177C205.842 106.906 204.623 106.596 204.197 106.519C203.771 106.422 202.765 106.17 201.971 105.957C201.178 105.745 200.094 105.493 199.552 105.435C199.03 105.358 198.449 105.222 198.275 105.125C198.12 105.048 196.668 104.796 195.081 104.564C193.494 104.351 191.674 104.08 191.036 103.964C187.9 103.442 181.533 102.862 177.391 102.726C175.63 102.668 173.713 102.59 173.132 102.571C169.242 102.358 153.605 103.384 151.649 103.964C151.281 104.08 150.661 104.177 150.294 104.177C149.557 104.177 145.726 104.642 143.81 104.971C143.172 105.068 142.127 105.242 141.488 105.338C140.346 105.532 139.281 105.765 137.868 106.132C136.919 106.384 134.404 106.868 132.914 107.081C132.236 107.177 131.617 107.313 131.501 107.39C131.326 107.487 128.907 108.028 126.875 108.415C125.558 108.667 121.707 109.713 120.41 110.158C119.771 110.39 119.075 110.564 118.842 110.564C118.629 110.564 117.914 110.739 117.275 110.932C116.656 111.145 115.261 111.494 114.197 111.726C113.132 111.958 111.313 112.442 110.132 112.79C107.287 113.642 105.274 114.184 99.6812 115.578C98.4038 115.907 96.2359 116.468 94.8423 116.835C93.4682 117.223 91.8033 117.61 91.1646 117.726C90.5259 117.842 89.307 118.093 88.4556 118.306C87.6041 118.5 86.3458 118.751 85.649 118.848C84.1006 119.1 81.2356 119.584 79.1646 119.952C78.313 120.087 76.7842 120.319 75.7779 120.435C74.7715 120.551 73.3394 120.726 72.5845 120.823C69.2943 121.268 63.0815 121.596 59.4234 121.519C55.7271 121.422 50.8112 121.094 49.3589 120.823C48.8364 120.726 47.8678 120.59 47.2291 120.532C44.5968 120.241 38.6173 119.042 36.817 118.422C35.4428 117.958 35.3654 118.345 36.4879 120.203C37.5524 122.003 39.5846 124.055 41.3072 125.061C42.7975 125.951 44.8493 126.823 45.3912 126.823C45.8168 126.823 46.3587 127.442 46.3589 127.925C46.3589 128.138 46.2037 128.525 46.0103 128.777C45.5845 129.319 44.0746 133.635 43.8423 134.932C43.7456 135.435 43.5718 136.384 43.4556 137.081C43.0879 138.977 43.1457 145.752 43.5328 147.397C43.7069 148.132 43.8423 149.004 43.8423 149.332C43.8424 149.681 43.9776 150.204 44.1324 150.513C44.287 150.803 44.4232 151.209 44.4234 151.383C44.4427 152.234 46.7629 157.979 47.1129 157.984C47.1903 157.984 47.4422 158.351 47.6744 158.796C48.2161 159.86 48.99 160.828 49.1646 160.655C49.242 160.577 49.165 159.88 48.9908 159.106C48.1973 155.545 48.2555 149.913 49.107 146.758C49.3199 145.965 49.5903 144.958 49.6871 144.532C49.8031 144.106 50.0164 143.623 50.1519 143.449C50.3067 143.294 50.4233 143.081 50.4234 142.984C50.4234 142.771 51.8746 140.854 52.8423 139.809C54.623 137.874 58.2229 135.745 61.1646 134.874C61.8033 134.681 62.6357 134.409 63.0035 134.274C64.1454 133.848 67.862 133.036 69.4879 132.842C70.3394 132.726 71.423 132.571 71.9068 132.455C72.3907 132.358 73.5717 132.203 74.5201 132.145C75.4877 132.068 76.3009 131.971 76.3589 131.952C76.4197 131.913 77.4635 131.835 78.6812 131.777C79.9005 131.699 81.4687 131.603 82.1461 131.545C84.1408 131.371 95.501 131.429 99.4879 131.642C106.823 132.048 110.152 132.261 111.585 132.435C112.378 132.532 114.217 132.707 115.649 132.823C118.204 133.036 123.855 133.693 128.132 134.274C129.313 134.448 132.391 134.835 135.003 135.145C137.616 135.474 140.578 135.861 141.585 136.036C142.591 136.19 144.642 136.499 146.132 136.712C156.1 138.183 154.92 138.01 157.939 138.358C160.436 138.629 161.713 138.803 165.1 139.306C166.068 139.461 167.887 139.674 169.165 139.79C170.442 139.907 172.029 140.1 172.687 140.197C173.345 140.294 174.449 140.429 175.107 140.467C175.784 140.525 176.771 140.604 177.294 140.662C177.835 140.72 178.997 140.797 179.907 140.855C180.816 140.913 182.21 141.048 183.003 141.145C185.5 141.474 192.719 142.113 193.939 142.132C194.578 142.132 195.894 142.267 196.842 142.403C198.991 142.751 207.488 143.235 213.681 143.371C216.235 143.429 218.577 143.525 218.887 143.583C219.565 143.719 241.765 143.738 241.978 143.603C242.06 143.545 244.787 143.448 248.036 143.371C251.287 143.293 255.507 143.158 257.423 143.061C262.069 142.829 280.454 142.964 283.165 143.254C284.345 143.37 285.991 143.565 286.842 143.662C287.694 143.778 289.533 143.99 290.907 144.165C292.3 144.339 294.042 144.609 294.778 144.764C295.533 144.919 296.868 145.171 297.778 145.326C298.688 145.48 299.984 145.732 300.681 145.887C301.378 146.042 303.197 146.428 304.746 146.777C306.294 147.106 307.901 147.493 308.327 147.628C308.753 147.764 309.836 148.074 310.746 148.306C312.642 148.809 314.927 149.467 317.423 150.222C318.391 150.532 319.727 150.919 320.423 151.113C321.12 151.287 321.952 151.558 322.261 151.694C323.152 152.081 325.862 152.971 326.617 153.145C326.985 153.242 327.778 153.494 328.359 153.726C328.94 153.958 329.946 154.248 330.585 154.383C331.223 154.519 332.249 154.867 332.849 155.158C333.449 155.448 334.804 155.97 335.849 156.319C336.894 156.687 338.578 157.287 339.585 157.674C340.591 158.061 341.578 158.371 341.753 158.371C341.947 158.371 342.682 158.623 343.397 158.932Z" fill="#16F7FF"/>
<path d="M144.102 228.436C144.624 228.435 145.572 227.564 146.172 226.558C146.598 225.823 146.637 225.629 146.443 225.203C146.23 224.758 146.133 224.719 145.456 224.835L144.682 224.951V224.139C144.701 222.842 145.862 216.068 146.907 211.404C147.081 210.61 147.333 209.39 147.469 208.694C147.933 206.429 148.514 203.816 148.939 202.016C149.036 201.59 149.308 200.448 149.521 199.5C150.527 195.087 150.934 193.596 151.146 193.422C151.405 193.21 159.468 193.462 160.301 193.713C160.572 193.791 160.843 193.693 161.114 193.422C161.637 192.9 161.617 192.706 161.018 192.145C160.611 191.758 160.282 191.661 159.508 191.661C158.966 191.661 156.972 191.564 155.095 191.429L151.649 191.216V190.733C151.649 190.462 151.727 189.939 151.843 189.552C152.056 188.797 153.508 182.758 154.146 179.951C154.379 178.984 154.649 177.9 154.746 177.532C154.862 177.165 155.036 176.468 155.152 175.984C155.268 175.5 155.462 174.629 155.617 174.048C155.849 173.08 156.062 172.151 156.798 168.919C156.933 168.28 157.282 166.674 157.553 165.339C157.824 164.004 158.133 162.474 158.249 161.951C158.365 161.409 158.502 159.939 158.56 158.661C158.656 156.339 158.656 156.319 158.134 155.699C157.514 154.964 156.836 154.906 156.043 155.487C155.017 156.261 152.868 159.397 151.068 162.726C150.623 163.577 150.004 164.699 149.714 165.241C149.095 166.364 146.695 171.049 141.817 180.629C139.882 184.403 137.926 188.235 137.462 189.145L136.61 190.79L131.694 190.694C122.792 190.519 122.23 190.539 121.901 191.003C121.669 191.371 121.688 191.467 121.979 191.816C122.424 192.338 124.63 192.571 130.939 192.726C133.317 192.784 135.309 192.88 135.353 192.919C135.449 193.016 134.888 194.177 133.979 195.823C133.32 196.984 131.772 199.771 130.688 201.726C128.579 205.558 125.83 209.778 124.669 210.978C123.701 212.023 122.54 212.641 121.921 212.487C121.669 212.409 121.146 212.08 120.759 211.751C119.714 210.822 119.308 210.106 118.243 207.241C118.011 206.641 117.604 204.667 117.372 203.08C117.043 200.855 117.275 194.991 117.759 193.404C119.21 188.565 121.069 186.203 124.32 185.061C125.733 184.538 128.985 184.5 130.553 184.964C131.927 185.371 132.546 185.351 132.972 184.887C133.552 184.248 133.126 183.687 131.791 183.3C125.288 181.423 119.927 183.63 117.159 189.339C115.379 193.016 114.682 199.384 115.533 204.241C116.656 210.687 119.095 214.306 122.308 214.306C124.572 214.306 126.159 212.874 129.275 207.939C130.669 205.752 135.14 197.874 136.553 195.087C136.92 194.371 137.404 193.559 137.617 193.287L138.023 192.783L143.327 193.016C146.25 193.151 148.708 193.307 148.805 193.384C148.881 193.465 148.649 194.837 148.263 196.422C147.392 200.022 147.12 201.242 146.714 203.08C146.54 203.874 146.327 204.841 146.23 205.209C146.114 205.577 145.804 207.01 145.533 208.404C145.243 209.777 144.895 211.48 144.74 212.177C144.585 212.874 144.353 214.035 144.198 214.79C142.901 221.564 142.398 225.629 142.708 226.829C142.96 227.797 143.521 228.436 144.102 228.436ZM236.521 229.325C237.159 229.48 237.643 229.074 238.243 227.778C239.095 225.939 239.056 225.319 238.03 224.932C237.604 224.777 237.546 224.681 237.662 224.119C237.74 223.79 237.914 222.59 238.068 221.468C238.204 220.346 238.475 218.565 238.649 217.5C238.824 216.436 239.076 214.829 239.23 213.919C239.366 213.01 239.636 211.481 239.811 210.532C239.985 209.565 240.237 208.133 240.392 207.339C240.721 205.442 240.953 204.261 241.785 200.177C242.153 198.319 242.578 196.229 242.714 195.532C243.062 193.849 243.295 193.268 243.721 193.132C243.915 193.074 244.825 192.939 245.772 192.823C246.701 192.706 247.688 192.533 247.959 192.436C248.23 192.32 248.656 192.241 248.927 192.241C249.507 192.241 251.656 191.546 252.256 191.158C252.837 190.791 252.817 190.016 252.217 189.629C251.811 189.358 251.695 189.358 251.114 189.61C249.798 190.19 246.682 190.849 244.437 191.023C243.72 191.1 243.391 191.042 243.217 190.81C242.849 190.365 242.52 190.422 241.843 191.08C241.301 191.603 241.127 191.662 239.946 191.681C238.514 191.7 238.165 191.738 236.036 192.029C235.243 192.145 233.888 192.281 233.036 192.339C232.185 192.397 230.966 192.532 230.327 192.629C229.688 192.726 228.507 192.842 227.714 192.9C226.224 192.996 224.347 193.307 224.018 193.5C223.708 193.694 223.824 194.892 224.152 195.029C224.636 195.222 225.914 195.164 228.295 194.855C232.088 194.371 235.494 194.003 237.101 193.887C237.952 193.81 238.978 193.674 239.404 193.577C240.624 193.248 240.643 193.539 239.56 195.571C233.308 207.28 227.191 214.616 222.217 216.3C221.017 216.706 220.165 216.707 219.236 216.339C217.32 215.526 216.391 213.764 215.791 209.758C215.23 206.003 215.849 200.719 217.727 193.306C218.036 192.067 219.488 187.558 219.778 186.919C219.875 186.706 220.146 186.049 220.359 185.468C220.572 184.887 220.843 184.229 220.939 184.016C221.036 183.803 221.249 183.3 221.404 182.894C222.585 179.913 226.301 172.674 228.159 169.694C230.617 165.765 231.778 164.119 233.598 161.951C236.927 158.022 239.675 156.842 241.146 158.699C242.153 159.996 242.308 160.732 242.308 164.661C242.288 168.397 242.095 169.984 241.146 173.855C240.972 174.552 240.74 175.616 240.624 176.255C240.411 177.339 240.43 177.397 240.855 177.745C241.359 178.152 241.882 177.997 242.23 177.339C242.83 176.197 243.992 170.448 244.379 166.694C244.921 161.236 243.411 156.881 240.682 156.068C238.049 155.274 235.204 156.9 231.759 161.197C228.159 165.648 225.352 170.216 222.004 177.048C217.378 186.474 214.979 194.004 213.953 202.404C213.644 204.881 213.837 210.978 214.263 212.468C215.018 215.177 216.334 217.055 218.095 218.003C219.256 218.603 221.966 218.603 223.359 217.984C226.65 216.513 230.21 213.3 233.675 208.713C235.281 206.565 238.165 202.152 238.843 200.797C239.171 200.14 239.539 199.617 239.675 199.597C239.946 199.597 240.004 200.391 239.733 200.681C239.637 200.778 239.463 201.455 239.347 202.209C239.114 203.68 238.766 205.519 238.263 208.113C237.934 209.816 237.566 211.887 237.198 214.209C237.082 214.945 236.907 215.952 236.811 216.436C236.656 217.191 236.462 218.643 235.649 224.719C235.262 227.603 235.533 229.074 236.521 229.325ZM149.811 189.958C149.578 191.255 149.616 191.255 143.965 191.139C139.399 191.042 138.875 190.984 138.875 190.713C138.875 190.52 138.952 190.307 139.049 190.191C139.242 189.997 141.314 185.971 146.288 176.177C148.146 172.5 149.926 169.017 150.236 168.436C150.546 167.855 151.107 166.809 151.455 166.113C152.829 163.442 155.539 158.913 156.178 158.216C156.526 157.829 156.604 157.81 156.643 158.08C156.778 158.661 156.256 162.126 155.501 165.726C155.114 167.584 153.468 174.649 153.197 175.597C153.1 175.965 152.713 177.532 152.346 179.08C151.978 180.629 151.456 182.797 151.185 183.919C150.236 187.906 149.927 189.261 149.811 189.958ZM163.146 237.629C163.824 238.655 164.85 238.093 165.721 236.177C166.225 235.072 169.746 224.641 170.811 221.08C171.139 219.958 171.488 218.875 171.565 218.661C171.74 218.236 171.972 217.461 173.036 214.016C173.443 212.739 173.966 211.075 174.198 210.339C174.45 209.584 174.779 208.538 174.934 208.016C176.308 203.41 177.662 199.597 177.914 199.597C178.069 199.597 178.418 199.771 178.688 199.984C178.959 200.196 179.462 200.371 179.811 200.371C180.623 200.371 182.095 199.384 182.985 198.223C183.372 197.72 183.779 197.293 183.914 197.293C184.069 197.274 184.127 197.913 184.127 199.461C184.108 201.938 184.34 202.635 185.385 203.293C186.082 203.738 186.701 203.68 187.959 203.061C188.965 202.577 191.152 200.603 191.927 199.481C192.236 199.016 192.585 198.629 192.682 198.629C192.778 198.629 193.05 198.977 193.263 199.422C193.766 200.371 194.637 200.816 195.372 200.506C195.643 200.39 196.204 199.984 196.63 199.616C197.52 198.784 200.424 195.203 200.424 194.932C200.424 194.816 200.54 194.758 200.656 194.797C200.792 194.856 201.004 195.533 201.12 196.325C201.662 199.693 202.359 201.203 203.85 202.268C204.643 202.829 205.959 202.829 206.946 202.268C209.037 201.087 210.992 198.532 213.74 193.345C214.417 192.068 214.34 191.371 213.488 191.158C212.85 191.004 212.597 191.216 211.939 192.571C210.894 194.68 209.327 197.255 208.359 198.416C207.314 199.674 205.901 200.758 205.301 200.758C204.101 200.758 203.075 197.777 202.746 193.422C202.63 191.797 202.533 191.352 202.243 191.139C201.45 190.558 201.178 190.752 199.224 193.404C197.269 196.036 195.546 198.048 195.256 198.048C195.024 198.048 194.985 197.854 195.102 197.061C195.237 196.035 195.759 194.411 196.088 193.946C196.552 193.307 196.939 192.435 196.939 192.068C196.939 191.487 197.714 190.345 198.74 189.377C199.921 188.294 200.753 188.255 201.875 189.241C202.978 190.209 203.907 190.094 203.907 188.99C203.907 188.429 202.824 187.326 201.895 186.939C201.082 186.61 200.404 186.474 199.939 186.571C197.83 187.016 196.301 188.603 194.481 192.281C193.998 193.268 193.34 194.468 193.011 194.951C192.353 195.939 189.739 199.055 189.004 199.771C187.92 200.777 186.914 201.532 186.604 201.532C185.888 201.532 185.714 199.79 186.198 197.177C186.353 196.325 186.469 195.048 186.488 194.313C186.488 193.074 186.469 192.996 185.966 192.803C185.153 192.493 184.572 192.881 183.392 194.506C182.114 196.287 181.01 197.604 180.333 198.126C179.869 198.494 179.849 198.494 179.578 198.126C179.21 197.662 179.366 194.641 179.772 193.848C180.372 192.707 180.72 191.662 180.624 191.371C180.547 191.216 180.275 190.983 180.023 190.848C179.637 190.674 179.443 190.694 179.056 190.946C178.514 191.314 177.566 193.191 177.198 194.661C177.101 194.971 176.733 196.113 176.365 197.177C175.591 199.403 174.237 203.623 173.327 206.565C172.979 207.687 172.553 209.081 172.359 209.661C172.166 210.242 171.643 211.907 171.198 213.339C170.753 214.771 169.959 217.345 169.417 219.048C168.895 220.751 168.314 222.57 168.159 223.113C167.985 223.635 167.772 224.235 167.694 224.409C167.598 224.603 167.521 224.874 167.521 225.029C167.521 225.183 167.424 225.552 167.288 225.862C167.172 226.152 166.959 226.791 166.862 227.255C166.746 227.72 166.533 228.145 166.397 228.203C166.069 228.299 166.146 227.137 166.63 224.409C166.998 222.3 167.443 219.687 167.811 217.404C167.946 216.494 168.198 214.964 168.372 214.016C168.527 213.048 168.798 211.481 168.953 210.532C169.108 209.565 169.379 208.036 169.553 207.087C170.153 203.7 170.443 201.978 170.714 200.371C170.869 199.462 171.121 197.99 171.295 197.08C172.321 191.41 172.32 191.08 171.314 191.08C170.753 191.08 170.694 191.138 169.088 193.306C167.501 195.435 165.276 198.144 164.656 198.687C164.037 199.248 163.785 198.939 163.939 197.778C164.268 195.32 165.372 193.21 167.191 191.545C168.72 190.132 170.656 189.571 172.088 190.113C172.533 190.287 172.727 190.249 173.114 189.958C173.792 189.455 173.81 189.223 173.249 188.661C172.804 188.216 172.63 188.177 170.907 188.177C169.243 188.177 168.933 188.236 167.85 188.778C165.759 189.784 163.978 191.816 162.798 194.565C162.353 195.571 162.217 196.19 162.14 197.758C162.062 199.655 162.062 199.713 162.585 200.332C163.049 200.874 163.224 200.951 164.075 200.951C165.024 200.951 165.062 200.932 166.514 199.442C167.326 198.61 168.255 197.623 168.565 197.255C169.32 196.404 169.398 196.713 168.991 198.919C168.623 200.835 168.256 203.003 167.811 205.694C167.636 206.758 167.366 208.287 167.211 209.08C167.075 209.874 166.862 211.094 166.746 211.79C166.649 212.487 166.418 213.823 166.263 214.79C165.972 216.513 165.702 218.061 165.102 221.758C164.927 222.822 164.656 224.39 164.521 225.241C164.25 226.867 163.824 229.403 163.34 232.5C162.837 235.655 162.779 237.068 163.146 237.629ZM255.372 200.255C256.553 201.049 257.598 201.125 258.798 200.506C259.843 199.964 260.578 199.267 261.14 198.261C261.507 197.603 261.527 197.603 262.959 197.545C264.624 197.487 265.63 197.138 267.411 196.016C268.669 195.203 270.411 193.597 270.991 192.726C271.34 192.203 271.127 191.622 270.469 191.274C270.12 191.08 269.868 191.255 268.34 192.706C266.308 194.642 264.237 195.783 262.901 195.687L262.127 195.629L262.088 193.209C262.049 191.119 261.992 190.674 261.604 189.9C261.353 189.416 260.888 188.835 260.54 188.603C259.495 187.887 258.798 188.022 257.714 189.145C257.191 189.667 256.707 190.113 256.63 190.113C256.301 190.113 255.159 191.158 254.637 191.932C252.721 194.7 253.069 198.707 255.372 200.255ZM259.979 194.565C259.398 194.565 258.488 192.997 258.488 192.01C258.488 191.662 258.662 191.081 258.875 190.733C259.185 190.21 259.34 190.133 259.533 190.287C260.153 190.81 260.54 194.565 259.979 194.565ZM258.275 198.552C257.327 199.036 256.63 198.9 256.03 198.107C255.546 197.468 255.488 197.255 255.488 195.842C255.488 194.7 255.604 194.042 255.875 193.442C256.301 192.493 256.553 192.474 256.805 193.384C257.037 194.332 257.791 195.416 258.682 196.132C259.107 196.48 259.456 196.887 259.456 197.023C259.456 197.468 258.856 198.242 258.275 198.552Z" fill="white"/>
</svg>
