<svg width="24" height="24" viewBox="0 0 24 24" fill="none" xmlns="http://www.w3.org/2000/svg">
<g clip-path="url(#clip0_414_484030)">
<path d="M2.40527 7.73242H21.5947C22.9102 7.73242 23.9804 8.80272 23.9805 10.1182V13.8828C23.9805 15.1983 22.9102 16.2686 21.5947 16.2686H2.40527C1.08983 16.2686 0.0195312 15.1983 0.0195312 13.8828V10.1182C0.0195312 8.80272 1.08983 7.73242 2.40527 7.73242ZM2.40527 9.26172C1.93324 9.26172 1.54883 9.64608 1.54883 10.1182V13.8828C1.54883 14.3548 1.93319 14.7393 2.40527 14.7393H21.5947C22.0668 14.7393 22.4512 14.3549 22.4512 13.8828V10.1182C22.4512 9.64613 22.0668 9.26172 21.5947 9.26172H2.40527Z" fill="#A3A3A3" stroke="#A3A3A3" stroke-width="0.0390625"/>
<path d="M4.9082 10.0645C5.01649 10.0645 5.14223 10.1042 5.24023 10.1699C5.3385 10.2359 5.40514 10.325 5.40527 10.4229C5.40527 10.4461 5.40217 10.4699 5.39453 10.4941L5.35742 10.5713L4.50879 11.9307L4.50195 11.9414L4.50879 11.9521L5.39258 13.3154V13.3164C5.42204 13.3655 5.43649 13.4079 5.43652 13.4492C5.43652 13.5494 5.36464 13.6425 5.26172 13.7119C5.15901 13.781 5.02929 13.8232 4.92383 13.8232C4.84419 13.8232 4.77735 13.7983 4.75195 13.752V13.751L4.00488 12.4834L3.98828 12.4551L3.97168 12.4834L3.22559 13.751C3.19498 13.7989 3.13136 13.8232 3.05273 13.8232C2.94736 13.8231 2.8184 13.7809 2.71582 13.7119C2.61274 13.6425 2.54102 13.5495 2.54102 13.4492C2.54103 13.4285 2.54464 13.4077 2.55176 13.3857L2.58398 13.3164L3.46777 11.9521L3.47461 11.9414L3.46875 11.9307L2.62012 10.5713C2.58595 10.5177 2.57129 10.4697 2.57129 10.4229C2.57143 10.3251 2.63827 10.2358 2.73633 10.1699C2.83431 10.1042 2.96008 10.0645 3.06836 10.0645C3.1222 10.0645 3.16616 10.074 3.20215 10.0938C3.22003 10.1036 3.23615 10.1165 3.25098 10.1318L3.29199 10.1875L3.97168 11.374L3.98828 11.4033L4.00586 11.374L4.68555 10.1875C4.70963 10.1441 4.7395 10.1134 4.77539 10.0938C4.81123 10.0742 4.85478 10.0645 4.9082 10.0645ZM14.5986 10.0947C14.9487 10.0947 15.2581 10.1766 15.4795 10.3643C15.7003 10.5514 15.8369 10.8469 15.8369 11.2822V12.6367C15.8369 13.072 15.7003 13.3676 15.4795 13.5547C15.2581 13.7423 14.9486 13.8232 14.5986 13.8232C14.2487 13.8232 13.9408 13.7422 13.7207 13.5547C13.5012 13.3676 13.3662 13.072 13.3662 12.6367V11.2822C13.3662 10.847 13.5013 10.5514 13.7207 10.3643C13.9408 10.1767 14.2487 10.0948 14.5986 10.0947ZM17.5078 10.0947C17.8577 10.0948 18.1664 10.1767 18.3877 10.3643C18.6085 10.5514 18.7451 10.8469 18.7451 11.2822V12.6367C18.7451 13.072 18.6085 13.3676 18.3877 13.5547C18.1664 13.7421 17.8576 13.8232 17.5078 13.8232C17.1578 13.8232 16.849 13.7423 16.6289 13.5547C16.4095 13.3676 16.2744 13.0719 16.2744 12.6367V11.2822C16.2744 10.8471 16.4096 10.5514 16.6289 10.3643C16.849 10.1767 17.1578 10.0947 17.5078 10.0947ZM20.416 10.0947C20.766 10.0948 21.0755 10.1767 21.2969 10.3643C21.5175 10.5514 21.6543 10.8471 21.6543 11.2822V12.6367C21.6543 13.0718 21.5176 13.3676 21.2969 13.5547C21.0755 13.7423 20.766 13.8232 20.416 13.8232C20.0661 13.8232 19.7582 13.7422 19.5381 13.5547C19.3185 13.3676 19.1826 13.072 19.1826 12.6367V11.2822C19.1826 10.8469 19.3185 10.5514 19.5381 10.3643C19.7582 10.1767 20.066 10.0947 20.416 10.0947ZM7.94531 10.0947C8.05174 10.0948 8.18385 10.1289 8.28906 10.1855C8.39559 10.2429 8.46751 10.3194 8.46777 10.4023C8.46777 10.4179 8.46593 10.4343 8.45801 10.4502L7.40723 12.2012C7.39505 12.2194 7.38379 12.2494 7.38379 12.2842V13.5674C7.3836 13.6393 7.33997 13.6947 7.26953 13.7334C7.1984 13.7723 7.10131 13.793 7.00391 13.793C6.90669 13.7929 6.81026 13.7722 6.73926 13.7334C6.66885 13.6947 6.62518 13.6393 6.625 13.5674V12.2842C6.625 12.2494 6.61283 12.2195 6.60059 12.2012L5.54492 10.4502C5.53698 10.4344 5.53613 10.4179 5.53613 10.4023C5.53637 10.3195 5.60831 10.2429 5.71484 10.1855C5.82011 10.1289 5.9522 10.0948 6.05859 10.0947C6.11975 10.0947 6.15924 10.1071 6.18945 10.1289C6.20489 10.1401 6.21814 10.1546 6.23145 10.1719L6.27148 10.2334L6.9873 11.5469L7.00488 11.5781L7.02148 11.5469L7.73242 10.2334C7.75758 10.1856 7.78118 10.1511 7.8125 10.1289C7.84336 10.1071 7.88424 10.0947 7.94531 10.0947ZM8.90039 10.0947H10.874C10.947 10.0947 10.9994 10.1158 11.0332 10.1484C11.0668 10.181 11.084 10.228 11.084 10.2852C11.084 10.3433 11.0678 10.4107 11.0361 10.4834L11 10.5566L9.55859 13.1074L9.54199 13.1367H10.9658C11.0335 13.1367 11.0883 13.1774 11.127 13.2402C11.1656 13.3031 11.1865 13.3862 11.1865 13.4648C11.1865 13.5435 11.1656 13.6265 11.127 13.6895C11.0883 13.7523 11.0336 13.793 10.9658 13.793H8.78809C8.71005 13.7929 8.65823 13.7723 8.62598 13.7402C8.59368 13.7079 8.57812 13.6605 8.57812 13.6025C8.57819 13.5251 8.60717 13.426 8.66211 13.3311L10.1035 10.7803L10.1201 10.751H8.90039C8.83195 10.7508 8.77731 10.7147 8.73926 10.6553C8.70097 10.5953 8.67969 10.512 8.67969 10.4229C8.67974 10.341 8.69776 10.2581 8.73438 10.1963C8.77057 10.1352 8.82458 10.0949 8.90039 10.0947ZM14.5986 10.751C14.4522 10.751 14.3327 10.7921 14.25 10.8809C14.1675 10.9695 14.124 11.103 14.124 11.2822V12.6367C14.124 12.8158 14.1675 12.9495 14.25 13.0381C14.3327 13.1267 14.4523 13.1669 14.5986 13.167C14.7451 13.167 14.8662 13.1267 14.9502 13.0381C15.034 12.9495 15.0781 12.816 15.0781 12.6367V11.2822C15.0781 11.1029 15.0341 10.9694 14.9502 10.8809C14.8662 10.7921 14.7452 10.751 14.5986 10.751ZM17.5078 10.751C17.3612 10.751 17.241 10.792 17.1582 10.8809C17.0757 10.9695 17.0332 11.1031 17.0332 11.2822V12.6367C17.0332 12.8158 17.0757 12.9495 17.1582 13.0381C17.241 13.1268 17.3612 13.167 17.5078 13.167C17.6543 13.1669 17.7754 13.1268 17.8594 13.0381C17.9432 12.9495 17.9873 12.8159 17.9873 12.6367V11.2822C17.9873 11.1031 17.9431 10.9694 17.8594 10.8809C17.7754 10.7922 17.6542 10.7511 17.5078 10.751ZM20.416 10.751C20.2694 10.751 20.1492 10.792 20.0664 10.8809C19.984 10.9695 19.9414 11.1032 19.9414 11.2822V12.6367C19.9414 12.8158 19.9839 12.9495 20.0664 13.0381C20.1492 13.1269 20.2694 13.167 20.416 13.167C20.5626 13.167 20.6836 13.1268 20.7676 13.0381C20.8514 12.9495 20.8955 12.816 20.8955 12.6367V11.2822C20.8955 11.103 20.8513 10.9694 20.7676 10.8809C20.6836 10.7921 20.5626 10.751 20.416 10.751Z" fill="#A3A3A3" stroke="#A3A3A3" stroke-width="0.0390625"/>
</g>
<defs>
<clipPath id="clip0_414_484030">
<rect width="24" height="24" fill="white"/>
</clipPath>
</defs>
</svg>
