<svg width="150" height="72" viewBox="0 0 150 72" fill="none" xmlns="http://www.w3.org/2000/svg">
<path d="M150 64.9386C150 66.5845 114.673 70.8984 75.8181 70.8984C36.963 70.8984 5.46484 69.5642 5.46484 67.9184C5.46484 66.2726 36.4844 64.2763 75.3397 64.2763C114.195 64.2766 150 63.2928 150 64.9386Z" fill="black" fill-opacity="0.1"/>
<path d="M36.499 19.5254C36.499 19.5254 38.5625 22.6183 39.1354 21.7855C39.7085 20.9529 37.9892 16.3137 36.0405 14.767C34.0918 13.2206 31.4551 13.2206 29.9649 14.2912C28.4748 15.362 28.9333 18.4548 30.7674 19.2874C32.6018 20.1202 36.499 19.5254 36.499 19.5254Z" fill="#CCBCBE"/>
<path d="M103.055 47.1353C102.439 55.4292 99.2066 62.524 93.2067 64.4423C91.7877 64.896 88.7901 64.6745 87.2679 64.5528C79.3106 63.9165 73.4772 55.0869 74.2387 44.8311C75.0003 34.5753 82.0685 26.7773 90.0259 27.4138C97.9832 28.0499 103.817 36.8795 103.055 47.1353Z" fill="#2D1C20"/>
<path d="M107.031 47.1399C107.793 36.8847 101.959 28.0555 94.0022 27.4194C86.0451 26.7833 78.9775 34.5812 78.2162 44.8365C77.455 55.0917 83.2884 63.9209 91.2455 64.557C99.2025 65.1931 106.27 57.3952 107.031 47.1399Z" fill="#3F2E31"/>
<path d="M81.838 53.4263C81.2222 61.7202 77.9896 68.8153 71.9899 70.7333C70.5707 71.1871 67.5731 70.9655 66.0511 70.8438C58.0938 70.2075 52.2604 61.3779 53.0219 51.1221C53.7835 40.8666 60.8517 33.0683 68.8091 33.7048C76.7662 34.3411 82.5996 43.1708 81.838 53.4263Z" fill="#3F2E31"/>
<path d="M85.8165 53.4314C86.5778 43.1762 80.7444 34.347 72.7873 33.7109C64.8302 33.0748 57.7626 40.8727 57.0014 51.128C56.2402 61.3832 62.0735 70.2124 70.0306 70.8485C77.9877 71.4846 85.0553 63.6867 85.8165 53.4314Z" fill="#56494B"/>
<path d="M81.3052 52.7976C81.2199 53.9439 81.0026 55.037 80.6763 56.0563C80.4472 56.7746 80.1614 57.4543 79.8284 58.0906C78.8473 59.9643 77.4556 61.4478 75.8408 62.3272C75.3046 62.6215 74.7447 62.8486 74.1664 63.0007C73.4244 63.1962 72.6539 63.2705 71.8695 63.2078C70.9169 63.1317 70.0161 62.8586 69.1866 62.4238C68.6663 62.1498 68.1728 61.81 67.7143 61.4136C66.3445 60.2332 65.2764 58.5442 64.6518 56.5651C64.4492 55.9172 64.2951 55.2419 64.191 54.5396C64.0431 53.5419 64.0024 52.4932 64.082 51.4203C64.1646 50.3079 64.3709 49.245 64.6822 48.2527C64.8928 47.5783 65.1513 46.9389 65.4509 46.3368C66.3677 44.4977 67.678 43.0161 69.2089 42.0846C69.7201 41.7713 70.2551 41.5224 70.8094 41.3401C71.6746 41.0551 72.587 40.9355 73.5177 41.0098C74.3175 41.0739 75.0806 41.2765 75.7954 41.5972C76.3398 41.8419 76.8572 42.158 77.3417 42.5312C78.7983 43.6647 79.9484 45.3488 80.6347 47.3528C80.8679 48.0316 81.0476 48.7485 81.168 49.4946C81.3383 50.548 81.39 51.6572 81.3052 52.7976Z" fill="#CCBCBE"/>
<path d="M75.7965 41.5964C74.9394 44.7631 73.5667 49.4526 72.8613 49.8664C72.806 49.8989 72.7512 49.8973 72.6944 49.8645C72.0154 49.476 71.2568 44.6558 70.8105 41.3396C71.6757 41.0546 72.5881 40.935 73.5188 41.0094C74.3186 41.0732 75.0819 41.2757 75.7965 41.5964Z" fill="#F9F4F4"/>
<path d="M74.1664 62.9996C73.4243 63.1951 72.6538 63.2694 71.8695 63.2067C70.9168 63.1305 70.0161 62.8574 69.1865 62.4227C70.0456 59.259 71.3904 54.6808 72.0888 54.2719C72.1027 54.2644 72.1138 54.2598 72.1275 54.2552C72.1881 54.2373 72.2481 54.2591 72.3079 54.3121C72.9882 54.9191 73.7338 59.7665 74.1664 62.9996Z" fill="#F9F4F4"/>
<path d="M79.8284 58.0895C78.8473 59.9632 77.4556 61.4466 75.8408 62.3261C74.7946 59.5709 73.3152 55.427 73.3707 54.1481C73.3749 54.0606 73.3872 53.9851 73.4047 53.927C73.4564 53.764 73.6074 53.7138 73.8326 53.7601C74.9506 53.977 77.9021 56.414 79.8284 58.0895Z" fill="#F9F4F4"/>
<path d="M71.5444 50.2139C71.2555 51.1426 67.7814 48.3463 65.4512 46.3356C66.368 44.4966 67.6783 43.015 69.2092 42.0835C70.3205 45.0252 71.8268 49.3103 71.5444 50.2139Z" fill="#F9F4F4"/>
<path d="M81.306 52.7962C81.2208 53.9425 81.0035 55.0356 80.6772 56.0548C78.4686 55.1587 75.1694 53.7077 74.347 52.7637C74.264 52.6692 74.2049 52.5767 74.176 52.4922C74.1185 52.3203 74.2199 52.1387 74.4405 51.9495C75.4364 51.0886 78.8739 50.0886 81.1688 49.4932C81.3391 50.5466 81.3908 51.6557 81.306 52.7962Z" fill="#F9F4F4"/>
<path d="M64.191 54.5384C64.0431 53.5407 64.0024 52.492 64.082 51.4191C64.1646 50.3067 64.3709 49.2438 64.6822 48.2515C67.1071 49.2528 70.4841 50.7835 70.7716 51.6478C71.0719 52.5445 66.9986 53.7911 64.191 54.5384Z" fill="#F9F4F4"/>
<path d="M80.6351 47.3518C78.4899 48.7696 75.2305 50.8093 74.1704 50.8465C74.08 50.8504 74.0062 50.839 73.9509 50.8118C73.8363 50.7573 73.7998 50.5959 73.8249 50.3485C73.9605 48.9967 75.9479 45.1129 77.3421 42.5303C78.7987 43.664 79.9488 45.3479 80.6351 47.3518Z" fill="#F9F4F4"/>
<path d="M67.7139 61.4124C66.3441 60.2319 65.276 58.5429 64.6514 56.5639C66.9758 55.0413 70.308 52.9991 70.9979 53.3289C71.7196 53.6756 69.3591 58.3483 67.7139 61.4124Z" fill="#F9F4F4"/>
<path d="M74.4322 52.2468C74.3405 53.4846 73.4872 54.4256 72.5269 54.349C71.5664 54.2721 70.8624 53.2064 70.9544 51.9688C71.0463 50.7311 71.8994 49.7898 72.8597 49.8667C73.8202 49.9433 74.5242 51.009 74.4322 52.2468Z" fill="black"/>
<path d="M32.383 50.446C31.7671 58.7399 28.5346 65.835 22.5349 67.753C21.1156 68.2068 18.1183 67.9853 16.5961 67.8636C8.63852 67.2273 2.80511 58.3976 3.56688 48.1418C4.32842 37.8861 11.3964 30.088 19.354 30.7243C27.3111 31.3609 33.1445 40.1905 32.383 50.446Z" fill="#2D1C20"/>
<path d="M36.3712 50.446C35.6097 60.7018 28.5417 68.4999 20.5843 67.8636C12.6268 67.2273 6.79358 58.3976 7.55512 48.1418C8.31666 37.8861 15.3847 30.088 23.3423 30.7243C31.2996 31.3609 37.133 40.1905 36.3712 50.446Z" fill="#3F2E31"/>
<path d="M142.769 47.7269C141.996 55.429 139.335 62.0035 134.826 63.7536C133.76 64.1677 131.552 63.9461 130.432 63.8249C124.574 63.1916 120.6 54.9576 121.556 45.4336C122.512 35.9096 128.036 28.7023 133.894 29.3356C139.752 29.9687 143.725 38.2026 142.769 47.7269Z" fill="#3F2E31"/>
<path d="M145.718 47.7479C144.762 57.2719 139.238 64.4792 133.38 63.8459C127.522 63.2126 123.548 54.9786 124.504 45.4546C125.46 35.9306 130.984 28.7233 136.842 29.3566C142.7 29.9899 146.674 38.2241 145.718 47.7479Z" fill="#56494B"/>
<path d="M142.399 47.1402C142.292 48.2045 142.089 49.2191 141.809 50.1643C141.612 50.8304 141.375 51.4604 141.104 52.0498C140.307 53.7853 139.221 55.1564 137.994 55.9648C137.586 56.2353 137.164 56.4434 136.73 56.5816C136.174 56.7594 135.602 56.8245 135.025 56.762C134.323 56.6861 133.668 56.4276 133.071 56.0193C132.697 55.7622 132.345 55.4439 132.022 55.0732C131.054 53.9692 130.329 52.3947 129.944 50.5524C129.819 49.9495 129.73 49.3211 129.681 48.6681C129.61 47.7403 129.62 46.7659 129.72 45.7696C129.824 44.7364 130.017 43.7501 130.285 42.83C130.466 42.2046 130.682 41.612 130.926 41.0541C131.675 39.3505 132.7 37.9808 133.867 37.1236C134.257 36.8354 134.662 36.6069 135.079 36.4404C135.73 36.1803 136.409 36.074 137.094 36.148C137.683 36.2117 138.239 36.404 138.755 36.7056C139.148 36.9358 139.519 37.2323 139.862 37.5814C140.896 38.6422 141.681 40.2128 142.112 42.0783C142.258 42.7102 142.364 43.3772 142.424 44.0711C142.509 45.0504 142.505 46.081 142.399 47.1402Z" fill="#CCBCBE"/>
<path d="M138.756 36.7056C138.001 39.6431 136.806 43.9926 136.269 44.3732C136.227 44.4029 136.186 44.4013 136.146 44.3704C135.659 44.0058 135.283 39.5238 135.08 36.4404C135.731 36.1803 136.41 36.074 137.095 36.148C137.683 36.2117 138.24 36.404 138.756 36.7056Z" fill="#F9F4F4"/>
<path d="M136.73 56.5824C136.174 56.7603 135.602 56.8254 135.024 56.7629C134.323 56.687 133.668 56.4285 133.071 56.0202C133.828 53.0855 134.997 48.8392 135.529 48.4632C135.54 48.4565 135.548 48.452 135.558 48.4479C135.604 48.4316 135.647 48.452 135.689 48.5017C136.169 49.0691 136.535 53.5767 136.73 56.5824Z" fill="#F9F4F4"/>
<path d="M141.105 52.0497C140.308 53.7851 139.223 55.1562 137.995 55.9646C137.328 53.3994 136.393 49.5416 136.483 48.3537C136.489 48.2724 136.501 48.2023 136.516 48.1484C136.56 47.9972 136.674 47.9513 136.839 47.9956C137.657 48.2032 139.745 50.483 141.105 52.0497Z" fill="#F9F4F4"/>
<path d="M135.281 44.6899C135.032 45.5512 132.571 42.9349 130.926 41.0545C131.674 39.3509 132.699 37.9812 133.867 37.124C134.575 39.863 135.525 43.8517 135.281 44.6899Z" fill="#F9F4F4"/>
<path d="M142.399 47.1397C142.292 48.204 142.09 49.2186 141.81 50.1638C140.211 49.3196 137.828 47.9541 137.256 47.0728C137.199 46.9848 137.158 46.8984 137.14 46.8197C137.104 46.6599 137.186 46.4915 137.357 46.3169C138.126 45.5224 140.705 44.6114 142.425 44.0703C142.51 45.0499 142.505 46.0805 142.399 47.1397Z" fill="#F9F4F4"/>
<path d="M129.681 48.6681C129.61 47.7404 129.62 46.7659 129.72 45.7697C129.824 44.7365 130.017 43.7502 130.285 42.8301C132.039 43.7732 134.477 45.2132 134.656 46.0177C134.844 46.8523 131.785 47.9886 129.681 48.6681Z" fill="#F9F4F4"/>
<path d="M142.112 42.0785C140.472 43.3843 137.984 45.2621 137.199 45.2909C137.132 45.2942 137.078 45.283 137.038 45.2577C136.956 45.2066 136.935 45.0561 136.963 44.8264C137.115 43.5715 138.733 39.9735 139.863 37.5815C140.896 38.6424 141.681 40.2129 142.112 42.0785Z" fill="#F9F4F4"/>
<path d="M132.022 55.0733C131.055 53.9693 130.33 52.3948 129.944 50.5525C131.721 49.1503 134.262 47.2706 134.76 47.5809C135.28 47.9069 133.356 52.2355 132.022 55.0733Z" fill="#F9F4F4"/>
<path d="M137.339 46.5935C137.224 47.7428 136.557 48.6127 135.85 48.5363C135.143 48.4599 134.664 47.466 134.779 46.3167C134.894 45.1671 135.561 44.2974 136.268 44.3738C136.975 44.4502 137.455 45.4439 137.339 46.5935Z" fill="black"/>
<path d="M146.81 40.2709C146.172 46.5617 145.694 46.7278 145.694 46.7278C146.014 36.1337 142.661 30.5044 136.441 30.8344C135.161 30.9022 134.254 31.0724 133.277 31.8632C133.023 32.0708 132.776 32.2891 132.539 32.5229C129.156 35.8257 127.423 41.6361 126.35 46.16C126.182 46.8655 126.032 47.5383 125.893 48.1653C125.441 50.2078 125.119 51.7695 124.794 52.3571C124.26 53.3269 119.536 54.24 113.662 54.9717C113.432 55.0003 113.198 55.0286 112.965 55.057C104.913 56.027 94.9823 56.6603 90.6547 56.6603C89.2654 56.6603 88.1687 56.6494 87.3057 56.6122C87.0511 56.6013 86.8152 56.5883 86.6006 56.5709C86.1186 56.5358 85.7292 56.4857 85.4134 56.4179C83.7001 56.0533 84.1611 55.1596 83.9548 53.0189C83.6475 49.8385 83.0476 32.9117 71.4094 34.2224C70.9316 34.2749 70.4328 34.3601 69.917 34.4781C61.6613 36.3589 60.5773 44.9675 59.8091 51.123C59.746 51.6276 59.6849 52.1169 59.6217 52.5844C59.3523 54.5809 59.0554 56.1821 58.4303 56.9924C58.1399 57.3681 57.8326 57.6893 57.4915 57.9622C56.6096 58.6677 55.4961 59.0523 53.8351 59.2532C50.4842 59.6596 44.9018 59.3101 34.4992 59.3101H33.8972C32.7396 59.308 31.6007 59.3056 30.4852 59.2968C21.5727 59.2401 14.0772 58.9735 9.09064 58.3533C7.32878 58.1326 5.88067 57.8684 4.79441 57.5516C3.60925 57.2086 2.85353 56.8047 2.59259 56.3305C2.10004 55.435 1.55915 54.2423 1.10017 52.8682C1.03706 52.6847 0.977982 52.499 0.921364 52.3113C0.687732 51.551 0.483643 50.7428 0.325651 49.904C0.0562138 48.4647 -0.0722363 46.9333 0.0414465 45.4043C0.0792662 44.8843 0.140357 44.369 0.220472 43.8644C0.795152 40.1968 2.27482 37.1255 2.27482 37.1255L2.28109 37.0754C2.3527 36.597 2.9464 32.8246 4.59032 29.1876C4.6682 29.0107 4.75234 28.8337 4.83671 28.6568C4.9251 28.4756 5.01551 28.2943 5.10816 28.115C5.71641 26.9443 6.44058 25.8259 7.30148 24.8777C7.44022 24.7226 7.58569 24.5742 7.73294 24.4299C7.92651 24.2377 8.12859 24.0542 8.33693 23.8816C13.1217 19.9082 36.0948 19.2461 36.0948 19.2461C36.0948 19.2461 47.9012 2.36084 69.9168 0.705034C91.93 -0.95077 115.223 0.372944 127.348 4.01432C131.212 5.17431 140.63 15.631 143.326 20.0584C143.608 20.5215 143.819 20.9191 143.939 21.2337C144.686 23.1733 145.762 27.2146 146.397 31.4937C146.846 34.5192 147.073 37.6648 146.81 40.2709Z" fill="#008D91"/>
<path d="M59.8081 51.1233C59.745 51.628 59.6839 52.1173 59.6208 52.5848C58.3072 53.9521 56.5286 54.732 54.7311 55.182C52.4094 55.7631 49.9594 56.0448 47.5723 56.0754C45.2632 56.104 42.9605 55.8026 40.7607 55.0664C38.8936 54.4394 37.115 53.5548 35.3889 52.5959C31.9201 50.667 28.5964 48.3517 24.837 47.0521C22.8731 46.3728 20.8313 46.0254 18.7559 46.1239C16.5057 46.2309 14.2786 46.825 12.199 47.7095C11.157 48.1508 10.1467 48.6643 9.16581 49.2344C8.19122 49.8001 7.26296 50.4401 6.31367 51.0453C4.73285 52.0502 2.97323 53.0005 1.09971 52.8693C1.0366 52.6858 0.977516 52.5 0.920898 52.3124C1.26821 52.3124 1.61553 52.2796 1.96486 52.2206C4.09932 51.8667 5.89698 50.4754 7.69219 49.3242C9.5825 48.1141 11.597 47.1027 13.7124 46.3972C15.8174 45.6982 18.038 45.318 20.2526 45.423C22.2165 45.5147 24.1404 46.0041 25.9716 46.7293C29.6151 48.1754 32.8758 50.4404 36.3237 52.2952C38.0497 53.2234 39.8326 54.0513 41.7102 54.5975C43.9604 55.2505 46.3032 55.421 48.6312 55.3009C49.8522 55.2378 51.0687 55.0936 52.2769 54.9034C53.4242 54.7199 54.5734 54.5014 55.6784 54.1256C57.3073 53.5741 58.8526 52.602 59.8081 51.1233Z" fill="#1F2626"/>
<path d="M114.374 43.2048C114.351 46.2739 114.201 49.3405 113.923 52.3967C113.846 53.2553 113.759 54.1136 113.661 54.9719C113.431 55.0005 113.197 55.0288 112.964 55.0571C113.107 53.8142 113.229 52.5692 113.33 51.324C113.818 45.2777 113.81 39.1897 113.317 33.1434C113.075 30.1509 112.72 27.1604 112.216 24.2006C111.836 21.9596 111.233 19.596 109.486 18.0714C109.32 17.9251 109.543 17.6585 109.718 17.7679C112.004 19.1877 112.56 22.2195 112.964 24.7294C113.949 30.8301 114.423 37.0186 114.374 43.2048Z" fill="#1F2626"/>
<path d="M133.277 31.8629C133.022 32.0705 132.776 32.2888 132.538 32.5227C132.528 31.5464 132.519 30.5678 132.513 29.5912C132.481 25.3886 132.62 21.1137 131.942 16.9546C131.625 15.015 131.166 12.9988 130.227 11.271C129.797 10.4759 129.259 9.74643 128.57 9.17607C127.92 8.6366 127.137 8.26317 126.347 8.00517C126.162 7.94409 126.211 7.67099 126.398 7.66657C128.414 7.62942 130.081 9.45776 130.964 11.1746C131.894 12.9921 132.37 15.0717 132.683 17.0898C133.014 19.2305 133.132 21.4019 133.182 23.5688C133.235 25.7794 133.241 27.9944 133.262 30.2071C133.266 30.7598 133.273 31.3104 133.277 31.8629Z" fill="#1F2626"/>
<path d="M126.623 7.8456C124.918 4.68703 122.014 4.36377 116.739 3.77855C115.682 3.66057 114.484 3.52727 113.188 3.35914C105.951 2.41976 99.457 2.61205 95.8198 3.87027C93.7064 4.60203 90.0775 9.03415 88.6146 10.9062C87.4044 12.457 83.9773 17.0856 84.1206 17.9748C84.1837 18.3636 84.253 18.7983 92.9193 18.7983C93.6623 18.7983 94.4684 18.7939 95.3443 18.7874C100.689 18.7458 106.086 18.5821 106.138 18.58H106.145C106.685 18.5538 119.439 17.9116 121.361 17.4112C122.702 17.064 125.483 14.7245 126.619 11.9918C127.259 10.4582 127.259 9.02301 126.623 7.8456ZM126.04 11.7338C125.032 14.1562 122.413 16.463 121.207 16.7753C119.355 17.2558 106.378 17.9112 106.117 17.9242C98.5182 18.158 86.2801 18.3153 84.7731 17.7756C85.0068 17.07 86.7055 14.3745 89.2146 11.1788C92.1404 7.45429 94.6832 4.9534 96.0199 4.49033C99.5729 3.26276 105.961 3.08139 113.11 4.00961C114.411 4.17775 115.612 4.31105 116.673 4.42902C121.902 5.01006 124.527 5.30268 126.072 8.16422C126.617 9.17373 126.604 10.373 126.04 11.7338Z" fill="black"/>
<path d="M126.04 11.7342C125.278 13.5626 123.601 15.3254 122.304 16.2144C121.883 16.5026 121.502 16.6993 121.207 16.7757C121.077 16.8106 120.89 16.8456 120.654 16.8807C119.307 17.0837 116.398 17.3066 113.533 17.4945C113.242 17.5142 112.954 17.5316 112.668 17.549C112.078 17.5883 111.499 17.6234 110.944 17.6561C110.413 17.6889 109.906 17.7172 109.431 17.7458C109.348 17.7502 109.268 17.7543 109.188 17.759C107.824 17.8375 106.768 17.8923 106.332 17.9141C106.208 17.9206 106.134 17.925 106.117 17.925C102.249 18.043 97.1799 18.1436 92.9342 18.1412C92.6395 18.1412 92.3512 18.1412 92.065 18.1392C91.6609 18.1371 91.2652 18.1347 90.8819 18.1306C90.6798 18.1285 90.482 18.1261 90.2884 18.1238C87.4636 18.0867 85.3459 17.9819 84.7734 17.7764C85.0071 17.0709 86.7058 14.3754 89.2149 11.1797C92.1407 7.45515 94.6835 4.95426 96.0202 4.49119C96.1737 4.4387 96.3337 4.38622 96.498 4.34047C96.6537 4.29008 96.8158 4.24642 96.982 4.20276C97.3544 4.10429 97.7483 4.01698 98.165 3.93848C98.4637 3.8795 98.7752 3.82701 99.0975 3.78126C100.234 3.61081 101.505 3.50375 102.878 3.45358C104.332 3.40133 105.903 3.41643 107.557 3.50166C109.327 3.5913 111.19 3.76152 113.11 4.0107C113.863 4.10917 114.583 4.19416 115.261 4.27289C115.372 4.28381 115.482 4.29704 115.589 4.31005C115.966 4.35162 116.326 4.39087 116.673 4.43034C117.012 4.4675 117.341 4.50466 117.656 4.54182C117.877 4.56574 118.094 4.58989 118.305 4.61381C118.399 4.62705 118.494 4.63773 118.589 4.64888C119.21 4.72528 119.784 4.80168 120.319 4.88691C123.222 5.34766 124.937 6.06432 126.072 8.16554C126.617 9.17412 126.604 10.3734 126.04 11.7342Z" fill="#56494B"/>
<path d="M109.317 26.2505C109.341 27.1645 107.503 27.9567 105.213 28.0201C102.923 28.0835 101.048 27.3937 101.025 26.4797C101.001 25.5656 102.838 24.7735 105.129 24.7101C107.418 24.6469 109.294 25.3364 109.317 26.2505Z" fill="#1F2626"/>
<path d="M129.419 24.7607C129.442 25.6748 127.605 26.4669 125.315 26.5303C123.025 26.5935 121.15 25.904 121.126 24.9899C121.103 24.0759 122.94 23.2837 125.23 23.2203C127.52 23.1572 129.395 23.8469 129.419 24.7607Z" fill="#1F2626"/>
<path d="M94.4821 19.7425C94.4821 19.7425 91.6105 24.0469 90.8129 22.8881C90.0153 21.7293 92.4083 15.2726 95.1203 13.1205C97.8324 10.9682 101.502 10.9682 103.576 12.4582C105.649 13.9482 105.011 18.2526 102.459 19.4114C99.9062 20.5704 94.4821 19.7425 94.4821 19.7425Z" fill="#CCBCBE"/>
<path d="M5.62238 33.4835C5.1446 36.7951 2.27344 37.1249 2.27344 37.1249L2.27971 37.0747C2.35132 36.5963 2.94502 32.824 4.58894 29.187C5.24329 30.2288 5.87481 31.7425 5.62238 33.4835Z" fill="#F9F4F4"/>
<path d="M37.0511 29.6764C37.0511 29.6764 36.2535 37.7887 41.837 38.7817C47.4206 39.775 54.5994 37.4573 55.3972 28.5176L37.0511 29.6764Z" fill="#F9F4F4"/>
<path d="M33.6126 36.33C33.5473 36.7232 33.4654 37.1075 33.3642 37.4726C33.1769 38.1584 32.9243 38.781 32.5855 39.2789C31.672 40.6223 30.1753 41.4742 28.1841 41.9985C27.9337 42.0663 27.6747 42.1274 27.4073 42.182C26.9844 42.2716 26.5401 42.3478 26.0769 42.4135C25.8117 42.4507 25.54 42.4855 25.2643 42.5162C23.6898 42.6887 21.9194 42.7542 19.981 42.7542H19.962C19.5956 42.7542 19.2358 42.7521 18.882 42.7456C18.2632 42.7389 17.6633 42.7217 17.0823 42.6952C17.0338 42.6931 16.9834 42.6908 16.9348 42.6866C16.6802 42.6757 16.4298 42.6604 16.1854 42.643C16.095 42.6386 16.0046 42.6321 15.916 42.6232C15.5939 42.6014 15.2804 42.5731 14.9752 42.5403C14.6551 42.5097 14.3457 42.4725 14.0447 42.4289C12.9058 42.2716 11.8914 42.0422 11.0305 41.7233C10.7758 41.6295 10.5337 41.5269 10.3063 41.4154C9.95476 41.2473 9.63475 41.0571 9.35278 40.843C9.15697 40.6987 8.97794 40.5415 8.81592 40.3711C8.5212 40.0675 8.28533 39.7245 8.11279 39.3423C8.07698 39.268 8.04543 39.1916 8.01589 39.1131C7.95703 38.9579 7.90444 38.7919 7.85588 38.6173C7.64977 37.8637 7.53184 36.9417 7.47276 35.9696C7.45374 35.6596 7.44121 35.347 7.43271 35.0305C7.38862 33.331 7.48753 31.6053 7.57794 30.4718C7.64105 29.681 7.69789 29.1787 7.69789 29.1787C7.6999 29.1831 7.70416 29.1852 7.70841 29.1896C7.87468 29.3907 8.39252 29.55 9.17353 29.6745C9.43871 29.7161 9.73545 29.7553 10.0597 29.7902C10.8891 29.8775 11.8972 29.943 13.0255 29.9866C13.3791 29.9999 13.7455 30.0129 14.1201 30.0238C15.1325 30.05 16.2165 30.0654 17.3363 30.0675C17.7152 30.0695 18.0963 30.0695 18.4814 30.0695H18.5298C18.8055 30.0675 19.0812 30.0675 19.3591 30.0651C19.6558 30.063 19.9546 30.0607 20.2516 30.0586C20.4494 30.0563 20.6452 30.0542 20.843 30.0519C21.0346 30.0498 21.2282 30.0475 21.4197 30.0433C21.5081 30.0433 21.5965 30.0412 21.6849 30.0412C22.1079 30.0345 22.529 30.028 22.9457 30.0194C23.3436 30.0129 23.7393 30.0041 24.1309 29.9955C25.9896 29.9539 27.7492 29.9014 29.2374 29.8512C29.5279 29.8427 29.8078 29.8315 30.0753 29.8229C30.0943 29.8208 30.1131 29.8208 30.1299 29.8208C30.5678 29.8055 30.974 29.7902 31.3444 29.7749C32.2852 29.7377 32.9925 29.707 33.3757 29.6917C33.586 29.6808 33.6999 29.6766 33.6999 29.6766C33.6999 29.6766 33.7315 29.9388 33.7653 30.3845C33.8613 31.5856 33.9875 34.1064 33.6126 36.33Z" fill="#56494B"/>
<path d="M21.4209 30.043C21.2904 30.161 21.162 30.2768 21.0315 30.3946C20.6967 30.6916 20.3642 30.991 20.0296 31.2924C19.8403 31.4605 19.6528 31.6289 19.4632 31.7991C17.8636 33.2322 16.2658 34.6651 14.6682 36.0982C14.405 36.3318 14.1441 36.5677 13.8809 36.8014C13.6893 36.9739 13.4957 37.1465 13.3019 37.3169C13.041 37.5529 12.7799 37.7865 12.5169 38.0203C12.3254 38.1929 12.1318 38.3654 11.9382 38.538C11.0773 39.3069 10.2164 40.0758 9.35326 40.8424C9.15745 40.6982 8.97843 40.541 8.81641 40.3705C8.9321 40.2655 9.05004 40.1587 9.16574 40.0537C9.9698 39.3264 10.7739 38.6011 11.5799 37.8738C11.7715 37.7013 11.963 37.5266 12.1566 37.3562C12.4178 37.1181 12.6787 36.8822 12.9396 36.6483C13.1312 36.4737 13.3228 36.3009 13.5141 36.1286C15.3706 34.453 17.2314 32.7777 19.0902 31.1045C19.2775 30.9341 19.4648 30.7659 19.6521 30.5978C19.8519 30.4185 20.052 30.2374 20.252 30.0583C20.3845 29.9383 20.5195 29.818 20.652 29.6958C20.7173 29.8138 20.7804 29.9338 20.8435 30.0518C21.0357 30.0493 21.2293 30.0472 21.4209 30.043Z" fill="#3F2E31"/>
<path d="M33.7658 30.3836C33.008 31.065 32.2503 31.7445 31.4903 32.4238C31.2988 32.5984 31.1052 32.7709 30.9114 32.9435C29.2001 34.4813 27.4846 36.0168 25.7713 37.5547C25.5777 37.7293 25.3819 37.9042 25.1861 38.0767C24.8578 38.3717 24.5293 38.6666 24.201 38.9615C24.0074 39.1341 23.8136 39.3087 23.62 39.4813C23.4012 39.6777 23.1823 39.8744 22.9635 40.0709C21.9636 40.9666 20.9637 41.86 19.9618 42.7534C19.5955 42.7534 19.2356 42.7513 18.8818 42.7448C20.3364 41.4297 21.7951 40.1148 23.2517 38.7997C23.4455 38.6271 23.6368 38.4525 23.8306 38.2799C24.1589 37.9829 24.4874 37.688 24.8157 37.393C25.0093 37.2184 25.2031 37.0435 25.3967 36.8687C26.6069 35.7765 27.8194 34.6866 29.0298 33.5965C29.5309 33.1444 30.0319 32.6943 30.535 32.2445C30.7266 32.0698 30.9181 31.8973 31.1117 31.7268C31.8652 31.0455 32.6209 30.366 33.3766 29.6909C33.587 29.68 33.7009 29.6758 33.7009 29.6758C33.7009 29.6758 33.7322 29.938 33.7658 30.3836Z" fill="#3F2E31"/>
<path d="M24.1328 29.9951C23.5792 30.4933 23.0258 30.9891 22.4721 31.487C22.2828 31.6574 22.091 31.8277 21.8995 32.0004C21.5689 32.2975 21.2364 32.5947 20.9038 32.8938C20.7145 33.062 20.525 33.2324 20.3334 33.4026C18.8873 34.7003 17.4412 35.9955 15.9951 37.2909C15.5804 37.6622 15.1658 38.0335 14.7511 38.4028C14.5575 38.5774 14.3639 38.75 14.1701 38.9228C13.9112 39.1566 13.6503 39.3879 13.3891 39.6218C13.1956 39.7943 13.002 39.9669 12.8062 40.1417C12.2147 40.6682 11.6232 41.1968 11.0318 41.7232C10.7771 41.6294 10.535 41.5268 10.3076 41.4153C10.3687 41.3584 10.4318 41.3038 10.4929 41.2472C11.1455 40.6573 11.798 40.0677 12.4504 39.4822C12.6419 39.3052 12.8355 39.1304 13.0293 38.9581C13.2882 38.7221 13.5491 38.4885 13.8103 38.2546C14.0019 38.08 14.1934 37.9051 14.387 37.7326C16.2435 36.057 18.1 34.3838 19.9586 32.7106C20.1481 32.5401 20.3354 32.372 20.525 32.1995C20.8575 31.9024 21.1901 31.601 21.5226 31.3016C21.7016 31.14 21.8825 30.9781 22.0615 30.8167C22.072 30.8079 22.0825 30.797 22.093 30.7884C22.3772 30.5327 22.6612 30.2773 22.9477 30.0195C23.3455 30.0125 23.7412 30.0037 24.1328 29.9951Z" fill="#3F2E31"/>
<path d="M31.3455 29.7754L30.4741 30.5552C30.2826 30.7278 30.091 30.9003 29.8995 31.0729C28.1859 32.6107 26.4706 34.1485 24.7551 35.6861C24.5615 35.8587 24.3677 36.0333 24.1741 36.2059C23.8436 36.5008 23.5153 36.7957 23.1868 37.0927C22.9932 37.2653 22.7996 37.4378 22.6079 37.6104C21.6796 38.4427 20.7513 39.2748 19.8231 40.1071C18.8928 40.9394 17.9623 41.7715 17.0318 42.6017C17.0003 42.63 16.9665 42.6586 16.9349 42.6869C16.6802 42.676 16.4298 42.6607 16.1854 42.6433C16.095 42.6389 16.0046 42.6324 15.916 42.6235C15.9729 42.5711 16.0297 42.5186 16.0888 42.4663C16.2823 42.2917 16.4762 42.1145 16.6717 41.9399C18.524 40.2666 20.3785 38.5957 22.235 36.9225C22.4266 36.75 22.6181 36.5774 22.8117 36.4049C23.14 36.1079 23.4685 35.8106 23.7991 35.5157C23.9926 35.341 24.1842 35.1685 24.378 34.9936C24.8811 34.5394 25.3864 34.0872 25.8894 33.6327C27.0977 32.545 28.3081 31.457 29.5183 30.3692C29.7099 30.1967 29.9015 30.0262 30.093 29.8537C30.1056 29.8427 30.1183 29.8297 30.1308 29.8209C30.569 29.806 30.9752 29.7907 31.3455 29.7754Z" fill="#3F2E31"/>
<path d="M26.0775 42.4133C25.8123 42.4505 25.5406 42.4853 25.2649 42.516C24.7155 41.5046 24.1682 40.4933 23.621 39.4819C23.4988 39.2548 23.3746 39.0276 23.2527 38.8003C23.038 38.405 22.8232 38.0075 22.6086 37.6099C22.4844 37.3804 22.3602 37.1512 22.236 36.9218C21.6025 35.7488 20.9667 34.5758 20.3332 33.4028C20.2067 33.1713 20.0827 32.942 19.9583 32.7103C19.8426 32.4962 19.7267 32.2844 19.611 32.0702C19.5627 31.9806 19.5141 31.8889 19.4635 31.7992C19.3396 31.5677 19.2151 31.3362 19.0911 31.1046C18.9038 30.7595 18.7165 30.4144 18.5312 30.0693C18.807 30.0673 19.0827 30.0673 19.3606 30.0649C19.4595 30.2419 19.5564 30.4189 19.6531 30.5979C19.7793 30.8294 19.9057 31.061 20.0299 31.2925C20.1962 31.5939 20.3605 31.8954 20.5247 32.1989C20.6509 32.4304 20.7774 32.662 20.9036 32.8935C21.5394 34.0621 22.1771 35.2328 22.8127 36.4037C22.9369 36.6329 23.0631 36.8623 23.1873 37.0918C23.4021 37.487 23.6168 37.8825 23.8314 38.2801C23.9556 38.5072 24.0798 38.7343 24.202 38.9617C24.3071 39.1517 24.4103 39.3416 24.5135 39.5318C25.0356 40.4912 25.5576 41.4521 26.0775 42.4133Z" fill="#3F2E31"/>
<path d="M28.1849 41.9988C27.9345 42.0666 27.6755 42.1277 27.4081 42.1823C26.6672 40.8149 25.9284 39.4452 25.1875 38.0778C25.0633 37.8486 24.9411 37.6213 24.8169 37.3941C24.6023 36.9966 24.3875 36.6013 24.1749 36.2058C24.0487 35.9743 23.9244 35.7451 23.8002 35.5156C23.1667 34.3426 22.5332 33.1717 21.8994 32.0011C21.7732 31.7672 21.6468 31.5336 21.5226 31.302C21.3583 30.9983 21.1943 30.6968 21.032 30.3954C20.9689 30.2798 20.9078 30.1662 20.8447 30.0524C21.0363 30.0503 21.2299 30.048 21.4214 30.0438C21.4803 29.9913 21.5414 29.9368 21.6004 29.8843C21.63 29.9368 21.6573 29.9892 21.6868 30.0417C21.8215 30.2907 21.9563 30.5399 22.093 30.7888C22.2192 31.0203 22.3457 31.254 22.4719 31.4878C23.1076 32.6564 23.7432 33.8252 24.379 34.9938C24.5052 35.2253 24.6294 35.4548 24.7558 35.6863C24.8737 35.9025 24.9894 36.1166 25.1074 36.3329C25.2043 36.5121 25.3032 36.6912 25.3978 36.8702C25.5241 37.0974 25.6483 37.3268 25.7725 37.5562C26.5767 39.0367 27.381 40.5176 28.1849 41.9988Z" fill="#3F2E31"/>
<path d="M33.6124 36.3299C33.547 36.723 33.4651 37.1074 33.364 37.4724C32.5452 35.9629 31.7286 34.4537 30.9118 32.9442C30.7855 32.7126 30.6591 32.4788 30.5349 32.2452C30.3223 31.8541 30.1097 31.4632 29.8991 31.0721C29.7729 30.8383 29.6445 30.6047 29.5182 30.3687C29.4256 30.1962 29.3309 30.0236 29.2383 29.8511C29.5288 29.8425 29.8087 29.8313 30.0761 29.8228C30.0824 29.8337 30.0867 29.8425 30.0929 29.8534C30.2191 30.0873 30.3476 30.3209 30.4738 30.5547C30.6864 30.9458 30.899 31.3367 31.1116 31.7277C31.2378 31.9593 31.3642 32.1931 31.4905 32.4247C31.8105 33.0101 32.1282 33.5953 32.446 34.1808C32.8358 34.897 33.2252 35.6134 33.6124 36.3299Z" fill="#3F2E31"/>
<path d="M17.0812 42.6955C17.0326 42.6934 16.9823 42.6911 16.9337 42.6869C16.6791 42.676 16.4286 42.6607 16.1843 42.6433C16.1507 42.5843 16.1189 42.5253 16.0876 42.4663C15.4478 41.2868 14.8078 40.105 14.168 38.9232C14.0502 38.7004 13.9278 38.4775 13.8081 38.2548C13.6398 37.9424 13.4691 37.6301 13.3008 37.3177C13.1808 37.095 13.0609 36.8721 12.9387 36.6494C12.7429 36.2869 12.5471 35.9244 12.3515 35.5616C12.2293 35.3387 12.1094 35.1139 11.9874 34.8888C11.6296 34.2249 11.2695 33.563 10.9097 32.8989C10.8718 32.8245 10.8318 32.7526 10.7917 32.6782C10.7096 32.5254 10.6275 32.3747 10.5453 32.2217C10.0866 31.3743 9.62982 30.5243 9.17285 29.6748C9.43804 29.7164 9.73477 29.7556 10.059 29.7905C10.4106 30.4305 10.7599 31.0705 11.1095 31.7126C11.2314 31.9377 11.3559 32.1627 11.4778 32.3898C11.8379 33.0496 12.1978 33.7112 12.5576 34.3733C12.6798 34.5983 12.8038 34.8234 12.9239 35.0484C13.1218 35.4088 13.3176 35.7692 13.5132 36.1297C13.6353 36.3524 13.7573 36.5774 13.8795 36.8024C14.048 37.1125 14.2163 37.4227 14.3848 37.733C14.5068 37.9557 14.629 38.1784 14.7489 38.4037C15.0647 38.9826 15.3804 39.5613 15.6939 40.14C16.0202 40.7385 16.3465 41.3393 16.6705 41.9401C16.7905 42.1607 16.9107 42.3813 17.0304 42.6019C17.0476 42.6321 17.0644 42.6628 17.0812 42.6955Z" fill="#3F2E31"/>
<path d="M14.9764 42.5399C14.6564 42.5092 14.3469 42.4721 14.0459 42.4284C13.6332 41.666 13.2208 40.9038 12.8061 40.1414C12.6884 39.9229 12.5705 39.7022 12.4505 39.4819L11.9392 38.5383C11.8213 38.3177 11.7013 38.0971 11.5813 37.8744C11.3835 37.5095 11.1857 37.1447 10.9899 36.7801C10.8699 36.5595 10.75 36.3388 10.63 36.1161C10.2702 35.4499 9.91012 34.7838 9.54804 34.1173C9.42809 33.8946 9.30792 33.6719 9.18819 33.449C9.13762 33.3572 9.08928 33.2655 9.0387 33.1738C8.55242 32.2739 8.06614 31.374 7.58008 30.4718C7.64319 29.681 7.70002 29.1787 7.70002 29.1787C7.70204 29.1831 7.70629 29.1852 7.71054 29.1896C8.39264 30.439 9.07249 31.6884 9.75437 32.9381C9.87655 33.161 9.99651 33.3858 10.1187 33.6087C10.4808 34.2727 10.8406 34.9369 11.2027 35.5987C11.3227 35.8217 11.4448 36.0423 11.5648 36.265C11.7626 36.6298 11.9604 36.9923 12.1585 37.3572C12.2784 37.5778 12.4006 37.8007 12.5183 38.0211L13.0299 38.9582C13.1499 39.1788 13.2698 39.4015 13.3898 39.6221C13.5751 39.9607 13.7581 40.2972 13.9414 40.6358C14.286 41.2707 14.6311 41.9043 14.9764 42.5399Z" fill="#3F2E31"/>
<path d="M14.1219 30.0235C13.242 30.8121 12.3601 31.6006 11.4802 32.3892C11.4423 32.422 11.4065 32.457 11.3687 32.4898C11.2172 32.6252 11.0635 32.7626 10.912 32.8983C10.6488 33.1363 10.3836 33.3723 10.1184 33.6082C9.9291 33.7787 9.73956 33.9489 9.548 34.117C8.85762 34.7352 8.16724 35.3513 7.47462 35.9693C7.4556 35.6593 7.44307 35.3467 7.43457 35.0301C8.01753 34.5014 8.60273 33.9751 9.18792 33.4487C9.37523 33.2761 9.56478 33.108 9.7541 32.9375C10.0173 32.6974 10.2825 32.4591 10.5476 32.2211C10.7349 32.0506 10.9223 31.8825 11.1118 31.712C11.7496 31.1377 12.3874 30.5609 13.0272 29.9863C13.381 29.9993 13.7473 30.0126 14.1219 30.0235Z" fill="#3F2E31"/>
<path d="M18.4822 30.0695C16.7309 31.6356 14.9818 33.2041 13.2324 34.7724C13.1293 34.8641 13.0283 34.9558 12.9252 35.0476C12.7359 35.218 12.5443 35.3883 12.3527 35.561C12.0896 35.7947 11.8264 36.0306 11.5632 36.2642C11.3717 36.4368 11.1801 36.6072 10.9885 36.7798C10.0307 37.6339 9.07317 38.4881 8.11335 39.342C8.07755 39.2677 8.04599 39.1913 8.01645 39.1128C7.9576 38.9576 7.90501 38.7916 7.85645 38.617C8.78045 37.7802 9.70469 36.9458 10.6287 36.1158C10.818 35.9412 11.0098 35.7686 11.2014 35.5982C11.4623 35.3602 11.7255 35.1221 11.9886 34.8883C12.178 34.7136 12.3675 34.5432 12.5591 34.3727C14.1504 32.9354 15.7437 31.5002 17.3373 30.0674C17.716 30.0695 18.0971 30.0695 18.4822 30.0695Z" fill="#3F2E31"/>
<path d="M87.306 56.6056V56.6121C87.0513 56.6012 86.8154 56.5881 86.6008 56.5707C86.5943 56.433 86.588 56.2955 86.5818 56.1578C86.4996 54.371 86.3965 52.5864 86.2723 50.804C85.8261 44.4868 85.0894 38.2001 84.1128 31.9485C83.8686 30.3779 83.6097 28.8097 83.3255 27.2456C83.0961 25.9829 82.8372 24.7138 82.4225 23.5016C81.8163 23.7178 81.2058 23.9275 80.5955 24.1286C75.4532 25.8259 70.1613 26.988 64.8254 27.7874C59.504 28.5846 54.145 29.0542 48.7773 29.3535C43.3277 29.6571 37.8716 29.8013 32.4157 29.9629C26.703 30.1334 20.9691 30.4436 15.2521 30.2599C12.5642 30.1726 9.813 30.0219 7.17122 29.4801C6.41975 29.3273 5.56511 29.0716 4.83691 28.6566C4.92531 28.4755 5.01572 28.2941 5.10837 28.1148C6.60907 28.9973 8.63612 29.0869 10.2402 29.2595C12.9934 29.5565 15.7637 29.6485 18.5294 29.6461C24.1308 29.6417 29.7339 29.3795 35.331 29.2114C40.6356 29.0521 45.9397 28.8861 51.2358 28.5365C56.5129 28.187 61.7857 27.6585 67.0017 26.7519C72.1481 25.8541 77.2401 24.6047 82.1781 22.8462C81.77 21.8369 81.2226 20.9043 80.5362 20.107C79.9215 20.297 79.3027 20.4828 78.684 20.6618C73.7374 22.0949 68.7023 23.1936 63.6295 24.0236C58.5673 24.8515 53.4647 25.4172 48.3519 25.7972C43.1737 26.1817 37.9851 26.3782 32.7964 26.4655C27.6247 26.5507 22.4486 26.5354 17.2747 26.4788C16.0011 26.4634 14.7278 26.4481 13.4564 26.433C12.246 26.4177 11.0042 26.4767 9.80651 26.2605C8.84669 26.0879 7.9247 25.6641 7.30168 24.8778C7.44043 24.7226 7.58589 24.5742 7.73314 24.43C8.95389 25.9699 11.5156 25.7077 13.2649 25.7275C15.7908 25.7537 18.3166 25.78 20.8405 25.7953C25.8544 25.828 30.8662 25.8174 35.8781 25.6882C40.9005 25.5593 45.9207 25.3148 50.9263 24.8801C55.9044 24.4453 60.868 23.8206 65.7892 22.9338C70.5803 22.0687 75.3267 20.9503 79.9953 19.5327C79.2419 18.8096 78.3557 18.2397 77.3368 17.8813C77.1851 17.8291 77.2106 17.5713 77.3809 17.5887C80.2455 17.8639 82.1233 20.7057 83.0263 23.2788C83.5251 24.6987 83.8136 26.1841 84.083 27.665C84.3715 29.2465 84.6429 30.8301 84.8956 32.416C85.4071 35.6247 85.8281 38.8511 86.1859 42.0819C86.5417 45.3103 86.8279 48.5455 87.0426 51.787C87.148 53.3924 87.2343 54.9978 87.306 56.6056Z" fill="#1F2626"/>
<path d="M143.938 21.2339C143.818 20.9192 143.607 20.5219 143.325 20.0586C142.976 20.3556 142.662 20.7054 142.39 21.0939C141.569 22.2692 141.304 23.8135 141.34 25.2355C141.405 27.7956 142.609 30.6701 145.207 31.3517C145.594 31.4544 145.996 31.5045 146.396 31.4936C145.76 27.2146 144.685 23.1735 143.938 21.2339Z" fill="#FDBE57"/>
<path d="M47.7407 48.0518C47.7407 49.7889 45.7052 51.1971 43.1941 51.1971C40.683 51.1971 38.6475 49.7889 38.6475 48.0518C38.6475 46.3145 40.683 44.9062 43.1941 44.9062C45.7052 44.9063 47.7407 46.3145 47.7407 48.0518Z" fill="#FDBE57"/>
<path d="M3.5504 46.8939C3.5504 48.3115 2.1927 49.5128 0.325657 49.9039C0.0562196 48.4645 -0.0722374 46.9332 0.0414454 45.4042C0.0792651 44.8842 0.140363 44.3689 0.220478 43.8643C2.14011 44.2312 3.5504 45.4478 3.5504 46.8939Z" fill="#FDBE57"/>
<path d="M91.2773 49.12L110.472 47.3174C110.472 47.3174 103.164 52.4204 91.2773 49.12Z" fill="#5EE1E5"/>
<path d="M126.349 46.1597C126.181 46.8652 126.032 47.538 125.893 48.165C123.123 48.3833 119.797 48.1847 116.006 47.1318L126.349 46.1597Z" fill="#5EE1E5"/>
<path d="M88.375 3.7023C88.2485 3.97099 87.8929 4.36184 87.434 4.8623C86.6762 5.68788 85.5311 6.93519 84.1734 8.96001L84.045 9.15438C81.7001 12.6515 78.7826 17.0049 77.7745 17.4529C76.7578 17.8024 54.0141 18.5999 38.5322 19.0627C41.2707 15.8364 51.7555 6.54411 56.5906 5.32745C60.8235 4.26152 76.9557 3.5625 84.565 3.5625C86.4909 3.5625 87.8739 3.60616 88.375 3.7023Z" fill="#56494B"/>
<path d="M68.7663 3.42285C68.398 3.65206 68.0316 3.89242 67.6675 4.14137C61.359 8.4316 55.5073 15.1921 52.752 18.6084C52.5562 18.8509 52.3774 19.0759 52.2111 19.2812C50.2219 19.349 48.3108 19.4122 46.5635 19.4691C46.6666 19.244 46.7741 19.0213 46.8855 18.8028C50.1418 12.265 55.6735 7.6232 59.9655 4.78349C60.3822 4.50597 60.7886 4.24611 61.18 4.00366C63.3988 3.78119 66.0574 3.58657 68.7663 3.42285Z" fill="#665B5D"/>
<path d="M74.8451 3.11914C74.5822 3.35067 74.319 3.58221 74.0578 3.81583C74.0473 3.82675 74.0348 3.83557 74.0243 3.84648C73.0096 4.75752 72.0015 5.67716 70.9996 6.60329C67.3855 9.94974 63.8828 13.4227 60.5191 17.0379C60.1064 17.4814 59.696 17.9269 59.2878 18.3769C59.0815 18.602 58.8752 18.827 58.6731 19.0541C58.292 19.0694 57.9131 19.0824 57.5322 19.0957C57.7321 18.8686 57.9364 18.6435 58.1405 18.4185C60.6137 15.6879 63.1671 13.0363 65.7919 10.463C67.56 8.73076 69.3597 7.03803 71.1952 5.38641C71.7679 4.87295 72.3445 4.36645 72.9255 3.8639C73.1949 3.63005 73.4644 3.39642 73.7358 3.16489C73.8893 3.15815 74.0431 3.15165 74.1968 3.14515C74.3651 3.13888 74.5842 3.13006 74.8451 3.11914Z" fill="#665B5D"/>
<path d="M88.9122 3.21935C88.186 2.6253 78.1539 2.9834 74.8448 3.11902C74.5839 3.12994 74.365 3.13876 74.1965 3.14527C74.0428 3.15177 73.8892 3.15827 73.7355 3.165C72.1209 3.23699 70.4329 3.32432 68.7657 3.42278C66.0566 3.58651 63.3982 3.78111 61.1796 4.00382C59.1125 4.2112 57.4265 4.44065 56.4414 4.68983C51.1854 6.01355 39.4252 16.6295 37.596 19.2179L37.2129 19.7597L37.8592 19.74C38.9327 19.7073 42.2563 19.6088 46.5629 19.469C48.3099 19.4121 50.2213 19.3487 52.2105 19.2811C53.9451 19.2221 55.7362 19.161 57.5319 19.0956C57.9128 19.0823 58.2917 19.0693 58.6728 19.054C68.1892 18.711 77.4403 18.3134 78.017 18.058C79.1137 17.5707 81.4207 14.2157 84.5633 9.52789L84.6918 9.33561C86.0242 7.35003 87.1483 6.12455 87.8913 5.31197C88.6427 4.4929 89.0574 4.04075 89.0574 3.51846C89.0576 3.40304 89.005 3.29366 88.9122 3.21935ZM87.4347 4.86215C86.677 5.68773 85.5319 6.93504 84.1742 8.95985L84.0457 9.15423C81.7009 12.6514 78.7834 17.0048 77.7753 17.4528C77.7562 17.4595 77.731 17.466 77.6974 17.4725C77.6744 17.4769 77.6471 17.4813 77.6175 17.4878C77.5396 17.4987 77.4385 17.512 77.3165 17.525C77.2912 17.5271 77.2659 17.5315 77.2366 17.5336C77.0556 17.5533 76.8325 17.5728 76.5693 17.5926C76.525 17.597 76.4787 17.5991 76.4323 17.6035C76.0239 17.6341 75.5294 17.6669 74.961 17.6996C74.8831 17.704 74.8052 17.7082 74.7253 17.715C74.5653 17.7235 74.397 17.7324 74.2222 17.7433C74.1023 17.7498 73.9781 17.7563 73.8519 17.763C73.7024 17.7695 73.5486 17.7781 73.3909 17.7869C73.2351 17.7955 73.0731 17.8044 72.9088 17.8109C72.7025 17.8218 72.4922 17.8327 72.2731 17.8436C72.1446 17.8503 72.0142 17.8568 71.8837 17.861C71.1743 17.8961 70.4123 17.9309 69.6062 17.966C69.4042 17.9748 69.1998 17.9857 68.9937 17.9946C68.375 18.0208 67.7287 18.047 67.0656 18.0754C66.9141 18.0821 66.7604 18.0886 66.6068 18.0951C65.8616 18.1258 65.0914 18.1562 64.2998 18.1868C64.0619 18.1957 63.8218 18.2066 63.5799 18.2154C62.1989 18.27 60.7613 18.3225 59.2879 18.377C58.9068 18.3903 58.526 18.4056 58.1406 18.4186C56.3767 18.482 54.5706 18.5454 52.7521 18.6086C50.7946 18.6741 48.8264 18.7396 46.8856 18.803C46.6604 18.8095 46.4351 18.8162 46.2099 18.8248C45.6776 18.8422 45.147 18.8575 44.6229 18.8752C43.2316 18.9188 41.8634 18.9625 40.5372 19.0017C40.1984 19.0127 39.8616 19.0236 39.5268 19.0324C39.1921 19.0433 38.8617 19.0542 38.5332 19.063C41.2717 15.8367 51.7565 6.54442 56.5916 5.32776C56.7894 5.2776 57.0145 5.22954 57.2629 5.17937C57.3218 5.16846 57.3829 5.15731 57.446 5.14662C57.5574 5.12479 57.6713 5.10506 57.791 5.08555C57.8837 5.06813 57.9804 5.0528 58.0795 5.03748C58.0923 5.03539 58.1048 5.03307 58.1196 5.03098C58.2037 5.01774 58.2921 5.00473 58.3807 4.99173C58.4987 4.97431 58.6206 4.95667 58.7448 4.93925C58.8753 4.91951 59.008 4.90209 59.1447 4.88467C59.4057 4.85193 59.6793 4.81686 59.9656 4.78412C60.1151 4.7667 60.2666 4.74928 60.4223 4.73163C60.4982 4.72281 60.5761 4.71421 60.6559 4.70539C60.7907 4.69238 60.9256 4.67706 61.0644 4.66406C61.1695 4.65314 61.277 4.64222 61.3844 4.63131C61.7632 4.59415 62.1549 4.557 62.561 4.51984C62.7694 4.50242 62.982 4.48268 63.1966 4.46526C63.304 4.45667 63.4134 4.44784 63.5229 4.43693C63.6408 4.42834 63.7607 4.41719 63.8807 4.4086C64.0344 4.39536 64.1902 4.38445 64.3459 4.37144C64.8953 4.32987 65.4595 4.2883 66.0362 4.24906C66.1857 4.23814 66.3352 4.22931 66.4867 4.21863C66.5205 4.21654 66.5563 4.21422 66.5918 4.2119C66.7351 4.20098 66.8761 4.1924 67.0193 4.18357C67.2339 4.17057 67.4507 4.15523 67.6676 4.142C67.9643 4.12458 68.2633 4.10717 68.5643 4.08743C68.7263 4.0786 68.8906 4.07001 69.0548 4.06118C69.1242 4.05677 69.1918 4.05236 69.2591 4.05027C69.4485 4.03935 69.64 4.02843 69.8318 4.01752C70.3496 3.98919 70.8715 3.96295 71.3956 3.93671C71.7429 3.91929 72.0925 3.90396 72.4418 3.88631C72.6038 3.87981 72.7638 3.87331 72.9259 3.86448C73.3027 3.84915 73.6816 3.83174 74.0582 3.81641C75.1697 3.77066 76.2663 3.73118 77.3313 3.69635C77.746 3.68311 78.1586 3.6701 78.5628 3.65919C78.8868 3.65036 79.2068 3.64177 79.5206 3.63527C79.609 3.63318 79.6931 3.63086 79.7795 3.62854C81.5709 3.58488 83.2043 3.56304 84.566 3.56304C86.4922 3.56304 87.8749 3.60671 88.376 3.70285C88.2493 3.97085 87.8935 4.36169 87.4347 4.86215Z" fill="black"/>
</svg>
