<svg width="20" height="20" viewBox="0 0 20 20" fill="none" xmlns="http://www.w3.org/2000/svg">
<path d="M1.66602 3.74984C1.66602 2.49984 2.49935 1.6665 3.74935 1.6665H6.24935C7.49935 1.6665 8.33268 2.49984 8.33268 3.74984V14.9998C8.33268 15.8998 7.966 16.7248 7.38267 17.3248L7.34935 17.3582C7.27435 17.4332 7.19102 17.5082 7.11602 17.5665C6.86602 17.7832 6.58267 17.9498 6.29101 18.0665C6.19934 18.1082 6.10768 18.1415 6.01602 18.1748C5.69102 18.2832 5.34102 18.3332 4.99935 18.3332C4.77435 18.3332 4.54936 18.3082 4.33269 18.2665C4.22436 18.2415 4.11601 18.2165 4.00768 18.1832C3.87435 18.1415 3.74935 18.0998 3.62435 18.0415C3.62435 18.0332 3.62435 18.0332 3.61601 18.0415C3.38268 17.9248 3.15769 17.7915 2.94936 17.6332L2.94101 17.6248C2.83268 17.5415 2.73269 17.4582 2.64103 17.3582C2.54936 17.2582 2.45768 17.1582 2.36601 17.0498C2.20768 16.8415 2.07435 16.6165 1.95769 16.3832C1.96602 16.3748 1.96602 16.3748 1.95769 16.3748C1.95769 16.3748 1.95768 16.3665 1.94935 16.3582C1.89935 16.2415 1.85768 16.1165 1.81601 15.9915C1.78268 15.8832 1.75767 15.7748 1.73267 15.6665C1.691 15.4498 1.66602 15.2248 1.66602 14.9998V7.14151" stroke="#E5E5E5" stroke-linecap="round" stroke-linejoin="round"/>
<path d="M18.3333 13.7498V16.2498C18.3333 17.4998 17.5 18.3332 16.25 18.3332H5C5.34167 18.3332 5.69167 18.2832 6.01667 18.1748C6.10833 18.1415 6.19999 18.1082 6.29166 18.0665C6.58332 17.9498 6.86667 17.7832 7.11667 17.5665C7.19167 17.5082 7.27501 17.4332 7.35001 17.3582L7.38332 17.3248L13.05 11.6665H16.25C17.5 11.6665 18.3333 12.4998 18.3333 13.7498Z" stroke="#E5E5E5" stroke-linecap="round" stroke-linejoin="round"/>
<path d="M4.00808 18.1834C3.50808 18.0334 3.03309 17.7584 2.64142 17.3584C2.24142 16.9667 1.96641 16.4917 1.81641 15.9917C2.14141 17.0334 2.96641 17.8584 4.00808 18.1834Z" fill="#E5E5E5" stroke="#E5E5E5" stroke-linecap="round" stroke-linejoin="round"/>
<path d="M15.3078 9.40845L13.0495 11.6668L7.38281 17.3251C7.96615 16.7251 8.33282 15.9001 8.33282 15.0001V6.95012L10.5912 4.6918C11.4745 3.80846 12.6578 3.80846 13.5412 4.6918L15.3078 6.45846C16.1912 7.34179 16.1912 8.52512 15.3078 9.40845Z" stroke="#E5E5E5" stroke-linecap="round" stroke-linejoin="round"/>
<path d="M4.99935 15.8332C5.45959 15.8332 5.83268 15.4601 5.83268 14.9998C5.83268 14.5396 5.45959 14.1665 4.99935 14.1665C4.53911 14.1665 4.16602 14.5396 4.16602 14.9998C4.16602 15.4601 4.53911 15.8332 4.99935 15.8332Z" fill="#E5E5E5" stroke="#E5E5E5" stroke-linecap="round" stroke-linejoin="round"/>
</svg>
