<svg width="24" height="24" viewBox="0 0 24 24" fill="none" xmlns="http://www.w3.org/2000/svg">
<path d="M2 12.6C2 8.6 3.6 7 7.6 7H10.6" stroke="#E5E5E5" stroke-width="1.8" stroke-linecap="round" stroke-linejoin="round"/>
<path d="M17 13.4004V16.4004C17 20.4004 15.4 22.0004 11.4 22.0004H7.6C3.6 22.0004 2 20.4004 2 16.4004" stroke="#E5E5E5" stroke-width="1.8" stroke-linecap="round" stroke-linejoin="round"/>
<path d="M13.8016 13.4C11.4016 13.4 10.6016 12.6 10.6016 10.2V7L17.0016 13.4" stroke="#E5E5E5" stroke-width="1.5" stroke-linecap="round" stroke-linejoin="round"/>
<path d="M11.6016 2H15.6016" stroke="#E5E5E5" stroke-width="1.8" stroke-linecap="round" stroke-linejoin="round"/>
<path d="M7 5C7 3.34 8.34 2 10 2H12.62" stroke="#E5E5E5" stroke-width="1.8" stroke-linecap="round" stroke-linejoin="round"/>
<path d="M22.0014 8V14.19C22.0014 15.74 20.7414 17 19.1914 17" stroke="#E5E5E5" stroke-width="1.8" stroke-linecap="round" stroke-linejoin="round"/>
<path d="M22 8H19C16.75 8 16 7.25 16 5V2L22 8Z" stroke="#E5E5E5" stroke-width="1.8" stroke-linecap="round" stroke-linejoin="round"/>
</svg>
