<svg width="218" height="200" viewBox="0 0 218 200" fill="none" xmlns="http://www.w3.org/2000/svg">
<circle cx="109.627" cy="100" r="100" fill="#262626"/>
<path d="M12.0349 91.4668L13.5124 95.7792L17.5054 97.3749L13.5124 98.9706L12.0349 103.283L10.5574 98.9706L6.56445 97.3749L10.5574 95.7792L12.0349 91.4668Z" fill="#A3A3A3"/>
<path d="M178.992 103.282L180.292 107.115L183.806 108.534L180.292 109.952L178.992 113.786L177.692 109.952L174.178 108.534L177.692 107.115L178.992 103.282Z" fill="#A3A3A3"/>
<path d="M187.297 153.579C187.813 152.775 188.989 152.775 189.506 153.579L191.333 156.423C191.51 156.7 191.786 156.9 192.104 156.983L195.373 157.842C196.298 158.085 196.661 159.203 196.056 159.943L193.916 162.559C193.707 162.814 193.602 163.137 193.621 163.466L193.815 166.84C193.87 167.795 192.918 168.486 192.027 168.139L188.878 166.912C188.571 166.792 188.231 166.792 187.925 166.912L184.775 168.139C183.884 168.486 182.933 167.795 182.988 166.84L183.182 163.466C183.201 163.137 183.096 162.814 182.887 162.559L180.747 159.943C180.142 159.203 180.505 158.085 181.43 157.842L184.699 156.983C185.017 156.9 185.292 156.7 185.47 156.423L187.297 153.579Z" fill="#A3A3A3"/>
<circle cx="30.6339" cy="62.5821" r="3.50109" fill="#A3A3A3"/>
<path d="M84.1172 40.6489C84.3143 42.4218 85.8138 43.7631 87.5977 43.7632H122.905C124.689 43.7632 126.188 42.4219 126.385 40.6489L127.06 34.5737H152.103C156.803 34.5738 160.613 38.3842 160.613 43.0845V118.541C157.471 116.902 153.898 115.974 150.108 115.974C137.54 115.974 127.352 126.165 127.352 138.735C127.352 149.289 134.535 168.339 144.278 174.179H58.4014C53.7014 174.179 49.891 170.369 49.8906 165.669V43.0845C49.8906 38.3843 53.7012 34.5739 58.4014 34.5737H83.4424L84.1172 40.6489Z" fill="#A3A3A3"/>
<path d="M84.8857 31.0121C84.661 28.9411 86.2833 27.1333 88.3664 27.1333H122.139C124.222 27.1333 125.844 28.9411 125.619 31.0121L124.765 38.8895C124.572 40.6665 123.071 42.013 121.284 42.013H89.2212C87.4338 42.013 85.9333 40.6665 85.7405 38.8895L84.8857 31.0121Z" fill="#A3A3A3"/>
<rect x="66.084" y="61.707" width="72.2101" height="5.25164" rx="2.62582" fill="white"/>
<rect x="66.084" y="79.6504" width="52.5164" height="5.25164" rx="2.62582" fill="white"/>
<rect x="66.084" y="98.9062" width="38.0744" height="5.25164" rx="2.62582" fill="white"/>
<rect x="66.084" y="120.35" width="24.5077" height="5.25164" rx="2.62582" fill="white"/>
<path d="M169.367 139.999C169.367 150.368 160.942 170.679 150.549 170.679C140.156 170.679 131.73 150.368 131.73 139.999C131.73 129.631 140.156 121.226 150.549 121.226C160.942 121.226 169.367 129.631 169.367 139.999Z" fill="#525252"/>
<circle cx="150.548" cy="139.607" r="8.75274" fill="white"/>
</svg>
