<svg width="197" height="200" viewBox="0 0 197 200" fill="none" xmlns="http://www.w3.org/2000/svg">
<circle cx="99.362" cy="97.234" r="97.234" fill="#262626"/>
<path d="M5.31915 115.745L6.7558 119.938L10.6383 121.489L6.7558 123.041L5.31915 127.234L3.8825 123.041L0 121.489L3.8825 119.938L5.31915 115.745Z" fill="#A3A3A3"/>
<path d="M79.1486 13.6172L80.4129 17.3444L83.8295 18.7236L80.4129 20.1028L79.1486 23.83L77.8844 20.1028L74.4678 18.7236L77.8844 17.3444L79.1486 13.6172Z" fill="#A3A3A3"/>
<path d="M183.181 102.949C183.683 102.166 184.827 102.166 185.329 102.949L186.162 104.246C186.335 104.515 186.603 104.709 186.912 104.791L188.403 105.182C189.302 105.418 189.656 106.506 189.067 107.225L188.091 108.418C187.888 108.666 187.786 108.981 187.805 109.3L187.893 110.839C187.946 111.767 187.021 112.439 186.155 112.102L184.719 111.542C184.42 111.426 184.09 111.426 183.792 111.542L182.355 112.102C181.489 112.439 180.564 111.767 180.617 110.839L180.706 109.3C180.724 108.981 180.622 108.666 180.419 108.418L179.443 107.225C178.854 106.506 179.208 105.418 180.107 105.182L181.598 104.791C181.907 104.709 182.175 104.515 182.348 104.246L183.181 102.949Z" fill="#A3A3A3"/>
<circle cx="118.298" cy="38.2978" r="3.40426" fill="#A3A3A3"/>
<path d="M94.8408 42.8218C98.0145 42.8218 100.924 44.5878 102.39 47.4028L107.213 56.6685H152.74C157.44 56.6686 161.251 60.479 161.251 65.1792V68.3853H42.6445C38.547 68.3853 35.0308 71.3047 34.2783 75.3325L28.6416 105.507V51.3325C28.6416 46.6322 32.452 42.8218 37.1523 42.8218H94.8408Z" fill="#A3A3A3"/>
<path d="M36.3026 77.1957C37.0406 73.1515 40.564 70.2129 44.675 70.2129H165.115C170.427 70.2129 174.441 75.0256 173.487 80.2513L161.995 143.23C161.257 147.274 157.733 150.213 153.622 150.213H33.1827C27.8707 150.213 23.8567 145.4 24.8103 140.174L36.3026 77.1957Z" fill="#A3A3A3"/>
<circle cx="147.747" cy="140.229" r="24.1825" fill="#525252"/>
<path d="M147.521 126.443C148.269 126.443 148.877 127.051 148.877 127.8V138.647H159.726C160.474 138.648 161.081 139.255 161.081 140.004C161.081 140.753 160.474 141.359 159.726 141.359H148.877V152.208C148.877 152.957 148.269 153.564 147.521 153.564C146.772 153.564 146.165 152.957 146.165 152.208V141.359H135.316C134.568 141.359 133.961 140.753 133.961 140.004C133.961 139.255 134.568 138.648 135.316 138.647H146.165V127.8C146.165 127.051 146.772 126.444 147.521 126.443Z" fill="white"/>
</svg>
