<svg width="48" height="48" viewBox="0 0 48 48" fill="none" xmlns="http://www.w3.org/2000/svg">
<path d="M38.7071 36.0643L30.711 33.2422H17.2885L9.29245 36.0643C7.43527 36.7198 6.19336 38.4752 6.19336 40.4446V45.6777C6.19336 46.9603 7.23323 48.0002 8.51592 48.0002H39.4837C40.7664 48.0002 41.8063 46.9603 41.8063 45.6777V40.4447C41.8063 38.4753 40.5643 36.7198 38.7071 36.0643Z" fill="#6D475A"/>
<path d="M35.1649 31.5577C33.9923 30.6758 33.2895 29.3018 33.2895 27.8345V24.7728C33.2895 16.2567 28.6444 5.41797 23.9992 5.41797C19.354 5.41797 14.7088 16.2567 14.7088 24.7728V27.8345C14.7088 29.3018 14.0061 30.6757 12.8335 31.5577C11.569 32.5087 10.8379 33.6329 10.8379 34.8375C10.8379 38.258 14.1649 44.902 23.9992 44.902C33.8335 44.902 37.1605 38.2581 37.1605 34.8375C37.1605 33.6329 36.4294 32.5087 35.1649 31.5577Z" fill="#8B5771"/>
<path d="M32.1026 39.9758C34.0839 38.0873 35.5674 35.7244 36.5453 32.9655C36.2456 32.5205 35.8333 32.1003 35.3391 31.7052C34.4526 34.5624 33.0096 36.9724 31.0343 38.8554C27.495 42.2293 22.3852 43.7741 16.5757 43.2493C17.9242 43.9592 19.5621 44.4775 21.4897 44.7283C25.6531 44.2388 29.3158 42.6325 32.1026 39.9758ZM24.0001 33.2901C18.4506 33.2901 13.9355 29.4698 13.9355 24.774C13.9355 20.0781 18.4506 16.2578 24.0001 16.2578C29.5495 16.2578 34.0646 20.0781 34.0646 24.774C34.0646 29.4698 29.5495 33.2901 24.0001 33.2901Z" fill="#6D475A"/>
<path d="M24.0001 29.4193C18.4415 29.4193 13.9355 24.9133 13.9355 19.3548V10.0645H34.0646V19.3548C34.0646 24.9133 29.5586 29.4193 24.0001 29.4193Z" fill="#F5B97D"/>
<path d="M17.0323 19.3548V17.8064C17.0323 14.3859 19.8052 11.6128 23.2259 11.6128H34.0646V10.0645H13.9355V19.3548C13.9355 24.9132 18.4416 29.4193 24.0001 29.4193C24.5281 29.4193 25.0424 29.3665 25.5485 29.2881C20.7271 28.5416 17.0323 24.3853 17.0323 19.3548Z" fill="#E3AA75"/>
<path d="M24.0343 24.7738C22.8723 24.7738 21.8009 24.401 21.1681 23.7765C20.8634 23.4756 20.8604 22.9858 21.1605 22.6818C21.4615 22.3771 21.9513 22.3741 22.2552 22.6742C22.513 22.9283 23.133 23.2254 24.0342 23.2254C24.9354 23.2254 25.5554 22.9283 25.8132 22.6742C26.1172 22.374 26.6071 22.3771 26.908 22.6818C27.2081 22.9858 27.205 23.4757 26.9004 23.7765C26.2677 24.401 25.1964 24.7738 24.0343 24.7738Z" fill="#B67F5F"/>
<path d="M19.3894 19.3421C19.2877 19.3422 19.187 19.3222 19.0931 19.2833C18.9991 19.2444 18.9138 19.1874 18.8419 19.1155C18.7699 19.0436 18.7129 18.9582 18.674 18.8642C18.6352 18.7703 18.6152 18.6696 18.6152 18.5679V17.7937C18.6152 17.3657 18.9615 17.0195 19.3894 17.0195C19.8173 17.0195 20.1636 17.3658 20.1636 17.7937V18.5679C20.1637 18.6696 20.1437 18.7703 20.1048 18.8642C20.0659 18.9582 20.0089 19.0436 19.937 19.1155C19.8651 19.1874 19.7797 19.2444 19.6858 19.2833C19.5918 19.3222 19.4911 19.3422 19.3894 19.3421ZM28.6797 19.3421C28.578 19.3422 28.4773 19.3222 28.3833 19.2833C28.2894 19.2444 28.204 19.1874 28.1321 19.1155C28.0602 19.0436 28.0032 18.9582 27.9643 18.8642C27.9254 18.7703 27.9054 18.6696 27.9055 18.5679V17.7937C27.9055 17.3657 28.2518 17.0195 28.6797 17.0195C29.1075 17.0195 29.4539 17.3658 29.4539 17.7937V18.5679C29.4539 18.6696 29.4339 18.7703 29.3951 18.8642C29.3562 18.9582 29.2991 19.0436 29.2272 19.1155C29.1553 19.1874 29.07 19.2444 28.976 19.2833C28.8821 19.3222 28.7814 19.3422 28.6797 19.3421Z" fill="#6D475A"/>
<path d="M20.1644 16.2476H18.616C18.5143 16.2477 18.4136 16.2277 18.3196 16.1888C18.2257 16.1499 18.1403 16.0929 18.0684 16.021C17.9965 15.9491 17.9395 15.8637 17.9006 15.7697C17.8617 15.6758 17.8417 15.5751 17.8418 15.4734C17.8417 15.3717 17.8617 15.271 17.9006 15.1771C17.9395 15.0831 17.9965 14.9977 18.0684 14.9258C18.1403 14.8539 18.2257 14.7969 18.3196 14.758C18.4136 14.7191 18.5143 14.6992 18.616 14.6992H20.1644C20.266 14.6992 20.3667 14.7191 20.4607 14.758C20.5547 14.7969 20.64 14.8539 20.7119 14.9258C20.7838 14.9977 20.8409 15.0831 20.8797 15.1771C20.9186 15.271 20.9386 15.3717 20.9385 15.4734C20.9386 15.5751 20.9186 15.6758 20.8797 15.7697C20.8409 15.8637 20.7838 15.9491 20.7119 16.021C20.64 16.0929 20.5547 16.1499 20.4607 16.1888C20.3667 16.2277 20.266 16.2477 20.1644 16.2476ZM29.4546 16.2476H27.9062C27.8045 16.2477 27.7038 16.2277 27.6099 16.1888C27.5159 16.1499 27.4306 16.0929 27.3587 16.021C27.2868 15.9491 27.2297 15.8637 27.1909 15.7697C27.152 15.6758 27.132 15.5751 27.132 15.4734C27.132 15.3717 27.152 15.271 27.1909 15.1771C27.2297 15.0831 27.2868 14.9977 27.3587 14.9258C27.4306 14.8539 27.5159 14.7969 27.6099 14.758C27.7038 14.7191 27.8045 14.6992 27.9062 14.6992H29.4546C29.5563 14.6992 29.657 14.7191 29.751 14.758C29.8449 14.7969 29.9303 14.8539 30.0022 14.9258C30.0741 14.9977 30.1311 15.0831 30.17 15.1771C30.2089 15.271 30.2289 15.3717 30.2288 15.4734C30.2289 15.5751 30.2089 15.6758 30.17 15.7698C30.1311 15.8637 30.0741 15.9491 30.0022 16.021C29.9303 16.0929 29.8449 16.1499 29.751 16.1888C29.657 16.2277 29.5563 16.2477 29.4546 16.2476Z" fill="#8B5771"/>
<path d="M37.8292 24.0265L37.151 12.7231C36.748 6.00649 31.4947 0.409896 24.7772 0.022427C17.4753 -0.398698 11.3037 5.16246 10.8716 12.3648L10.1718 24.0264C9.71369 31.6626 15.5199 38.1386 23.0319 38.6588C18.3564 38.1743 14.7102 34.223 14.7102 29.4193V24.7742C14.7102 16.2581 19.3553 5.41933 24.0005 5.41933C28.6457 5.41933 33.2909 16.2581 33.2909 24.7742V32.2771C33.2909 33.3175 34.6327 33.774 35.2422 32.9309C37.0394 30.4451 38.0284 27.3475 37.8292 24.0265Z" fill="#AE8397"/>
</svg>
