<svg width="48" height="48" viewBox="0 0 48 48" fill="none" xmlns="http://www.w3.org/2000/svg">
<path d="M23.7652 12.8529C22.9823 12.8529 22.3477 12.2186 22.3477 11.4356C22.3477 10.6531 22.9823 10.0184 23.7652 10.0184C28.5076 10.0184 32.3663 6.16003 32.3663 1.41722C32.3663 0.634687 33.0007 0 33.7837 0C34.5662 0 35.2009 0.634687 35.2009 1.41722C35.2009 7.72303 30.0706 12.8528 23.7653 12.8528L23.7652 12.8529Z" fill="#23272B"/>
<path d="M42.2396 40.486L34.1189 29.807H38.4669C38.7309 29.8069 38.9896 29.7331 39.2139 29.5939C39.4382 29.4548 39.6192 29.2557 39.7365 29.0192C39.8537 28.7826 39.9026 28.518 39.8776 28.2552C39.8525 27.9924 39.7546 27.7418 39.5949 27.5316L31.6077 17.0284H33.1803C33.4513 17.0283 33.7166 16.9506 33.9448 16.8044C34.173 16.6582 34.3545 16.4496 34.4677 16.2034C34.581 15.9572 34.6213 15.6837 34.5839 15.4153C34.5464 15.1469 34.4328 14.8948 34.2565 14.689L24.8409 3.69739C24.7078 3.54211 24.5426 3.41748 24.3568 3.33204C24.1709 3.24659 23.9688 3.20237 23.7642 3.20239C23.3504 3.20239 22.9571 3.38324 22.688 3.69739L13.2719 14.689C13.0956 14.8948 12.9821 15.1469 12.9447 15.4153C12.9073 15.6836 12.9477 15.9571 13.061 16.2033C13.1743 16.4495 13.3558 16.6581 13.584 16.8043C13.8122 16.9506 14.0776 17.0283 14.3486 17.0283H15.9211L7.93407 27.5317C7.77411 27.7418 7.67607 27.9924 7.65102 28.2553C7.62598 28.5181 7.67492 28.7828 7.79232 29.0193C7.90963 29.2557 8.09064 29.4547 8.31497 29.5939C8.53929 29.733 8.79801 29.8067 9.06198 29.8067H13.4096L5.28929 40.486C5.12942 40.6961 5.03144 40.9466 5.00639 41.2094C4.98134 41.4722 5.03023 41.7367 5.14754 41.9732C5.26478 42.2097 5.44577 42.4088 5.67011 42.548C5.89444 42.6871 6.1532 42.7609 6.4172 42.7609H17.4812V46.5827C17.4812 47.3652 18.1159 47.9999 18.8984 47.9999H28.6305C29.413 47.9999 30.0477 47.3652 30.0477 46.5827V42.7609H41.1115C41.3755 42.7609 41.6343 42.6872 41.8586 42.5481C42.083 42.4089 42.264 42.2099 42.3813 41.9734C42.4986 41.7369 42.5474 41.4723 42.5224 41.2095C42.4973 40.9467 42.3994 40.6961 42.2395 40.486H42.2396Z" fill="#F59E0B"/>
<path d="M34.1182 29.8071H38.4661C38.7302 29.8071 38.9889 29.7334 39.2133 29.5942C39.4377 29.455 39.6187 29.2559 39.736 29.0194C39.8532 28.7828 39.9021 28.5182 39.877 28.2554C39.852 27.9925 39.754 27.7419 39.5941 27.5318L31.607 17.0286H33.1796C33.4506 17.0286 33.7159 16.9509 33.9441 16.8047C34.1723 16.6585 34.3538 16.4499 34.4671 16.2037C34.5804 15.9575 34.6207 15.684 34.5833 15.4156C34.546 15.1472 34.4324 14.8951 34.2562 14.6893L24.8402 3.69764C24.7071 3.54241 24.542 3.4178 24.3563 3.33236C24.1705 3.24692 23.9685 3.20267 23.764 3.20264V48.0001H28.6298C29.4123 48.0001 30.047 47.3654 30.047 46.5829V42.7611H41.1108C41.3748 42.7611 41.6335 42.6874 41.8578 42.5483C42.0821 42.4092 42.2632 42.2102 42.3805 41.9738C42.4977 41.7372 42.5466 41.4727 42.5216 41.2098C42.4965 40.947 42.3986 40.6964 42.2388 40.4863L34.1182 29.8071ZM20.4186 35.3604C20.1533 35.3604 19.8934 35.2856 19.6686 35.1447C19.005 34.7297 18.8033 33.8556 19.2181 33.1917L20.2859 31.4829C20.7767 30.6977 20.6969 29.7024 20.0872 29.0059C18.6487 27.3615 18.4601 25.0124 19.6177 23.1597L20.6855 21.451C21.1004 20.787 21.9749 20.5852 22.6385 21.0001C23.3024 21.4151 23.5043 22.2896 23.0894 22.9531L22.0215 24.6619C21.5308 25.4471 21.6106 26.4424 22.2203 27.1393C23.6588 28.7833 23.8478 31.1328 22.6898 32.9855L21.622 34.6942C21.4944 34.8983 21.317 35.0665 21.1065 35.183C20.896 35.2996 20.6592 35.3606 20.4186 35.3604Z" fill="#F59E0B"/>
<path d="M23.7641 12.8529C17.4584 12.8529 12.3281 7.72294 12.3281 1.41731C12.3281 0.634688 12.9628 0 13.7453 0C14.5283 0 15.1629 0.634687 15.1629 1.41722C15.1629 6.16003 19.0213 10.0184 23.7641 10.0184C24.5468 10.0184 25.1813 10.6531 25.1813 11.4356C25.1813 12.2186 24.5467 12.8529 23.7641 12.8529Z" fill="#414952"/>
<path d="M23.7656 10.0186V12.8531C24.5482 12.8531 25.1826 12.2188 25.1826 11.4358C25.1826 10.6532 24.5482 10.0186 23.7656 10.0186Z" fill="#23272B"/>
</svg>
