<svg width="24" height="24" viewBox="0 0 24 24" fill="none" xmlns="http://www.w3.org/2000/svg">
<path d="M20.2506 2.63188C20.2506 3.62188 20.0181 4.34563 19.6244 4.86313C19.6169 4.87438 19.6131 4.88188 19.6056 4.88938C18.7881 5.94688 17.3106 6.14188 15.8481 5.99938C14.5919 5.87938 13.3469 5.51188 12.5369 5.23063C12.6719 4.92313 12.7506 4.54063 12.7506 4.13188C12.7506 3.32563 12.4469 2.63938 12.0156 2.37313C13.6994 1.32313 20.2469 -2.53937 20.2506 2.63188Z" fill="#16F7FF"/>
<path d="M12.713 4.59426C12.6777 4.82638 12.6196 5.04351 12.5371 5.23063C13.3471 5.51188 14.5921 5.87938 15.8484 5.99938C17.3109 6.14188 18.7884 5.94688 19.6059 4.88938C19.6134 4.88188 19.6171 4.87438 19.6246 4.86313C20.0184 4.34563 20.2509 3.62188 20.2509 2.63188C20.2505 2.29101 20.2205 1.99176 20.1665 1.72626C18.9211 4.25451 15.4839 4.73413 12.713 4.59426Z" fill="#20CED4"/>
<path d="M3.00004 2.63188C3.01129 -2.52812 9.55879 1.33063 11.235 2.37313C10.8038 2.63938 10.5 3.32563 10.5 4.13188C10.5 4.54063 10.5788 4.92313 10.7138 5.23063C9.90379 5.51188 8.65879 5.87938 7.40254 5.99938C5.93629 6.14188 4.45504 5.94688 3.63754 4.88188C3.24004 4.36063 2.99629 3.63313 3.00004 2.63188Z" fill="#16F7FF"/>
<path d="M3.42117 0.862244C3.15679 1.27174 3.00192 1.84587 3.00004 2.63187C2.99629 3.63312 3.24004 4.36062 3.63754 4.88187C4.45504 5.94687 5.93629 6.14187 7.40254 5.99937C8.65879 5.87937 9.90379 5.51187 10.7138 5.23062C10.6275 5.03449 10.5679 4.80574 10.5334 4.56124C7.66354 4.45437 4.86342 3.38299 3.42117 0.862244Z" fill="#20CED4"/>
<path d="M11.625 6.00687C12.2463 6.00687 12.75 5.1674 12.75 4.13187C12.75 3.09633 12.2463 2.25687 11.625 2.25687C11.0037 2.25687 10.5 3.09633 10.5 4.13187C10.5 5.1674 11.0037 6.00687 11.625 6.00687Z" fill="#16F7FF"/>
<path d="M12.75 4.13187C12.75 5.16687 12.2475 6.00687 11.625 6.00687C11.0025 6.00687 10.5 5.16687 10.5 4.13187C10.5 3.93687 10.5187 3.74937 10.5525 3.57312C10.695 4.33062 11.1225 4.88187 11.625 4.88187C12.1275 4.88187 12.555 4.33062 12.6975 3.57312C12.7313 3.74937 12.75 3.93687 12.75 4.13187Z" fill="#16F7FF"/>
<path d="M13.875 10.5069H15.225L15.2512 10.5031C15.3862 11.2569 15.4388 12.1269 15.375 13.1319L16.5 12.0069L18 13.5069C18 13.5069 18.0562 12.1719 17.7562 10.5069H17.76H22.125V22.5069C22.125 22.9194 21.7875 23.2569 21.375 23.2569H13.5V10.5069H13.875Z" fill="#FFC008"/>
<path d="M9.75 10.5069V23.2569H1.875C1.4625 23.2569 1.125 22.9194 1.125 22.5069V10.5069H5.49H5.49375C5.19375 12.1719 5.25 13.5069 5.25 13.5069L6.75 12.0069L7.875 13.1319C7.81125 12.1269 7.86375 11.2569 7.99875 10.5031L8.025 10.5069H9.375H9.75Z" fill="#FFC008"/>
<path d="M9.75 10.5069H13.5V23.2569H9.75V10.5069Z" fill="#16F7FF"/>
<path d="M5.49375 10.5069C5.4225 10.9044 5.37 11.2869 5.33625 11.6319H1.125V10.5069H5.49375Z" fill="#FF9700"/>
<path d="M9.74984 10.5069V11.6319H7.87109C7.88984 11.2269 7.93484 10.8519 7.99859 10.5031L8.02484 10.5069H9.74984Z" fill="#FF9700"/>
<path d="M9.75 10.5069H13.5V11.6319H9.75V10.5069Z" fill="#1AC6CC"/>
<path d="M15.3787 11.6319H13.5V10.5069H15.225L15.2512 10.5031C15.315 10.8519 15.36 11.2269 15.3787 11.6319Z" fill="#FF9700"/>
<path d="M23.2502 5.26437V10.1319C23.2502 10.3381 23.0814 10.5069 22.8752 10.5069H22.1252H17.7602H17.7564C17.4977 9.02562 16.9539 7.28937 15.8477 5.99937C17.3102 6.14187 18.7877 5.94687 19.6052 4.88937H22.8752C23.0814 4.88937 23.2502 5.05812 23.2502 5.26437Z" fill="#FBDE08"/>
<path d="M15.2512 10.5031L15.225 10.5069H13.875V7.32312C14.4488 8.02437 15 9.04437 15.2512 10.5031Z" fill="#FBDE08"/>
<path d="M23.2491 5.26437V10.1319C23.2491 10.3381 23.0803 10.5069 22.8741 10.5069H17.7553C17.7103 10.2631 17.6616 10.0119 17.6016 9.75687H21.3538C21.9864 9.75687 22.4991 9.24425 22.4991 8.61162V4.88937H22.8741C23.0803 4.88937 23.2491 5.05812 23.2491 5.26437Z" fill="#F9AF0B"/>
<path d="M15.2512 10.5031L15.225 10.5069H13.875V9.75687H15.09C15.1538 9.99312 15.2062 10.2406 15.2512 10.5031Z" fill="#F9AF0B"/>
<path d="M9.37625 7.32312V10.5069H8.02625L8 10.5031C8.25125 9.04437 8.8025 8.02437 9.37625 7.32312Z" fill="#FBDE08"/>
<path d="M3.6375 4.88187C4.455 5.94687 5.93625 6.14187 7.4025 5.99937C6.29625 7.28937 5.7525 9.02562 5.49375 10.5069H5.49H1.125H0.375C0.16875 10.5069 0 10.3381 0 10.1319V5.25687C0 5.05062 0.16875 4.88187 0.375 4.88187H3.6375Z" fill="#FBDE08"/>
<path d="M9.75 21.7569V23.2569H1.875C1.4625 23.2569 1.125 22.9194 1.125 22.5069V21.7569H9.75Z" fill="#FF9700"/>
<path d="M9.75 21.7569H13.5V23.2569H9.75V21.7569Z" fill="#15C3C9"/>
<path d="M11.25 5.90189C11.3663 5.96939 11.4938 6.00689 11.625 6.00689C11.7562 6.00689 11.88 5.96939 11.9963 5.90189C11.9963 5.90189 12.9675 6.22064 13.875 7.32314V10.5069H13.5H9.75H9.375V7.32314C10.2788 6.22064 11.25 5.90189 11.25 5.90189Z" fill="#16F7FF"/>
<path d="M9.37625 9.75687V10.5069H8.02625L8 10.5031C8.045 10.2406 8.0975 9.99312 8.16125 9.75687H9.37625Z" fill="#F9AF0B"/>
<path d="M5.6475 9.75687C5.5875 10.0119 5.53875 10.2631 5.49375 10.5069H0.375C0.16875 10.5069 0 10.3381 0 10.1319V9.75687H5.6475Z" fill="#F9AF0B"/>
<path d="M9.375 9.75687H13.875V10.5069H9.375V9.75687Z" fill="#16E3EB"/>
<path d="M13.875 7.32314V8.44814C12.9675 7.34564 11.9963 7.02689 11.9963 7.02689C11.88 7.09439 11.7562 7.13189 11.625 7.13189C11.4938 7.13189 11.3663 7.09439 11.25 7.02689C11.25 7.02689 10.2788 7.34564 9.375 8.44814V7.32314C10.2788 6.22064 11.25 5.90189 11.25 5.90189C11.3663 5.96939 11.4938 6.00689 11.625 6.00689C11.7562 6.00689 11.88 5.96939 11.9963 5.90189C11.9963 5.90189 12.9675 6.22064 13.875 7.32314Z" fill="#20CED4"/>
<path d="M17.7561 10.5069C18.0561 12.1719 17.9998 13.5069 17.9998 13.5069L16.4998 12.0069L15.3748 13.1319C15.4386 12.1269 15.3861 11.2569 15.2511 10.5031C14.9998 9.04437 14.4486 8.02437 13.8748 7.32312C12.9673 6.22062 11.9961 5.90187 11.9961 5.90187C12.2173 5.77437 12.4048 5.53812 12.5361 5.23062C13.3461 5.51187 14.5911 5.87937 15.8473 5.99937C16.9536 7.28937 17.4973 9.02562 17.7561 10.5069Z" fill="#16F7FF"/>
<path d="M16.1458 13.4352C16.1567 13.0625 16.1507 12.7096 16.1289 12.3781L16.5002 12.0069L17.2502 12.7569L16.4439 13.5631C16.3325 13.6745 16.1413 13.5927 16.1458 13.4352Z" fill="#FF9700"/>
<path d="M17.7562 10.5069C17.8275 10.9044 17.88 11.2869 17.9138 11.6319H17.9156C18.0323 12.734 18 13.5069 18 13.5069L18.3806 13.8875C18.5186 14.0255 18.7553 13.9269 18.7515 13.7315C18.7421 13.2586 18.7031 12.5052 18.5685 11.6319H18.75C19.7854 11.6319 20.625 12.4715 20.625 13.5069V21.0069C20.625 21.4212 20.2894 21.7569 19.875 21.7569H13.5V23.2569H21.375C21.7875 23.2569 22.125 22.9194 22.125 22.5069V10.5069H17.7562Z" fill="#FF9700"/>
<path d="M18.3527 10.5069H17.7564C17.4977 9.02564 16.9539 7.28939 15.8477 5.99939C16.1177 6.02564 16.3839 6.04064 16.6502 6.04064C17.4039 7.36814 18.1089 9.46064 18.3527 10.5069Z" fill="#F9AF0B"/>
<path d="M16.6198 7.12062C15.3411 7.02312 14.0773 6.77937 13.0873 6.54312C12.4798 6.05937 11.9961 5.90187 11.9961 5.90187C12.2173 5.77437 12.4048 5.53812 12.5361 5.23062C13.3461 5.51187 14.5911 5.87937 15.8473 5.99937C16.1436 6.34437 16.4023 6.72312 16.6198 7.12062Z" fill="#15C3C9"/>
<path d="M10.714 5.23062C10.8453 5.53437 11.0328 5.77062 11.2503 5.90187C11.2503 5.90187 10.279 6.22062 9.37528 7.32312C8.80153 8.02437 8.25028 9.04437 7.99903 10.5031C7.86403 11.2569 7.81153 12.1269 7.87528 13.1319L6.75028 12.0069L5.25028 13.5069C5.25028 13.5069 5.19403 12.1719 5.49403 10.5069C5.75278 9.02562 6.29653 7.28937 7.40278 5.99937C8.65903 5.87937 9.90403 5.51187 10.714 5.23062Z" fill="#16F7FF"/>
<path d="M8.3736 11.2531C8.25735 11.9019 8.20222 12.6365 8.22997 13.469C8.23485 13.6149 8.06197 13.6936 7.95885 13.5909L7.12485 12.7569L5.89372 13.988C5.79285 14.0889 5.61997 14.0191 5.6211 13.8762C5.6226 13.682 5.62897 13.421 5.64735 13.1094L6.74985 12.0069L7.87485 13.1319C7.8111 12.1269 7.8636 11.2569 7.9986 10.5031L8.02485 10.5069H8.53485C8.4711 10.7431 8.4186 10.9906 8.3736 11.2531Z" fill="#FF7F00"/>
<path d="M9.37625 7.32312V8.58687C9.05 9.09312 8.74625 9.72687 8.53625 10.5069H8.02625L8 10.5031C8.25125 9.04437 8.8025 8.02437 9.37625 7.32312Z" fill="#F9AF0B"/>
<path d="M11.2509 5.90187C11.2509 5.90187 10.7671 6.05937 10.1634 6.54312C9.17336 6.77937 7.90961 7.02312 6.63086 7.12062C6.84836 6.72312 7.10711 6.34437 7.40336 5.99937C8.65961 5.87937 9.90461 5.51187 10.7146 5.23062C10.8459 5.53437 11.0334 5.77062 11.2509 5.90187Z" fill="#15C3C9"/>
<path d="M11.3237 3.20676C11.0822 3.20676 11.0084 3.75688 11.2502 3.75688C11.4914 3.75688 11.5652 3.20676 11.3237 3.20676Z" fill="#C8FDFF"/>
<path d="M1.29372 5.41813C0.997091 5.37163 0.765716 5.60488 0.647216 5.90188C0.479966 6.32113 0.437216 6.87163 0.856466 6.93725C1.16772 6.986 1.08634 6.56113 1.19884 6.2435C1.34472 5.83063 1.69834 5.48113 1.29372 5.41813Z" fill="#F7EDC6"/>
<path d="M4.96531 0.765137C4.24156 0.765137 3.40044 1.88189 4.12569 1.88189C4.84944 1.88189 5.69056 0.765137 4.96531 0.765137Z" fill="#C8FDFF"/>
<path d="M0.853 7.08313C0.611875 7.08313 0.611125 7.45813 0.853 7.45813C1.0945 7.45813 1.09488 7.08313 0.853 7.08313Z" fill="#F7EDC6"/>
</svg>
