<svg width="334" height="280" viewBox="0 0 334 280" fill="none" xmlns="http://www.w3.org/2000/svg">
<path fill-rule="evenodd" clip-rule="evenodd" d="M284.072 95.7576C285.042 96.2258 288.755 96.259 289.575 95.8074C291.866 94.5532 292.067 94.3862 292.569 93.3494C292.836 92.7808 293.255 91.9611 293.489 91.5262C293.857 90.8236 293.907 90.522 293.907 88.9832C293.907 87.8124 293.839 87.1436 293.706 86.9764C293.589 86.8425 293.439 86.3905 293.355 85.989C293.221 85.2356 290.545 79.5996 289.608 78.1111C289.324 77.6428 288.688 76.5387 288.203 75.6355C287.701 74.7498 287.217 74.0145 287.099 74.0135C286.982 74.0135 286.781 74.1471 286.647 74.2976C286.362 74.6327 285.176 76.6552 285.175 76.8064C285.175 76.8566 284.991 77.1412 284.774 77.4256C284.556 77.71 284.038 78.6296 283.62 79.449C283.185 80.2853 282.733 81.1387 282.599 81.3728C282.465 81.6071 282.182 82.1595 281.981 82.6277C281.78 83.0793 281.546 83.4975 281.479 83.5476C280.977 83.899 279.823 87.4282 279.823 88.6492C279.823 89.8201 280.258 91.66 280.759 92.5799C281.311 93.5835 283.052 95.2558 284.072 95.7576ZM297.168 137.222C300.028 138.443 302.636 139.212 302.838 138.895C302.889 138.812 302.37 138.394 301.701 137.975C301.032 137.557 300.179 137.005 299.811 136.754C299.142 136.319 298.339 135.901 297.553 135.566C297.319 135.466 296.833 135.199 296.465 134.981C296.097 134.747 295.613 134.462 295.378 134.362C295.144 134.245 294.743 134.011 294.459 133.81C294.191 133.626 292.685 132.823 291.113 132.037C289.557 131.234 287.667 130.281 286.931 129.896C284.155 128.475 280.026 126.535 279.773 126.534C279.639 126.534 279.02 126.233 278.401 125.882C277.782 125.514 276.845 125.062 276.327 124.861C275.808 124.66 275.056 124.359 274.638 124.192C274.22 124.008 273.617 123.825 273.299 123.758C272.981 123.691 272.145 123.39 271.46 123.055C269.569 122.186 268.967 121.934 267.78 121.533C265.74 120.847 264.519 120.513 264.067 120.512C263.816 120.512 263.581 120.446 263.514 120.345C263.464 120.262 262.912 120.044 262.294 119.86C257.125 118.305 256.589 118.187 251.471 117.267C250.652 117.117 249.548 116.967 249.046 116.917C248.545 116.883 247.457 116.783 246.621 116.682C240.833 116.047 234.477 115.997 226.047 116.515C223.02 116.699 220.411 116.849 220.277 116.849C219.975 116.866 210.391 117.351 209.572 117.418C203.818 117.786 184.784 117.853 179.297 117.502C177.591 117.401 175.45 117.284 174.53 117.234C165.699 116.849 161.684 116.515 152.953 115.411C151.849 115.277 149.859 115.043 148.521 114.892C147.183 114.759 145.643 114.558 145.091 114.491C144.539 114.407 143.269 114.24 142.249 114.106C140.258 113.839 138.836 113.587 137.197 113.22C136.628 113.086 135.976 112.986 135.742 112.986C135.508 112.986 134.989 112.886 134.604 112.752C134.203 112.635 133.249 112.433 132.463 112.316C131.677 112.199 130.322 111.965 129.453 111.781C128.583 111.597 127.145 111.296 126.275 111.129C124.118 110.727 120.973 110.008 120.253 109.774C119.936 109.674 118.965 109.423 118.079 109.222C116.506 108.854 113.914 108.168 111.304 107.466C110.568 107.265 109.331 106.881 108.544 106.596C107.758 106.329 106.905 106.044 106.621 105.961C105.918 105.777 105.149 105.492 103.694 104.94C103.008 104.673 102.372 104.455 102.272 104.455C102.188 104.438 101.887 104.271 101.636 104.054C100.968 103.518 101.068 102.85 101.854 102.398C102.774 101.896 107.658 100.29 108.361 100.273C108.512 100.256 108.93 100.156 109.297 100.006C109.666 99.8718 110.752 99.6213 111.722 99.4207C112.692 99.2367 113.814 98.9861 114.232 98.8523C116.925 98.0327 124.602 96.4934 127.613 96.1756C128.115 96.1087 129.218 95.9586 130.038 95.8416C136.996 94.7377 142.951 94.3189 151.113 94.3523C155.228 94.3523 160.012 94.6039 161.986 94.9217C162.538 95.0053 163.776 95.1891 164.746 95.3396C167.388 95.741 169.379 96.0588 170.683 96.2596C171.335 96.3766 172.272 96.5266 172.774 96.5935C174.162 96.811 175.517 97.1291 179.347 98.1326C180.334 98.3835 181.254 98.6014 181.388 98.6014C181.522 98.6015 182.108 98.7514 182.676 98.9353C183.613 99.2197 184.684 99.5041 188.079 100.374C188.631 100.524 189.266 100.742 189.501 100.859C189.735 100.976 190.454 101.211 191.089 101.361C191.742 101.528 192.444 101.746 192.678 101.863C192.913 101.98 193.699 102.214 194.435 102.364C195.171 102.531 195.856 102.716 195.94 102.783C196.041 102.85 196.71 103.117 197.446 103.368C198.182 103.619 198.851 103.887 198.934 103.97C199.035 104.054 199.252 104.121 199.419 104.121C199.604 104.121 200.39 104.388 201.192 104.706C201.978 105.024 203.149 105.358 203.785 105.459C204.604 105.593 205.023 105.743 205.173 105.961C205.307 106.145 205.491 106.295 205.591 106.295C205.793 106.295 207.548 107.031 208.267 107.399C208.501 107.533 208.853 107.634 209.037 107.634C209.237 107.634 209.422 107.7 209.489 107.784C209.539 107.868 209.823 108.001 210.124 108.052C211.06 108.269 214.253 109.556 214.422 109.807C214.473 109.874 214.774 110.026 215.091 110.109C215.409 110.21 216.547 110.594 217.601 110.962C219.692 111.698 220.461 111.831 220.11 111.396C219.993 111.263 219.809 111.147 219.709 111.146C219.608 111.13 219.257 110.912 218.939 110.644C218.661 110.395 218.369 110.197 218.234 110.152L218.138 110.133C218.003 110.088 217.716 109.893 217.467 109.674C216.782 109.055 215.594 108.47 215.025 108.47C214.724 108.47 214.523 108.353 214.389 108.052C214.289 107.834 213.904 107.483 213.519 107.282C213.134 107.098 212.349 106.613 211.747 106.212C210.659 105.509 209.271 104.739 206.478 103.284C205.658 102.866 204.821 102.431 204.637 102.314C203.85 101.862 198.013 99.0861 197.177 98.7683C196.324 98.4339 195.488 98.0658 194.786 97.7146C194.317 97.4971 191.558 96.4434 190.671 96.159C190.253 96.0252 189.768 95.8578 189.584 95.7742C188.647 95.3561 187.727 95.038 185.988 94.4861C184.934 94.1517 183.613 93.7338 183.061 93.533C182.509 93.349 181.789 93.1311 181.471 93.0642C181.153 92.9972 180.133 92.7467 179.213 92.4959C178.294 92.2617 177.24 91.9944 176.872 91.9275C176.504 91.8439 175.634 91.6261 174.949 91.4422C174.263 91.2582 173.326 91.0403 172.858 90.99C172.406 90.9231 171.904 90.8061 171.753 90.7224C171.618 90.6554 170.364 90.4386 168.994 90.2381C167.622 90.0541 166.05 89.8199 165.498 89.7195C162.788 89.2679 157.285 88.7663 153.706 88.6492C152.184 88.599 150.528 88.5321 150.026 88.5154C146.664 88.3315 133.149 89.2177 131.46 89.7195C131.142 89.8198 130.606 89.9031 130.289 89.9031C129.652 89.9032 126.341 90.3043 124.685 90.5887C124.133 90.6723 123.23 90.8234 122.678 90.907C121.691 91.0743 120.771 91.2748 119.55 91.5926C118.731 91.81 116.556 92.2279 115.268 92.4119C114.683 92.4955 114.148 92.6126 114.047 92.6795C113.897 92.7631 111.807 93.2317 110.05 93.5662C108.913 93.7836 105.584 94.6873 104.463 95.0721C103.912 95.2726 103.31 95.4224 103.109 95.4226C102.925 95.4226 102.305 95.5737 101.753 95.741C101.218 95.925 100.014 96.2259 99.0943 96.4265C98.1743 96.6273 96.6019 97.0454 95.5816 97.3465C93.1228 98.0824 91.3832 98.5504 86.5494 99.7547C85.4454 100.039 83.572 100.525 82.3677 100.843C81.1803 101.177 79.7421 101.512 79.19 101.612C78.638 101.712 77.5841 101.93 76.8482 102.114C76.1122 102.281 75.0246 102.498 74.4224 102.582C73.0842 102.799 70.6085 103.217 68.8189 103.535C68.0829 103.652 66.7617 103.854 65.8921 103.954C65.0224 104.054 63.7847 104.204 63.1324 104.288C60.2889 104.673 54.9196 104.957 51.7583 104.89C48.5639 104.807 44.316 104.522 43.0611 104.288C42.6096 104.204 41.7732 104.087 41.2212 104.037C38.9465 103.786 33.7779 102.749 32.2222 102.214C31.0346 101.812 30.9679 102.147 31.938 103.753C32.8579 105.308 34.6136 107.081 36.1021 107.951C37.3897 108.72 39.1625 109.473 39.6314 109.473C39.9994 109.473 40.4683 110.008 40.4683 110.427C40.4683 110.611 40.3338 110.945 40.1665 111.163C39.7981 111.633 38.4943 115.361 38.2935 116.481C38.2099 116.916 38.0599 117.737 37.9595 118.339C37.6418 119.978 37.6914 125.832 38.0259 127.254C38.1764 127.889 38.2934 128.641 38.2935 128.926C38.2935 129.227 38.4107 129.678 38.5445 129.946C38.6783 130.197 38.7955 130.548 38.7955 130.699C38.8122 131.435 40.8196 136.403 41.1206 136.403C41.1878 136.404 41.4045 136.721 41.605 137.105C42.0733 138.025 42.7425 138.861 42.8931 138.711C42.96 138.644 42.8933 138.042 42.7427 137.373C42.0569 134.295 42.1073 129.427 42.8433 126.701C43.0272 126.015 43.2616 125.146 43.3453 124.778C43.4456 124.41 43.6295 123.992 43.7466 123.842C43.8802 123.708 43.9806 123.524 43.981 123.44C43.981 123.256 45.2355 121.6 46.0718 120.697C47.6106 119.024 50.7218 117.184 53.2642 116.431C53.8161 116.264 54.5353 116.03 54.8531 115.913C55.8402 115.545 59.0517 114.843 60.4566 114.676C61.1925 114.575 62.1293 114.441 62.5474 114.341C62.9658 114.257 63.9859 114.123 64.8052 114.073C65.6412 114.006 66.3435 113.923 66.3941 113.906C66.4443 113.873 67.3473 113.805 68.4009 113.755C69.4546 113.688 70.8096 113.605 71.3951 113.554C73.1179 113.404 82.9367 113.454 86.3824 113.638C92.7215 113.99 95.5987 114.173 96.8365 114.324C97.5224 114.408 99.1107 114.558 100.348 114.658C102.556 114.842 107.441 115.411 111.137 115.913C112.158 116.063 114.817 116.398 117.075 116.666C119.333 116.95 121.892 117.285 122.762 117.435C123.632 117.569 125.405 117.836 126.693 118.02C135.307 119.291 134.287 119.141 136.896 119.442C139.054 119.676 140.158 119.827 143.085 120.262C143.921 120.395 145.493 120.579 146.597 120.679C147.701 120.78 149.072 120.947 149.641 121.031C150.21 121.115 151.163 121.232 151.732 121.265C152.317 121.316 153.171 121.382 153.623 121.432C154.091 121.483 155.094 121.549 155.88 121.599C156.666 121.65 157.87 121.767 158.556 121.85C160.714 122.135 166.954 122.687 168.007 122.704C168.56 122.704 169.697 122.821 170.516 122.938C172.373 123.239 179.716 123.657 185.068 123.774C187.275 123.824 189.298 123.908 189.567 123.958C190.152 124.075 209.334 124.092 209.522 123.975C209.589 123.925 211.947 123.841 214.757 123.774C217.567 123.707 221.214 123.59 222.87 123.507C226.884 123.306 242.774 123.423 245.116 123.674C246.136 123.774 247.558 123.942 248.294 124.025C249.029 124.126 250.619 124.309 251.806 124.46C253.01 124.61 254.516 124.844 255.152 124.978C255.804 125.112 256.958 125.33 257.744 125.464C258.53 125.597 259.651 125.815 260.253 125.949C260.856 126.083 262.427 126.418 263.765 126.719C265.103 127.003 266.492 127.337 266.86 127.454C267.228 127.571 268.165 127.839 268.951 128.04C270.59 128.475 272.564 129.043 274.721 129.695C275.558 129.963 276.712 130.297 277.314 130.465C277.916 130.615 278.635 130.849 278.903 130.967C279.672 131.301 282.014 132.071 282.667 132.221C282.984 132.305 283.67 132.522 284.171 132.722C284.673 132.923 285.543 133.175 286.095 133.292C286.647 133.409 287.534 133.71 288.052 133.961C288.571 134.212 289.742 134.664 290.645 134.965C291.548 135.282 293.004 135.801 293.874 136.136C294.743 136.47 295.596 136.737 295.747 136.737C295.914 136.737 296.55 136.955 297.168 137.222Z" fill="black"/>
<path fill-rule="evenodd" clip-rule="evenodd" d="M124.937 197.286C125.389 197.286 126.208 196.534 126.727 195.664C127.094 195.029 127.128 194.861 126.961 194.493C126.777 194.109 126.694 194.076 126.108 194.176L125.439 194.276V193.573C125.456 192.453 126.459 186.599 127.362 182.568C127.513 181.882 127.731 180.828 127.848 180.226C128.249 178.269 128.751 176.011 129.119 174.455C129.203 174.087 129.437 173.1 129.621 172.281C130.491 168.468 130.841 167.18 131.025 167.029C131.229 166.856 137.373 167.036 138.732 167.239L139.025 167.297C139.23 167.323 139.435 167.233 139.64 167.029C140.091 166.577 140.074 166.41 139.556 165.925C139.204 165.591 138.921 165.506 138.252 165.506C137.784 165.506 136.06 165.423 134.437 165.306L131.461 165.121V164.703C131.461 164.469 131.528 164.017 131.628 163.683C131.812 163.028 133.066 157.812 133.618 155.387C133.819 154.551 134.053 153.614 134.137 153.296C134.237 152.978 134.388 152.376 134.488 151.958C134.589 151.54 134.756 150.787 134.89 150.285C135.09 149.449 135.275 148.646 135.91 145.853C136.027 145.301 136.328 143.913 136.562 142.759C136.797 141.605 137.064 140.283 137.164 139.831C137.264 139.363 137.381 138.091 137.432 136.988C137.515 134.981 137.515 134.964 137.063 134.429C136.528 133.794 135.943 133.743 135.258 134.244C134.371 134.913 132.514 137.623 130.959 140.5C130.574 141.236 130.039 142.207 129.788 142.675C129.253 143.645 127.179 147.693 122.964 155.973C121.291 159.234 119.602 162.546 119.2 163.332L118.464 164.754L114.216 164.67C106.522 164.52 106.036 164.536 105.752 164.938C105.551 165.256 105.568 165.339 105.819 165.64C106.204 166.092 108.111 166.292 113.563 166.426C115.621 166.476 117.343 166.561 117.377 166.594C117.46 166.679 116.975 167.682 116.189 169.103C115.621 170.106 114.282 172.515 113.346 174.204C111.522 177.516 109.147 181.162 108.144 182.199C107.307 183.103 106.304 183.638 105.768 183.504C105.551 183.437 105.1 183.153 104.766 182.868C103.862 182.066 103.511 181.446 102.591 178.971C102.39 178.452 102.039 176.747 101.838 175.375C101.553 173.452 101.755 168.384 102.173 167.012C103.427 162.83 105.033 160.79 107.843 159.803C109.064 159.351 111.874 159.318 113.228 159.719C114.416 160.07 114.951 160.054 115.319 159.653C115.821 159.101 115.453 158.615 114.299 158.281C108.679 156.658 104.046 158.565 101.654 163.499C100.115 166.677 99.513 172.181 100.249 176.379C101.219 181.949 103.327 185.076 106.103 185.076C108.06 185.076 109.432 183.839 112.125 179.573C113.329 177.683 117.193 170.876 118.414 168.467C118.732 167.848 119.15 167.146 119.334 166.911L119.685 166.477L124.268 166.677C126.794 166.794 128.918 166.928 129.002 166.995C129.068 167.064 128.867 168.251 128.533 169.621C127.78 172.732 127.547 173.786 127.195 175.375C127.045 176.061 126.861 176.897 126.777 177.215C126.677 177.533 126.409 178.771 126.175 179.975C125.924 181.162 125.623 182.634 125.489 183.237C125.355 183.839 125.154 184.842 125.02 185.494C123.9 191.349 123.466 194.862 123.733 195.899C123.951 196.735 124.436 197.286 124.937 197.286ZM204.806 198.056C205.358 198.19 205.776 197.839 206.295 196.718C207.031 195.129 206.997 194.594 206.11 194.259C205.742 194.125 205.693 194.042 205.793 193.557C205.86 193.273 206.01 192.235 206.144 191.265C206.261 190.295 206.495 188.756 206.645 187.836C206.796 186.916 207.014 185.528 207.147 184.741C207.265 183.955 207.499 182.634 207.649 181.815C207.8 180.978 208.018 179.741 208.151 179.055C208.436 177.416 208.636 176.395 209.355 172.866C209.673 171.261 210.041 169.454 210.158 168.852C210.459 167.397 210.66 166.895 211.028 166.778C211.196 166.727 211.982 166.61 212.801 166.51C213.604 166.41 214.457 166.26 214.691 166.176C214.925 166.076 215.293 166.008 215.527 166.008C216.029 166.008 217.886 165.406 218.404 165.072C218.906 164.754 218.889 164.085 218.371 163.75C218.02 163.516 217.919 163.516 217.418 163.734C216.281 164.235 213.587 164.804 211.646 164.954C211.028 165.021 210.743 164.971 210.593 164.771C210.275 164.386 209.991 164.436 209.405 165.005C208.937 165.456 208.786 165.507 207.767 165.524C206.529 165.54 206.228 165.574 204.388 165.824C203.702 165.925 202.531 166.042 201.795 166.092C201.059 166.142 200.005 166.259 199.453 166.343C198.901 166.427 197.881 166.527 197.195 166.577C195.908 166.661 194.286 166.929 194.001 167.096C193.733 167.263 193.833 168.3 194.117 168.417C194.535 168.584 195.64 168.534 197.697 168.267C200.976 167.849 203.919 167.53 205.308 167.43C206.043 167.363 206.93 167.246 207.298 167.162C208.352 166.878 208.368 167.129 207.432 168.885C202.029 179.004 196.744 185.344 192.445 186.799C191.408 187.15 190.672 187.15 189.869 186.832C188.213 186.13 187.41 184.608 186.892 181.146C186.406 177.901 186.942 173.334 188.564 166.928C188.832 165.857 190.087 161.96 190.338 161.408C190.422 161.224 190.655 160.656 190.839 160.155C191.023 159.653 191.257 159.084 191.341 158.9C191.424 158.716 191.608 158.281 191.742 157.93C192.762 155.354 195.974 149.098 197.58 146.522C199.704 143.126 200.708 141.705 202.28 139.831C205.157 136.436 207.532 135.416 208.804 137.022C209.673 138.142 209.807 138.778 209.807 142.173C209.79 145.401 209.623 146.773 208.804 150.118C208.653 150.721 208.452 151.641 208.352 152.193C208.168 153.129 208.185 153.18 208.553 153.481C208.987 153.832 209.439 153.698 209.74 153.129C210.259 152.142 211.262 147.175 211.597 143.93C212.065 139.213 210.761 135.449 208.402 134.746C206.128 134.061 203.669 135.466 200.691 139.179C197.58 143.026 195.154 146.974 192.261 152.878C188.263 161.024 186.189 167.53 185.303 174.789C185.035 176.93 185.202 182.2 185.57 183.488C186.223 185.829 187.36 187.451 188.882 188.271C189.885 188.789 192.227 188.789 193.432 188.254C196.275 186.983 199.353 184.207 202.347 180.242C203.735 178.386 206.227 174.573 206.812 173.402C207.097 172.833 207.415 172.381 207.532 172.364C207.766 172.365 207.816 173.05 207.582 173.301C207.498 173.385 207.348 173.97 207.248 174.622C207.047 175.893 206.746 177.483 206.311 179.724C206.027 181.196 205.709 182.985 205.392 184.992C205.291 185.628 205.14 186.498 205.057 186.916C204.923 187.569 204.755 188.823 204.053 194.075C203.718 196.567 203.953 197.838 204.806 198.056ZM129.871 164.034C129.67 165.155 129.704 165.155 124.82 165.055C120.873 164.971 120.421 164.921 120.421 164.687C120.421 164.52 120.488 164.336 120.571 164.236C120.738 164.068 122.528 160.589 126.827 152.125C128.433 148.947 129.972 145.937 130.239 145.435C130.507 144.933 130.992 144.03 131.293 143.428C132.48 141.12 134.823 137.206 135.375 136.604C135.676 136.269 135.743 136.252 135.776 136.487C135.893 136.989 135.441 139.983 134.789 143.093C134.455 144.698 133.033 150.802 132.799 151.623C132.715 151.941 132.38 153.296 132.062 154.634C131.745 155.972 131.294 157.845 131.06 158.816C130.24 162.261 129.971 163.432 129.871 164.034ZM141.396 205.232C141.982 206.118 142.868 205.633 143.621 203.977C144.057 203.021 147.1 194.008 148.019 190.931C148.304 189.961 148.605 189.025 148.672 188.84C148.822 188.472 149.023 187.803 149.943 184.825C150.295 183.722 150.746 182.283 150.947 181.648C151.165 180.995 151.448 180.092 151.582 179.64C152.769 175.66 153.941 172.365 154.158 172.364C154.292 172.364 154.593 172.515 154.827 172.698C155.061 172.882 155.497 173.033 155.798 173.033C156.5 173.033 157.772 172.18 158.541 171.177C158.875 170.742 159.227 170.374 159.344 170.374C159.477 170.358 159.527 170.91 159.527 172.247C159.511 174.388 159.711 174.99 160.614 175.559C161.216 175.943 161.752 175.894 162.839 175.359C163.709 174.94 165.599 173.234 166.269 172.264C166.536 171.863 166.837 171.528 166.921 171.528C167.005 171.528 167.238 171.83 167.422 172.214C167.857 173.034 168.61 173.418 169.245 173.151C169.479 173.05 169.965 172.699 170.333 172.381C171.103 171.662 173.611 168.567 173.611 168.333C173.611 168.233 173.711 168.183 173.811 168.216C173.929 168.266 174.112 168.852 174.213 169.537C174.681 172.447 175.284 173.752 176.571 174.672C177.257 175.157 178.395 175.157 179.248 174.672C181.054 173.652 182.744 171.444 185.119 166.962C185.705 165.858 185.637 165.256 184.901 165.072C184.349 164.938 184.132 165.122 183.563 166.292C182.66 168.115 181.305 170.34 180.469 171.344C179.565 172.431 178.345 173.368 177.826 173.368C176.789 173.368 175.902 170.792 175.618 167.029C175.518 165.624 175.434 165.239 175.184 165.055C174.498 164.553 174.264 164.72 172.574 167.012C170.886 169.286 169.397 171.025 169.145 171.027C168.945 171.027 168.911 170.859 169.012 170.173C169.129 169.287 169.58 167.883 169.864 167.481C170.266 166.929 170.601 166.175 170.601 165.858C170.601 165.356 171.27 164.369 172.156 163.532C173.176 162.596 173.895 162.563 174.865 163.415C175.819 164.252 176.622 164.152 176.622 163.198C176.622 162.713 175.685 161.76 174.882 161.425C174.18 161.141 173.595 161.024 173.193 161.108C171.37 161.492 170.049 162.864 168.477 166.042C168.058 166.895 167.489 167.932 167.205 168.35C166.636 169.203 164.378 171.896 163.742 172.515C162.806 173.385 161.936 174.037 161.668 174.037C161.049 174.037 160.899 172.531 161.317 170.274C161.451 169.538 161.552 168.434 161.568 167.798C161.568 166.728 161.551 166.661 161.116 166.493C160.414 166.226 159.912 166.56 158.892 167.965C157.788 169.504 156.834 170.641 156.249 171.093C155.848 171.411 155.831 171.411 155.597 171.093C155.279 170.691 155.412 168.083 155.764 167.397C156.282 166.41 156.583 165.508 156.5 165.256C156.433 165.122 156.199 164.921 155.981 164.804C155.647 164.653 155.48 164.671 155.145 164.888C154.677 165.206 153.857 166.828 153.539 168.099C153.455 168.366 153.138 169.354 152.82 170.274C152.151 172.197 150.98 175.844 150.194 178.386C149.893 179.356 149.525 180.56 149.357 181.062C149.19 181.564 148.739 183.003 148.354 184.24C147.97 185.478 147.284 187.702 146.815 189.174C146.364 190.646 145.862 192.218 145.728 192.687C145.578 193.138 145.394 193.657 145.327 193.808C145.243 193.975 145.176 194.209 145.176 194.343C145.176 194.477 145.092 194.794 144.976 195.062C144.875 195.313 144.691 195.865 144.607 196.267C144.507 196.668 144.323 197.036 144.206 197.086C143.922 197.17 143.989 196.166 144.407 193.808C144.725 191.985 145.109 189.726 145.427 187.752C145.544 186.966 145.762 185.645 145.912 184.825C146.046 183.989 146.28 182.634 146.414 181.815C146.548 180.978 146.782 179.657 146.933 178.837C147.451 175.91 147.702 174.422 147.936 173.033C148.07 172.247 148.287 170.976 148.437 170.19C149.324 165.289 149.324 165.005 148.454 165.005C147.969 165.005 147.919 165.056 146.531 166.928C145.16 168.768 143.237 171.11 142.701 171.578C142.166 172.063 141.948 171.796 142.082 170.792C142.366 168.668 143.319 166.845 144.892 165.406C146.213 164.185 147.886 163.7 149.124 164.168C149.508 164.319 149.675 164.285 150.01 164.034C150.595 163.6 150.612 163.399 150.127 162.914C149.742 162.53 149.592 162.495 148.103 162.495C146.665 162.495 146.397 162.546 145.461 163.014C143.654 163.884 142.115 165.641 141.095 168.016C140.71 168.885 140.593 169.421 140.526 170.776C140.459 172.415 140.459 172.465 140.911 173C141.312 173.468 141.463 173.535 142.199 173.535C143.018 173.535 143.052 173.518 144.307 172.231C145.009 171.511 145.811 170.658 146.079 170.34C146.731 169.604 146.798 169.872 146.447 171.779C146.129 173.434 145.811 175.308 145.427 177.633C145.276 178.553 145.042 179.874 144.908 180.56C144.791 181.245 144.607 182.299 144.507 182.902C144.423 183.504 144.223 184.658 144.089 185.494C143.838 186.983 143.603 188.321 143.085 191.516C142.934 192.436 142.701 193.791 142.584 194.527C142.35 195.932 141.982 198.123 141.563 200.799C141.129 203.525 141.079 204.747 141.396 205.232ZM221.098 172.933C222.118 173.618 223.021 173.686 224.058 173.151C224.961 172.682 225.597 172.08 226.082 171.21C226.4 170.642 226.417 170.641 227.654 170.591C229.093 170.541 229.962 170.24 231.501 169.27C232.588 168.567 234.094 167.179 234.596 166.426C234.896 165.975 234.712 165.473 234.143 165.172C233.843 165.005 233.625 165.155 232.304 166.409C230.547 168.082 228.758 169.069 227.603 168.986L226.935 168.936L226.901 166.845C226.868 165.039 226.818 164.654 226.483 163.985C226.266 163.566 225.864 163.064 225.563 162.864C224.66 162.245 224.058 162.362 223.121 163.332C222.67 163.784 222.252 164.168 222.185 164.168C221.9 164.168 220.914 165.071 220.462 165.74C218.806 168.132 219.107 171.595 221.098 172.933ZM225.078 168.016C224.576 168.016 223.79 166.661 223.79 165.808C223.79 165.507 223.941 165.004 224.125 164.703C224.392 164.252 224.526 164.185 224.693 164.319C225.229 164.77 225.563 168.016 225.078 168.016ZM223.606 171.461C222.787 171.879 222.184 171.762 221.666 171.076C221.248 170.525 221.198 170.34 221.198 169.119C221.198 168.133 221.298 167.564 221.532 167.045C221.9 166.226 222.117 166.209 222.335 166.995C222.536 167.815 223.189 168.751 223.958 169.37C224.326 169.671 224.627 170.023 224.627 170.14C224.627 170.525 224.108 171.194 223.606 171.461Z" fill="black"/>
</svg>
