<svg width="48" height="48" viewBox="0 0 48 48" fill="none" xmlns="http://www.w3.org/2000/svg">
<path d="M8.84667 30.6812L8.95777 30.4811C10.1907 28.2619 10.8377 25.765 10.8376 23.2263V9.29081C10.8376 4.725 15.5036 0.928594 21.6531 0.147656C21.6531 0.147656 23.1983 0.128906 23.999 0.128906C31.2677 0.128906 37.1603 5.18906 37.1603 10.3201V23.2264C37.1603 25.7651 37.8073 28.262 39.0402 30.4812L39.1513 30.6813C40.3842 32.9005 41.0311 36.1716 41.0311 38.7103H6.9668C6.9668 36.1715 7.61377 32.9003 8.84667 30.6812Z" fill="#ECEAEC"/>
<path d="M37.1615 10.8387V9.29034C37.1615 4.15931 31.2689 0 24.0002 0C23.2063 0 22.4095 0.0520312 21.6543 0.147094C27.8134 0.922594 32.5163 4.71975 32.5163 9.29025V10.8386L37.1615 10.8387ZM23.226 10.8387H35.6131V23.2258C35.6131 26.0194 36.3306 28.7881 37.687 31.2323L37.8026 31.4372C38.6071 32.8873 39.202 35.0527 39.4062 37.1612H23.226V10.8387Z" fill="#DBD8DB"/>
<path d="M28.2936 30.3965H18.5801V32.1136L19.4553 33.7157H28.2936V30.3965Z" fill="#F4AA73"/>
<path d="M18.5801 27.0977V30.3971C20.1986 31.2532 22.041 31.7428 23.9994 31.7428C24.9372 31.7428 25.8464 31.6293 26.718 31.4178C27.3055 31.2754 27.8703 31.7227 27.8703 32.3272C27.8703 32.5493 27.8901 32.7682 27.9275 32.9823L29.4187 32.1142V27.0977H18.5801Z" fill="#E29A6C"/>
<path d="M39.2467 37.7907L31.0871 35.3908L27.8911 32.6962C27.3769 32.8569 26.8533 32.9857 26.3232 33.0818L25.6731 33.9699L24.7758 33.2673C24.5194 33.2826 24.2609 33.2903 24.0005 33.2903C22.0663 33.2903 20.2354 32.8626 18.5812 32.1133V32.3267C18.5812 32.6963 18.493 33.0606 18.324 33.3893C18.1549 33.718 17.9098 34.0015 17.6091 34.2165L17.7626 35.1L15.6057 34.9397L8.75442 36.9547C6.77752 37.5362 5.41992 39.3505 5.41992 41.4111V45.6774C5.41992 46.9601 6.4598 48 7.74248 48H24.7747L25.5662 47.3782L26.3231 48H40.2585C40.5222 48.0003 40.7841 47.9556 41.0327 47.8679L41.8151 45.6774V42.247C41.8151 40.1865 41.2236 38.3722 39.2467 37.7907Z" fill="#DBD8DB"/>
<path d="M15.6055 34.9397L16.9138 34.5549C17.1628 34.4818 17.3978 34.3675 17.6089 34.2166C19.5605 35.1059 21.7196 35.613 24.0004 35.613C24.262 35.613 24.5164 35.6047 24.7746 35.5915L24.7757 33.2674C25.2948 33.2367 25.8115 33.1747 26.3232 33.0819L26.3231 35.4313C27.1742 35.2988 28.0061 35.0916 28.8062 34.826C28.3031 34.228 27.9668 33.4978 27.8911 32.6962C28.4119 32.5328 28.9224 32.3381 29.4198 32.1133V32.3267C29.4198 33.0914 29.7937 33.7882 30.3906 34.2155L30.2901 35.1102L32.3953 34.9397L39.2466 36.9547C41.2235 37.5362 42.5811 39.3505 42.5811 41.4111V45.6774C42.5811 46.6872 41.9327 47.5479 41.0327 47.8679V41.411C41.0327 40.0472 40.1187 38.8253 38.8099 38.4406L30.6492 36.0408C30.544 36.0098 30.4464 35.9644 30.3456 35.9251C29.0541 36.4467 27.703 36.8064 26.3231 36.996V48H24.7747V37.1389C24.5177 37.1507 24.2604 37.1613 24.0005 37.1613C20.9491 37.1613 18.0852 36.3507 15.6055 34.9397Z" fill="#C9C5C9"/>
<path d="M32.163 11.6133V20.1294C32.163 25.6879 26.7263 27.0972 18.5807 27.0972L13.9355 20.1294V13.9358L15.8531 11.6133H32.163Z" fill="#FBBD80"/>
<path d="M13.9355 11.6134V13.9359H29.4194C30.2746 13.9359 30.9678 14.6292 30.9678 15.4843V21.6778L34.0645 20.1294V11.6133L13.9355 11.6134Z" fill="#F4AA73"/>
<path d="M28.6452 19.3558C28.7469 19.3558 28.8476 19.3358 28.9415 19.297C29.0355 19.2581 29.1209 19.2011 29.1928 19.1292C29.2647 19.0572 29.3217 18.9719 29.3606 18.8779C29.3995 18.784 29.4195 18.6833 29.4194 18.5816V17.8074C29.4195 17.7057 29.3995 17.605 29.3606 17.511C29.3217 17.4171 29.2647 17.3317 29.1928 17.2598C29.1209 17.1879 29.0355 17.1309 28.9415 17.092C28.8476 17.0531 28.7469 17.0331 28.6452 17.0332C28.5435 17.0331 28.4428 17.0531 28.3489 17.092C28.2549 17.1309 28.1695 17.1879 28.0976 17.2598C28.0257 17.3317 27.9687 17.4171 27.9298 17.511C27.8909 17.605 27.871 17.7057 27.871 17.8074V18.5816C27.871 18.6833 27.891 18.784 27.9298 18.8779C27.9687 18.9719 28.0258 19.0572 28.0977 19.1291C28.1696 19.201 28.2549 19.258 28.3489 19.2969C28.4428 19.3358 28.5435 19.3558 28.6452 19.3558ZM19.355 19.3558C19.4566 19.3558 19.5573 19.3358 19.6513 19.297C19.7453 19.2581 19.8306 19.2011 19.9025 19.1292C19.9744 19.0572 20.0314 18.9719 20.0703 18.8779C20.1092 18.784 20.1292 18.6833 20.1291 18.5816V17.8074C20.1291 17.3794 19.7828 17.0332 19.355 17.0332C18.9271 17.0332 18.5808 17.3795 18.5808 17.8074V18.5816C18.5807 18.6833 18.6007 18.784 18.6396 18.8779C18.6785 18.9719 18.7355 19.0572 18.8074 19.1292C18.8793 19.2011 18.9647 19.2581 19.0586 19.297C19.1526 19.3358 19.2533 19.3558 19.355 19.3558ZM30.9679 21.6783C30.9679 22.5334 30.2746 23.2267 29.4195 23.2267C28.2125 23.2267 27.771 22.2475 27.2006 21.6784C26.6665 21.1457 25.9065 20.904 25.1521 20.904H22.8481C22.0938 20.904 21.3336 21.1456 20.7995 21.6784C20.2292 22.2475 19.7877 23.2267 18.5807 23.2267C17.7255 23.2267 17.0323 22.5334 17.0323 21.6783C17.0323 20.8231 16.339 20.13 15.4839 20.13H13.9355C13.9355 25.4256 18.0256 29.766 23.219 30.1646C23.219 30.1646 23.7372 30.158 24.0001 30.158C29.5585 30.158 32.7434 24.2581 32.7434 20.99L30.9679 21.6783ZM25.8425 24.4319C25.2959 24.6564 24.6593 24.7751 24.0001 24.7751C23.3408 24.7751 22.7042 24.6564 22.1576 24.4319C21.7622 24.2693 21.5732 23.8171 21.7357 23.4218C21.8975 23.0256 22.3527 22.8389 22.7458 22.9999C23.4685 23.2963 24.5315 23.2963 25.2544 22.9999C25.6475 22.8366 26.1027 23.0256 26.2644 23.4218C26.427 23.8171 26.238 24.2693 25.8425 24.4319Z" fill="#615260"/>
<path d="M27.8711 16.2593H29.4195C29.5211 16.2594 29.6218 16.2394 29.7158 16.2005C29.8098 16.1616 29.8951 16.1046 29.967 16.0327C30.0389 15.9608 30.0959 15.8754 30.1348 15.7815C30.1737 15.6875 30.1937 15.5868 30.1936 15.4851C30.1937 15.3834 30.1737 15.2828 30.1348 15.1888C30.0959 15.0949 30.0388 15.0095 29.9669 14.9376C29.895 14.8657 29.8097 14.8087 29.7158 14.7698C29.6218 14.7309 29.5211 14.7109 29.4195 14.7109H27.8711C27.7694 14.7109 27.6687 14.7309 27.5748 14.7698C27.4808 14.8087 27.3955 14.8657 27.3236 14.9376C27.2517 15.0095 27.1947 15.0949 27.1558 15.1888C27.1169 15.2828 27.0969 15.3834 27.0969 15.4851C27.0968 15.5868 27.1168 15.6875 27.1557 15.7815C27.1946 15.8754 27.2516 15.9608 27.3235 16.0327C27.3954 16.1046 27.4808 16.1616 27.5747 16.2005C27.6687 16.2394 27.7694 16.2594 27.8711 16.2593ZM18.5808 16.2593H20.1292C20.2309 16.2594 20.3316 16.2394 20.4255 16.2005C20.5195 16.1616 20.6049 16.1046 20.6768 16.0327C20.7487 15.9608 20.8057 15.8754 20.8446 15.7815C20.8835 15.6875 20.9035 15.5868 20.9034 15.4851C20.9034 15.3834 20.8834 15.2828 20.8445 15.1888C20.8056 15.0949 20.7486 15.0095 20.6767 14.9376C20.6048 14.8657 20.5194 14.8087 20.4255 14.7698C20.3316 14.7309 20.2309 14.7109 20.1292 14.7109H18.5808C18.4792 14.7109 18.3785 14.7309 18.2845 14.7698C18.1906 14.8087 18.1052 14.8657 18.0333 14.9376C17.9614 15.0095 17.9044 15.0949 17.8655 15.1888C17.8266 15.2828 17.8066 15.3834 17.8066 15.4851C17.8066 15.5868 17.8266 15.6875 17.8654 15.7815C17.9043 15.8754 17.9614 15.9608 18.0333 16.0327C18.1052 16.1046 18.1905 16.1616 18.2845 16.2005C18.3784 16.2394 18.4791 16.2594 18.5808 16.2593Z" fill="#4E3D4D"/>
<path d="M32.5168 9.28906H10.8394C9.9843 9.28906 9.29102 9.98225 9.29102 10.8374L10.8394 11.7028H33.4465L32.5168 9.28906Z" fill="#615260"/>
<path d="M32.5168 20.1278H34.0652C34.0652 25.6862 29.5591 30.1923 24.0007 30.1923C23.7394 30.1923 23.476 30.182 23.2196 30.1624C27.5594 29.7705 30.9684 26.1179 30.9684 21.6762C30.9685 20.821 31.6616 20.1278 32.5168 20.1278ZM32.5168 9.28906H37.162C38.017 9.28906 38.7103 9.98225 38.7103 10.8374C38.7103 11.6925 38.017 12.3858 37.162 12.3858H10.8394C9.9843 12.3858 9.29102 11.6925 9.29102 10.8374H30.9685C31.8235 10.8374 32.5168 10.1442 32.5168 9.28906Z" fill="#4E3D4D"/>
<path d="M30.3894 34.2148C30.601 34.3661 30.8364 34.4808 31.0859 34.5542L32.3943 34.939C31.7383 35.3123 31.0539 35.6403 30.3478 35.9257C29.7433 35.6897 29.2183 35.3131 28.8116 34.8324C29.3483 34.655 29.875 34.4489 30.3894 34.2148ZM26.3218 36.9952C25.8081 37.0664 25.2915 37.1141 24.7734 37.1382V35.5906C25.292 35.5637 25.8088 35.5102 26.3218 35.4304V36.9952Z" fill="#B8B2B8"/>
<path d="M22.4519 40.2593C22.8795 40.2593 23.2261 39.9127 23.2261 39.4851C23.2261 39.0576 22.8795 38.7109 22.4519 38.7109C22.0243 38.7109 21.6777 39.0576 21.6777 39.4851C21.6777 39.9127 22.0243 40.2593 22.4519 40.2593Z" fill="#ECEAEC"/>
<path d="M22.4519 46.4507C22.8795 46.4507 23.2261 46.1041 23.2261 45.6765C23.2261 45.249 22.8795 44.9023 22.4519 44.9023C22.0243 44.9023 21.6777 45.249 21.6777 45.6765C21.6777 46.1041 22.0243 46.4507 22.4519 46.4507Z" fill="#ECEAEC"/>
</svg>
