<svg width="197" height="187" viewBox="0 0 197 187" fill="none" xmlns="http://www.w3.org/2000/svg">
<circle cx="97.728" cy="93.728" r="91.228" fill="#262626"/>
<path d="M106.98 12.7773L108.167 16.2743L111.376 17.5683L108.167 18.8623L106.98 22.3593L105.793 18.8623L102.584 17.5683L105.793 16.2743L106.98 12.7773Z" fill="#A3A3A3"/>
<path d="M35.6439 103.805L36.9931 107.739L40.6394 109.195L36.9931 110.65L35.6439 114.584L34.2947 110.65L30.6484 109.195L34.2947 107.739L35.6439 103.805Z" fill="#A3A3A3"/>
<path d="M56.0293 127.709L65.6371 137.317L36.5135 166.44C33.8604 169.093 29.5588 169.093 26.9057 166.44C24.2526 163.787 24.2526 159.486 26.9057 156.833L56.0293 127.709Z" fill="#737373"/>
<path d="M66.2363 114.498L78.8465 127.108L65.0298 140.925C63.4706 142.484 60.9427 142.484 59.3836 140.925L52.4196 133.961C50.8604 132.402 50.8604 129.874 52.4196 128.315L66.2363 114.498Z" fill="#525252"/>
<circle cx="98.2129" cy="93.1235" r="48.4053" transform="rotate(45 98.2129 93.1235)" fill="#525252"/>
<circle cx="98.0349" cy="93.2327" r="37.3655" transform="rotate(90 98.0349 93.2327)" fill="#A3A3A3"/>
<path d="M96.6722 108.566C99.3182 108.566 101.463 110.711 101.463 113.357C101.463 116.003 99.3182 118.148 96.6722 118.148C94.0264 118.148 91.8812 116.003 91.8812 113.357C91.8812 110.712 94.0264 108.567 96.6722 108.566ZM99.0658 70.6387C101.342 70.6389 103.158 72.5394 103.054 74.8135L101.756 103.16C101.659 105.292 99.9019 106.97 97.7679 106.97H95.974C93.84 106.97 92.0823 105.292 91.9847 103.16L90.6878 74.8135C90.5839 72.5393 92.3996 70.6387 94.6761 70.6387H99.0658Z" fill="white"/>
<circle cx="176.344" cy="86.2386" r="3.99247" fill="#A3A3A3"/>
<path d="M187.797 153.579C188.313 152.775 189.489 152.775 190.006 153.579L191.833 156.423C192.01 156.7 192.286 156.9 192.604 156.983L195.873 157.842C196.798 158.085 197.161 159.203 196.556 159.943L194.416 162.559C194.207 162.814 194.102 163.137 194.121 163.466L194.315 166.84C194.37 167.795 193.418 168.486 192.527 168.139L189.378 166.912C189.071 166.792 188.731 166.792 188.425 166.912L185.275 168.139C184.384 168.486 183.433 167.795 183.488 166.84L183.682 163.466C183.701 163.137 183.596 162.814 183.387 162.559L181.247 159.943C180.642 159.203 181.005 158.085 181.93 157.842L185.199 156.983C185.517 156.9 185.792 156.7 185.97 156.423L187.797 153.579Z" fill="#A3A3A3"/>
</svg>
