<svg width="20" height="20" viewBox="0 0 20 20" fill="none" xmlns="http://www.w3.org/2000/svg">
<path d="M8.59961 15.8084C8.71628 15.9 8.83294 15.9834 8.95794 16.075C9.90794 16.7667 10.8663 17.3167 11.8246 17.725C12.7829 18.1334 13.6913 18.3334 14.5413 18.3334C15.1246 18.3334 15.6663 18.225 16.1663 18.0167C16.6746 17.8084 17.1246 17.4834 17.5329 17.0334C17.7746 16.7667 17.9579 16.4834 18.0996 16.1834C18.2413 15.8834 18.3079 15.575 18.3079 15.275C18.3079 15.0417 18.2579 14.8334 18.1746 14.625C18.0829 14.4167 17.9329 14.2417 17.7163 14.0917L14.9579 12.1334C14.7496 11.9917 14.5579 11.8834 14.3746 11.8084C14.1913 11.7334 14.0246 11.7 13.8663 11.7C13.6579 11.7 13.4663 11.7584 13.2746 11.875C13.0829 11.975 12.8829 12.1334 12.6746 12.3417L12.0413 12.9667C11.9496 13.0584 11.8413 13.1084 11.6996 13.1084C11.6246 13.1084 11.5579 13.1 11.4913 13.075C11.4329 13.05 11.3829 13.025 11.3413 13.0084C11.1829 12.925 10.9996 12.8084 10.7996 12.6584" stroke="white" stroke-width="1.5" stroke-miterlimit="10" stroke-linecap="round" stroke-linejoin="round"/>
<path d="M8.94102 11.0167C8.50768 10.575 8.10768 10.1333 7.73268 9.69999C7.36602 9.26666 7.10768 8.90832 6.95768 8.63332C6.94102 8.58332 6.91602 8.53332 6.89102 8.46666C6.87435 8.39999 6.86602 8.34166 6.86602 8.27499C6.86602 8.14166 6.90768 8.03332 6.99935 7.94166L7.63268 7.28332C7.83268 7.08332 7.99102 6.88332 8.09935 6.69166C8.21602 6.49999 8.27435 6.29999 8.27435 6.09999C8.27435 5.94166 8.23268 5.76666 8.15768 5.59166C8.08268 5.40832 7.97435 5.21666 7.82435 5.00832L5.89102 2.28332C5.74102 2.06666 5.54935 1.91666 5.33268 1.81666C5.12435 1.71666 4.89102 1.66666 4.65768 1.66666C4.04102 1.66666 3.45768 1.92499 2.92435 2.44999C2.48268 2.86666 2.16602 3.33332 1.96602 3.84166C1.76602 4.34166 1.66602 4.88332 1.66602 5.44999C1.66602 6.31666 1.86602 7.22499 2.26602 8.17499C2.66602 9.11666 3.21602 10.0667 3.89935 11.0167C4.59102 11.9667 5.36602 12.875 6.22435 13.7417" stroke="white" stroke-width="1.5" stroke-miterlimit="10" stroke-linecap="round" stroke-linejoin="round"/>
<path d="M18.3327 1.66666L1.66602 18.3333" stroke="white" stroke-width="1.5" stroke-linecap="round" stroke-linejoin="round"/>
</svg>
