<svg width="20" height="20" viewBox="0 0 20 20" fill="none" xmlns="http://www.w3.org/2000/svg">
<path d="M16.8234 11.7167L15.8817 10.15C15.6734 9.80837 15.49 9.15004 15.49 8.75004V7.19171C15.49 4.16671 13.0317 1.70837 10.015 1.70837C6.99005 1.71671 4.53171 4.16671 4.53171 7.19171V8.74171C4.53171 9.14171 4.34838 9.80004 4.14838 10.1417L3.20671 11.7084C2.84838 12.3167 2.76505 13.0084 2.99005 13.6084C3.21505 14.2167 3.72338 14.7 4.39005 14.9167C5.29005 15.2167 6.19838 15.4334 7.12338 15.5917C7.21505 15.6084 7.30671 15.6167 7.39838 15.6334C7.51505 15.65 7.64004 15.6667 7.76504 15.6834C7.98171 15.7167 8.19838 15.7417 8.42338 15.7584C8.94838 15.8084 9.48171 15.8334 10.015 15.8334C10.54 15.8334 11.065 15.8084 11.5817 15.7584C11.7734 15.7417 11.965 15.725 12.1484 15.7C12.2984 15.6834 12.4484 15.6667 12.5984 15.6417C12.69 15.6334 12.7817 15.6167 12.8734 15.6C13.8067 15.45 14.7317 15.2167 15.6317 14.9167C16.2734 14.7 16.765 14.2167 16.9984 13.6C17.2317 12.975 17.165 12.2917 16.8234 11.7167ZM10.6234 8.33337C10.6234 8.68337 10.34 8.96671 9.99005 8.96671C9.64005 8.96671 9.35671 8.68337 9.35671 8.33337V5.75004C9.35671 5.40004 9.64005 5.11671 9.99005 5.11671C10.34 5.11671 10.6234 5.40004 10.6234 5.75004V8.33337Z" fill="#16F7FF"/>
<path d="M12.3587 16.675C12.0087 17.6416 11.0837 18.3333 10.0004 18.3333C9.34206 18.3333 8.69206 18.0666 8.23372 17.5916C7.96706 17.3416 7.76706 17.0083 7.65039 16.6666C7.75872 16.6833 7.86706 16.6916 7.98372 16.7083C8.17539 16.7333 8.37539 16.7583 8.57539 16.775C9.05039 16.8166 9.53372 16.8416 10.0171 16.8416C10.4921 16.8416 10.9671 16.8166 11.4337 16.775C11.6087 16.7583 11.7837 16.75 11.9504 16.725C12.0837 16.7083 12.2171 16.6916 12.3587 16.675Z" fill="#16F7FF"/>
</svg>
