<svg width="24" height="24" viewBox="0 0 24 24" fill="none" xmlns="http://www.w3.org/2000/svg">
<path d="M12 6.19C12.1339 6.19 12.25 6.30614 12.25 6.44V9.77008C12.25 9.90957 12.1382 10.0201 12 10.0201C11.8662 10.0201 11.75 9.90391 11.75 9.77008V6.44C11.75 6.30614 11.8661 6.19 12 6.19Z" fill="white" stroke="white"/>
<path d="M12.0205 1.73999C15.8344 1.73999 18.9307 4.83629 18.9307 8.65015V10.7498C18.9307 11.0827 19.0054 11.4893 19.1094 11.8611C19.2135 12.2334 19.3605 12.6193 19.5312 12.906L19.5322 12.907L20.8018 15.0271L20.8027 15.0281C21.1928 15.6755 21.2604 16.4476 21.001 17.1589C20.7444 17.8621 20.1811 18.4034 19.4609 18.6462H19.46C17.0645 19.4577 14.5488 19.8503 12.0205 19.8503C9.49348 19.8503 6.97682 19.4487 4.5791 18.6462L4.57715 18.6453L4.43457 18.5935C3.73066 18.3199 3.21815 17.8013 2.99023 17.1785C2.74615 16.5113 2.82143 15.7282 3.24023 15.0271L4.50977 12.907L4.51074 12.906C4.68112 12.62 4.82826 12.2369 4.93262 11.865C5.03681 11.4936 5.11133 11.0873 5.11133 10.7498V8.65015C5.11133 4.8364 8.2068 1.74017 12.0205 1.73999ZM18.4404 8.6687C18.4296 5.1246 15.5575 2.24976 12.0205 2.24976C8.48455 2.24994 5.61137 5.12392 5.61133 8.65991V10.7595C5.61133 11.4806 5.31421 12.5604 4.94336 13.1697L4.94141 13.1736L3.67285 15.3015C3.34902 15.8372 3.24979 16.4566 3.46289 17.0251C3.67631 17.5943 4.15086 17.9869 4.74316 18.1843C9.44551 19.7483 14.616 19.7483 19.3184 18.1843L19.3174 18.1833C19.892 17.9955 20.3396 17.5645 20.542 16.9978L20.541 16.9968C20.7536 16.4287 20.6818 15.8153 20.3818 15.3064L20.3799 15.3035L19.1094 13.1833L19.1084 13.1804L18.9727 12.9314C18.6675 12.3068 18.4405 11.4013 18.4404 10.7703V8.6687Z" fill="white" stroke="white"/>
<path d="M8.96289 19.32C9.06936 19.9513 9.37272 20.5404 9.82617 20.9938C10.3977 21.5653 11.1843 21.9001 12 21.9001C13.5259 21.9 14.7979 20.7798 15.0381 19.32H15.5449C15.3009 21.058 13.8042 22.4 12 22.4001C11.0645 22.4001 10.1412 22.0139 9.47363 21.3464C8.92562 20.7984 8.56778 20.078 8.45703 19.32H8.96289Z" fill="white" stroke="white"/>
</svg>
