<svg width="205" height="200" viewBox="0 0 205 200" fill="none" xmlns="http://www.w3.org/2000/svg">
<circle cx="104.623" cy="100" r="100" fill="#262626"/>
<path d="M178.182 91.9457C178.569 90.7244 180.298 90.7244 180.685 91.9457L180.873 92.5383C180.988 92.901 181.255 93.196 181.604 93.3468L182.641 93.7946C183.698 94.2508 183.698 95.7492 182.641 96.2054L181.604 96.6532C181.255 96.804 180.988 97.099 180.873 97.4617L180.685 98.0543C180.298 99.2756 178.569 99.2756 178.182 98.0543L177.994 97.4617C177.879 97.099 177.612 96.804 177.263 96.6532L176.226 96.2054C175.169 95.7492 175.169 94.2508 176.226 93.7946L177.263 93.3468C177.612 93.196 177.879 92.901 177.994 92.5383L178.182 91.9457Z" fill="#A3A3A3"/>
<path d="M117.455 62.582V49.4529C117.455 40.9934 110.597 34.1356 102.138 34.1356C93.6781 34.1356 86.8203 40.9934 86.8203 49.4529V62.582" stroke="#525252" stroke-width="4.37637"/>
<path d="M102.356 46.8271C124.955 46.8271 143.275 65.1472 143.275 87.7461V133.479H61.4375V87.7461C61.4376 65.1472 79.7576 46.8272 102.356 46.8271Z" fill="#A3A3A3"/>
<rect x="54.4336" y="133.479" width="95.4048" height="0.875274" rx="0.437637" fill="#525252"/>
<path d="M121.392 137.856C121.392 148.974 112.378 157.986 101.26 157.986C90.1417 157.986 81.1289 148.974 81.1289 137.856H121.392Z" fill="#525252"/>
<circle cx="137.805" cy="71.5536" r="12.035" fill="white"/>
<path d="M137.84 77.7117C136.943 77.7079 136.176 77.4712 135.539 77.0015C134.903 76.5318 134.416 75.8481 134.079 74.9504C133.742 74.0526 133.573 72.9712 133.573 71.7061C133.573 70.4447 133.742 69.367 134.079 68.4731C134.42 67.5792 134.909 66.8973 135.545 66.4276C136.185 65.9579 136.95 65.7231 137.84 65.7231C138.731 65.7231 139.494 65.9598 140.13 66.4333C140.767 66.903 141.253 67.5848 141.59 68.4788C141.931 69.3689 142.102 70.4447 142.102 71.7061C142.102 72.975 141.933 74.0583 141.596 74.9561C141.259 75.85 140.772 76.5337 140.136 77.0072C139.499 77.4769 138.734 77.7117 137.84 77.7117ZM137.84 76.1947C138.628 76.1947 139.244 75.8102 139.687 75.0413C140.134 74.2723 140.357 73.1606 140.357 71.7061C140.357 70.7401 140.255 69.9239 140.051 69.2572C139.85 68.5867 139.56 68.0792 139.181 67.7345C138.806 67.386 138.359 67.2117 137.84 67.2117C137.056 67.2117 136.441 67.5981 135.994 68.3708C135.547 69.1436 135.321 70.2553 135.318 71.7061C135.318 72.6758 135.418 73.4958 135.619 74.1663C135.823 74.8329 136.113 75.3386 136.488 75.6833C136.863 76.0242 137.314 76.1947 137.84 76.1947Z" fill="#525252"/>
<line x1="101.697" y1="162.363" x2="101.697" y2="170.678" stroke="#525252" stroke-width="0.875274"/>
<line x1="85.1298" y1="159.609" x2="79.2501" y2="165.489" stroke="#525252" stroke-width="0.875274"/>
<line y1="-0.437637" x2="8.3151" y2="-0.437637" transform="matrix(-0.707107 -0.707107 -0.707107 0.707107 123.58 165.179)" stroke="#525252" stroke-width="0.875274"/>
<circle cx="45.3215" cy="153.173" r="3.93873" fill="#A3A3A3"/>
<path d="M187.73 153.579C188.247 152.775 189.423 152.775 189.94 153.579L191.766 156.423C191.944 156.7 192.219 156.9 192.537 156.983L195.807 157.842C196.731 158.085 197.095 159.203 196.489 159.943L194.349 162.559C194.141 162.814 194.036 163.137 194.055 163.466L194.248 166.84C194.303 167.795 193.352 168.486 192.461 168.139L189.312 166.912C189.005 166.792 188.665 166.792 188.358 166.912L185.209 168.139C184.318 168.486 183.367 167.795 183.422 166.84L183.615 163.466C183.634 163.137 183.529 162.814 183.321 162.559L181.181 159.943C180.575 159.203 180.939 158.085 181.863 157.842L185.132 156.983C185.451 156.9 185.726 156.7 185.904 156.423L187.73 153.579Z" fill="#A3A3A3"/>
<path d="M5.47046 91.4668L6.94798 95.7792L10.9409 97.3749L6.94798 98.9706L5.47046 103.283L3.99294 98.9706L0 97.3749L3.99294 95.7792L5.47046 91.4668Z" fill="#A3A3A3"/>
<circle cx="31.0675" cy="62.5823" r="3.50109" fill="#A3A3A3"/>
</svg>
