<svg width="206" height="200" viewBox="0 0 206 200" fill="none" xmlns="http://www.w3.org/2000/svg">
<circle cx="104.077" cy="98.4914" r="98.4914" fill="#262626"/>
<path d="M150.01 61.8965C161.22 61.8965 187.345 65.2983 203.305 91.9455" stroke="#525252" stroke-width="4.31035" stroke-linejoin="round"/>
<path d="M151.145 61.895C151.145 48.4306 140.23 37.5156 126.765 37.5156H88.7787V86.2744H126.765C140.23 86.2744 151.145 75.3594 151.145 61.895Z" fill="#A3A3A3"/>
<ellipse cx="20.6941" cy="24.3794" rx="20.6941" ry="24.3794" transform="matrix(-1 0 0 1 109.756 37.5156)" fill="#525252"/>
<path d="M89.0617 86.2744C100.491 86.2744 109.756 75.3594 109.756 61.895C109.756 48.4306 100.491 37.5156 89.0617 37.5156" stroke="#525252" stroke-width="0.862069"/>
<circle cx="3.96874" cy="3.96874" r="3.96874" transform="matrix(-1 0 0 1 91.6152 47.7207)" fill="white"/>
<circle cx="3.96874" cy="3.96874" r="3.96874" transform="matrix(-1 0 0 1 91.6152 66.4316)" fill="white"/>
<circle cx="203.214" cy="92.025" r="2.37069" fill="#525252"/>
<path d="M10.9748 140.575C9.06801 138.522 5.38642 132.963 5.91446 127.154M8.99466 141.895C6.42781 140.942 1.11811 138.419 0.414062 135.955M13.395 137.275C12.2215 135.662 10.9308 131.731 15.1551 128.914" stroke="#737373" stroke-width="0.862069"/>
<path d="M93.6365 34.4699C94.3648 31.764 95.0272 25.1293 91.8499 20.2384M96.0038 34.7136C97.8293 32.6726 101.348 27.9637 100.821 25.4557M89.9561 32.6802C90.2411 30.7057 89.5485 26.6266 84.4982 26.1069" stroke="#737373" stroke-width="0.862069"/>
<path d="M72.3383 124.951C69.3715 124.951 53.1685 119.754 42.5728 130.215C29.0991 143.518 31.2336 154.594 40.0215 150.626C67.3597 138.279 30.2051 132.079 7.74219 151.294" stroke="#525252" stroke-width="4.31035"/>
<path d="M68.3691 125.13C68.3691 112.752 78.4041 102.717 90.7829 102.717H130.735V151.475H92.7485C79.2842 151.475 68.3691 140.56 68.3691 127.096V125.13Z" fill="#A3A3A3"/>
<ellipse cx="130.45" cy="127.096" rx="20.6941" ry="24.3794" fill="#525252"/>
<path d="M130.45 151.476C119.021 151.476 109.756 140.561 109.756 127.096C109.756 113.632 119.021 102.717 130.45 102.717" stroke="#525252" stroke-width="0.862069"/>
<circle cx="131.869" cy="116.891" r="3.96874" fill="white"/>
<circle cx="131.869" cy="135.6" r="3.96874" fill="white"/>
<circle cx="2.15517" cy="2.15517" r="2.15517" transform="matrix(-1 0 0 1 9.89648 149.139)" fill="#525252"/>
<rect x="128.467" y="113.488" width="25.5133" height="6.80355" rx="3.40177" fill="#A3A3A3"/>
<rect x="128.467" y="132.199" width="25.5133" height="6.80355" rx="3.40177" fill="#A3A3A3"/>
<path d="M160.465 151.495C160.804 150.967 161.576 150.967 161.915 151.495L162.76 152.81C162.993 153.173 163.355 153.435 163.772 153.545L165.282 153.941C165.889 154.101 166.128 154.835 165.73 155.321L164.742 156.53C164.469 156.865 164.331 157.289 164.355 157.721L164.444 159.279C164.48 159.906 163.856 160.36 163.271 160.132L161.816 159.565C161.414 159.409 160.967 159.409 160.564 159.565L159.109 160.132C158.524 160.36 157.9 159.906 157.936 159.279L158.025 157.721C158.05 157.29 157.912 156.865 157.639 156.53L156.649 155.321C156.252 154.835 156.49 154.101 157.098 153.941L158.608 153.545C159.026 153.435 159.388 153.173 159.621 152.81L160.465 151.495Z" stroke="#A3A3A3" stroke-width="0.862069"/>
<path d="M34.2501 55.6034L36.0139 62.1282L40.7827 66.9181L34.2501 65.1832L27.7176 66.9181L32.4864 62.1282L34.2501 55.6034Z" fill="#A3A3A3"/>
<circle cx="157.095" cy="94.6124" r="4.09483" fill="#A3A3A3"/>
</svg>
