<svg width="422" height="325" viewBox="0 0 422 325" fill="none" xmlns="http://www.w3.org/2000/svg">
<g clip-path="url(#clip0_244_28644)">
<path d="M0 299.699C0 285.697 168.748 274.399 376.918 274.399C585.089 274.399 750.712 284.615 750.712 298.437C750.712 312.259 585.089 324.88 376.918 324.88C168.748 324.88 0 313.642 0 299.699Z" fill="#E2E2E2"/>
<path d="M248.076 277.344L249.458 292.728C252.096 294.721 255.351 295.721 258.653 295.553C261.532 295.764 264.39 294.932 266.706 293.209L263.941 278.606L248.076 277.344Z" fill="#CE7D67"/>
<path d="M290.201 275.18V291.767C292.574 292.679 295.116 293.068 297.653 292.909C300.435 292.834 303.174 292.201 305.706 291.046L301.86 275.18H290.201Z" fill="#CE7D67"/>
<path d="M308.527 278.666C304.595 279.779 300.573 280.543 296.508 280.949C292.518 281.471 288.478 281.471 284.488 280.949C284.488 280.949 283.948 275.961 281.003 248.077C278.058 220.192 272.71 171.154 268.984 150.961C268.984 150.961 268.503 169.351 268.563 190.264C268.563 213.702 269.585 280.408 269.585 280.408C269.585 280.408 268.323 282.572 258.407 282.933C253.22 283.419 248.003 282.396 243.383 279.988L237.975 134.074V132.211C237.975 132.211 242.061 121.755 265.078 116.827C284.308 112.74 291.099 113.702 294.645 123.918C296.087 128.125 301.796 141.106 304.08 174.759C304.08 175.18 304.08 175.601 304.08 176.021C304.08 176.442 304.08 178.726 304.08 180.168C304.801 192.187 305.462 206.61 306.123 220.673C307.445 250.481 308.527 278.666 308.527 278.666Z" fill="#00BEC3"/>
<path d="M197.293 82.2718C204.624 72.4149 213.443 63.7578 223.434 56.6108C238.699 46.2742 248.254 47.4761 248.254 47.4761C259.783 58.3651 270.118 70.4527 279.083 83.5338C285.879 96.2149 291.048 109.703 294.467 123.678L268.686 127.945C254.624 130.409 237.797 132.031 237.797 132.031C237.797 132.031 233.47 121.455 232.509 118.87C231.547 116.286 232.869 113.281 231.247 112.019C226.486 108.229 221.51 104.718 216.343 101.503C209.331 95.7837 202.946 89.3374 197.293 82.2718Z" fill="#C2D1D5"/>
<path d="M203.541 76.6228C203.541 76.6228 196.991 78.0651 190.08 91.8872C183.169 105.709 176.438 124.339 178.061 129.447C179.683 134.556 185.693 131.911 194.587 121.815C202.279 113.012 208.711 103.182 213.697 92.6084C215.44 87.2598 210.633 75.5411 203.541 76.6228Z" fill="#CE7D67"/>
<path d="M245.19 48.0771C245.19 48.0771 245.551 46.094 254.926 46.8151C264.3 47.5363 298.675 62.8007 299.576 68.4497C300.478 74.0988 286.656 73.4978 275.538 73.017C264.421 72.5363 260.274 73.017 254.084 67.0074C247.894 60.9978 243.387 51.6228 245.19 48.0771Z" fill="#CE7D67"/>
<path d="M279.864 71.2738C285.289 75.059 291.42 77.7157 297.892 79.0863C310.737 82.4286 323.814 84.7991 337.014 86.1777C341.281 85.6368 341.281 82.4517 331.005 77.8243C320.729 73.1969 295.549 61.5383 291.402 61.2979C287.255 61.0575 276.018 67.1873 279.864 71.2738Z" fill="#CE7D67"/>
<path d="M208.711 66.1057C208.73 65.9662 208.73 65.8246 208.711 65.6851V68.2692L207.629 67.3077C208.074 66.9925 208.444 66.5819 208.711 66.1057Z" fill="#AD554E"/>
<path d="M223.433 47.4156C221.754 43.9859 220.405 40.404 219.406 36.7185C218.607 31.947 216.387 27.5276 213.036 24.0382C209.415 21.3958 205.049 19.9719 200.566 19.9719C196.084 19.9719 191.717 21.3958 188.097 24.0382C176.378 31.3699 180.284 45.4925 181.366 48.0766C182.448 50.6608 184.491 52.7641 186.414 52.2233C188.337 51.6824 223.433 47.4156 223.433 47.4156Z" fill="#5F2929"/>
<path d="M216.707 61.5381C214.535 65.8058 211.308 69.4469 207.332 72.1151C206.213 72.112 205.139 71.6821 204.327 70.9131L203.245 69.9516C202.513 69.9583 201.784 69.857 201.082 69.6511C200.783 69.1455 200.561 68.5988 200.421 68.0285C199.839 68.0459 199.262 67.9222 198.738 67.668C198.362 66.9808 198.06 66.2555 197.837 65.5045C196.876 65.947 195.829 66.1726 194.772 66.1656C193.718 66.1955 192.671 65.9902 191.707 65.5646V58.4732L186.298 53.2449C185.857 52.8376 185.473 52.3727 185.156 51.8627C183.793 49.6562 183.218 47.0532 183.523 44.4777C183.829 41.9023 184.998 39.5062 186.839 37.68C188.966 35.3121 191.683 33.5497 194.712 32.5718C199.845 32.4321 204.851 34.1862 208.774 37.4997V35.9973C208.774 34.4348 208.774 31.3098 211.178 31.0093C213.582 30.7088 214.904 34.3747 216.166 37.0189C216.73 39.2209 216.54 41.5486 215.625 43.6295C217.093 45.9923 218.378 48.4633 219.471 51.0213C219.855 54.7461 218.872 58.4836 216.707 61.5381Z" fill="#CE7D67"/>
<path d="M209.912 64.6034L215.922 74.2789C218.437 75.744 221.388 76.2761 224.256 75.7815C227.125 75.2869 229.727 73.7974 231.607 71.5746C233.783 69.4324 235.223 66.6547 235.72 63.6415C236.217 60.6283 235.745 57.5352 234.371 54.8077L213.818 40.9255L209.912 64.6034Z" fill="#CE7D67"/>
<path d="M194.348 33.7138C194.248 33.8874 194.195 34.0843 194.195 34.2847C194.195 34.4852 194.248 34.6821 194.348 34.8556C196.233 37.1148 198.932 38.5399 201.86 38.822C203.054 38.8361 204.242 38.9771 205.406 39.2427C206.784 39.8788 208.076 40.6865 209.252 41.6465C209.433 41.8013 209.663 41.8878 209.901 41.8911C210.14 41.8943 210.372 41.8141 210.557 41.6643C210.743 41.5145 210.87 41.3046 210.917 41.0708C210.964 40.8371 210.928 40.5943 210.814 40.3845C209.684 38.666 208.397 37.0564 206.968 35.5768L198.315 28.7859C198.194 28.6894 198.053 28.6215 197.903 28.5871C197.753 28.5528 197.596 28.553 197.446 28.5877C197.296 28.6224 197.155 28.6907 197.035 28.7875C196.915 28.8843 196.818 29.007 196.752 29.1465L194.348 33.7138Z" fill="#5F2929"/>
<path d="M194.227 42.728C194.227 42.728 194.227 42.728 193.867 42.728H193.085L191.823 43.3891C190.489 44.0697 189.32 45.0337 188.398 46.2136C187.994 46.8368 187.708 47.5296 187.557 48.2569C187.557 48.2569 187.557 49.6391 187.977 49.3386H188.398C188.772 48.8741 189.195 48.451 189.66 48.0766L191.583 46.6343L192.845 45.7929C193.086 45.6889 193.31 45.5468 193.506 45.3723H193.867C193.867 45.3723 193.867 44.9516 194.287 44.7713C194.357 44.664 194.394 44.5387 194.394 44.4107C194.394 44.2827 194.357 44.1574 194.287 44.0501V43.4492L194.227 42.728Z" fill="#5F2929"/>
<path d="M185.813 49.5192C185.784 49.7386 185.784 49.9609 185.813 50.1803C185.787 50.42 185.787 50.6618 185.813 50.9014C185.89 51.0936 185.991 51.2754 186.114 51.4423H186.414C186.44 51.2831 186.44 51.1208 186.414 50.9615C186.455 50.8449 186.455 50.7176 186.414 50.601V49.6394C186.386 49.5729 186.372 49.5013 186.372 49.4291C186.372 49.3568 186.386 49.2853 186.414 49.2188C186.414 49.2188 186.414 49.2188 186.414 49.5793L185.813 49.5192Z" fill="#5F2929"/>
<path d="M179.324 60.0961C179.324 60.0961 193.266 40.5649 194.107 39.6634L198.915 34.3149L213.939 25.3606C213.939 25.3606 207.929 15.625 205.345 15.2644C198.898 15.3028 192.487 16.2331 186.295 18.0288C181.636 22.388 177.592 27.3617 174.276 32.8125C175.344 37.2588 177.131 41.5011 179.564 45.3726L166.283 64.4231C166.283 64.4231 170.129 66.6466 179.324 60.0961Z" fill="#00BEC3"/>
<path d="M188.521 54.0864C188.992 52.7727 189.752 51.5815 190.745 50.6008C191.221 50.0559 191.744 49.5533 192.307 49.0984L193.269 48.4975C193.649 48.4156 194.014 48.2736 194.35 48.0768C194.35 48.0768 194.35 47.5359 194.35 47.4758H193.809H193.269C192.922 47.6318 192.599 47.834 192.307 48.0768C191.639 48.5143 191.032 49.0399 190.504 49.6393C189.469 50.9091 188.767 52.4169 188.461 54.0263C188.461 54.0263 188.461 54.5071 188.461 54.0263L188.521 54.0864Z" fill="#2D2B2B"/>
<path d="M193.029 53.7259C192.608 54.2067 191.586 54.0264 190.805 53.2452C190.024 52.4639 189.663 51.5625 190.084 51.0817C190.505 50.6009 191.526 51.0817 192.307 51.5625C193.089 52.0432 193.449 53.2452 193.029 53.7259Z" fill="#2D2B2B"/>
<path d="M211.057 69.5315C213.577 66.9637 215.498 63.8703 216.682 60.4729C217.867 57.0755 218.285 53.4582 217.908 49.8801C217.711 48.9221 217.45 47.9785 217.126 47.0556C216.818 46.2297 216.348 45.4737 215.744 44.832C215.744 44.832 215.744 45.5532 215.744 45.6734C215.744 46.695 216.525 47.5965 216.886 48.6181C217.245 49.5666 217.488 50.5555 217.607 51.5628C217.929 53.5718 217.785 55.6279 217.186 57.5724C215.775 61.6803 213.749 65.5504 211.177 69.0508C211.177 69.0508 211.177 69.7719 211.177 69.5916L211.057 69.5315Z" fill="#AD554E"/>
<path d="M211.234 32.0309C210.406 33.0468 210.012 34.3476 210.136 35.652C210.259 36.9564 210.891 38.1598 211.895 39.0021C211.895 39.0021 212.256 38.6415 212.256 38.5213C212.371 38.2111 212.371 37.87 212.256 37.5598C212.616 38.1006 212.256 38.2809 212.256 38.0405C212.431 37.981 212.621 37.981 212.796 38.0405C213.135 38.1095 213.435 38.3024 213.638 38.5814C213.638 38.5814 213.097 38.942 212.857 39.1824C212.755 39.3446 212.702 39.532 212.702 39.7232C212.702 39.9145 212.755 40.1019 212.857 40.2641C213.397 40.9252 214.179 39.8434 214.359 39.3026C214.495 38.8849 214.522 38.4394 214.438 38.0083C214.354 37.5772 214.161 37.1746 213.878 36.8386C213.606 36.5917 213.276 36.4179 212.919 36.3338C212.561 36.2497 212.188 36.258 211.835 36.3578C211.643 36.4898 211.479 36.659 211.354 36.8553C211.228 37.0517 211.143 37.2712 211.104 37.5009C211.065 37.7307 211.072 37.9659 211.125 38.1928C211.179 38.4197 211.277 38.6336 211.414 38.8218V37.3795C210.746 36.8503 210.279 36.1078 210.092 35.2761C209.975 34.3052 210.209 33.3244 210.753 32.5117C210.753 32.5117 210.753 31.7905 210.753 31.9107L211.234 32.0309Z" fill="#AD554E"/>
<path d="M204.321 63.1609L200.355 68.0888C199.773 68.1061 199.195 67.9824 198.672 67.7282C199.016 67.2482 199.469 66.8568 199.994 66.5864C200.895 65.9854 202.758 64.9037 203.419 64.3628C203.769 64.0015 204.072 63.5977 204.321 63.1609Z" fill="#AD554E"/>
<path d="M187.437 20.8531C189.594 21.7866 191.507 23.2056 193.025 24.9998C193.851 25.9434 194.576 26.9706 195.189 28.0647C195.549 28.6656 195.91 29.2065 196.211 29.8074C196.498 30.2869 196.841 30.7307 197.232 31.1296C197.232 31.1296 197.232 31.1296 197.232 30.769C196.382 28.292 195.055 26.0055 193.326 24.0382C191.873 22.0735 189.722 20.7401 187.316 20.3123C187.316 20.3123 187.316 21.0935 187.316 21.1536L187.437 20.8531Z" fill="#005C5F"/>
<path d="M180.949 44.892C182.391 44.6184 183.801 44.1954 185.156 43.63L189.302 42.0675C191.646 41.166 194.591 39.7838 195.312 37.2598C195.312 37.2598 195.312 36.4184 195.312 36.5386C194.814 36.8711 194.368 37.2762 193.99 37.7405C193.528 38.1878 193.025 38.5903 192.488 38.9425C191.417 39.6532 190.267 40.238 189.062 40.6852C187.68 41.2261 186.238 41.5867 184.795 42.0675C183.382 42.4527 182.083 43.1744 181.009 44.1708V44.7117L180.949 44.892Z" fill="#005C5F"/>
<path d="M204.327 73.6174C204.327 73.6174 187.44 87.2593 185.938 97.6559C191.723 102.769 199.255 105.459 206.971 105.168C212.311 100.848 217.295 96.105 221.875 90.9852L204.327 73.6174Z" fill="#C2D1D5"/>
<path d="M213.938 70.9131C215.892 71.8125 218.063 72.132 220.194 71.8338C222.324 71.5355 224.324 70.6319 225.957 69.2304C228.287 67.5462 230.24 65.3929 231.689 62.9089C233.138 60.425 234.051 57.6653 234.37 54.8073C235.552 54.678 236.719 54.4366 237.855 54.0862C242.378 58.9635 246.612 64.1004 250.536 69.4708C250.536 69.8915 222.952 87.4996 222.952 87.4996L213.938 70.9131Z" fill="#C2D1D5"/>
<path d="M269.951 50.4206C269.951 50.4206 271.394 53.5456 274.338 60.8774C276.104 65.2633 277.511 69.7853 278.545 74.399C271.11 74.1921 263.743 72.9171 256.67 70.6129C249.158 67.3678 242.007 52.5841 241.887 49.5192C241.767 46.4543 247.235 45.5528 250.54 45.3726C257.123 46.5877 263.61 48.2747 269.951 50.4206Z" fill="#C2D1D5"/>
<path d="M328.419 72.4761C326.779 74.9616 325.467 77.6479 324.513 80.4689C323.968 82.6489 323.726 84.8934 323.792 87.1395C323.792 87.1395 335.811 87.1395 336.592 87.1395C337.534 87.8242 338.61 88.3014 339.749 88.5396C340.889 88.7779 342.066 88.7718 343.203 88.5217C348.69 88.3003 354.153 87.6777 359.549 86.6588C361.231 86.0578 359.549 84.6155 359.549 84.6155C361.208 84.4658 362.877 84.4658 364.537 84.6155H370.847C368.254 82.6575 365.522 80.8901 362.674 79.327C360.15 78.666 341.76 79.6876 340.859 79.327C339.958 78.9665 328.419 72.4761 328.419 72.4761Z" fill="#C2D1D5"/>
<path d="M219.766 306.491C219.672 306.275 219.627 306.041 219.636 305.806C219.644 305.571 219.706 305.341 219.815 305.133C219.925 304.925 220.08 304.745 220.27 304.605C220.459 304.466 220.677 304.371 220.908 304.327C224.274 303.726 230.824 302.584 231.485 302.584C235.194 300.095 238.674 297.279 241.882 294.171C242.422 293.39 246.629 286.539 247.29 285.938C247.951 285.337 251.076 284.555 251.978 286.479C252.466 287.615 252.592 288.874 252.338 290.084C254.693 290.543 257.132 290.249 259.309 289.243C261.257 288.108 263.072 286.757 264.718 285.217C265.546 286.054 266.037 287.166 266.1 288.342C266.1 290.625 269.045 306.971 268.804 307.693C268.564 308.414 268.263 309.556 265.92 310.156C263.576 310.757 245.127 313.642 241.882 313.822C238.636 314.003 225.836 314.964 223.853 313.462C222.118 311.377 220.738 309.022 219.766 306.491Z" fill="#F37800"/>
<path d="M222.352 308.594C223.193 311.538 226.739 311.298 229.202 311.238C231.666 311.178 235.212 311.238 238.577 310.757C244.776 310.198 250.936 309.275 257.027 307.993L262.195 306.791L264.659 306.13L265.981 305.769C266.415 305.676 266.825 305.492 267.183 305.228C267.183 305.228 267.543 303.666 267.183 303.546C266.811 303.426 266.412 303.426 266.041 303.546H264.959L262.736 304.147L258.469 305.228C255.524 305.889 252.459 306.551 249.515 307.031C243.552 308.074 237.531 308.756 231.486 309.075H226.618C225.176 309.075 223.313 309.075 222.712 307.392C222.712 306.971 222.352 307.813 222.712 307.993L222.352 308.594Z" fill="#C31E21"/>
<path d="M227.162 303.125L230.046 303.786C230.919 303.909 231.782 304.089 232.63 304.327L235.275 305.168L236.476 305.709C236.897 305.709 237.258 306.01 237.618 305.709C237.979 305.409 237.618 305.289 237.618 305.108C237.431 304.629 237.065 304.241 236.597 304.027L235.335 303.546L232.751 302.765C231.819 302.566 230.875 302.425 229.926 302.344C228.975 302.295 228.021 302.397 227.102 302.644V303.185L227.162 303.125Z" fill="#C31E21"/>
<path d="M242.362 300.481C244.646 298.497 246.689 296.334 248.793 294.471C250.896 292.608 253.119 290.565 252.579 287.8C252.579 287.44 252.218 287.139 252.038 287.8C251.905 288.29 251.744 288.771 251.557 289.243L250.535 290.685L247.831 293.69C245.908 295.793 243.985 297.957 242.242 300.18C242.242 300.18 242.242 301.021 242.242 300.901L242.362 300.481Z" fill="#C31E21"/>
<path d="M243.806 291.406H244.107H244.708H245.429H246.09H246.45C246.45 291.406 246.45 291.406 246.45 291.046C246.45 290.685 246.45 290.204 246.45 290.084H245.068H244.347H244.047H243.686C243.265 290.084 243.325 291.046 243.686 291.226L243.806 291.406Z" fill="#C31E21"/>
<path d="M241.045 295.312C241.224 295.591 241.473 295.819 241.766 295.973H242.607C242.88 296.065 243.176 296.065 243.449 295.973H243.929L244.29 295.553C244.29 295.553 244.29 295.553 244.29 295.252C244.29 295.252 244.29 295.252 243.869 295.252H242.607C242.37 295.306 242.124 295.306 241.886 295.252L241.165 294.471C241.165 294.471 241.165 294.952 241.165 295.072L241.045 295.312Z" fill="#C31E21"/>
<path d="M280.465 309.315V304.928L288.998 286.899L289.84 286.479C290.438 284.998 291.457 283.725 292.771 282.818C294.084 281.91 295.635 281.407 297.231 281.37C298.892 281.484 300.494 282.033 301.875 282.961C303.257 283.889 304.37 285.165 305.104 286.659L305.945 287.14L313.758 306.01V309.676C308.555 311.779 302.956 312.723 297.352 312.44C291.575 312.481 285.844 311.421 280.465 309.315Z" fill="#F37800"/>
<path d="M282.449 305.89C286.056 307.718 290.009 308.762 294.048 308.954C298.073 309.342 302.135 309.058 306.067 308.113C308.426 307.81 310.654 306.852 312.497 305.349V304.627C311.56 304.51 310.608 304.634 309.733 304.988L306.848 305.769C304.743 306.151 302.615 306.392 300.478 306.49C296.466 306.875 292.42 306.693 288.459 305.95L282.449 304.748C282.449 304.748 282.449 305.769 282.449 305.89Z" fill="#C31E21"/>
<path d="M284.733 302.885C287.589 300.802 290.874 299.385 294.349 298.738C297.957 298.139 301.661 298.555 305.046 299.94C306.007 300.316 306.933 300.778 307.81 301.322L309.072 302.164C309.072 302.164 309.793 302.825 310.154 302.524C310.243 302.358 310.29 302.172 310.29 301.983C310.29 301.795 310.243 301.609 310.154 301.442C310.154 300.481 308.952 300 308.171 299.519C307.375 298.997 306.529 298.554 305.647 298.197C304.001 297.473 302.261 296.987 300.478 296.755C296.805 296.221 293.056 296.807 289.721 298.438C287.791 299.36 286.057 300.645 284.613 302.224C284.613 302.224 284.613 303.005 284.613 302.885H284.733Z" fill="#C31E21"/>
<path d="M290.318 285.517C290.46 287.013 290.782 288.486 291.28 289.904C291.509 290.586 291.79 291.249 292.121 291.887C292.257 292.219 292.418 292.541 292.602 292.849C292.602 292.849 292.902 293.51 293.203 293.51C293.503 293.51 293.503 292.729 293.503 292.488C293.312 291.793 293.029 291.126 292.662 290.505C292.362 289.904 292.061 289.303 291.821 288.702C291.357 287.543 290.956 286.359 290.619 285.156C290.619 285.156 290.619 285.577 290.619 285.697L290.318 285.517Z" fill="#C31E21"/>
<path d="M303.902 284.495C303.686 285.125 303.506 285.767 303.361 286.418C303.361 287.139 302.94 287.86 302.7 288.581L301.919 290.565C301.574 291.241 301.35 291.974 301.258 292.728C301.258 292.728 301.258 293.209 301.258 293.149C301.463 293.014 301.629 292.828 301.739 292.608C301.923 292.279 302.084 291.938 302.219 291.586C302.219 290.865 302.82 290.144 303.061 289.423C303.663 287.95 304.008 286.385 304.082 284.795C304.082 284.074 304.082 284.795 304.082 284.795L303.902 284.495Z" fill="#C31E21"/>
<path d="M294.469 287.319C294.932 287.514 295.416 287.655 295.911 287.74H297.474H299.036C299.275 287.774 299.518 287.774 299.757 287.74H300.118C300.118 287.74 300.118 287.439 300.118 287.379C300.118 287.319 300.118 286.838 300.118 286.778H299.637H298.856H297.413H294.469C294.469 286.778 294.469 287.62 294.469 287.68V287.319Z" fill="#C31E21"/>
<path d="M295.189 291.647C295.499 291.866 295.845 292.029 296.211 292.127H297.233H298.194H298.735L299.156 291.587C299.156 291.587 299.156 291.166 299.156 291.106C298.997 291.072 298.833 291.072 298.675 291.106C298.608 291.078 298.537 291.063 298.465 291.063C298.392 291.063 298.321 291.078 298.254 291.106H297.233H296.211H295.25C295.25 291.106 295.25 291.466 295.25 291.526C295.25 291.587 295.25 291.947 295.25 292.007L295.189 291.647Z" fill="#C31E21"/>
<path d="M212.318 73.5576C214.717 74.5295 217.337 74.8206 219.89 74.399C222.446 74.0605 224.926 73.2882 227.222 72.1153C230.669 70.3824 233.597 67.7685 235.707 64.5389C237.818 61.3093 239.037 57.5788 239.241 53.7259V54.2668C241.405 53.185 243.688 52.1634 245.731 50.9014C246.032 50.9014 245.731 49.4591 245.731 49.6394C244.083 50.3235 242.478 51.1061 240.924 51.9831L239.842 52.524C239.842 52.524 239.241 52.524 239.121 53.0048C239.032 53.3598 239.032 53.7314 239.121 54.0865V55.2283C238.676 57.9575 237.696 60.5718 236.236 62.9206C234.799 65.2812 232.898 67.3256 230.647 68.9302C228.227 70.6776 225.461 71.8866 222.535 72.4759C220.969 72.7674 219.379 72.9082 217.787 72.8966C216.164 72.8966 214.542 72.8966 212.919 72.536C212.919 72.536 212.919 73.0769 212.919 73.137L212.318 73.5576Z" fill="#607C78"/>
<path d="M208.233 73.5575C206.525 74.7676 204.917 76.1141 203.426 77.5839C201.803 79.0262 200.241 80.4685 198.738 82.031C198.738 82.031 198.738 82.8123 198.738 82.6921C200.481 81.4301 202.044 80.0479 203.606 78.6657C205.25 77.2926 206.796 75.8066 208.233 74.2186C208.233 74.2186 208.233 73.4373 208.233 73.5575Z" fill="#607C78"/>
<path d="M208.531 92.3072C209.843 94.978 211.613 97.3984 213.76 99.4586C214.786 100.424 215.87 101.327 217.005 102.163L218.808 103.305C219.466 103.606 220.149 103.848 220.851 104.026C220.851 104.026 220.851 103.605 220.851 103.485L219.048 102.103L217.245 100.901C216.077 100.084 214.972 99.1802 213.94 98.1966C211.963 96.3745 210.172 94.3615 208.591 92.187C208.591 92.187 208.591 92.187 208.591 92.5476L208.531 92.3072Z" fill="#607C78"/>
<path d="M232.567 108.594C231.628 110.689 231.176 112.97 231.245 115.265C231.269 116.367 231.451 117.46 231.786 118.51C231.976 119.419 232.516 120.218 233.288 120.733C233.288 120.733 233.288 120.373 233.288 120.313C232.541 118.646 232.015 116.888 231.726 115.084C231.848 113.058 232.149 111.047 232.627 109.075C232.627 109.075 232.627 108.474 232.627 108.714L232.567 108.594Z" fill="#607C78"/>
<path d="M242.362 48.0769C246.029 49.5951 249.55 51.4457 252.879 53.6058C256.147 55.9803 259.167 58.6782 261.893 61.6587C267.559 67.6133 272.538 74.1848 276.737 81.25C279.021 85.1562 281.124 89.2428 283.227 93.2692C283.227 93.2692 283.227 93.2692 283.227 92.9086C280.35 84.9586 276.298 77.484 271.208 70.7332C268.727 67.3611 266.058 64.1309 263.215 61.0577C260.481 58.0716 257.484 55.3363 254.261 52.8846C250.723 50.0572 246.627 48.0092 242.242 46.875C242.242 46.875 242.242 47.7764 242.242 47.8966L242.362 48.0769Z" fill="#607C78"/>
<path d="M345.191 84.4348C346.452 84.5246 347.717 84.5246 348.977 84.4348H352.763H356.429H358.352C358.893 84.4348 359.614 84.7353 360.095 84.4348C360.127 84.38 360.143 84.3178 360.143 84.2545C360.143 84.1912 360.127 84.129 360.095 84.0742C359.734 83.5934 359.134 83.5934 358.533 83.4732C357.933 83.4109 357.329 83.4109 356.73 83.4732C355.468 83.4732 354.146 83.4732 352.824 83.1728C351.563 83.0827 350.298 83.0827 349.038 83.1728C347.731 83.2117 346.436 83.4342 345.191 83.8338V84.3747V84.4348Z" fill="#607C78"/>
<path d="M353.061 81.1294C355.389 80.9481 357.731 81.1925 359.972 81.8506L363.577 82.9323C364.533 83.4383 365.541 83.8412 366.582 84.1342C366.582 84.1342 366.582 83.6534 366.582 83.5933C365.771 82.926 364.829 82.4348 363.818 82.151C362.631 81.7231 361.402 81.421 360.152 81.2496C357.873 80.7697 355.519 80.7697 353.241 81.2496L353.061 81.1294Z" fill="#607C78"/>
<path d="M306.066 220.613H298.073C297.284 220.616 296.524 220.319 295.944 219.784C295.365 219.249 295.009 218.515 294.948 217.729L292.063 184.796C291.436 184.812 290.827 184.583 290.366 184.156C289.906 183.729 289.631 183.139 289.6 182.512L289.239 177.344C289.214 177.006 289.26 176.666 289.372 176.346C289.485 176.026 289.662 175.732 289.894 175.484C290.125 175.236 290.405 175.038 290.716 174.903C291.028 174.768 291.364 174.699 291.703 174.7H303.722C303.722 175.12 303.722 175.541 303.722 175.962C303.722 176.382 303.722 178.666 303.722 180.108C304.744 192.308 305.405 206.551 306.066 220.613Z" fill="#16F7FF"/>
<path d="M293.869 184.616C295.251 184.616 296.694 184.616 298.076 184.616H300.48C301.115 184.735 301.767 184.735 302.403 184.616V184.135C301.747 184.014 301.075 184.014 300.42 184.135H298.376C296.934 184.135 295.552 184.135 294.17 184.135V184.556L293.869 184.616Z" fill="#C31E21"/>
<path d="M261.838 151.082C264.079 151.471 266.359 151.592 268.629 151.442C269.75 151.502 270.873 151.502 271.994 151.442C273.109 151.438 274.211 151.213 275.239 150.781C275.239 150.781 275.239 149.7 275.239 149.639C274.685 149.521 274.111 149.521 273.556 149.639H271.814C270.76 149.822 269.697 149.943 268.629 150C266.405 150 264.182 150 261.958 150C261.958 150 261.958 150.661 261.958 150.721L261.838 151.082Z" fill="#16F7FF"/>
<path d="M110.939 289.543C110.939 289.543 111.6 286.839 122.477 281.61C133.355 276.382 205.229 280.649 212.62 281.61C220.012 282.572 221.635 286.538 221.635 286.538C229.159 277.152 233.98 265.89 235.577 253.966C238.822 233.053 228.846 175.18 158.174 178.966C87.5018 182.752 82.3336 267.428 110.939 289.543Z" fill="#2D2B2B"/>
<path d="M694.825 246.935C692.602 255.589 687.253 261.839 679.921 271.394L672.59 280.949L637.133 280.408C638.797 271.15 639.181 261.707 638.275 252.343C637.39 240.585 634.334 229.093 629.261 218.449C614.417 187.8 558.889 177.403 529.623 203.305C513.337 217.728 507.868 240.925 506.186 258.593C505.476 266.771 505.476 274.995 506.186 283.173L222.055 286.538C221.987 286.548 221.919 286.538 221.857 286.51C221.795 286.482 221.742 286.438 221.704 286.381C221.667 286.325 221.646 286.259 221.644 286.191C221.642 286.123 221.66 286.056 221.694 285.997C222.836 282.932 225.66 270.252 225.961 267.968C225.961 267.968 232.331 241.947 219.951 221.875C212.691 209.804 201.723 200.403 188.684 195.075C175.645 189.747 161.233 188.776 147.597 192.307C135.557 195.006 124.619 201.292 116.227 210.336C107.056 221.126 101.636 234.602 100.782 248.738C100.599 256.175 101.061 263.615 102.164 270.973C103.879 277.692 106.946 283.99 111.179 289.483C86.4194 290.625 30.11 292.127 30.11 292.127C25.965 290.094 22.155 287.439 18.8121 284.254C17.6751 282.601 17.0664 280.642 17.0664 278.635C17.0664 276.629 17.6751 274.67 18.8121 273.016C17.49 261.839 18.0309 238.161 23.3193 228.365C23.8842 227.259 24.5268 226.195 25.2423 225.18C27.7235 220.926 31.5199 217.594 36.0595 215.685C36.0595 215.685 46.7565 197.656 53.4871 195.372C61.3596 184.675 104.688 177.343 130.59 170.613C156.491 163.882 219.531 153.726 221.213 153.726C221.487 153.653 221.737 153.508 221.935 153.305C228.365 148.798 275.239 108.173 284.253 102.524C291.436 97.1622 299.429 92.9829 307.931 90.1439C316.877 87.4306 326.119 85.8161 335.455 85.3362C391.96 83.953 448.498 85.7387 504.803 90.6848C510.007 91.6448 515.072 93.2392 519.887 95.4323C549.935 108.473 593.925 142.548 598.011 143.028C602.098 143.509 670.126 156.009 673.972 159.916C676.784 163.416 678.72 167.536 679.621 171.935C682.659 175.373 685.3 179.143 687.493 183.173C688.11 187.155 688.11 191.209 687.493 195.192C689.617 207.162 692.426 219.001 695.907 230.649C697.457 236.037 697.074 241.798 694.825 246.935Z" fill="#16F7FF"/>
<path d="M535.692 151.142L491.642 151.743L285.815 154.687L256.549 155.108C256.549 155.108 272.955 136.238 280.887 128.365C288.82 120.493 303.063 99.5192 354.384 94.6514C405.706 89.7836 459.13 92.7884 487.676 104.687C516.221 116.587 535.692 151.142 535.692 151.142Z" fill="#2D2B2B"/>
<path d="M75.9009 213.04C62.9117 216.466 49.3855 217.363 36.0576 215.685C36.0576 215.685 46.7546 197.656 53.4853 195.372C61.4689 196.338 69.5398 196.338 77.5234 195.372C95.5521 194.05 100.3 189.963 101.562 194.591C102.824 199.218 90.1435 208.774 75.9009 213.04Z" fill="#444444"/>
<path d="M499.995 130.469C500.957 125.962 497.952 119.651 485.092 113.101C472.231 106.55 448.073 100.481 407.809 98.738C367.545 96.9952 329.204 102.764 315.082 109.315C300.959 115.865 283.351 137.8 283.351 137.8L292.907 154.567L256.549 155.108C256.549 155.108 272.955 136.238 280.887 128.365C288.82 120.493 303.063 99.5192 354.384 94.6514C405.706 89.7836 459.13 92.7884 487.676 104.687C516.221 116.587 535.752 151.142 535.752 151.142L495.248 151.683C496.51 145.793 499.214 133.834 499.995 130.469Z" fill="#16F7FF"/>
<path d="M307.931 90.144C306.609 93.87 297.955 100.901 283.893 112.56C269.831 124.219 242.187 151.442 238.701 152.464C232.929 153.33 227.108 153.832 221.273 153.966C221.548 153.894 221.797 153.749 221.995 153.545C228.365 148.798 275.239 108.173 284.253 102.524C291.436 97.1623 299.429 92.9831 307.931 90.144Z" fill="#2D2B2B"/>
<path d="M396.631 153.125L380.586 153.305L386.595 97.656H393.687L396.631 153.125Z" fill="#16F7FF"/>
<path d="M110.938 289.543C86.1782 290.685 29.8688 292.187 29.8688 292.187C25.7238 290.154 21.9138 287.499 18.5709 284.314C17.4339 282.661 16.8252 280.702 16.8252 278.695C16.8252 276.689 17.4339 274.73 18.5709 273.076L102.164 271.033C103.805 277.733 106.79 284.03 110.938 289.543Z" fill="#16F7FF"/>
<path d="M506.003 283.173L221.872 286.538C221.805 286.548 221.736 286.538 221.674 286.51C221.612 286.483 221.559 286.438 221.521 286.381C221.484 286.325 221.463 286.259 221.461 286.191C221.459 286.123 221.477 286.056 221.511 285.998C222.653 282.933 225.478 270.252 225.778 267.969C246.211 267.308 423.252 261.959 506.123 258.654C505.376 266.808 505.336 275.012 506.003 283.173Z" fill="#16F7FF"/>
<path d="M343.447 178.966H366.584C365.824 181.372 364.281 183.453 362.201 184.88C360.121 186.307 357.623 186.996 355.106 186.839C352.582 186.918 350.097 186.2 348.004 184.786C345.912 183.373 344.317 181.337 343.447 178.966Z" fill="#16F7FF"/>
<path d="M59.6756 272.536L18.5703 273.077C17.4886 261.839 18.0295 238.161 23.3179 228.365C23.8828 227.259 24.5254 226.195 25.2409 225.18L59.6756 272.536Z" fill="#16F7FF"/>
<path d="M222.595 264.235C228.335 231.512 206.462 200.33 173.738 194.59C141.015 188.849 109.834 210.723 104.093 243.447C98.3529 276.17 120.227 307.352 152.95 313.093C185.673 318.833 216.854 296.959 222.595 264.235Z" fill="#3B4444"/>
<path d="M205.766 253.907C205.9 264.93 201.738 275.573 194.162 283.581C186.585 291.59 176.189 296.335 165.175 296.811C154.161 297.288 143.394 293.458 135.155 286.134C126.915 278.81 121.85 268.566 121.031 257.572C121.031 256.37 121.031 255.169 121.031 253.907C120.963 244.149 124.288 234.671 130.438 227.095C136.589 219.519 145.181 214.317 154.745 212.38C157.61 211.774 160.53 211.472 163.459 211.479C174.028 211.541 184.195 215.541 191.973 222.698C199.752 229.854 204.584 239.653 205.525 250.181C205.706 251.443 205.766 252.404 205.766 253.907Z" fill="#C2D1D5"/>
<path d="M173.376 253.906C173.376 255.905 172.782 257.86 171.67 259.521C170.558 261.183 168.978 262.477 167.129 263.239C165.281 264.001 163.248 264.198 161.288 263.803C159.328 263.409 157.529 262.441 156.119 261.023C154.71 259.605 153.753 257.801 153.37 255.838C152.988 253.876 153.196 251.844 153.969 250C154.743 248.157 156.046 246.584 157.714 245.482C159.383 244.38 161.34 243.798 163.34 243.81C164.663 243.81 165.973 244.071 167.194 244.579C168.416 245.088 169.525 245.832 170.458 246.77C171.39 247.709 172.128 248.822 172.629 250.047C173.13 251.271 173.384 252.583 173.376 253.906Z" fill="#2D2B2B"/>
<path d="M162.861 254.567L162.26 253.966L132.873 224.579C138.765 218.462 146.37 214.272 154.688 212.56L155.529 212.98L162.801 254.146V254.507L162.861 254.567Z" fill="#2D2B2B"/>
<path d="M192.723 284.435C186.534 290.449 178.646 294.414 170.127 295.793L162.855 254.567L192.723 284.435Z" fill="#2D2B2B"/>
<path d="M163.34 253.906L162.799 254.326L130.949 281.069C125.312 274.404 121.889 266.15 121.153 257.451L162.319 253.846H163.4L163.34 253.906Z" fill="#2D2B2B"/>
<path d="M205.586 250.181L163.52 253.906L195.971 226.623C201.531 233.295 204.89 241.524 205.586 250.181Z" fill="#2D2B2B"/>
<path d="M388.578 156.25C388.022 156.533 387.498 156.876 387.015 157.271C386.489 157.749 386.007 158.271 385.573 158.834C384.687 159.952 383.922 161.161 383.29 162.44C381.982 165.171 381.033 168.059 380.465 171.033C379.363 178.088 379.041 185.242 379.504 192.368C379.504 206.069 379.864 219.711 380.104 233.353C380.104 237.259 380.104 241.106 380.104 245.012C380.104 246.935 380.104 248.918 380.104 251.021C380.044 252.142 380.044 253.266 380.104 254.387C380.104 255.288 380.465 256.25 380.585 257.211C380.705 258.173 380.585 258.413 381.306 258.413C382.028 258.413 381.967 257.512 382.028 257.151C382.088 256.791 382.028 255.529 382.028 254.747C382.088 253.727 382.088 252.703 382.028 251.682C382.028 249.94 382.028 248.257 382.028 246.514C382.028 243.209 382.028 239.843 382.028 236.478L382.208 216.346C382.208 209.615 381.907 202.884 381.787 196.154C381.787 192.728 381.787 189.243 381.487 185.817V180.288C381.517 179.888 381.517 179.486 381.487 179.086V176.562V175.18C381.487 175.18 381.487 174.759 381.487 174.519V174.279C381.487 173.437 381.487 172.596 381.967 171.755C382.448 170.913 381.967 171.394 381.967 171.274V170.853L382.328 169.591C382.328 168.87 382.809 168.089 383.109 167.368C384.448 164.358 386.165 161.53 388.217 158.954C388.217 158.594 388.217 156.25 387.797 156.67L388.578 156.25Z" fill="#2D2B2B"/>
<path d="M255.646 159.315C248.409 167.696 243.443 177.793 241.224 188.642C238.654 200.987 237.965 213.65 239.18 226.202C239.661 232.932 240.442 239.663 241.284 246.334C241.284 247.957 241.704 249.639 241.945 251.262C242.092 252.698 242.333 254.124 242.666 255.529C243.009 256.898 243.691 258.158 244.649 259.195C245.674 260.035 246.933 260.539 248.255 260.637C249.757 260.637 251.259 260.637 252.762 260.637H287.858H307.99C314.6 260.637 321.331 260.637 327.941 260.216C329.624 260.216 331.307 259.615 332.929 259.315C333.35 259.315 333.29 257.993 332.929 257.932C331.264 257.525 329.579 257.204 327.881 256.971L323.073 256.55C319.828 256.55 316.523 256.55 313.278 256.55H293.627H254.625H249.877C248.56 256.67 247.233 256.442 246.031 255.889C245.574 255.672 245.181 255.341 244.889 254.928L244.529 254.387V253.966C244.502 253.666 244.502 253.365 244.529 253.065C244.536 252.925 244.536 252.784 244.529 252.644C244.529 251.863 244.529 251.142 244.228 250.42C243.387 244.05 242.606 237.74 242.005 231.37C242.005 229.627 241.704 228.305 241.584 226.743C241.464 225.18 241.584 223.618 241.584 222.055C241.584 218.81 241.584 215.625 241.584 212.38C241.584 211.598 241.584 210.817 241.584 210.036V207.993C241.584 206.49 241.584 204.928 241.945 203.365C242.305 201.803 241.945 200.721 242.365 199.399C242.365 199.038 242.365 198.738 242.365 198.377V197.896C242.34 197.617 242.34 197.335 242.365 197.055C242.365 196.574 242.365 197.055 242.365 197.055V195.973C243.247 190.592 244.614 185.302 246.452 180.168C248.405 174.789 250.923 169.632 253.964 164.783L256.307 161.298C256.367 161.166 256.398 161.022 256.398 160.877C256.398 160.732 256.367 160.589 256.307 160.457C256.307 160.457 256.307 159.856 255.947 160.036L255.646 159.315Z" fill="#2D2B2B"/>
<path d="M350.899 258.414C351.369 258.639 351.851 258.84 352.342 259.015C352.921 259.075 353.505 259.075 354.084 259.015H357.39H364.18H378.183L392.365 258.414H399.516C401.8 258.414 404.144 258.414 406.427 257.993C408.711 257.572 411.536 257.693 414.06 257.452L421.451 256.671V256.07C417.004 255.769 412.617 255.289 408.17 255.168H401.139C398.795 255.168 396.452 255.168 394.108 255.168L365.983 255.95H358.351H354.685H352.822C352.175 256.058 351.548 256.261 350.959 256.551C350.599 256.551 350.539 257.873 350.959 257.993L350.899 258.414Z" fill="#2D2B2B"/>
<path d="M19.8301 272.476C21.0704 272.565 22.3156 272.565 23.556 272.476H27.2819H34.6736L49.3369 272.175C59.1325 272.175 68.928 271.695 78.7236 271.394C81.4879 271.394 84.1922 271.394 86.9566 271.033C88.2787 271.033 89.6609 271.033 90.983 270.673C92.438 270.545 93.8832 270.325 95.3099 270.012C95.3099 270.012 95.3099 269.471 95.3099 269.411C94.108 269.411 92.846 269.411 91.6441 269.05H87.9182H80.4663L65.743 269.471C56.0075 269.471 46.212 270.132 36.4164 270.493H28.1833H24.0969C23.4358 270.493 22.6546 270.493 21.9935 270.493L19.8301 270.913C19.8301 270.913 19.8301 271.574 19.8301 271.634V272.476Z" fill="#2D2B2B"/>
<path d="M19.29 265.745L21.2131 266.045C21.8326 266.105 22.4565 266.105 23.076 266.045C24.278 266.045 25.4799 266.045 26.6818 266.045H34.1937C39.224 266.018 44.2381 265.474 49.1574 264.423C49.1574 264.423 49.1574 263.942 49.1574 263.882C44.1842 263.34 39.1669 263.34 34.1937 263.882C31.7098 263.882 29.2458 264.002 26.802 264.243C25.6001 264.243 24.3381 264.243 23.1361 264.243C22.4956 264.209 21.8537 264.209 21.2131 264.243L19.29 264.723C19.29 264.723 19.29 265.625 19.29 265.685V265.745Z" fill="#2D2B2B"/>
<path d="M20.3115 258.774C21.2319 258.836 22.1555 258.836 23.0759 258.774H25.7802H31.2489C34.8565 259.069 38.4861 258.948 42.0661 258.413C42.0661 258.413 42.0661 257.692 42.0661 257.632C38.466 257.101 34.8191 256.96 31.1888 257.211H25.7201H23.136C22.1862 257.288 21.2425 257.429 20.3115 257.632C20.3115 257.632 20.3115 258.654 20.3115 258.714V258.774Z" fill="#2D2B2B"/>
<path d="M22.5947 251.022H26.2005H30.0466H33.6523C34.9143 251.022 35.996 250.481 37.258 250.24C37.258 250.24 37.258 249.579 37.258 249.519C36.0569 249.457 34.8534 249.457 33.6523 249.519H30.0466C28.8446 249.519 27.6427 249.519 26.4408 250L22.8952 250.601V251.022H22.5947Z" fill="#2D2B2B"/>
<path d="M23.6797 243.269C24.461 243.491 25.2716 243.592 26.0835 243.57C26.8636 243.629 27.6471 243.629 28.4272 243.57C29.2393 243.538 30.0455 243.417 30.831 243.209C31.6165 243.098 32.3722 242.832 33.0546 242.428C33.0546 242.428 33.0546 241.707 33.0546 241.586C32.3183 241.465 31.5673 241.465 30.831 241.586C30.0109 241.524 29.1873 241.524 28.3671 241.586C27.5567 241.668 26.7533 241.809 25.9633 242.007C25.1836 242.234 24.4205 242.515 23.6797 242.848V243.449V243.269Z" fill="#2D2B2B"/>
<path d="M24.7569 235.396H25.418H26.0189H27.8218H28.4828H29.0838H29.4444C29.4444 235.396 29.4444 234.856 29.4444 234.675C29.5281 234.463 29.5281 234.227 29.4444 234.014H28.8434H27.7617H27.1006C26.7022 233.955 26.2972 233.955 25.8987 234.014C25.4633 234.158 25.0411 234.339 24.6367 234.555C24.6367 234.555 24.6367 234.916 24.6367 234.976V234.375C24.6367 234.375 24.6367 235.096 24.9973 235.156L24.7569 235.396Z" fill="#2D2B2B"/>
<path d="M41.2275 212.921C42.1341 213.185 43.0577 213.385 43.9919 213.522C44.8934 213.522 45.7948 213.522 46.6962 213.522L52.1649 213.101C55.7706 212.74 59.3763 212.2 62.922 211.599C66.4676 210.998 70.0132 210.156 73.5589 209.255C77.1045 208.353 80.59 207.332 84.0155 206.13C87.4409 204.928 91.2269 203.666 92.6091 200.12C92.6091 200.12 92.6091 198.498 92.6091 198.558C92.0021 198.672 91.4276 198.918 90.9264 199.279L89.0635 200.361C87.6739 201.065 86.2263 201.648 84.7366 202.103C81.3713 203.185 78.0059 204.267 74.5805 205.228C67.6263 207.17 60.5626 208.695 53.4269 209.796L47.4174 210.697L44.4727 211.058C43.4035 211.307 42.3579 211.649 41.3477 212.079C41.3477 212.079 41.3477 212.981 41.3477 213.041L41.2275 212.921Z" fill="#2D2B2B"/>
<path d="M119.412 175.24C117.54 175.272 115.696 175.702 114.003 176.502C111.66 177.764 107.032 181.55 107.092 183.474C107.152 185.397 114.124 185.337 120.674 182.933C123.559 181.911 125.662 178.906 130.59 176.923C136.947 174.701 143.542 173.229 150.241 172.536C156.104 172.63 161.92 171.483 167.308 169.171C170.733 166.767 171.515 164.243 170.673 163.161C169.832 162.079 166.467 159.495 157.933 160.577C149.4 161.659 119.412 175.24 119.412 175.24Z" fill="#00BEC3"/>
<path d="M182.75 115.745C182.269 115.745 179.024 115.745 172.113 125.721C165.202 135.697 151.019 153.726 149.457 159.916C147.894 166.105 151.921 165.384 157.45 161.478C167.048 153.409 176.046 144.652 184.372 135.276C192.004 126.742 194.108 125.36 193.206 121.093C192.305 116.827 182.75 115.745 182.75 115.745Z" fill="#CE7D67"/>
<path d="M164.181 157.632C164.693 156.171 164.685 154.579 164.16 153.123C163.634 151.667 162.623 150.437 161.297 149.639C156.609 146.214 153.604 147.476 153.604 147.476L145.431 159.495C145.431 159.495 131.189 165.505 130.287 166.406C129.386 167.307 128.905 166.406 126.261 168.81C123.617 171.214 119.41 175.42 119.41 175.42C121.485 175.852 123.647 175.441 125.42 174.279C129.359 174.007 133.126 172.563 136.237 170.132C137.859 168.87 143.328 165.745 144.109 166.526C144.891 167.307 141.465 169.831 139.362 172.115C137.258 174.399 133.352 176.442 133.653 177.283C133.953 178.125 140.984 176.743 146.153 173.497C152.507 168.614 158.529 163.314 164.181 157.632Z" fill="#C2D1D5"/>
<path d="M126.202 172.897C127.91 171.005 129.946 169.437 132.211 168.269C133.344 167.668 134.508 167.126 135.697 166.647L137.62 166.046C138.322 165.906 138.994 165.641 139.603 165.265C139.603 165.265 139.603 164.423 139.603 164.303C138.971 164.155 138.312 164.155 137.68 164.303C137.043 164.448 136.419 164.65 135.817 164.904C134.489 165.356 133.219 165.961 132.031 166.707C130.889 167.488 129.747 168.329 128.666 169.231C127.637 170.172 126.71 171.22 125.901 172.356C125.901 172.356 125.901 173.257 125.901 173.017L126.202 172.897Z" fill="#607C78"/>
</g>
<defs>
<clipPath id="clip0_244_28644">
<rect width="756" height="325" fill="white"/>
</clipPath>
</defs>
</svg>
