<svg width="440" height="325" viewBox="0 0 440 325" fill="none" xmlns="http://www.w3.org/2000/svg">
<path d="M-1.5625 300.883C-1.5625 291.347 67.169 283.585 152.004 283.585C236.84 283.585 310.607 304.93 310.607 314.411C310.607 323.891 254.659 325 169.824 325C76.8534 325 -1.5625 310.474 -1.5625 300.883Z" fill="#E2E2E2"/>
<path d="M275.578 274.825C275.578 280.924 302.75 285.913 336.451 285.913C370.153 285.913 405.072 280.924 405.072 274.825C405.072 268.726 369.987 263.737 336.451 263.737C302.916 263.737 275.578 268.671 275.578 274.825Z" fill="#E2E2E2"/>
<path d="M245.526 292.678C246.522 298.61 262.515 300.883 281.33 297.723C300.146 294.563 306.565 289.905 305.569 283.973C304.573 278.041 296.493 272.885 277.899 276.211C259.305 279.538 244.696 286.745 245.526 292.678Z" fill="#E2E2E2"/>
<path d="M406.122 320.01C444.448 320.01 475.518 315.517 475.518 309.975C475.518 304.433 444.448 299.94 406.122 299.94C367.796 299.94 336.727 304.433 336.727 309.975C336.727 315.517 367.796 320.01 406.122 320.01Z" fill="#E2E2E2"/>
<path d="M175.742 300.162L180.058 297.112C180.058 297.112 177.9 247.215 207.728 247.88C237.556 248.545 237.667 290.958 237.667 290.958L245.58 292.899C250.45 272.385 248.347 241.615 210.551 240.007C184.984 238.898 176.959 254.644 174.303 264.568C171.991 276.381 172.484 288.574 175.742 300.162Z" fill="#1A1A1A"/>
<path d="M208.56 320.065C200.402 320.501 192.235 319.391 184.488 316.794C180.624 315.144 177.185 312.634 174.433 309.454C171.682 306.275 169.689 302.509 168.605 298.443V297.833C167.639 295.075 166.917 292.236 166.447 289.351C165.578 283.069 165.978 276.677 167.623 270.553C169.268 264.429 172.123 258.698 176.021 253.702C181.221 248.517 187.773 244.904 194.927 243.277C202.082 241.649 209.549 242.072 216.474 244.498C225.553 248.049 232.918 254.966 237.04 263.814C241.162 272.661 241.724 282.76 238.61 292.012C235.059 297.102 231.157 301.938 226.933 306.482C214.592 319.844 208.56 320.065 208.56 320.065Z" fill="#2D2B2B"/>
<path d="M177.068 284.915C177.068 304.32 190.959 320.065 208.556 320.065C228.036 320.065 240.653 304.32 240.653 284.915C240.653 265.511 226.431 249.765 208.833 249.765C191.235 249.765 177.068 265.455 177.068 284.915Z" fill="#3B4444"/>
<path d="M188.084 284.194C188.096 286.294 188.281 288.39 188.637 290.459C189.466 295.245 191.483 299.744 194.503 303.543C196.962 306.605 200.246 308.895 203.966 310.141L206.18 310.695C207.366 310.919 208.57 311.03 209.777 311.028C212.991 311.021 216.15 310.201 218.963 308.644C224.066 305.62 227.886 300.827 229.699 295.172C230.552 292.642 231.091 290.016 231.304 287.354C231.304 286.357 231.304 285.359 231.304 284.361C231.293 282.502 231.126 280.647 230.806 278.816C230.019 274.163 228.12 269.769 225.272 266.009C223.169 262.953 220.334 260.475 217.026 258.802L215.588 258.303C211.374 256.922 206.798 257.159 202.749 258.968C197.243 261.5 192.909 266.041 190.63 271.664C189.435 274.456 188.652 277.407 188.305 280.424C188.305 280.757 188.305 281.09 188.305 281.422C188.305 281.755 188.084 283.252 188.084 284.194Z" fill="#C2D1D5"/>
<path d="M207.676 284.638C207.782 285.253 208.06 285.825 208.479 286.286C208.898 286.747 209.44 287.079 210.041 287.241C210.642 287.404 211.276 287.392 211.87 287.205C212.464 287.019 212.993 286.666 213.393 286.189C213.794 285.711 214.05 285.129 214.131 284.511C214.212 283.893 214.115 283.264 213.852 282.699C213.588 282.134 213.169 281.657 212.644 281.322C212.118 280.988 211.508 280.811 210.886 280.813C209.955 280.898 209.096 281.347 208.495 282.064C207.893 282.78 207.599 283.706 207.676 284.638Z" fill="#2D2B2B"/>
<path d="M194.504 303.544C196.962 306.606 200.247 308.896 203.967 310.142L206.181 310.696L208.117 292.123C208.106 291.884 208.024 291.653 207.883 291.461C207.741 291.268 207.546 291.121 207.322 291.038C207.098 290.955 206.855 290.94 206.622 290.995C206.389 291.05 206.178 291.172 206.014 291.347L194.504 303.544Z" fill="#2D2B2B"/>
<path d="M212.932 276.266C212.932 277.32 214.26 277.874 215.035 277.043L225.383 265.566C223.194 262.658 220.324 260.335 217.027 258.802L215.588 258.303L212.932 276.266Z" fill="#2D2B2B"/>
<path d="M217.468 282.254L229.366 277.763C229.475 277.725 229.566 277.646 229.617 277.542C229.669 277.439 229.678 277.319 229.643 277.209C229.585 277.102 229.495 277.018 229.385 276.968C229.275 276.918 229.152 276.905 229.034 276.932L217.136 281.478C217.073 281.556 217.039 281.654 217.039 281.755C217.039 281.856 217.073 281.954 217.136 282.032C217.215 282.145 217.334 282.224 217.468 282.254Z" fill="#2D2B2B"/>
<path d="M191.129 292.178L204.3 287.189C204.402 287.141 204.485 287.06 204.535 286.96C204.585 286.859 204.6 286.744 204.577 286.634C204.577 286.357 204.245 286.246 204.023 286.357L190.853 291.347C190.816 291.383 190.787 291.426 190.767 291.474C190.747 291.521 190.736 291.572 190.736 291.624C190.736 291.676 190.747 291.727 190.767 291.774C190.787 291.822 190.816 291.865 190.853 291.901C190.874 291.965 190.911 292.024 190.959 292.072C191.007 292.12 191.065 292.156 191.129 292.178Z" fill="#2D2B2B"/>
<path d="M218.74 288.575L229.808 295.172C230.66 292.642 231.199 290.017 231.412 287.355L219.514 286.801C219.309 286.799 219.107 286.858 218.934 286.97C218.762 287.082 218.626 287.243 218.543 287.432C218.461 287.621 218.435 287.83 218.47 288.033C218.505 288.236 218.599 288.424 218.74 288.575Z" fill="#2D2B2B"/>
<path d="M188.195 281.423L202.473 282.92C202.7 282.963 202.934 282.93 203.141 282.825C203.347 282.721 203.513 282.552 203.614 282.344C203.715 282.136 203.744 281.9 203.698 281.674C203.652 281.447 203.532 281.242 203.358 281.09L190.63 271.665C189.436 274.457 188.653 277.407 188.306 280.425C188.251 280.758 188.251 281.09 188.195 281.423Z" fill="#2D2B2B"/>
<path d="M220.345 303.821C220.422 303.739 220.466 303.63 220.466 303.516C220.466 303.403 220.422 303.294 220.345 303.211L213.704 289.684C213.668 289.647 213.625 289.617 213.577 289.597C213.53 289.577 213.479 289.567 213.427 289.567C213.376 289.567 213.325 289.577 213.277 289.597C213.23 289.617 213.187 289.647 213.151 289.684C213.073 289.766 213.029 289.875 213.029 289.989C213.029 290.102 213.073 290.211 213.151 290.293L220.123 303.71C220.188 303.764 220.263 303.802 220.345 303.821Z" fill="#2D2B2B"/>
<path d="M208.28 278.041C208.317 278.004 208.346 277.961 208.366 277.914C208.386 277.866 208.396 277.815 208.396 277.763C208.396 277.712 208.386 277.661 208.366 277.613C208.346 277.565 208.317 277.522 208.28 277.486L201.473 263.127C201.437 263.09 201.394 263.061 201.347 263.041C201.299 263.021 201.248 263.01 201.197 263.01C201.145 263.01 201.094 263.021 201.047 263.041C200.999 263.061 200.956 263.09 200.92 263.127C200.842 263.209 200.799 263.318 200.799 263.432C200.799 263.545 200.842 263.654 200.92 263.737L207.727 278.096C207.766 278.13 207.812 278.155 207.862 278.17C207.911 278.186 207.964 278.191 208.015 278.186C208.067 278.18 208.117 278.165 208.162 278.14C208.208 278.115 208.248 278.081 208.28 278.041Z" fill="#2D2B2B"/>
<path d="M383.709 257.028L387.195 254.256C387.195 254.256 385.424 209.237 409.331 209.903C433.237 210.568 433.403 245.164 433.403 245.164L439.601 243.445C439.933 232.356 444.084 204.636 411.6 202.695C404.804 201.879 397.958 203.734 392.499 207.87C387.04 212.005 383.393 218.099 382.325 224.872C380.553 235.571 381.024 246.522 383.709 257.028Z" fill="#1A1A1A"/>
<path d="M408.668 272.496C393.892 273.106 380.444 270.999 375.464 253.979V253.424C374.686 250.918 374.076 248.362 373.638 245.773C372.207 234.382 375.046 222.864 381.607 213.451C385.635 208.873 390.955 205.627 396.864 204.143C402.772 202.658 408.991 203.004 414.7 205.135C422.493 208.836 428.668 215.263 432.062 223.207C435.456 231.151 435.835 240.064 433.128 248.268C430.179 252.849 426.945 257.237 423.443 261.408C413.205 273.383 408.778 272.496 408.668 272.496Z" fill="#2D2B2B"/>
<path d="M381.166 239.398C381.166 259.302 394.89 273.994 410.773 272.33C426.655 270.667 436.229 256.141 436.229 239.398C436.229 222.655 425.493 207.962 411.049 206.466C395.222 205.135 381.166 219.494 381.166 239.398Z" fill="#3B4444"/>
<path d="M392.175 238.732C392.169 240.794 392.335 242.853 392.673 244.886C393.391 249.526 395.298 253.901 398.207 257.583C400.429 260.271 403.424 262.207 406.784 263.127L408.721 263.515C409.751 263.626 410.79 263.626 411.82 263.515C414.581 263.314 417.237 262.376 419.513 260.798C423.671 257.68 426.655 253.245 427.979 248.213C428.668 245.959 429.095 243.634 429.252 241.283C429.252 240.396 429.252 239.509 429.252 238.621C429.238 236.896 429.108 235.174 428.865 233.465C428.247 229.353 426.756 225.42 424.493 221.933C422.781 219.184 420.401 216.914 417.576 215.336L416.414 214.781C414.922 214.123 413.333 213.711 411.71 213.562C409.558 213.391 407.396 213.733 405.401 214.56C402.877 215.681 400.599 217.292 398.7 219.3C396.8 221.308 395.316 223.673 394.333 226.258C393.194 229 392.466 231.896 392.175 234.851C392.145 235.202 392.145 235.554 392.175 235.905C392.23 236.903 392.175 237.79 392.175 238.732Z" fill="#C2D1D5"/>
<path d="M410.05 239.176C409.955 240.004 410.185 240.837 410.69 241.499C411.196 242.161 411.939 242.601 412.762 242.724C413.551 242.525 414.251 242.068 414.751 241.425C415.251 240.783 415.522 239.991 415.522 239.176C415.522 238.361 415.251 237.57 414.751 236.927C414.251 236.284 413.551 235.827 412.762 235.628C411.268 235.572 410.05 237.18 410.05 239.176Z" fill="#2D2B2B"/>
<path d="M398.205 257.583C400.427 260.271 403.422 262.207 406.783 263.127L408.72 263.515L410.38 245.94C410.388 245.73 410.33 245.523 410.214 245.349C410.098 245.174 409.93 245.04 409.734 244.967C409.538 244.893 409.324 244.883 409.122 244.938C408.92 244.994 408.74 245.111 408.609 245.275L398.205 257.583Z" fill="#2D2B2B"/>
<path d="M414.531 231.414C414.513 231.621 414.559 231.828 414.663 232.007C414.767 232.186 414.925 232.329 415.113 232.414C415.302 232.499 415.513 232.524 415.716 232.484C415.919 232.444 416.105 232.341 416.247 232.19L424.603 222.1C422.891 219.351 420.511 217.081 417.686 215.502L416.524 214.948L414.531 231.414Z" fill="#2D2B2B"/>
<path d="M418.297 237.014L427.926 232.856C427.963 232.819 427.992 232.776 428.012 232.729C428.032 232.681 428.042 232.63 428.042 232.578C428.042 232.527 428.032 232.476 428.012 232.428C427.992 232.38 427.963 232.337 427.926 232.301C427.848 232.238 427.75 232.204 427.649 232.204C427.549 232.204 427.451 232.238 427.373 232.301L417.91 236.238C417.847 236.316 417.812 236.414 417.812 236.515C417.812 236.616 417.847 236.713 417.91 236.792C417.949 236.86 418.005 236.916 418.073 236.955C418.141 236.994 418.219 237.014 418.297 237.014Z" fill="#2D2B2B"/>
<path d="M395.054 246.605L407.117 241.671C407.195 241.589 407.239 241.479 407.239 241.366C407.239 241.253 407.195 241.143 407.117 241.061C407.081 241.024 407.038 240.995 406.991 240.975C406.943 240.955 406.892 240.945 406.841 240.945C406.789 240.945 406.738 240.955 406.691 240.975C406.643 240.995 406.6 241.024 406.564 241.061L394.5 245.995C394.422 246.078 394.379 246.187 394.379 246.3C394.379 246.414 394.422 246.523 394.5 246.605C394.579 246.668 394.676 246.703 394.777 246.703C394.877 246.703 394.975 246.668 395.054 246.605Z" fill="#2D2B2B"/>
<path d="M419.349 242.779L427.982 248.324C428.67 246.07 429.098 243.745 429.255 241.393L419.903 240.95C419.661 240.876 419.399 240.902 419.176 241.022C418.953 241.141 418.786 241.345 418.713 241.587C418.639 241.83 418.665 242.092 418.785 242.315C418.904 242.539 419.107 242.706 419.349 242.779Z" fill="#2D2B2B"/>
<path d="M392.287 236.016L405.458 237.568C405.677 237.605 405.902 237.568 406.098 237.462C406.293 237.356 406.448 237.188 406.537 236.984C406.626 236.78 406.644 236.552 406.589 236.336C406.534 236.121 406.409 235.93 406.233 235.794L394.556 226.369C393.417 229.111 392.689 232.007 392.398 234.962C392.331 235.309 392.294 235.662 392.287 236.016Z" fill="#2D2B2B"/>
<path d="M420.618 256.64C420.696 256.557 420.74 256.448 420.74 256.335C420.74 256.221 420.696 256.112 420.618 256.03L415.084 243.888C415.002 243.81 414.893 243.767 414.78 243.767C414.667 243.767 414.558 243.81 414.476 243.888C414.439 243.924 414.41 243.967 414.39 244.015C414.37 244.063 414.359 244.114 414.359 244.165C414.359 244.217 414.37 244.268 414.39 244.316C414.41 244.363 414.439 244.406 414.476 244.442L420.01 256.584C420.084 256.67 420.189 256.724 420.303 256.734C420.416 256.744 420.529 256.711 420.618 256.64Z" fill="#2D2B2B"/>
<path d="M410.716 232.856C410.779 232.777 410.813 232.679 410.813 232.578C410.813 232.478 410.779 232.38 410.716 232.301L405.182 218.552C405.1 218.474 404.991 218.43 404.878 218.43C404.764 218.43 404.656 218.474 404.573 218.552C404.536 218.588 404.507 218.631 404.487 218.678C404.467 218.726 404.457 218.777 404.457 218.829C404.457 218.88 404.467 218.932 404.487 218.979C404.507 219.027 404.536 219.07 404.573 219.106L410.163 232.856C410.241 232.919 410.339 232.953 410.439 232.953C410.54 232.953 410.637 232.919 410.716 232.856Z" fill="#2D2B2B"/>
<path d="M-19.3263 273.938C-19.3263 286.634 -11.6341 306.815 10.6676 306.815C14.9452 307.073 19.2254 306.353 23.1848 304.711C27.1442 303.068 30.6792 300.546 33.5228 297.334C38.5698 290.616 41.0969 282.334 40.6616 273.938C40.6616 254.588 27.2141 239.952 10.6676 239.952C5.77807 239.915 0.966244 241.178 -3.27789 243.611C-8.39065 246.793 -12.5697 251.276 -15.389 256.603C-18.2083 261.931 -19.5669 267.912 -19.3263 273.938Z" fill="#2D2B2B"/>
<path d="M-11.582 273.383C-11.582 291.014 0.481958 305.318 15.3683 305.318C30.2546 305.318 42.2632 291.014 42.2632 273.383C42.2632 255.753 30.1992 241.449 15.3683 241.449C0.537297 241.449 -11.582 255.753 -11.582 273.383Z" fill="#3B4444"/>
<path d="M169.824 297.445C169.824 297.445 168.662 299.108 160.25 300.162C151.839 301.215 -0.787477 289.628 -7.26219 288.297C-11.2607 287.492 -15.1582 286.246 -18.8835 284.582L-19.3262 281.589L167.112 292.677L169.824 297.445Z" fill="black"/>
<path d="M75.4157 167.989H100.817C101.751 167.989 102.676 167.801 103.537 167.437C104.398 167.072 105.176 166.537 105.827 165.865C106.477 165.193 106.986 164.396 107.323 163.523C107.661 162.649 107.819 161.717 107.789 160.781C107.76 158.948 107.013 157.199 105.708 155.913C104.404 154.627 102.647 153.906 100.817 153.906H75.4157C73.5855 153.906 71.8285 154.627 70.524 155.913C69.2195 157.199 68.472 158.948 68.443 160.781C68.4133 161.717 68.5717 162.649 68.9088 163.523C69.2459 164.396 69.7548 165.193 70.4053 165.865C71.0558 166.537 71.8345 167.072 72.6952 167.437C73.556 167.801 74.4811 167.989 75.4157 167.989Z" fill="#444444"/>
<path d="M447.958 214.948C447.857 221.913 447.003 228.846 445.412 235.627C445.412 235.627 443.254 244.498 439.878 243.167C438.55 224.095 437.941 219.106 429.53 210.734C424.486 206.462 418.117 204.082 411.513 204.001C404.91 203.92 398.484 206.144 393.338 210.29C389.565 212.739 386.385 216.001 384.03 219.838C381.675 223.674 380.204 227.989 379.724 232.467C378.84 237.54 378.728 242.718 379.392 247.825C380.112 251.927 381.772 256.584 378.064 257.693L372.53 259.19L355.928 263.847C319.035 273.938 282.142 283.603 245.249 292.843C246.854 275.878 245.249 270.667 240.712 260.354C238.311 255.777 234.952 251.772 230.864 248.615C226.776 245.457 222.056 243.221 217.026 242.059C207.054 240.196 196.745 241.862 187.863 246.771C183.089 249.469 178.974 253.197 175.816 257.685C172.657 262.172 170.534 267.307 169.601 272.718C168.197 280.882 168.197 289.226 169.601 297.39C168.715 297.39 166.17 297.39 165.671 297.39L161.687 297.057L149.236 296.281L131.914 295.227L111.273 293.841L88.307 292.344L64.6217 290.792C56.9296 290.348 49.2374 289.794 41.6006 289.295L20.5716 287.909L2.97366 286.689L-9.86508 285.802C-12.0787 285.802 -14.2922 285.47 -16.5058 285.192C-28.1271 283.751 -29.9533 266.12 -31.4474 257.804C-32.9339 251.663 -32.0441 245.185 -28.9572 239.675C-27.0756 236.847 -25.2494 235.239 -24.2533 233.354C-23.7967 232.514 -23.5143 231.59 -23.4232 230.638C-23.1957 226.213 -22.4906 221.826 -21.3203 217.553L-20.933 216.223C-18.1551 211.045 -14.072 206.687 -9.09033 203.582C6.51767 196.013 22.5147 189.276 38.8336 183.401L70.211 172.313L73.5867 171.093C73.5867 171.093 118.412 136.553 143.978 118.312C150.736 113.76 158.223 110.403 166.114 108.388C201.975 100.428 238.704 97.0928 275.409 98.4643C322.448 100.627 332.464 100.571 353.272 110.163C371.479 118.534 379.503 130.011 394.666 143.982C407.781 156.068 408.667 156.456 413.758 159.062C415.473 159.894 417.41 160.67 419.292 161.502C424.013 163.144 428.555 165.262 432.85 167.822C438.27 172.186 442.418 177.931 444.859 184.455C444.983 184.779 445.131 185.094 445.301 185.397C449.452 194.49 449.009 200.865 447.958 214.948Z" fill="#16F7FF"/>
<path d="M140.546 178.966C170.912 180.982 201.379 180.982 231.745 178.966C235.121 177.525 253.217 133.393 253.881 130.454C254.545 127.516 257.699 122.859 252.553 120.752H251.999C246.696 119.874 241.326 119.466 235.951 119.532C214.701 118.479 193.395 117.98 172.145 117.37C163.555 116.509 154.891 116.732 146.357 118.035L143.7 118.812C118.133 137.052 73.3086 171.592 73.3086 171.592C73.3086 171.592 107.785 176.748 140.546 178.966Z" fill="#2D2B2B"/>
<path d="M320.845 174.641C320.845 174.641 247.022 180.851 246.247 180.185C245.472 179.52 266.833 125.353 269.877 123.136C273.861 120.031 311.88 120.086 313.208 120.086C316.238 128.252 318.246 136.763 319.184 145.423C320.542 155.1 321.097 164.873 320.845 174.641Z" fill="#2D2B2B"/>
<path d="M316.639 119.754C316.639 119.754 353.55 122.748 355.764 123.358C365.596 127.083 374.12 133.618 380.279 142.153C390.461 156.124 395.774 161.336 394.667 163.165C393.56 164.995 323.833 175.085 323.611 174.586C323.39 174.087 322.394 151.689 321.176 142.818C319.959 133.947 317.137 122.748 316.639 119.754Z" fill="#2D2B2B"/>
<path d="M-6.54813 274.881L145.082 283.308C146.201 283.375 147.323 283.221 148.383 282.853C149.443 282.485 150.42 281.911 151.258 281.164C152.096 280.418 152.778 279.512 153.267 278.501C153.755 277.489 154.039 276.391 154.102 275.269C154.185 274.111 154.032 272.949 153.651 271.853C153.27 270.757 152.671 269.75 151.889 268.893C151.107 268.037 150.159 267.35 149.102 266.873C148.046 266.396 146.904 266.14 145.746 266.121L-5.60736 257.749C-6.75029 257.697 -7.89214 257.873 -8.96653 258.267C-10.0409 258.661 -11.0264 259.265 -11.8657 260.044C-12.705 260.823 -13.3814 261.762 -13.8556 262.805C-14.3297 263.848 -14.5922 264.975 -14.6277 266.121C-14.6884 268.349 -13.8774 270.512 -12.3677 272.148C-10.8581 273.785 -8.76957 274.766 -6.54813 274.881Z" fill="#444444"/>
<path d="M322.562 193.492H322.175L307.842 194.934C308.326 196.832 309.491 198.485 311.113 199.579C312.736 200.673 314.703 201.131 316.641 200.866C322.673 200.478 322.562 193.492 322.562 193.492Z" fill="#444444"/>
<path d="M385.259 181.461H384.927L373.859 182.625C374.26 184.076 375.168 185.333 376.418 186.168C377.668 187.003 379.176 187.359 380.666 187.171C385.37 186.894 385.259 181.461 385.259 181.461Z" fill="#444444"/>
<path d="M419.4 161.668C421.227 166.658 425.93 178.301 431.188 181.35C435.434 183.495 440.161 184.507 444.912 184.288C442.472 177.765 438.324 172.02 432.903 167.656C428.613 165.213 424.089 163.207 419.4 161.668Z" fill="#C31E21"/>
<path d="M326.264 179.188L327.925 180.13L329.419 181.405C330.407 182.201 331.332 183.072 332.186 184.011C334.021 185.859 335.671 187.883 337.111 190.054C340.06 194.415 342.232 199.254 343.53 204.358C344.776 210.177 345.499 216.096 345.688 222.044C346.076 227.976 346.408 233.909 346.74 239.841C346.74 243.057 347.127 246.328 347.293 249.543C347.293 251.207 347.293 252.925 347.293 254.589C347.293 256.252 347.293 258.192 347.293 260.133C347.293 260.133 347.293 260.964 346.851 261.075C346.408 261.186 346.408 260.632 346.353 260.354C346.159 258.846 346.049 257.329 346.02 255.808C346.02 254.367 346.02 252.87 346.02 251.428L345.522 242.835C345.19 237.291 344.858 231.358 344.582 225.592C344.437 219.76 343.9 213.944 342.977 208.184C342.042 202.954 340.167 197.939 337.443 193.381C335.958 190.988 334.273 188.725 332.407 186.617C331.411 185.563 330.359 184.51 329.308 183.512L327.703 181.849L326.043 180.186C326.043 180.186 326.043 179.021 326.043 179.188H326.264Z" fill="#2D2B2B"/>
<path d="M246.578 184.676C248.82 186.079 250.712 187.975 252.112 190.22C253.694 192.494 254.994 194.952 255.986 197.539C258.16 203.331 259.412 209.431 259.694 215.613C260.136 222.321 260.026 229.03 260.081 235.738L260.413 255.919C260.413 263.57 260.413 271.165 260.413 278.816C260.413 279.149 260.413 279.981 259.804 279.981C259.196 279.981 259.195 279.094 259.195 278.761C259.195 265.51 259.196 252.26 258.808 239.009C258.808 232.412 258.808 225.759 258.808 219.161C258.749 213.017 257.817 206.913 256.041 201.032C255.108 198.107 253.846 195.298 252.278 192.66C250.633 190.058 248.782 187.592 246.744 185.286C246.744 185.286 246.744 184.454 246.744 184.565L246.578 184.676Z" fill="#2D2B2B"/>
<path d="M339.546 262.184L337.72 262.794L335.617 263.404L331.522 264.457L323.553 266.509L307.338 270.944C296.603 273.938 285.811 276.932 275.02 279.648C272.032 280.424 269.044 281.256 266 281.866C262.956 282.476 260.466 282.199 259.47 279.537C259.359 279.138 259.359 278.717 259.47 278.318C259.47 278.318 259.47 277.763 259.913 278.318C260.964 280.535 263.786 280.591 265.834 280.203C267.881 279.815 271.368 278.983 273.803 278.373L289.741 274.27C300.366 271.443 310.936 268.726 321.616 265.732L330.526 263.459L334.953 262.406L337.222 261.907L339.546 261.574C339.546 261.574 339.546 262.35 339.546 262.406V262.184Z" fill="#2D2B2B"/>
<path d="M235.123 183.679C215.23 194.478 194.634 203.925 173.475 211.954C167.19 214.702 160.761 217.108 154.217 219.161C148.331 220.904 142.197 221.653 136.066 221.379H135.512C131.86 221.379 128.042 221.379 124.444 221.379H107.843L88.6952 221.046C81.7778 221.046 74.8604 220.714 67.9983 220.437C61.1362 220.159 53.7761 219.938 46.6926 219.55C39.6092 219.161 32.7471 218.773 25.7744 218.274C18.8016 217.775 12.2715 216.888 5.96286 216.223C-0.345832 215.558 -5.65841 214.892 -11.469 213.95L-15.3981 213.34C-15.3981 213.34 -15.7855 214.892 -15.3981 215.003C-14.1253 215.003 -12.7972 215.558 -11.5244 215.724L-7.42927 216.389L1.25901 217.498C7.62304 218.274 13.9871 218.829 20.3511 219.383C26.7151 219.938 34.0753 220.381 40.9374 220.769C47.7994 221.157 55.1042 221.435 62.1877 221.712C69.2711 221.989 76.0779 222.211 83.0506 222.377C90.0234 222.543 96.0554 222.377 102.585 222.71C109.115 223.042 114.151 222.71 119.907 222.71H134.018C138.207 222.893 142.403 222.8 146.58 222.433C153.533 221.165 160.313 219.081 166.779 216.223C179.895 211.178 193.342 205.911 207.011 199.591C214.98 195.894 223.059 191.847 231.25 187.449C232.854 186.395 234.847 185.065 235.123 183.679Z" fill="#2D2B2B"/>
<path d="M106.35 230.416C106.838 230.443 107.308 230.614 107.7 230.907C108.092 231.2 108.389 231.603 108.554 232.064C108.72 232.525 108.746 233.025 108.629 233.501C108.513 233.977 108.259 234.408 107.899 234.74C101.797 240.172 94.6426 244.285 86.8825 246.823C79.1224 249.36 70.9234 250.268 62.7976 249.488C37.1755 248.213 26.0523 237.734 21.9018 231.247C21.6396 230.858 21.4926 230.402 21.4778 229.932C21.463 229.462 21.5809 228.998 21.818 228.592C22.0551 228.187 22.4018 227.856 22.818 227.64C23.2343 227.423 23.7032 227.328 24.1707 227.367L106.35 230.416Z" fill="#444444"/>
<path d="M101.423 236.127C99.0991 236.127 96.7749 236.127 94.4506 236.127H87.5332L73.6984 235.738L46.0287 234.962H38.3365C35.7355 234.962 33.0792 234.962 30.423 234.685C29.9802 234.685 30.0356 232.745 30.423 232.745C32.7472 232.745 35.0715 232.745 37.3404 232.745H44.2578L58.148 233.133L85.8177 233.964L93.5099 234.242H97.4943C98.8224 234.242 100.095 234.242 101.423 234.63C101.7 234.63 101.7 235.683 101.423 235.738V236.127Z" fill="#2D2B2B"/>
<path d="M90.2964 241.283C86.7547 241.283 83.2683 241.283 79.7266 241.283L69.4334 241.005L48.5705 240.396H43.0366H40.2142H38.6647L37.1152 239.952V239.342C37.9807 239.101 38.8733 238.97 39.7715 238.954H42.3725H47.9064L58.1995 239.231L79.0625 239.897C82.9362 239.897 86.81 240.285 90.6838 240.617C90.6838 240.617 90.6838 241.56 90.6838 241.615L90.2964 241.283Z" fill="#2D2B2B"/>
<path d="M75.4665 245.552C73.3605 245.865 71.2276 245.958 69.1024 245.829H62.6831H56.319H53.22C52.1196 245.84 51.0222 245.71 49.955 245.441C49.6783 245.441 49.955 244.443 49.955 244.387C51.0575 244.25 52.1728 244.25 53.2754 244.387H56.5404C58.6433 244.387 60.8015 244.387 62.9044 244.387H69.3238C71.4575 244.379 73.5876 244.565 75.6878 244.942V245.718L75.4665 245.552Z" fill="#2D2B2B"/>
<path d="M138.613 274.16C138.613 275.989 140.938 277.431 143.76 277.431C146.582 277.431 148.906 275.989 148.906 274.16C148.906 272.33 146.637 270.833 143.76 270.833C140.882 270.833 138.613 272.275 138.613 274.16Z" fill="white"/>
<path d="M-7.65234 266.509C-7.65234 268.338 -5.32809 269.835 -2.50578 269.835C0.316527 269.835 2.69612 268.338 2.69612 266.509C2.69612 264.679 0.371866 263.238 -2.50578 263.238C-5.38343 263.238 -7.65234 264.679 -7.65234 266.509Z" fill="white"/>
<path d="M396.213 168.709C398.537 176.138 400.031 183.845 401.747 191.44L403.407 197.927C403.407 197.927 403.407 199.258 403.075 199.202C396.838 198.952 390.687 200.722 385.533 204.247C380.358 207.724 376.469 212.808 374.465 218.718C373.959 220.329 373.589 221.979 373.358 223.652C373.358 225.371 373.358 227.09 373.081 228.808C373.081 228.808 373.081 229.64 372.749 229.695C372.417 229.751 372.306 229.252 372.306 229.03C372.085 227.356 372.085 225.659 372.306 223.985C372.513 222.34 372.827 220.71 373.247 219.106C374.187 215.958 375.626 212.981 377.508 210.291C381.083 204.844 386.416 200.792 392.616 198.814C396.088 197.737 399.723 197.286 403.352 197.484L402.964 198.759C400.917 191.163 399.367 183.457 397.431 175.806C396.877 173.588 396.434 171.426 395.881 169.208C395.881 169.208 395.881 168.266 395.881 168.709H396.213Z" fill="#2D2B2B"/>
<path d="M359.084 258.081C358.16 258.427 357.218 258.723 356.262 258.968L353.273 259.689L347.352 261.075C346.854 261.075 346.688 259.079 347.352 258.968L352.886 257.915L355.764 257.416C356.74 257.359 357.72 257.359 358.697 257.416C358.697 257.416 358.697 258.192 358.697 258.303L359.084 258.081Z" fill="#2D2B2B"/>
<path d="M264.063 179.687H292.784C293.726 179.717 294.664 179.557 295.542 179.216C296.42 178.875 297.222 178.362 297.898 177.705C298.574 177.048 299.112 176.262 299.479 175.393C299.845 174.524 300.034 173.589 300.034 172.646C300.034 170.778 299.293 168.987 297.975 167.667C296.657 166.347 294.87 165.605 293.006 165.605H264.063C262.199 165.605 260.412 166.347 259.094 167.667C257.776 168.987 257.035 170.778 257.035 172.646C257.035 174.513 257.776 176.304 259.094 177.625C260.412 178.945 262.199 179.687 264.063 179.687Z" fill="#444444"/>
<path d="M277.457 174.198H264.674L259.14 178.799C258.495 179.339 258.034 180.067 257.821 180.881C257.608 181.696 257.654 182.556 257.953 183.343C258.251 184.13 258.787 184.804 259.486 185.272C260.185 185.739 261.012 185.977 261.852 185.951C262.654 185.892 263.422 185.603 264.065 185.12C268.887 181.942 273.374 178.283 277.457 174.198Z" fill="#444444"/>
<path d="M265.613 168.432C270.316 168.1 275.02 167.933 279.724 167.822H286.808C288.973 167.618 291.157 167.749 293.282 168.211C295.053 168.71 296.824 170.595 295.883 172.535C295.551 173.256 293.67 173.034 294.057 172.202C294.206 171.887 294.26 171.535 294.211 171.19C294.161 170.845 294.012 170.522 293.78 170.262C293.533 169.947 293.223 169.686 292.871 169.495C292.519 169.305 292.132 169.188 291.733 169.153C290.793 169.097 289.85 169.097 288.911 169.153H285.701L272.973 169.486L265.613 169.874C265.281 169.874 264.672 169.874 264.672 169.264C264.672 168.654 265.281 168.432 265.613 168.432Z" fill="white"/>
<path d="M74.0276 156.235C74.8568 156.18 75.6887 156.18 76.5179 156.235H79.2295H90.2974C90.6295 156.235 91.2382 156.235 91.2382 156.845C91.2382 157.455 90.6295 157.51 90.2974 157.51H81.0557H76.6286C76.0198 157.51 73.2529 157.122 73.9723 158.563C74.6917 160.005 72.5335 159.561 72.1461 158.896C71.7587 158.231 72.8102 156.401 74.0276 156.235Z" fill="white"/>
<path d="M11.6614 229.03C11.6283 230.026 11.3281 230.994 10.7926 231.833C10.257 232.672 9.5057 233.351 8.61769 233.798C6.70145 234.585 4.69317 235.126 2.64104 235.406C-6.3556 236.955 -15.595 236.25 -24.2539 233.355C-23.7973 232.514 -23.5149 231.59 -23.4238 230.638C-23.1963 226.213 -22.4912 221.826 -21.3209 217.554C-17.6065 219.065 -13.7754 220.27 -9.86566 221.157C-7.59675 221.656 -5.32784 222.044 -3.00358 222.322L3.91384 222.821H6.5148H7.28955C8.02789 222.896 8.7337 223.164 9.3371 223.597C10.1691 224.216 10.8225 225.045 11.2307 225.999C11.639 226.954 11.7876 228 11.6614 229.03Z" fill="#444444"/>
<path d="M181.443 230.305C181.487 232.251 180.989 234.171 180.005 235.849C178.835 237.677 177.264 239.213 175.411 240.34C173.442 241.534 171.344 242.501 169.158 243.223C166.871 244.128 164.522 244.869 162.13 245.441C152.19 247.909 141.799 247.909 131.859 245.441C129.579 244.987 127.365 244.241 125.274 243.223C124.259 242.696 123.408 241.901 122.813 240.923C122.218 239.946 121.901 238.824 121.898 237.679C121.769 236.615 121.933 235.536 122.372 234.559C122.811 233.582 123.508 232.743 124.388 232.135C125.068 231.699 125.851 231.45 126.657 231.414H130.42C133.021 231.414 135.567 231.414 138.168 231.414C140.762 231.314 143.348 231.073 145.916 230.693C151.046 230.042 156.104 228.909 161.023 227.311C163.403 226.424 165.672 225.371 168.051 224.373C170.21 223.324 172.57 222.757 174.969 222.709C175.945 222.752 176.899 223.013 177.761 223.473C178.623 223.934 179.371 224.582 179.949 225.371C180.915 226.835 181.434 228.55 181.443 230.305Z" fill="#444444"/>
<path d="M130.197 235.794C131.083 235.794 131.913 235.517 132.798 235.461H135.455C137.336 235.461 139.273 235.129 140.988 234.852C145.062 234.413 149.108 233.746 153.108 232.856C156.798 232.076 160.41 230.963 163.899 229.529C167.33 228.032 171.259 224.983 174.967 226.812C175.808 227.254 176.497 227.941 176.941 228.782C177.386 229.623 177.566 230.579 177.457 231.525C177.457 233.188 176.682 235.461 174.745 235.572C174.745 235.572 174.745 234.796 174.745 234.685C175.303 234.267 175.764 233.734 176.098 233.122C176.432 232.51 176.631 231.833 176.682 231.137C176.533 230.366 176.15 229.659 175.585 229.114C175.021 228.568 174.303 228.21 173.528 228.088C171.54 227.759 169.5 228.09 167.717 229.03C166.113 229.806 164.563 230.638 162.903 231.303C156.067 233.838 148.917 235.424 141.653 236.016C139.605 236.016 137.613 236.404 135.565 236.515H132.798H130.031V236.071L130.197 235.794Z" fill="white"/>
<path d="M5.51668 227.865C3.67546 228.025 1.82396 228.025 -0.0172596 227.865C-1.73278 227.865 -3.50364 227.477 -5.21916 227.2C-8.6874 226.55 -12.0939 225.604 -15.4016 224.373C-16.3408 223.911 -17.3511 223.611 -18.3899 223.486C-19.2187 223.508 -20.0319 223.716 -20.7695 224.095C-20.7695 224.095 -20.7695 223.707 -20.7695 223.652C-19.9948 221.933 -18.2239 222.044 -16.6744 222.543C-15.1249 223.042 -13.2987 223.818 -11.5279 224.317C-8.04033 225.349 -4.46486 226.054 -0.847351 226.424C1.31089 226.424 3.52446 226.757 5.6827 227.034C5.6827 227.034 5.6827 227.81 5.6827 227.865H5.51668Z" fill="white"/>
<path d="M31.2521 268.228L88.5284 270.778C89.3648 270.854 90.2079 270.759 91.0064 270.498C91.805 270.237 92.5423 269.817 93.1737 269.262C93.8051 268.707 94.3174 268.03 94.6794 267.271C95.0415 266.511 95.2457 265.686 95.2798 264.846C95.3245 264.026 95.2063 263.205 94.9321 262.431C94.6579 261.657 94.2332 260.945 93.6824 260.336C93.1317 259.728 92.466 259.235 91.7237 258.886C90.9815 258.537 90.1776 258.339 89.3585 258.304L32.0822 255.698C30.4271 255.637 28.8147 256.231 27.593 257.352C26.3712 258.472 25.6382 260.029 25.5522 261.686C25.4745 263.303 26.0246 264.887 27.0872 266.106C28.1498 267.326 29.6424 268.086 31.2521 268.228Z" fill="#2D2B2B"/>
<path d="M307.172 98.354L297.044 97.1897C297.044 97.1897 294.997 105.284 301.527 106.837C308.057 108.389 308.61 100.461 307.172 98.354Z" fill="#FCA481"/>
<path d="M288.966 84.3271L290.626 91.9226L291.843 89.6495C292.01 89.3287 292.286 89.0791 292.622 88.9466C292.957 88.8141 293.329 88.8078 293.669 88.9288C293.901 89.0131 294.108 89.1534 294.272 89.3372C294.436 89.521 294.552 89.7425 294.61 89.9821C294.932 90.069 295.229 90.2293 295.479 90.4505C295.729 90.6717 295.924 90.9479 296.049 91.2573C296.696 91.7264 297.149 92.4168 297.322 93.1978C297.783 93.6651 298.148 94.2192 298.395 94.8281C298.642 95.437 298.766 96.0888 298.761 96.7461C298.816 97.8172 298.816 98.8905 298.761 99.9617C301.253 99.9258 303.728 99.5529 306.121 98.8528C306.876 98.5963 307.585 98.2221 308.224 97.744C308.604 97.362 308.872 96.8825 308.998 96.358C309.641 91.2445 309.473 86.0614 308.5 81.0006C308.307 79.5209 307.559 78.1704 306.408 77.2231C305.257 76.2759 303.789 75.8028 302.302 75.8999C300.808 75.8999 299.148 76.1771 297.377 76.4543L293.393 77.286C292.64 77.4562 291.928 77.7735 291.298 78.2197C290.668 78.6659 290.132 79.2322 289.721 79.8863C289.31 80.5403 289.031 81.2693 288.902 82.0313C288.772 82.7933 288.794 83.5735 288.966 84.3271Z" fill="#607C78"/>
<path d="M290.574 91.9225L291.294 95.0272C291.533 95.963 291.906 96.8594 292.4 97.6884C292.956 98.4776 293.708 99.1075 294.582 99.5159C295.455 99.9244 296.42 100.097 297.381 100.017H298.709C298.765 98.9458 298.765 97.8725 298.709 96.8014C298.714 96.1441 298.59 95.4923 298.343 94.8834C298.096 94.2745 297.732 93.7204 297.27 93.2531C297.097 92.4721 296.644 91.7817 295.997 91.3126C295.872 91.0032 295.677 90.7271 295.427 90.5058C295.178 90.2846 294.88 90.1243 294.559 90.0375C294.501 89.7978 294.384 89.5763 294.22 89.3925C294.056 89.2087 293.849 89.0684 293.618 88.9841C293.278 88.8631 292.906 88.8694 292.57 89.0019C292.234 89.1344 291.958 89.384 291.792 89.7048L290.574 91.9225Z" fill="#607C78"/>
<path d="M340.489 76.8977C340.489 76.8977 326.544 76.8977 316.804 76.1215C313.666 75.8418 310.544 75.3976 307.452 74.7909C306.408 74.5976 305.434 74.1319 304.628 73.4407C303.821 72.7496 303.211 71.8575 302.859 70.8546C302.513 69.9558 302.38 68.9893 302.468 68.0303C302.556 67.0713 302.863 66.1456 303.367 65.3251C303.87 64.5045 304.555 63.8112 305.369 63.299C306.183 62.7869 307.104 62.4696 308.061 62.372L329.034 60.1543L332.908 61.8175L340.489 76.8977Z" fill="#C31E21"/>
<path d="M370.869 112.991V113.434L422.556 114.543C422.556 114.543 432.96 61.5406 428.09 54.9984C424.599 51.5873 420.164 49.3078 415.362 48.4563L409.828 47.1257C406.286 46.4049 403.575 45.9614 403.077 45.6842C396.677 45.4551 390.27 45.789 383.929 46.6822C382.859 46.9289 381.805 47.2437 380.775 47.6247C379.557 48.0128 378.174 48.5117 376.624 49.177C372.62 50.696 368.751 52.5507 365.058 54.7212C364.671 55.442 370.205 106.892 370.869 112.991Z" fill="#C2D1D5"/>
<path d="M425.434 281.312V294.895C424.286 296.501 422.763 297.801 420.997 298.68C419.232 299.56 417.278 299.992 415.307 299.94C412.991 300.059 410.68 299.617 408.571 298.652C406.462 297.687 404.615 296.227 403.188 294.396L408.721 282.587L425.434 281.312Z" fill="#FFAE83"/>
<path d="M381.94 279.926L383.047 293.01C382.286 294.486 381.078 295.683 379.597 296.43C378.116 297.177 376.437 297.435 374.801 297.168C371.078 297.188 367.497 295.734 364.84 293.121L366.445 280.425L381.94 279.926Z" fill="#FFAE83"/>
<path d="M357.365 209.348C357.365 213.451 359.911 286.357 359.911 286.357C363.605 288.785 368.023 289.862 372.418 289.406C377.343 289.262 382.169 287.992 386.529 285.692C386.529 285.692 384.98 215.004 385.201 213.617C385.675 208.304 386.809 203.07 388.577 198.038C391.731 186.95 394.664 170.872 394.664 170.872L401.249 285.692C402.875 287.067 404.764 288.096 406.8 288.715C408.836 289.335 410.977 289.532 413.092 289.296C418.498 289.029 423.791 287.652 428.642 285.248C428.642 285.248 427.038 232.024 427.48 219.328C427.923 206.632 428.144 152.798 428.587 146.367C428.099 140.808 426.519 135.4 423.939 130.455C423.454 129.388 423.083 128.273 422.832 127.128C422.595 125.755 422.484 124.363 422.5 122.97C422.457 120.194 422.568 117.418 422.832 114.654C418.022 112.396 414.051 108.669 411.487 104.009C405.953 95.1938 404.182 84.1054 406.341 69.8014C407.386 61.9783 410.63 54.6141 415.693 48.5672L410.159 47.2366C408.629 48.9435 407.276 50.801 406.119 52.7808C403.541 57.5842 401.676 62.7393 400.585 68.0827H378.45C378.276 66.2387 378.276 64.3825 378.45 62.5385C379.16 57.5731 380.139 52.65 381.383 47.791L377.232 49.3434C374.016 56.6719 371.478 64.2809 369.651 72.0745C367.935 80.2245 369.651 99.4628 370.868 112.769V113.212C371.255 117.315 371.643 120.752 371.919 123.136L372.252 126.352C372.214 128.028 372.029 129.698 371.698 131.342C370.481 137.995 367.603 150.137 364.117 166.658C360.868 180.712 358.612 194.977 357.365 209.348Z" fill="#00BEC3"/>
<path d="M375.187 1.33057C375.187 1.33057 372.807 7.26284 375.187 10.5894C377.566 13.9159 379.171 14.5812 384.318 14.9138C387.925 14.9005 391.448 13.8204 394.445 11.8091L375.187 1.33057Z" fill="#2D2B2B"/>
<path d="M400.256 32.2113L401.972 35.4823C404.096 33.7205 406.059 31.7723 407.838 29.6609C408.965 26.5137 409.527 23.1913 409.498 19.8477C409.776 17.1117 409.422 14.3481 408.462 11.7713C407.502 9.19461 405.963 6.87395 403.964 4.98933C400.477 2.1618 383.322 3.38152 383.322 3.38152L400.256 32.2113Z" fill="#5F2929"/>
<path d="M399.648 33.2649C396.071 36.8522 392.203 40.1346 388.082 43.0781C384.878 43.6371 381.601 43.6371 378.397 43.0781C376.556 39.3693 375.269 35.4089 374.579 31.3244C374.031 29.5172 374.031 27.5875 374.579 25.7803C374.662 24.5719 374.569 23.358 374.302 22.1765C374.674 19.3847 375.438 16.6596 376.571 14.082C377.823 10.7959 379.855 7.86517 382.493 5.54399C383.987 4.93413 398.154 4.26883 399.648 13.7494C401.142 23.2299 400.312 24.4497 400.312 24.4497C400.616 23.6753 401.129 23.0009 401.793 22.5016C402.458 22.0024 403.248 21.6979 404.075 21.6221C406.676 21.6221 406.233 27.1663 406.012 28.3306C405.2 30.0276 403.936 31.4667 402.359 32.4887C401.509 32.908 400.591 33.1709 399.648 33.2649Z" fill="#FFAE83"/>
<path d="M401.254 30.3264L403.356 47.4025C403.64 49.6664 403.131 51.9586 401.918 53.8892C401.066 55.4824 399.819 56.8293 398.298 57.8002C396.776 58.7712 395.031 59.3336 393.229 59.4334C391.534 59.4621 389.859 59.0617 388.359 58.2691C386.595 57.3066 385.174 55.8184 384.291 54.0105C383.409 52.2027 383.109 50.1646 383.434 48.1787L384.43 41.0267L401.254 30.3264Z" fill="#FFAE83"/>
<path d="M403.521 67.8052C403.521 67.8052 402.58 70.3001 408.391 78.3946C414.202 86.4891 415.585 85.6574 416.581 84.9367C417.364 82.78 417.403 80.4227 416.69 78.2416C415.978 76.0605 414.556 74.1817 412.652 72.9058C406.841 68.0269 406.509 67.8052 403.521 67.8052Z" fill="#607C78"/>
<path d="M407.395 10.1457C407.395 10.1457 405.182 4.54609 401.308 3.43726C395.34 2.73137 389.329 2.47193 383.323 2.66107C381.481 2.68158 379.68 2.11889 378.176 1.05326C376.682 -0.0555776 375.63 -0.388228 375.464 0.498841C374.866 1.68241 374.651 3.02356 374.849 4.33538C375.048 5.6472 375.65 6.86434 376.571 7.81716C377.913 9.26467 379.554 10.4015 381.38 11.1484C383.205 11.8953 385.171 12.2342 387.141 12.1416C390.019 12.1416 395.11 11.3654 395.995 12.9178C396.881 14.4702 395.995 18.462 396.438 19.0164C397.137 19.7448 397.896 20.4125 398.707 21.0123L398.32 27.2772C398.315 27.4563 398.36 27.6331 398.447 27.7892C398.535 27.9452 398.663 28.0748 398.818 28.1643C399.094 28.1643 399.482 28.1643 399.758 27.7208C400.184 26.684 400.391 25.5704 400.367 24.4497L407.395 10.1457Z" fill="#5F2929"/>
<path d="M420.567 75.8444C420.124 75.8444 402.305 94.5283 395.222 96.9123C393.925 97.3238 392.558 97.465 391.204 97.3269C389.851 97.1889 388.541 96.7747 387.353 96.1098C386.166 95.4449 385.127 94.5434 384.301 93.461C383.474 92.3785 382.878 91.1379 382.549 89.8157C382.549 86.6556 405.791 65.754 405.791 65.754C405.791 65.754 413.65 59.8217 419.682 63.9799C425.714 68.138 420.567 75.8444 420.567 75.8444Z" fill="#FFAE83"/>
<path d="M366.444 55.1087C366.444 55.1087 362.238 54.776 359.526 64.9773C357.279 75.0691 356.46 85.4272 357.091 95.7475C357.495 96.7901 358.113 97.7359 358.905 98.5239C359.697 99.3118 360.646 99.9243 361.689 100.321C362.733 100.719 363.848 100.892 364.962 100.83C366.077 100.768 367.166 100.472 368.159 99.9611C371.977 97.688 366.444 55.1087 366.444 55.1087Z" fill="#FFAE83"/>
<path d="M289.3 98.6864C289.271 99.3798 289.384 100.072 289.632 100.72C289.879 101.368 290.256 101.959 290.739 102.456C290.867 103.044 291.129 103.595 291.503 104.066C291.877 104.537 292.354 104.916 292.897 105.173C293.893 105.727 297.712 110.717 300.7 111.216C303.688 111.715 312.211 111.216 314.424 111.216C316.638 111.216 332.354 111.216 340.434 110.662C348.522 109.822 356.446 107.805 363.953 104.674C365.232 104.014 366.357 103.089 367.254 101.962C368.151 100.834 368.798 99.5288 369.155 98.132C369.155 96.9677 364.894 93.5303 364.894 93.5303C361.55 91.5359 357.717 90.5181 353.826 90.5919C348.292 91.0908 326.156 100.904 322.614 101.68C319.847 102.14 317.058 102.455 314.258 102.623C312.713 100.45 311.011 98.3934 309.167 96.4687C309.041 96.9932 308.773 97.4728 308.392 97.8547C307.754 98.3328 307.044 98.707 306.289 98.9636C306.289 100.072 307.285 103.51 306.289 104.508C305.293 105.506 301.641 105.339 300.036 104.508C298.431 103.676 298.985 102.013 299.04 100.017C299.095 98.9458 299.095 97.8725 299.04 96.8014C299.045 96.1441 298.921 95.4923 298.674 94.8834C298.427 94.2745 298.062 93.7204 297.601 93.2531C297.428 92.4721 296.975 91.7817 296.328 91.3126C296.203 91.0032 296.008 90.7271 295.758 90.5058C295.509 90.2846 295.211 90.1243 294.889 90.0375C294.831 89.7978 294.715 89.5763 294.551 89.3925C294.387 89.2087 294.18 89.0684 293.949 88.9841C293.609 88.8631 293.237 88.8694 292.901 89.0019C292.565 89.1344 292.289 89.384 292.122 89.7048L290.905 91.9779C289.907 93.7307 289.108 95.5904 288.525 97.5221C288.559 97.7621 288.646 97.9915 288.78 98.1931C288.914 98.3947 289.092 98.5633 289.3 98.6864Z" fill="#FFAE83"/>
<path d="M368.932 76.898C366.515 75.1817 364.322 73.1703 362.402 70.9103C359.192 67.1957 359.137 65.3661 359.137 65.3661C359.8 61.4286 361.746 57.822 364.671 55.1094C366.96 53.6166 369.41 52.389 371.975 51.4502L368.932 76.898Z" fill="#C2D1D5"/>
<path d="M403.518 67.8052C406.832 69.1293 409.681 71.4053 411.708 74.3473C414.028 77.4633 415.669 81.0334 416.522 84.8258C416.522 84.8258 428.642 70.6881 429.472 66.6963C430.302 62.7045 431.187 55.608 425.93 52.7804C420.673 49.9529 403.518 67.8052 403.518 67.8052Z" fill="#C2D1D5"/>
<path d="M353.825 100.128C353.825 100.128 345.967 100.128 335.84 99.5732C325.712 99.0188 323.665 97.1338 322.392 95.4151C321.119 93.6964 313.316 75.2343 313.316 75.2343H319.127C321.056 80.4452 323.445 85.4734 326.266 90.259C326.974 91.4216 327.943 92.4028 329.096 93.1246C330.248 93.8464 331.553 94.289 332.907 94.4172C337.255 94.7243 341.619 94.7243 345.967 94.4172L329.033 60.0987L334.567 59.3779L353.825 100.128Z" fill="#C31E21"/>
<path d="M395.111 86.3782C395.111 86.3782 396.661 83.6615 383.324 79.9469C371.803 77.2408 360.121 75.2778 348.349 74.0701C344.557 71.5998 340.535 69.5018 336.341 67.8052C334.072 67.8052 319.739 69.0803 316.695 69.413C316.617 69.4192 316.541 69.4421 316.472 69.48C316.403 69.5179 316.343 69.5701 316.296 69.633C316.249 69.6959 316.216 69.7682 316.199 69.845C316.182 69.9217 316.181 70.0013 316.197 70.0783C316.28 70.53 316.491 70.9482 316.805 71.2826C317.119 71.617 317.523 71.8534 317.968 71.9633C320.211 72.3934 322.491 72.5977 324.775 72.5732C324.775 72.5732 324.775 74.68 325.771 75.1235C325.692 75.6414 325.799 76.1705 326.073 76.617C326.346 77.0635 326.768 77.3986 327.265 77.5629C327.105 78.1582 327.176 78.7922 327.463 79.3374C327.75 79.8825 328.233 80.2984 328.814 80.5014C328.926 81.1111 329.226 81.67 329.674 82.0982C330.121 82.5263 330.692 82.8019 331.305 82.8854C332.834 83.0002 334.369 83.0002 335.898 82.8854L346.966 82.6081C346.966 82.6081 362.35 88.984 369.6 91.6452C376.67 94.6472 384.118 96.662 391.735 97.6329C395.222 96.9121 397.214 90.5363 395.111 86.3782Z" fill="#FFAE83"/>
<path d="M308.557 65.7539L288.137 67.5835L289.41 71.3535L303.41 69.8012L308.557 65.7539Z" fill="#C31E21"/>
<path d="M293.065 64.5344L296.496 64.0354C296.815 63.9952 297.123 63.8905 297.401 63.7277C297.679 63.5649 297.92 63.3473 298.112 63.0882C298.303 62.8291 298.44 62.5337 298.514 62.2201C298.589 61.9064 298.599 61.581 298.544 61.2633C298.503 60.949 298.4 60.6459 298.241 60.3719C298.082 60.0978 297.87 59.8583 297.618 59.6673C297.365 59.4762 297.077 59.3376 296.771 59.2594C296.464 59.1813 296.145 59.1651 295.832 59.212L292.346 59.711C291.707 59.8068 291.133 60.1526 290.749 60.6724C290.365 61.1922 290.203 61.8435 290.298 62.4831C290.338 62.8029 290.443 63.1112 290.605 63.3894C290.768 63.6677 290.985 63.91 291.244 64.1017C291.502 64.2935 291.797 64.4307 292.11 64.505C292.423 64.5794 292.748 64.5894 293.065 64.5344Z" fill="#607C78"/>
<path d="M268.658 75.4005L288.47 72.9611C288.826 72.9263 289.169 72.8134 289.477 72.6306C289.784 72.4477 290.047 72.1992 290.248 71.9029C290.449 71.6065 290.582 71.2695 290.638 70.9158C290.694 70.5621 290.672 70.2004 290.573 69.8563L290.075 67.9713C289.93 67.3836 289.572 66.8709 289.071 66.5328C288.57 66.1947 287.961 66.0553 287.363 66.1417L267.828 68.5257L268.658 75.4005Z" fill="#607C78"/>
<path d="M295.686 61.1918L292.633 61.7224L295.792 79.9676L298.845 79.437L295.686 61.1918Z" fill="#607C78"/>
<path d="M382.492 288.297C383.623 289.6 384.624 291.012 385.48 292.511C385.757 293.453 386.255 307.148 386.365 307.536C386.476 307.924 386.919 309.92 386.365 310.363C385.812 310.807 349.952 310.973 348.403 310.862C345.636 310.533 342.984 309.565 340.655 308.035C339.699 307.405 338.879 306.59 338.242 305.638C337.605 304.686 337.165 303.616 336.947 302.49C336.947 302.047 339.825 301.16 340.268 301.049C340.71 300.938 355.818 295.505 357.312 294.673C360.21 291.868 362.893 288.847 365.336 285.636C365.724 285.193 367.052 284.86 368.159 288.02C368.789 289.825 369.271 291.68 369.598 293.564C369.598 293.564 376.294 295.726 378.563 292.954C379.978 291.495 381.291 289.939 382.492 288.297Z" fill="#F37800"/>
<path d="M425.547 288.297C426.16 289.976 426.551 291.728 426.709 293.509L427.318 305.54C427.977 306.609 428.428 307.794 428.646 309.032C428.646 310.418 427.096 311.306 425.381 311.306C423.665 311.306 388.802 312.248 386.643 311.971C384.192 311.209 382.018 309.744 380.39 307.757C379.888 307.271 379.496 306.683 379.238 306.033C378.981 305.383 378.864 304.686 378.896 303.987C378.896 303.655 379.671 303.544 380.943 303.045C384.319 301.825 395.387 298.166 397.988 297.168C400.312 295.972 402.322 294.243 403.854 292.123L407.672 286.578C407.672 286.578 409.886 284.971 411.214 288.186C411.98 289.947 412.466 291.818 412.653 293.73C415.377 293.949 418.118 293.762 420.788 293.176C421.784 292.012 425.547 288.297 425.547 288.297Z" fill="#F37800"/>
<path d="M395.108 23.7287L394.111 23.3406L393.171 22.8971C392.494 22.6285 391.788 22.4424 391.068 22.3427C389.508 22.119 387.924 22.119 386.364 22.3427C386.032 22.3427 385.977 20.9012 386.364 20.9012C387.998 20.6797 389.655 20.6797 391.289 20.9012C392.008 21.0521 392.698 21.3139 393.337 21.6774C394.001 22.0374 394.57 22.5505 394.997 23.1743C394.997 23.1743 394.997 23.6733 394.997 23.5624L395.108 23.7287Z" fill="#5F2929"/>
<path d="M385.15 21.0682C385.176 21.2335 385.176 21.4018 385.15 21.5671C385.15 21.5671 385.15 21.5671 385.15 21.8998V22.177C385.136 22.0851 385.136 21.9917 385.15 21.8998C385.125 21.6973 385.125 21.4924 385.15 21.2899C385.121 21.2394 385.105 21.182 385.105 21.1236C385.105 21.0652 385.121 21.0078 385.15 20.9573V21.0682Z" fill="#5F2929"/>
<path d="M374.188 22.7314C374.364 22.2486 374.648 21.8125 375.018 21.4562C375.423 21.1436 375.897 20.9343 376.401 20.8463C377.627 20.6251 378.883 20.6251 380.109 20.8463C380.552 20.8463 380.441 22.3433 380.109 22.2878C378.94 22.0811 377.747 22.0438 376.567 22.1769C376.085 22.2133 375.615 22.3452 375.184 22.565C375.018 22.6248 374.88 22.7431 374.796 22.8977L374.298 23.2303C374.298 23.2303 374.298 22.8977 374.298 22.8422L374.188 22.7314Z" fill="#5F2929"/>
<path d="M381.215 21.1785C381.191 21.3625 381.191 21.5489 381.215 21.7329C381.215 21.7329 381.215 21.7329 381.215 22.0655V22.1764C381.189 22.0671 381.189 21.9531 381.215 21.8438C381.163 21.6627 381.163 21.4704 381.215 21.2894V21.1785Z" fill="#5F2929"/>
<path d="M393.449 26.0017C392.95 25.7245 392.674 25.2255 392.176 24.8929C391.599 24.6352 390.98 24.4849 390.35 24.4493C389.678 24.3852 389.002 24.5001 388.39 24.7825C387.778 25.0649 387.251 25.5047 386.863 26.0572C386.823 25.9702 386.803 25.8756 386.803 25.7799C386.803 25.6843 386.823 25.5897 386.863 25.5027C387.311 24.9944 387.866 24.5916 388.488 24.3232C389.11 24.0548 389.783 23.9275 390.46 23.9504C391.139 24.0227 391.788 24.2711 392.342 24.6711C392.606 24.8439 392.847 25.0487 393.061 25.281C393.308 25.478 393.483 25.7507 393.559 26.0572L393.449 26.0017Z" fill="#2D2B2B"/>
<path d="M388.58 25.4478C388.58 26.1685 388.967 26.7784 389.521 26.7784C390.074 26.7784 390.406 26.1685 390.406 25.4478C390.406 24.727 390.019 24.1726 389.521 24.1726C389.023 24.1726 388.58 24.727 388.58 25.4478Z" fill="#2D2B2B"/>
<path d="M375.077 25.5584C375.033 25.3203 375.033 25.0758 375.077 24.8377L375.41 24.3941C375.536 24.2148 375.701 24.0667 375.893 23.961C376.084 23.8553 376.298 23.7949 376.516 23.7843C377.035 23.7607 377.551 23.8755 378.01 24.1169C378.484 24.3313 378.901 24.6541 379.228 25.0594C379.268 25.1464 379.288 25.241 379.288 25.3366C379.288 25.4323 379.268 25.5269 379.228 25.6138C378.968 25.1947 378.598 24.8545 378.16 24.6298C377.721 24.4051 377.229 24.3045 376.738 24.3387C376.35 24.3387 375.852 24.3387 375.631 24.6713L375.299 25.1149C375.287 25.2115 375.25 25.3034 375.192 25.3812C375.134 25.4591 375.056 25.5202 374.967 25.5584H375.077Z" fill="#2D2B2B"/>
<path d="M377.509 25.226C377.509 25.7804 377.177 26.2239 376.79 26.2239C376.402 26.2239 376.07 25.7804 376.07 25.226C376.07 24.6716 376.402 24.228 376.79 24.228C377.177 24.228 377.509 24.6716 377.509 25.226Z" fill="#2D2B2B"/>
<path d="M405.178 25.0598H404.514H403.795C403.308 25.1783 402.854 25.4057 402.467 25.7251C402.115 26.0005 401.831 26.3543 401.639 26.7585C401.447 27.1627 401.351 27.6061 401.36 28.0537L400.973 27.7765C401.118 27.4642 401.374 27.2174 401.691 27.0841C402.009 26.9509 402.364 26.9407 402.688 27.0557C403.043 27.2625 403.317 27.5828 403.468 27.965C403.618 28.3471 403.636 28.769 403.518 29.1625C403.473 29.5868 403.276 29.9804 402.965 30.2713C402.633 30.2713 402.19 30.604 402.079 30.2713C402.025 30.0717 402.025 29.8612 402.079 29.6615C402.079 29.6615 402.079 29.6615 402.578 29.2734L402.91 28.9407H402.411C402.222 28.9274 402.032 28.9609 401.858 29.0382C401.685 29.1156 401.533 29.2344 401.415 29.3843C401.415 29.8278 401.028 29.3843 401.028 28.9962C401.016 28.4056 401.128 27.819 401.357 27.2746C401.586 26.7302 401.926 26.2401 402.356 25.836C402.739 25.4678 403.219 25.2177 403.74 25.1153C404.032 25.057 404.333 25.057 404.625 25.1153H405.4V25.4479L405.178 25.0598Z" fill="#DC7C50"/>
<path d="M384.153 30.8812C383.848 31.3631 383.43 31.7628 382.935 32.0455C382.486 32.3335 381.973 32.505 381.441 32.5444C380.97 32.5944 380.495 32.4991 380.08 32.2712C379.664 32.0433 379.328 31.6937 379.117 31.2693C379.06 31.07 379.06 30.8587 379.117 30.6594L379.504 31.0475L380.002 31.3802C380.416 31.5156 380.862 31.5156 381.275 31.3802C381.88 31.483 382.501 31.3857 383.046 31.103L383.655 30.7703H384.263C384.263 30.7703 384.263 31.103 384.263 31.1584L384.153 30.8812Z" fill="#DC7C50"/>
<path d="M385.811 35.5379C385.189 36.0315 384.441 36.339 383.653 36.4249C382.953 36.482 382.25 36.482 381.55 36.4249C380.905 36.4816 380.257 36.4816 379.613 36.4249L377.842 36.0368C377.455 36.0368 377.842 34.7617 377.842 34.8726L379.558 35.3161H381.439C382.12 35.3729 382.805 35.3729 383.487 35.3161H384.649C385.013 35.2348 385.391 35.2348 385.756 35.3161C385.756 35.3161 385.756 35.6487 385.756 35.7042L385.811 35.5379Z" fill="#DC7C50"/>
<path d="M383.047 37.8111H381.276C380.707 37.8922 380.13 37.8922 379.561 37.8111V37.4785H380.225H381.276C381.847 37.4238 382.421 37.4238 382.992 37.4785V37.8665L383.047 37.8111Z" fill="#DC7C50"/>
<path d="M400.034 31.1582C399.593 33.0395 398.742 34.8 397.544 36.3143C396.452 37.9232 395.17 39.3939 393.725 40.6942C392.35 41.8297 390.773 42.6949 389.077 43.2445C387.559 43.6412 385.997 43.846 384.428 43.8544C382.586 43.9761 380.737 43.9761 378.895 43.8544C378.895 43.8544 378.895 42.8564 378.895 42.9119C381.894 43.2165 384.916 43.2165 387.915 42.9119C389.535 42.5975 391.054 41.8935 392.342 40.8605C393.844 39.6709 395.168 38.2704 396.271 36.7024C397.623 35.0233 398.723 33.1555 399.536 31.1582H400.034Z" fill="#DC7C50"/>
<path d="M397.156 87.9307C393.316 84.2088 388.562 81.5694 383.377 80.2798C381.44 79.8362 379.392 79.6145 377.455 79.2818C371.921 78.2284 365.834 77.3968 360.079 76.2325C358.861 75.9553 357.644 75.789 356.426 75.4563L355.043 75.1237V74.791H356.205L359.138 75.1791L368.103 76.676L376.736 78.2284L381.827 79.06C387.711 80.1463 393.099 83.078 397.212 87.4318C397.212 87.4318 397.212 87.9307 397.212 87.8198L397.156 87.9307Z" fill="#DC7C50"/>
<path d="M328.535 72.3511H326.819C326.267 72.4063 325.711 72.4063 325.159 72.3511H322.171C322.171 72.3511 322.171 72.3511 321.783 72.3511C321.783 72.3511 321.784 72.3511 322.226 72.3511H325.381H328.756H328.535Z" fill="#DC7C50"/>
<path d="M331.963 74.3473C331.727 74.4039 331.48 74.4039 331.244 74.3473H329.362H327.259H326.318C326.318 74.3473 325.71 74.3473 325.544 74.3473C325.505 74.2799 325.484 74.2034 325.484 74.1256C325.484 74.0477 325.505 73.9712 325.544 73.9038C325.544 73.9038 326.042 73.9038 326.263 73.9038H327.149H329.307H331.133H331.908L331.963 74.3473Z" fill="#DC7C50"/>
<path d="M332.518 77.6185H329.917H328.534H327.316V77.0086C327.703 76.9839 328.092 76.9839 328.479 77.0086H329.917C330.783 76.9538 331.652 76.9538 332.518 77.0086V77.2858V77.6185Z" fill="#DC7C50"/>
<path d="M333.845 80.1688L331.3 80.5015H329.805H328.754V80.0579C328.754 80.0579 329.086 80.0579 329.252 80.0579H329.805H331.3C332.147 80.0025 332.997 80.0025 333.845 80.0579V80.1688Z" fill="#DC7C50"/>
<path d="M332.19 72.0745C332.078 73.6624 332.247 75.2578 332.688 76.787C332.938 77.5606 333.272 78.3043 333.684 79.0047C333.867 79.3494 334.07 79.6826 334.293 80.0026L335.068 81.3332H334.514L334.182 80.9452C333.875 80.6125 333.614 80.2395 333.408 79.8363C332.938 79.0728 332.566 78.2533 332.301 77.3969C331.832 75.6915 331.832 73.8908 332.301 72.1853L332.19 72.0745Z" fill="#DC7C50"/>
<path d="M297.161 93.3638C296.605 95.3942 295.94 97.3931 295.169 99.3515L294.007 102.567C293.77 103.4 293.474 104.216 293.121 105.007C293.599 102.978 294.247 100.994 295.058 99.0743C295.722 97.1338 296.386 95.1934 297.106 93.5301L297.161 93.3638Z" fill="#DC7C50"/>
<path d="M295.719 91.5344C294.999 93.364 294.225 95.1936 293.395 97.0786C292.564 98.9637 291.845 100.516 290.904 102.179C291.624 100.35 292.454 98.5756 293.284 96.6351C294.114 94.6946 294.889 93.1977 295.83 91.479L295.719 91.5344Z" fill="#DC7C50"/>
<path d="M294.166 90.2593C293.226 91.7008 292.285 93.1977 291.455 94.7501L290.348 96.9678C290.016 97.6885 289.739 98.4092 289.352 99.13C289.806 97.4955 290.476 95.9293 291.344 94.4729C292.135 92.9427 293.1 91.51 294.222 90.2039L294.166 90.2593Z" fill="#DC7C50"/>
<path d="M376.517 94.251C374.861 93.8427 373.234 93.3241 371.647 92.6986L366.446 90.8136C363.07 89.5384 359.749 88.2633 356.429 86.8772C354.369 86.1273 352.386 85.1804 350.508 84.0497V83.7725C352.221 84.3464 353.902 85.0127 355.544 85.7684L360.746 87.8752L370.651 91.6452C372.536 92.258 374.384 92.98 376.185 93.8074L376.517 94.251Z" fill="#DC7C50"/>
<path d="M405.848 68.6925C407.381 69.491 408.796 70.4985 410.053 71.6863C411.265 72.7789 412.325 74.0281 413.208 75.4009C414.141 76.7533 414.886 78.2268 415.421 79.7808C415.707 80.594 415.929 81.4281 416.085 82.2757C416.307 83.0737 416.307 83.9172 416.085 84.7152C416.085 84.7152 416.085 84.9924 416.085 84.7152C415.835 84.0547 415.668 83.3656 415.587 82.6638C415.425 81.8358 415.203 81.0205 414.923 80.2244C414.414 78.7145 413.707 77.2789 412.82 75.9554C410.961 73.1879 408.595 70.7987 405.848 68.9142C405.848 68.9142 405.848 68.5262 405.848 68.5816V68.6925Z" fill="#607C78"/>
<path d="M429.861 62.7047C430.134 64.7565 429.975 66.8429 429.394 68.8293C428.812 70.8156 427.821 72.6577 426.485 74.2366C424.234 77.027 421.832 79.6922 419.291 82.2202L417.465 84.1607C417.124 84.5987 416.662 84.9265 416.137 85.1032C416.137 85.1032 416.137 84.6597 416.137 84.6042C416.773 83.491 417.596 82.4968 418.572 81.6658L422.169 77.8957L425.544 74.1257C426.397 73.1846 427.156 72.1634 427.813 71.0764C429.365 68.6152 430.083 65.7182 429.861 62.8156C429.861 62.4829 429.861 62.8156 429.861 62.8156V62.7047Z" fill="#607C78"/>
<path d="M414.422 58.3802L412.043 60.8751L409.442 63.2036L406.951 65.4767L405.623 66.641C405.623 66.9182 404.848 67.5835 404.406 67.5281C403.963 67.4727 404.406 67.1954 404.406 67.0846C404.661 66.6522 404.999 66.2752 405.402 65.9757L406.73 64.8114L409.276 62.4829L411.821 60.2652L413.094 59.1564C413.519 58.7924 413.983 58.4763 414.478 58.2139L414.422 58.3802Z" fill="#607C78"/>
<path d="M426.152 305.983C422.909 306.464 419.636 306.724 416.357 306.759L406.618 307.258L396.933 307.757C394.076 307.923 391.212 307.923 388.356 307.757C386.86 307.703 385.375 307.48 383.928 307.092C382.531 306.853 381.239 306.196 380.221 305.207V304.653C380.781 304.806 381.32 305.03 381.826 305.318C382.452 305.607 383.1 305.847 383.762 306.039C385.045 306.399 386.362 306.622 387.692 306.704C390.474 306.87 393.265 306.87 396.048 306.704L415.306 305.817H420.84C422.683 305.706 424.531 305.706 426.374 305.817L426.152 305.983Z" fill="#C31E21"/>
<path d="M376.016 305.873C370.814 306.205 365.612 306.261 360.41 306.371H352.662C350.464 306.419 348.264 306.326 346.077 306.094C344.875 305.948 343.689 305.688 342.535 305.318C341.39 304.995 340.356 304.362 339.547 303.489C339.975 303.533 340.389 303.665 340.764 303.877L342.48 304.486C343.465 304.837 344.486 305.079 345.524 305.207C347.666 305.531 349.833 305.661 351.998 305.595H367.161H375.96V305.928L376.016 305.873Z" fill="#C31E21"/>
<path d="M407.837 296.78C407.378 296.838 406.913 296.838 406.454 296.78C405.977 296.749 405.509 296.636 405.07 296.448C404.649 296.278 404.242 296.074 403.853 295.838L403.244 295.394C403.047 295.177 402.88 294.935 402.746 294.673C402.746 294.673 402.746 294.23 402.746 294.285C402.926 294.23 403.119 294.23 403.3 294.285L403.853 294.618C404.227 294.893 404.637 295.117 405.07 295.283L406.399 295.727L407.837 296.115C407.837 296.115 407.837 296.503 407.837 296.558V296.78Z" fill="#C31E21"/>
<path d="M403.909 299.386C403.053 299.579 402.164 299.579 401.308 299.386L400.146 298.776C399.734 298.503 399.407 298.119 399.205 297.667V297.334H399.648L400.146 297.667C400.508 297.93 400.898 298.153 401.308 298.332C402.111 298.685 402.977 298.874 403.854 298.887C403.854 298.887 403.854 299.441 403.854 299.497L403.909 299.386Z" fill="#C31E21"/>
<path d="M362.348 296.059H361.352L360.3 295.727L359.415 295.172C359.107 294.852 358.862 294.475 358.695 294.063V293.786H359.138H359.525L359.968 294.119L360.411 294.396L361.352 294.895L362.348 295.394V295.893V296.059Z" fill="#C31E21"/>
<path d="M358.365 298.443H357.424C357.11 298.391 356.809 298.278 356.539 298.111L355.709 297.556L355.377 297.057C355.325 296.857 355.325 296.647 355.377 296.447C355.377 296.447 355.709 296.447 355.819 296.447L356.151 296.78L356.926 297.279C357.454 297.626 358.033 297.888 358.642 298.055V298.609L358.365 298.443Z" fill="#C31E21"/>
<path d="M371.979 131.674C379.745 132.958 387.58 133.791 395.442 134.169C405.093 134.807 414.776 133.545 423.942 130.454C423.457 129.387 423.086 128.272 422.835 127.128C422.599 125.755 422.488 124.363 422.503 122.969C412.813 124.785 402.977 125.713 393.118 125.742C386.007 125.822 378.911 125.059 371.979 123.468L372.311 126.684C372.346 128.354 372.235 130.024 371.979 131.674Z" fill="#005C5F"/>
<path d="M425.823 162.389C422.335 160.296 419.335 157.479 417.024 154.128C414.612 150.745 412.744 147.003 411.49 143.04C411.098 141.879 410.784 140.694 410.549 139.492C410.385 138.893 410.274 138.281 410.217 137.662C410.162 137.072 410.162 136.478 410.217 135.888C410.217 135.888 410.217 134.89 410.604 135.5C410.992 136.11 410.604 136.332 410.992 136.775L411.324 138.327C411.324 139.27 411.822 140.157 412.099 141.1C412.721 142.992 413.46 144.843 414.312 146.644C416.101 150.271 418.413 153.615 421.174 156.568C422.779 158.286 424.55 159.95 426.265 161.558C426.265 161.558 426.265 162.666 426.265 162.5L425.823 162.389Z" fill="#005C5F"/>
<path d="M377.511 136.387C376.347 139.773 374.903 143.055 373.194 146.2C372.364 147.697 371.479 149.194 370.538 150.636L369.099 152.798L368.435 153.74C368.204 154.037 367.899 154.267 367.55 154.406C367.162 154.406 367.273 153.519 367.55 153.352C368.278 151.744 369.208 150.235 370.317 148.861C371.202 147.42 372.087 145.978 372.917 144.482C374.522 141.654 376.072 138.937 377.511 135.833C377.511 135.389 377.511 136.221 377.511 136.387Z" fill="#005C5F"/>
<path d="M392.174 139.103C392.783 142.541 393.115 146.033 393.447 149.471L394.443 161.169L396.27 184.843L396.768 191.108C396.768 193.103 396.768 195.099 396.768 197.095C396.424 195.484 396.166 193.855 395.993 192.216C395.993 190.442 395.993 188.613 395.55 186.672C395.218 182.736 394.941 178.855 394.665 174.974C394.056 167.046 393.447 159.173 392.783 151.245C392.451 147.198 392.064 143.15 391.953 139.048C391.953 139.048 391.953 138.549 392.23 139.048L392.174 139.103Z" fill="#005C5F"/>
<path d="M393.119 151.855C391.958 151.732 390.845 151.324 389.879 150.666C388.914 150.008 388.126 149.122 387.585 148.085C386.478 145.563 385.858 142.854 385.758 140.101C385.758 137.939 385.371 135.721 385.371 133.504C385.98 136.83 385.924 140.268 386.533 143.594C386.742 145.849 387.719 147.963 389.3 149.582C390.348 150.403 391.527 151.04 392.787 151.467V151.966L393.119 151.855Z" fill="#005C5F"/>
<g opacity="0.5">
<path d="M268.655 75.4009L153.162 271.111L27.6523 102.013L267.825 68.5261L268.655 75.4009Z" fill="#C2D1D5"/>
<path d="M125.436 266.121C125.447 268.968 126.303 271.747 127.895 274.106C129.486 276.464 131.742 278.296 134.375 279.367C137.007 280.439 139.899 280.702 142.681 280.123C145.464 279.545 148.012 278.151 150.002 276.118C151.991 274.086 153.333 271.506 153.857 268.708C154.38 265.91 154.061 263.018 152.941 260.402C151.82 257.786 149.949 255.562 147.564 254.014C145.179 252.465 142.389 251.662 139.548 251.706C135.77 251.75 132.165 253.291 129.52 255.993C126.875 258.695 125.406 262.337 125.436 266.121Z" fill="#C2D1D5"/>
<path d="M87.4766 236.238C87.4766 241.832 89.1333 247.301 92.2369 251.952C95.3406 256.604 99.7517 260.228 104.912 262.366C110.072 264.505 115.75 265.061 121.226 263.966C126.702 262.87 131.731 260.172 135.676 256.212C139.621 252.252 142.304 247.208 143.387 241.72C144.47 236.231 143.903 230.544 141.759 225.379C139.614 220.213 135.988 215.801 131.339 212.701C126.691 209.6 121.229 207.951 115.644 207.962C111.941 207.962 108.273 208.694 104.852 210.116C101.431 211.538 98.3235 213.621 95.7072 216.247C93.0908 218.874 91.0172 221.991 89.6049 225.421C88.1925 228.852 87.4693 232.527 87.4766 236.238Z" fill="#C2D1D5"/>
<path d="M81.6074 212.675C81.6074 215.756 82.5194 218.768 84.2281 221.33C85.9368 223.892 88.3655 225.889 91.2069 227.068C94.0484 228.247 97.175 228.556 100.192 227.954C103.208 227.353 105.979 225.87 108.154 223.691C110.328 221.512 111.809 218.736 112.409 215.714C113.009 212.692 112.701 209.559 111.524 206.713C110.347 203.866 108.354 201.433 105.797 199.721C103.24 198.009 100.233 197.095 97.1578 197.095C93.0336 197.095 89.0783 198.737 86.162 201.659C83.2458 204.58 81.6074 208.543 81.6074 212.675Z" fill="#C2D1D5"/>
<path d="M78.6797 189.334C78.6797 192.689 79.6728 195.969 81.5336 198.759C83.3943 201.549 86.039 203.724 89.1332 205.008C92.2275 206.292 95.6323 206.628 98.9172 205.973C102.202 205.318 105.219 203.703 107.588 201.33C109.956 198.957 111.569 195.935 112.222 192.644C112.875 189.353 112.54 185.942 111.258 182.842C109.977 179.742 107.806 177.092 105.021 175.228C102.237 173.364 98.9627 172.369 95.6135 172.369C91.1224 172.369 86.8152 174.156 83.6395 177.338C80.4638 180.519 78.6797 184.834 78.6797 189.334Z" fill="#C2D1D5"/>
<path d="M29.2559 168.211C29.2559 174.441 31.1008 180.532 34.5572 185.712C38.0135 190.892 42.9259 194.928 48.6727 197.31C54.4195 199.692 60.7424 200.312 66.8413 199.092C72.9402 197.873 78.5408 194.868 82.9346 190.459C87.3283 186.049 90.3176 180.433 91.5242 174.32C92.7308 168.208 92.1004 161.874 89.7129 156.121C87.3253 150.368 83.2879 145.454 78.1115 142C72.9351 138.546 66.8525 136.709 60.6333 136.72C56.5081 136.72 52.4234 137.535 48.6129 139.118C44.8024 140.701 41.341 143.022 38.4266 145.947C35.5122 148.872 33.2021 152.344 31.6285 156.164C30.0549 159.984 29.2486 164.078 29.2559 168.211Z" fill="#C2D1D5"/>
<path d="M36.8926 134.89C36.8926 137.247 37.5904 139.552 38.8978 141.512C40.2051 143.472 42.0633 145 44.2374 145.902C46.4115 146.805 48.8037 147.041 51.1117 146.581C53.4197 146.121 55.5397 144.985 57.2037 143.318C58.8676 141.651 60.0008 139.527 60.4599 137.215C60.919 134.903 60.6834 132.506 59.7828 130.328C58.8823 128.15 57.3573 126.288 55.4007 124.979C53.4441 123.669 51.1437 122.97 48.7906 122.97C45.635 122.97 42.6087 124.226 40.3774 126.461C38.1461 128.696 36.8926 131.728 36.8926 134.89Z" fill="#C2D1D5"/>
<path d="M14.8711 118.202C14.8711 121.491 15.8448 124.707 17.669 127.442C19.4932 130.178 22.0861 132.309 25.1197 133.568C28.1533 134.827 31.4913 135.157 34.7118 134.515C37.9322 133.873 40.8904 132.289 43.2122 129.963C45.534 127.637 47.1151 124.673 47.7557 121.447C48.3963 118.22 48.0675 114.876 46.811 111.837C45.5544 108.798 43.4265 106.2 40.6964 104.372C37.9662 102.545 34.7564 101.569 31.4729 101.569C27.0698 101.569 22.8471 103.322 19.7337 106.441C16.6202 109.56 14.8711 113.791 14.8711 118.202Z" fill="#C2D1D5"/>
<path d="M49.2912 243.944C49.2803 245.517 49.7365 247.057 50.6018 248.37C51.4671 249.682 52.7025 250.707 54.1507 251.314C55.599 251.92 57.1947 252.082 58.7349 251.778C60.2751 251.474 61.6902 250.718 62.8003 249.606C63.9103 248.493 64.6651 247.076 64.9687 245.533C65.2723 243.99 65.1109 242.391 64.5051 240.94C63.8993 239.489 62.8764 238.251 61.5666 237.384C60.2568 236.518 58.7192 236.061 57.1494 236.071C55.0653 236.071 53.0665 236.901 51.5928 238.377C50.1191 239.854 49.2912 241.856 49.2912 243.944Z" fill="#C2D1D5"/>
<path d="M12.8205 207.907C18.7803 207.907 23.6117 203.066 23.6117 197.096C23.6117 191.125 18.7803 186.284 12.8205 186.284C6.86067 186.284 2.0293 191.125 2.0293 197.096C2.0293 203.066 6.86067 207.907 12.8205 207.907Z" fill="#C2D1D5"/>
<path d="M51.0042 215.059C51.0907 215.621 51.3753 216.135 51.8067 216.505C52.2381 216.876 52.7878 217.08 53.3562 217.08C53.9246 217.08 54.4742 216.876 54.9056 216.505C55.337 216.135 55.6217 215.621 55.7081 215.059C55.7603 214.719 55.7385 214.372 55.6443 214.041C55.55 213.711 55.3856 213.405 55.1622 213.144C54.9388 212.883 54.6617 212.673 54.35 212.53C54.0383 212.386 53.6992 212.312 53.3562 212.312C53.0131 212.312 52.674 212.386 52.3623 212.53C52.0506 212.673 51.7735 212.883 51.5501 213.144C51.3267 213.405 51.1623 213.711 51.0681 214.041C50.9738 214.372 50.9521 214.719 51.0042 215.059Z" fill="#C2D1D5"/>
<path d="M107.288 287.188C110.711 287.188 113.486 284.408 113.486 280.979C113.486 277.55 110.711 274.77 107.288 274.77C103.865 274.77 101.09 277.55 101.09 280.979C101.09 284.408 103.865 287.188 107.288 287.188Z" fill="#C2D1D5"/>
<path d="M63.5137 275.712C63.5138 276.241 63.6711 276.758 63.9655 277.196C64.2599 277.635 64.678 277.976 65.1666 278.176C65.6552 278.376 66.1922 278.425 66.7089 278.318C67.2256 278.21 67.6987 277.951 68.0679 277.574C68.4371 277.196 68.6856 276.717 68.7818 276.197C68.8779 275.677 68.8174 275.14 68.6078 274.655C68.3982 274.17 68.0492 273.758 67.6052 273.472C67.1611 273.187 66.6422 273.04 66.1146 273.051C65.4198 273.066 64.7583 273.352 64.272 273.85C63.7858 274.347 63.5135 275.016 63.5137 275.712Z" fill="#C2D1D5"/>
<path d="M-2.73047 142.541C-2.73047 144.328 -2.20144 146.075 -1.21027 147.562C-0.219105 149.048 1.18968 150.206 2.83792 150.89C4.48617 151.574 6.29986 151.753 8.04963 151.404C9.7994 151.056 11.4067 150.195 12.6682 148.931C13.9297 147.667 14.7888 146.057 15.1368 144.304C15.4849 142.551 15.3063 140.734 14.6235 139.083C13.9408 137.431 12.7847 136.02 11.3013 135.027C9.81789 134.034 8.0739 133.504 6.28985 133.504C3.89751 133.504 1.60316 134.456 -0.0884776 136.151C-1.78012 137.846 -2.73047 140.144 -2.73047 142.541Z" fill="#C2D1D5"/>
</g>
<g opacity="0.5">
<path d="M28.3217 127.738C30.9501 127.738 33.0809 125.603 33.0809 122.97C33.0809 120.336 30.9501 118.202 28.3217 118.202C25.6933 118.202 23.5625 120.336 23.5625 122.97C23.5625 125.603 25.6933 127.738 28.3217 127.738Z" fill="white"/>
<path d="M42.0977 164.828C42.0977 166.385 42.5585 167.907 43.422 169.202C44.2855 170.497 45.5127 171.506 46.9486 172.102C48.3845 172.697 49.9646 172.853 51.4889 172.55C53.0132 172.246 54.4134 171.496 55.5124 170.395C56.6114 169.294 57.3598 167.891 57.663 166.364C57.9663 164.837 57.8106 163.254 57.2159 161.815C56.6211 160.377 55.6139 159.147 54.3216 158.282C53.0294 157.417 51.5101 156.955 49.9559 156.955C47.8762 156.97 45.8858 157.804 44.4153 159.277C42.9447 160.751 42.1121 162.745 42.0977 164.828Z" fill="white"/>
<path d="M57.1543 186.173C57.1543 186.908 57.3718 187.626 57.7792 188.237C58.1866 188.848 58.7656 189.324 59.4431 189.605C60.1206 189.886 60.8662 189.96 61.5854 189.816C62.3046 189.673 62.9653 189.319 63.4838 188.8C64.0023 188.28 64.3555 187.618 64.4985 186.898C64.6416 186.177 64.5682 185.43 64.2875 184.752C64.0069 184.073 63.5317 183.493 62.9219 183.085C62.3122 182.676 61.5954 182.458 60.862 182.458C60.3751 182.458 59.893 182.555 59.4431 182.741C58.9933 182.928 58.5846 183.202 58.2403 183.546C57.896 183.891 57.6229 184.301 57.4365 184.752C57.2502 185.202 57.1543 185.685 57.1543 186.173Z" fill="white"/>
<path d="M105.463 238.4C109.131 238.4 112.104 235.421 112.104 231.747C112.104 228.072 109.131 225.094 105.463 225.094C101.795 225.094 98.8223 228.072 98.8223 231.747C98.8223 235.421 101.795 238.4 105.463 238.4Z" fill="white"/>
<path d="M112.104 254.866C113.846 254.866 115.258 253.451 115.258 251.706C115.258 249.96 113.846 248.545 112.104 248.545C110.361 248.545 108.949 249.96 108.949 251.706C108.949 253.451 110.361 254.866 112.104 254.866Z" fill="white"/>
<path d="M138.17 264.512C138.17 265.258 138.391 265.987 138.804 266.607C139.218 267.227 139.805 267.71 140.493 267.996C141.181 268.281 141.937 268.356 142.667 268.21C143.397 268.065 144.068 267.706 144.594 267.178C145.12 266.651 145.479 265.979 145.624 265.248C145.769 264.517 145.694 263.759 145.41 263.07C145.125 262.381 144.642 261.792 144.024 261.378C143.405 260.964 142.677 260.742 141.933 260.742C140.935 260.742 139.978 261.14 139.272 261.847C138.566 262.554 138.17 263.513 138.17 264.512Z" fill="white"/>
<path d="M98.6029 193.713C100.681 193.713 102.366 192.026 102.366 189.943C102.366 187.861 100.681 186.173 98.6029 186.173C96.5246 186.173 94.8398 187.861 94.8398 189.943C94.8398 192.026 96.5246 193.713 98.6029 193.713Z" fill="white"/>
<path d="M48.7969 137.551C50.2639 137.551 51.4532 136.359 51.4532 134.89C51.4532 133.42 50.2639 132.229 48.7969 132.229C47.3299 132.229 46.1406 133.42 46.1406 134.89C46.1406 136.359 47.3299 137.551 48.7969 137.551Z" fill="white"/>
</g>
<path d="M479.831 217.055C467.229 220.135 453.985 219.249 441.904 214.517C429.823 209.785 419.491 201.436 412.317 190.609C408.908 185.467 406.244 179.867 404.403 173.976C402.543 167.227 401.283 160.325 400.64 153.352C400.04 146.353 398.359 139.489 395.66 133.005C393.067 127.599 389.438 122.757 384.979 118.756C380.478 114.737 375.206 111.68 369.484 109.775C363.497 108.384 357.687 106.319 352.163 103.621C350.876 102.845 349.718 101.872 348.732 100.738C348.626 100.452 348.626 100.137 348.732 99.8507C348.732 99.8507 348.732 99.1299 349.119 99.3517C351.47 101.291 354.101 102.861 356.922 104.009C359.8 105.173 362.788 106.005 365.776 106.947C368.674 107.739 371.505 108.759 374.243 109.997C376.962 111.21 379.541 112.716 381.935 114.487C386.646 118.034 390.629 122.458 393.667 127.516C397.004 133.179 399.239 139.425 400.253 145.923C401.47 153.075 401.913 160.338 403.407 167.434C405.364 176.617 409.32 185.255 414.993 192.73C420.665 200.205 427.915 206.334 436.223 210.679C448.169 216.764 461.685 219.047 474.961 217.221C476.51 217.221 478.115 216.722 479.665 216.389C479.665 216.389 479.665 216.999 479.665 217.055H479.831Z" fill="#232323"/>
</svg>
