<svg width="403" height="325" viewBox="0 0 403 325" fill="none" xmlns="http://www.w3.org/2000/svg">
<path d="M476.051 307.436C476.051 298.185 426.227 290.75 364.81 290.75C303.393 290.75 206.73 303.865 206.73 313.115C206.73 322.366 303.159 324.122 364.81 324.122C426.461 324.122 476.051 316.628 476.051 307.436Z" fill="#E2E2E2"/>
<path d="M39.0515 308.724C60.6191 308.724 78.103 304.136 78.103 298.478C78.103 292.819 60.6191 288.232 39.0515 288.232C17.484 288.232 0 292.819 0 298.478C0 304.136 17.484 308.724 39.0515 308.724Z" fill="#E2E2E2"/>
<path d="M132.26 324.122C191.563 324.122 239.637 317.699 239.637 309.777C239.637 301.855 191.563 295.433 132.26 295.433C72.9572 295.433 24.8828 301.855 24.8828 309.777C24.8828 317.699 72.9572 324.122 132.26 324.122Z" fill="#E2E2E2"/>
<path d="M176.873 266.92C176.873 266.92 176.873 282.728 178.278 295.023C179.508 306.206 183.43 310.48 191.217 311.124C195.784 311.475 213.524 312.88 219.437 310.363C225.351 307.845 225.292 300.293 226.112 293.091C226.639 287.705 226.756 266.92 226.756 266.92H176.873Z" fill="#2D2B2B"/>
<path d="M471.137 278.864C460.481 282.377 314.287 283.724 314.287 283.724C314.287 283.724 192.332 282.904 183.491 278.864C174.65 274.824 176.816 261.3 176.816 242.272C176.673 231.966 177.674 221.677 179.802 211.593C180.446 208.782 181.207 205.738 182.086 203.337C183.174 200.062 184.505 196.872 186.067 193.794C192.741 180.855 208.257 172.365 213.058 164.52C217.859 156.674 249.65 93.1499 254.041 86.1241C255.095 84.4263 259.896 83.1967 266.512 82.26C287.059 80.2855 307.698 79.406 328.339 79.6253C348.019 79.3767 367.698 80.1584 387.296 81.9672C394.322 82.9626 399.416 84.2506 400.528 86.007C404.978 93.0328 436.77 156.616 441.512 164.403C446.254 172.19 461.828 180.621 468.503 193.677C470.065 196.755 471.396 199.945 472.484 203.22C473.383 205.932 474.145 208.687 474.767 211.475C476.895 221.56 477.897 231.849 477.753 242.155C477.812 261.124 480.388 275.761 471.137 278.864Z" fill="#C2D1D5"/>
<path d="M477.929 266.921C477.343 272.775 475.704 277.342 471.137 278.63C460.482 282.143 314.287 283.49 314.287 283.49C314.287 283.49 192.332 282.67 183.491 278.63C181.438 277.453 179.74 275.744 178.576 273.683C177.412 271.623 176.824 269.287 176.875 266.921C176.599 262.241 176.599 257.549 176.875 252.869C176.875 249.532 176.875 246.019 176.875 242.272C176.731 231.967 177.733 221.677 179.861 211.593C185.696 210.715 191.638 210.853 197.425 212.003C199.65 214.286 212.706 232.67 212.706 232.67H441.922C441.922 232.67 454.919 214.286 457.144 212.003C462.931 210.845 468.875 210.706 474.709 211.593C476.837 221.677 477.838 231.967 477.695 242.272C477.695 245.96 477.695 249.532 477.695 252.869C478.041 257.545 478.119 262.236 477.929 266.921Z" fill="#607C78"/>
<path d="M477.929 266.92C477.343 272.775 475.704 277.342 471.137 278.63C460.482 282.143 314.287 283.489 314.287 283.489C314.287 283.489 192.332 282.67 183.491 278.63C181.438 277.452 179.74 275.743 178.576 273.683C177.412 271.622 176.824 269.286 176.875 266.92C176.599 262.24 176.599 257.548 176.875 252.869H477.987C478.236 257.55 478.216 262.241 477.929 266.92Z" fill="#C2D1D5"/>
<path d="M477.93 266.92C477.344 272.775 475.647 277.576 471.138 279.04C460.483 282.611 314.288 283.723 314.288 283.723C314.288 283.723 192.333 282.904 183.492 278.864C181.439 277.686 179.741 275.978 178.577 273.917C177.413 271.857 176.825 269.52 176.876 267.154L477.93 266.92Z" fill="#607C78"/>
<path d="M472.545 203.337H429.57C429.598 189.882 428.678 176.441 426.819 163.115C424.652 155.035 394.032 95.2579 387.299 82.2017C394.325 83.197 399.418 84.485 400.531 86.2415C404.98 93.2672 436.772 156.85 441.514 164.637C446.257 172.424 461.83 180.855 468.505 193.911C470.082 196.95 471.432 200.1 472.545 203.337Z" fill="#16F7FF"/>
<path d="M216.215 266.92H196.133C195.211 266.92 194.297 266.739 193.445 266.386C192.592 266.033 191.818 265.515 191.165 264.863C190.513 264.21 189.996 263.436 189.642 262.583C189.289 261.731 189.108 260.817 189.108 259.895C189.1 258.97 189.276 258.053 189.627 257.197C189.977 256.341 190.494 255.563 191.148 254.909C191.802 254.255 192.58 253.738 193.436 253.388C194.292 253.038 195.209 252.861 196.133 252.869H216.215C217.14 252.861 218.057 253.038 218.913 253.388C219.769 253.738 220.547 254.255 221.201 254.909C221.855 255.563 222.372 256.341 222.722 257.197C223.073 258.053 223.249 258.97 223.241 259.895C223.241 260.817 223.059 261.731 222.706 262.583C222.353 263.436 221.836 264.21 221.183 264.863C220.531 265.515 219.756 266.033 218.904 266.386C218.052 266.739 217.138 266.92 216.215 266.92Z" fill="#444444"/>
<path d="M280.154 275.176C280.154 276.473 279.769 277.741 279.049 278.819C278.328 279.897 277.304 280.738 276.106 281.234C274.908 281.73 273.589 281.86 272.317 281.607C271.045 281.354 269.877 280.73 268.96 279.813C268.043 278.895 267.418 277.727 267.165 276.455C266.912 275.183 267.042 273.865 267.538 272.666C268.035 271.468 268.875 270.444 269.953 269.724C271.032 269.003 272.3 268.618 273.596 268.618C275.336 268.618 277.003 269.309 278.233 270.539C279.463 271.769 280.154 273.437 280.154 275.176Z" fill="#3B4444"/>
<path d="M266.567 82.3767C259.717 95.7257 229.33 155.093 227.105 163.114C225.246 176.441 224.327 189.881 224.354 203.337H182.082C183.17 200.061 184.501 196.871 186.063 193.794C192.738 180.854 208.253 172.365 213.054 164.52C217.855 156.674 249.646 93.1495 254.038 86.1238C255.15 84.543 259.892 83.3135 266.567 82.3767Z" fill="#16F7FF"/>
<path d="M385.712 275.176C385.712 276.473 385.328 277.741 384.607 278.819C383.887 279.897 382.863 280.738 381.664 281.234C380.466 281.73 379.148 281.86 377.876 281.607C376.604 281.354 375.435 280.73 374.518 279.813C373.601 278.895 372.977 277.727 372.724 276.455C372.471 275.183 372.6 273.865 373.097 272.666C373.593 271.468 374.434 270.444 375.512 269.724C376.59 269.003 377.858 268.618 379.155 268.618C380.894 268.618 382.562 269.309 383.792 270.539C385.022 271.769 385.712 273.437 385.712 275.176Z" fill="#3B4444"/>
<path d="M416.629 211.358C414.521 212.529 347.952 212.061 326.407 212.237C304.861 212.412 238.233 212.237 236.184 211.358C234.135 210.48 236.184 175.176 236.184 172.892C236.184 171.604 245.552 152.576 254.1 136.007C260.657 123.244 266.688 112.002 267.566 111.241C269.674 109.426 335.247 110.187 335.247 110.187C335.247 110.187 383.14 109.426 385.189 111.241C386.126 112.002 392.156 123.244 398.713 136.007C407.203 152.576 416.629 171.604 416.629 172.892C416.629 175.176 418.913 210.07 416.629 211.358Z" fill="#2D2B2B"/>
<path d="M420.261 17.5642L387.884 99.5314H263.47L237.006 17.5642C264.917 8.79001 293.99 4.27014 323.247 4.15674C356.002 4.76505 388.569 9.2658 420.261 17.5642Z" fill="#C2D1D5"/>
<path d="M327.11 30.0938H402.169L390.459 67.0961C388.789 72.347 385.486 76.9275 381.031 80.171C376.577 83.4144 371.203 85.1513 365.693 85.1289H289.581C284.071 85.1513 278.697 83.4144 274.243 80.171C269.788 76.9275 266.486 72.347 264.815 67.0961L253.105 30.0938H327.11Z" fill="#2D2B2B"/>
<path d="M424.414 26.6978C423.364 26.7581 422.333 26.4003 421.545 25.7025C421.545 25.3512 400.819 8.84068 329.566 8.43085C257.611 7.96246 232.552 23.4191 232.318 23.4191C231.856 23.7327 231.336 23.9499 230.788 24.0579C230.24 24.1658 229.676 24.1624 229.13 24.0476C228.583 23.9328 228.066 23.7092 227.607 23.39C227.149 23.0708 226.76 22.6625 226.463 22.1896C226.158 21.7251 225.947 21.2046 225.843 20.6583C225.74 20.112 225.745 19.5505 225.86 19.0063C225.974 18.4621 226.195 17.9459 226.509 17.4874C226.824 17.0289 227.226 16.6372 227.693 16.3348C228.747 15.6323 254.332 -0.527001 329.566 -0.0586166C404.801 0.409768 426.346 18.6182 427.4 19.3793C428.194 20.1263 428.673 21.1486 428.739 22.237C428.804 23.3254 428.451 24.3976 427.751 25.2341C427.33 25.6998 426.815 26.071 426.24 26.3233C425.664 26.5756 425.042 26.7032 424.414 26.6978Z" fill="#607C78"/>
<path d="M313.759 143.735H270.785V138.232C270.785 132.533 273.049 127.067 277.079 123.038C281.108 119.008 286.574 116.744 292.272 116.744C297.971 116.744 303.436 119.008 307.466 123.038C311.496 127.067 313.759 132.533 313.759 138.232V143.735Z" fill="#C2D1D5"/>
<path d="M377.515 143.735H334.541V138.232C334.541 132.533 336.805 127.067 340.834 123.038C344.864 119.008 350.329 116.744 356.028 116.744C361.727 116.744 367.192 119.008 371.222 123.038C375.251 127.067 377.515 132.533 377.515 138.232V143.735Z" fill="#C2D1D5"/>
<path d="M418.209 212.237C416.043 213.408 236.711 213.408 234.603 212.237C232.495 211.066 234.603 175.41 234.603 173.127C234.603 171.897 243.209 154.333 251.523 137.998C251.926 137.227 252.532 136.58 253.274 136.126C254.017 135.672 254.868 135.429 255.739 135.422H398.127C398.744 135.419 399.35 135.587 399.877 135.907C400.404 136.228 400.832 136.688 401.113 137.237C409.544 153.689 418.678 171.721 418.678 173.009C418.209 175.644 420.493 210.773 418.209 212.237Z" fill="#607C78"/>
<path d="M394.497 177.459C385.721 176.991 376.926 176.991 368.151 177.459C359.485 177.459 350.586 177.459 342.214 177.459C324.766 177.459 307.339 177.127 289.93 176.464L274.708 175.878L266.98 175.527C264.243 175.116 261.461 175.116 258.724 175.527C258.139 175.527 258.139 177.342 258.724 177.517C260.624 178.083 262.597 178.359 264.579 178.337L271.898 178.688L285.364 179.157C294.263 179.449 302.928 179.684 312.12 179.859C329.684 179.859 346.839 179.859 364.228 179.859C374.273 180.163 384.327 179.792 394.321 178.747C394.673 178.747 394.673 177.576 394.321 177.517L394.497 177.459Z" fill="white"/>
<path d="M256.557 137.354C256.557 143.208 256.557 149.063 256.557 154.918C256.557 157.845 256.557 160.773 256.557 163.7C256.391 166.572 256.489 169.453 256.85 172.307C256.85 173.126 257.553 173.126 257.728 172.307C257.934 169.598 257.934 166.877 257.728 164.169V155.386C257.728 149.532 257.728 143.677 257.26 137.822C257.26 137.061 256.616 136.534 256.557 137.822V137.354Z" fill="white"/>
<path d="M308.023 12.4703C310.377 15.2112 313.375 17.3253 316.747 18.623C320.119 19.9207 323.76 20.3615 327.344 19.9059C332.497 19.9059 341.454 18.3251 343.152 12.4703C343.152 12.4703 343.152 11.4164 343.152 11.5335C342.145 12.0839 341.235 12.7959 340.459 13.6412C339.336 14.4519 338.116 15.1205 336.829 15.6319C333.764 16.755 330.546 17.4065 327.286 17.5639C324.062 17.7914 320.822 17.5149 317.684 16.7443C314.197 15.7224 310.952 14.0101 308.141 11.7091C308.141 11.7091 308.141 12.4703 308.141 12.5874L308.023 12.4703Z" fill="#2D2B2B"/>
<path d="M260.306 87.8219C259.956 89.2776 259.918 90.7905 260.192 92.2621C260.467 93.7337 261.049 95.1309 261.899 96.3628C262.75 97.5946 263.851 98.6333 265.13 99.4113C266.409 100.189 267.837 100.689 269.322 100.878C273.612 101.112 277.912 101.112 282.203 100.878H296.664L354.041 100.351C364.931 100.351 375.821 100.351 386.652 99.9413C387.531 99.9413 387.472 96.8383 386.652 96.8383C369.088 96.8383 351.524 96.8383 334.427 97.2481L282.203 97.7165C277.68 98.0086 273.143 98.0086 268.62 97.7165C267.506 97.6231 266.423 97.3047 265.436 96.7805C264.45 96.2563 263.58 95.5372 262.879 94.6668C262.178 93.7965 261.661 92.7929 261.36 91.7169C261.059 90.641 260.979 89.5151 261.125 88.4074C261.125 87.5291 260.423 86.3582 260.306 87.8804V87.8219Z" fill="#2D2B2B"/>
<path d="M393.617 84.6018C392.148 86.6238 390.874 88.7801 389.812 91.0421C388.719 93.0717 387.548 95.0233 386.299 96.8968C385.889 97.658 386.299 100.468 387.06 99.473C389.86 95.2182 392.215 90.686 394.085 85.9484C394.085 85.9484 394.086 83.8407 393.617 84.4847V84.6018Z" fill="#2D2B2B"/>
<path d="M397.659 138.115C397.014 144.22 396.838 150.366 397.132 156.499V165.749C396.751 168.851 396.87 171.994 397.483 175.059C397.483 175.41 397.952 175.761 398.186 175.059C398.792 172.37 398.931 169.597 398.596 166.862C398.596 163.583 398.596 160.363 398.596 157.084C398.872 150.797 398.715 144.498 398.127 138.232C398.127 137.939 397.776 137.646 397.717 138.232L397.659 138.115Z" fill="white"/>
<path d="M417.039 208.255C411.828 197.833 404.802 188.466 399.474 178.161C398.713 176.698 398.186 179.566 398.596 180.269C404.041 190.456 410.774 199.824 416.453 209.894C417.039 210.948 417.331 208.782 417.097 208.255H417.039Z" fill="white"/>
<path d="M236.826 210.246C240.645 205.54 244.184 200.614 247.423 195.492C251.165 190.843 254.57 185.932 257.61 180.796C257.61 180.503 257.61 178.571 257.142 179.04C255.322 181.125 253.677 183.358 252.224 185.714L246.779 193.208C243.266 198.302 239.402 203.279 236.416 208.665C236.416 209.016 236.416 210.831 236.826 210.187V210.246Z" fill="white"/>
<path d="M313.816 141.92C313.347 147.131 313.23 152.341 313.055 157.552C313.055 160.07 313.055 162.646 313.055 165.222C312.643 167.566 312.643 169.963 313.055 172.306C313.055 172.306 313.055 172.716 313.464 172.306C314.023 170.408 314.202 168.419 313.991 166.452C313.991 163.758 313.991 161.007 313.991 158.313C313.991 152.868 314.343 147.423 313.991 141.978C313.991 141.334 313.464 140.925 313.406 141.978L313.816 141.92Z" fill="white"/>
<path d="M192.8 260.89C194.457 259.119 196.666 257.964 199.065 257.611C201.299 257.312 203.564 257.312 205.798 257.611C208.339 257.854 210.827 258.485 213.175 259.485C214.308 259.948 215.403 260.496 216.454 261.124C217.332 261.592 218.035 262.353 219.089 262.412C220.142 262.47 219.498 260.421 219.089 260.129C217.302 258.182 214.945 256.85 212.355 256.323C209.684 255.483 206.901 255.049 204.1 255.035C200.178 255.035 192.918 255.445 192.391 260.48C192.391 260.48 192.391 261.241 192.391 261.065L192.8 260.89Z" fill="#2D2B2B"/>
<path d="M38.9906 299.941C41.4804 299.941 43.4988 297.923 43.4988 295.433C43.4988 292.943 41.4804 290.925 38.9906 290.925C36.5008 290.925 34.4824 292.943 34.4824 295.433C34.4824 297.923 36.5008 299.941 38.9906 299.941Z" fill="#2D2B2B"/>
<path d="M71.1335 295.433C71.0067 296.548 70.4741 297.577 69.6372 298.324C68.8004 299.071 67.7178 299.484 66.5961 299.484C65.4743 299.484 64.3917 299.071 63.5549 298.324C62.718 297.577 62.1854 296.548 62.0586 295.433C62.1854 294.319 62.718 293.29 63.5549 292.543C64.3917 291.796 65.4743 291.383 66.5961 291.383C67.7178 291.383 68.8004 291.796 69.6372 292.543C70.4741 293.29 71.0067 294.319 71.1335 295.433Z" fill="#2D2B2B"/>
<path d="M24.883 289.286C24.883 290.28 24.4882 291.233 23.7855 291.935C23.0828 292.638 22.1297 293.033 21.1359 293.033C20.1729 292.988 19.2643 292.573 18.5991 291.875C17.934 291.177 17.5634 290.25 17.5645 289.286C17.5645 288.292 17.9592 287.339 18.6619 286.636C19.3647 285.934 20.3177 285.539 21.3115 285.539C22.3053 285.539 23.2584 285.934 23.9611 286.636C24.6638 287.339 25.0586 288.292 25.0586 289.286H24.883Z" fill="#2D2B2B"/>
<path d="M19.9621 240.047C19.2731 240.562 18.7061 241.222 18.3013 241.981C17.8966 242.74 17.664 243.579 17.6201 244.438C17.6201 246.838 17.6201 277.166 17.6201 277.166H17.5616C16.8914 277.758 16.3447 278.477 15.9528 279.28C15.561 280.084 15.3317 280.957 15.2782 281.85C14.9854 283.476 14.9854 285.142 15.2782 286.768C20.1894 289.845 25.2718 292.641 30.5007 295.14C32.023 295.14 77.3391 295.14 77.6318 294.613C78.0818 292.439 78.2393 290.214 78.1002 287.997C78.1031 287.105 77.9286 286.221 77.5868 285.397C77.2451 284.573 76.743 283.825 76.1096 283.197C76.1096 283.197 77.0464 249.941 77.0464 248.068C77.0064 246.86 76.6502 245.683 76.0132 244.656C75.3762 243.628 74.4808 242.786 73.4164 242.213C73.4164 238.876 73.4164 235.421 73.4164 233.606C73.3573 232.788 73.0037 232.018 72.4211 231.44C70.2801 229.295 67.7587 227.568 64.9855 226.346C62.0581 225.644 27.6318 225.82 26.1096 226.346C23.8513 227.753 21.8675 229.558 20.2548 231.674C19.9621 232.435 19.9621 240.047 19.9621 240.047Z" fill="#1E3D33"/>
<path d="M63.1148 263.466C63.1148 265.249 62.586 266.992 61.5953 268.475C60.6045 269.958 59.1964 271.113 57.5489 271.796C55.9013 272.478 54.0884 272.657 52.3394 272.309C50.5904 271.961 48.9838 271.102 47.7229 269.841C46.4619 268.58 45.6032 266.974 45.2553 265.225C44.9074 263.476 45.0859 261.663 45.7684 260.015C46.4508 258.368 47.6065 256.96 49.0892 255.969C50.5719 254.978 52.3152 254.449 54.0984 254.449C56.4897 254.449 58.7831 255.399 60.474 257.09C62.1649 258.781 63.1148 261.075 63.1148 263.466Z" fill="#607C78"/>
<path d="M274.061 155.035C275.784 156.53 277.582 157.937 279.447 159.251C280.466 159.968 281.622 160.466 282.843 160.715C284.306 160.715 284.892 159.953 284.014 159.192L274.295 150.293L274.061 155.035Z" fill="#FFAE83"/>
<path d="M125.291 271.428L118.383 283.606C118.518 285.032 118.94 286.416 119.624 287.673C120.308 288.931 121.24 290.037 122.364 290.925C126.053 293.56 134.074 290.925 134.074 290.925L137.587 277.517L125.291 271.428Z" fill="#FFAE83"/>
<path d="M148.065 113.056C143.041 121.328 140.425 130.837 140.513 140.515C140.805 156.03 144.669 199.063 144.377 201.229C144.084 203.395 134.248 224.18 132.667 227.751C131.086 231.323 120.958 274.59 120.958 274.59C120.958 274.59 120.606 278.571 128.335 281.674C132.668 283.535 137.458 284.065 142.093 283.196C142.093 283.196 167.679 211.475 168.616 207.084C169.552 202.693 173.885 122.424 173.885 122.424L148.065 113.056Z" fill="#00BEC3"/>
<path d="M166.628 289.169C166.628 289.579 165.633 300.527 165.633 300.527C165.633 300.527 166.277 306.382 174.122 306.382C181.968 306.382 181.499 298.244 181.499 298.244L178.923 288.642L166.628 289.169Z" fill="#FFAE83"/>
<path d="M161.3 114.286C153.978 121.57 149.778 131.418 149.59 141.745C148.361 160.539 161.3 214.169 162.354 221.37C163.407 228.572 159.426 292.096 159.426 292.096C163.262 293.816 167.476 294.522 171.663 294.145C180.269 294.145 181.44 292.096 181.44 292.096C181.44 292.096 188.349 222.483 188.642 211.124C188.934 199.766 191.569 131.792 190.866 127.401C190.164 123.01 163.934 114.579 161.3 114.286Z" fill="#00BEC3"/>
<path d="M209.309 37.5293C209.575 32.5859 210.34 27.682 211.592 22.8923C213.24 19.8543 215.445 17.1532 218.091 14.9298C221.706 14.4596 225.366 14.4596 228.981 14.9298C235.515 16.5021 241.552 19.6819 246.545 24.1804C249.121 26.7565 247.482 31.4403 247.482 31.4403C240.184 35.1493 232.225 37.3778 224.063 37.9977C219.14 38.1569 214.212 38.0005 209.309 37.5293Z" fill="#5F2929"/>
<path d="M247.072 31.089C246.966 32.857 246.751 34.6167 246.428 36.3583C245.747 39.2894 244.019 41.8709 241.569 43.6183C239.168 45.3747 238.056 46.4871 237.822 47.2482C237.328 49.2394 236.703 51.1954 235.948 53.103C235.948 53.3958 233.138 53.103 232.728 53.103C232.148 53.6213 231.722 54.29 231.499 55.0351C231.03 55.6206 229.274 55.0351 229.274 55.0351L228.923 56.0304C228.923 56.4403 227.927 56.6159 227.283 56.6745H226.581C226.15 56.8935 225.739 57.1481 225.351 57.4356C224.27 58.3155 222.937 58.8282 221.545 58.8993C217.561 54.1145 214.414 48.6907 212.236 42.8571C213.329 38.768 214.799 34.7892 216.627 30.9719V30.5621C216.627 30.5621 230.035 22.7752 235.129 23.4192C239.666 24.9827 243.763 27.6131 247.072 31.089Z" fill="#FFAE83"/>
<path d="M173.477 125.352C173.477 135.715 173.477 146.078 173.477 156.441C173.477 166.804 173.477 177.342 173.477 187.764C173.477 198.185 173.477 208.782 173.477 219.263C173.477 229.743 173.477 240.164 173.477 250.586C173.477 261.007 173.477 271.37 173.477 281.733V285.597C173.477 285.949 173.477 286.768 174.062 286.768C174.648 286.768 174.589 285.89 174.589 285.597V223.185C174.589 212.647 174.589 202.167 174.589 191.628C174.589 181.089 174.589 170.785 174.589 160.363C174.589 149.942 174.589 139.579 174.589 129.157C174.589 127.869 174.589 126.581 174.589 125.293C174.589 124.883 174.238 124.883 174.238 125.293L173.477 125.352Z" fill="#005C5F"/>
<path d="M197.713 45.7848L216.507 30.9722L218.849 53.7473L212.116 64.6958L197.713 45.7848Z" fill="#FFAE83"/>
<path d="M199.356 95.1402C200.022 92.023 201.558 89.1584 203.786 86.8786C206.014 84.5988 208.843 82.9973 211.944 82.2597C216.054 81.3533 220.22 80.7273 224.415 80.3861C238.466 78.981 246.546 78.2199 247.073 77.81C250.192 76.1749 253.443 74.804 256.792 73.7117C259.661 73.755 262.521 74.0489 265.34 74.5899C266.218 74.5899 267.682 75.8194 268.794 75.8194C269.906 75.8194 271.546 77.0489 272.248 77.2245C272.951 77.4002 276.171 78.3955 275.644 79.1566C275.117 79.9178 272.131 79.9763 268.384 79.8592C264.637 79.7421 258.373 79.8592 257.963 80.9131C257.91 81.2879 257.952 81.67 258.084 82.0248C258.215 82.3796 258.433 82.6961 258.718 82.9458C259.002 83.1955 259.345 83.3705 259.714 83.4551C260.082 83.5398 260.467 83.5314 260.832 83.4306C262.998 83.1379 267.799 82.0255 267.916 83.1379C268.033 84.2503 267.096 85.07 265.047 85.8311C261.733 86.6571 258.333 87.0894 254.918 87.1192C253.096 86.6633 251.299 86.1162 249.532 85.4798C249.532 85.4798 235.714 89.4025 225.469 92.8569C217.66 96.0296 209.505 98.2699 201.171 99.5313C199.063 99.5313 199.063 97.5993 199.356 95.1402Z" fill="#FFAE83"/>
<path d="M223.714 23.8289C223.599 23.0795 223.237 22.39 222.685 21.8701C222.134 21.3502 221.424 21.0298 220.669 20.9601C218.854 20.5502 217.625 20.9601 216.805 22.1896C215.746 23.8014 214.973 25.5841 214.521 27.4589C214.156 29.4884 214.574 31.581 215.692 33.3137L219.322 31.3816L221.781 30.0936C222.919 28.1906 223.581 26.0419 223.714 23.8289Z" fill="#FFAE83"/>
<path d="M222.128 28.1619L221.132 29.6256C220.488 30.3868 221.132 31.6163 222.186 31.0308L222.947 30.5039C225.758 28.5132 233.018 22.9512 233.018 22.9512L224.118 25.5273L222.128 28.1619Z" fill="#5F2929"/>
<path d="M216.103 16.8032L230.33 24.1217C233.489 27.2998 237.199 29.8786 241.278 31.7329C243.739 32.8684 246.309 33.7512 248.948 34.3676C250.347 31.3353 251.521 28.2043 252.461 24.9999C250.513 20.0269 247.935 15.3242 244.791 11.0069C239.586 8.9036 234.168 7.37236 228.632 6.44019C224.073 8.80401 219.858 11.7783 216.103 15.2809C215.971 15.7798 215.971 16.3043 216.103 16.8032Z" fill="#00BEC3"/>
<path d="M230.738 24.1218C230.738 24.1218 239.696 38.8759 240.75 39.637C241.804 40.3982 243.677 40.6324 246.019 42.1546C248.573 44.2029 251.466 45.7881 254.567 46.8385C257.261 47.2483 257.378 46.1359 257.085 45.4918C256.792 44.8478 248.947 34.3092 248.947 34.3092L230.738 24.1218Z" fill="#00BEC3"/>
<path d="M199.353 42.6228C200.641 41.5104 202.046 40.2223 202.925 39.5197C203.018 39.4186 203.131 39.3379 203.257 39.2827C203.383 39.2275 203.519 39.199 203.656 39.199C203.794 39.199 203.93 39.2275 204.056 39.2827C204.182 39.3379 204.295 39.4186 204.388 39.5197C205.208 40.6321 206.906 42.974 209.775 47.7164C212.144 51.3965 214.107 55.3227 215.63 59.426C215.747 59.8075 215.747 60.2155 215.63 60.597L213.697 66.9787L196.484 45.2574C196.484 45.2574 198.007 43.7937 199.353 42.6228Z" fill="#C2D1D5"/>
<path d="M197.656 44.6721C193.159 45.3252 188.731 46.3833 184.424 47.8337C175.561 56.2346 168.265 66.1475 162.879 77.1077C154.916 92.4473 146.719 112.237 148.066 113.056C162.012 118.745 176.307 123.536 190.865 127.4C192.387 126.581 209.951 95.6674 212.118 91.9204C214.284 88.1733 213.874 71.8969 213.054 66.452C212.235 61.007 197.656 44.6721 197.656 44.6721Z" fill="#C2D1D5"/>
<path d="M120.139 280.621C119.106 280.424 118.038 280.568 117.094 281.03C114.47 284.713 112.197 288.634 110.303 292.74C116.379 301.138 122.989 309.137 130.092 316.686C137.764 317.666 145.54 317.488 153.16 316.159C154.916 315.164 153.453 311.534 150.759 310.304C146.871 308.306 143.15 305.996 139.635 303.396C138.406 302.225 136.649 287.588 135.595 285.831C134.542 284.075 127.106 286.651 126.462 287.178C125.818 287.705 124.764 286.534 124.12 285.948C123.476 285.363 120.139 280.621 120.139 280.621Z" fill="#F37800"/>
<path d="M166.684 297.424C166.684 297.424 168.909 302.693 172.129 302.576C175.35 302.459 180.326 295.843 180.736 295.258C181.146 294.672 180.736 294.848 182.434 297.014C184.132 299.18 186.942 304.157 189.401 305.211C195.084 307.847 200.955 310.059 206.966 311.827C210.595 312.354 212.41 314.227 210.888 316.276C207.992 318.925 204.216 320.406 200.291 320.433C196.427 320.433 163.699 319.379 162.82 318.677C162.894 311.284 163.658 303.914 165.104 296.663C165.689 295.785 166.684 297.424 166.684 297.424Z" fill="#F37800"/>
<path d="M149.708 313.524H148.303H144.439H139.404C136.454 313.931 133.46 313.198 131.031 311.475C130.063 310.58 129.199 309.578 128.455 308.489L125.528 304.859C123.596 302.4 121.663 299.883 119.673 297.365C118.619 295.902 117.565 294.496 116.57 293.033C115.619 291.59 114.562 290.22 113.408 288.934C113.408 288.934 113.408 289.754 113.408 289.93C115.051 292.818 116.91 295.578 118.97 298.185C120.844 300.82 122.834 303.396 124.825 305.913L127.752 309.543C128.529 310.643 129.39 311.681 130.329 312.646C131.194 313.584 132.281 314.288 133.49 314.695C135.025 315.162 136.633 315.341 138.233 315.222H144.087H147.073H148.42C148.94 315.077 149.468 314.96 150.001 314.871V314.11L149.708 313.524Z" fill="#C31E21"/>
<path d="M126.816 289.344C128.024 292.764 129.635 296.027 131.617 299.063C132.554 300.527 133.549 301.991 134.603 303.396C135.657 304.801 137.121 306.792 137.999 305.094C138.102 304.916 138.156 304.714 138.156 304.508C138.156 304.303 138.102 304.101 137.999 303.923C137.531 303.337 136.828 303.337 136.243 302.927C135.661 302.411 135.149 301.821 134.72 301.171C133.725 299.883 132.73 298.595 131.852 297.19C130.063 294.48 128.441 291.664 126.992 288.759C126.992 288.349 126.992 289.227 126.992 289.344H126.816Z" fill="#C31E21"/>
<path d="M129.859 291.51C130.39 291.833 130.995 292.015 131.616 292.037C132.198 292.126 132.79 292.126 133.372 292.037C133.956 291.986 134.528 291.848 135.07 291.627C135.369 291.583 135.651 291.462 135.89 291.276C136.241 291.276 136.358 290.632 136.651 290.398C136.944 290.164 136.651 289.93 136.651 289.93C136.651 289.93 136.065 289.93 135.773 289.93C135.539 289.904 135.304 289.904 135.07 289.93C134.5 290.14 133.912 290.297 133.314 290.398H131.616H129.859C129.859 290.398 129.859 291.159 129.859 291.218V291.51Z" fill="#C31E21"/>
<path d="M132.436 296.136C132.809 296.4 133.225 296.598 133.665 296.721C134.073 296.78 134.487 296.78 134.895 296.721C135.303 296.775 135.716 296.775 136.124 296.721H136.651C136.875 296.492 137.036 296.21 137.119 295.902C137.172 295.824 137.201 295.732 137.201 295.638C137.201 295.544 137.172 295.452 137.119 295.375C137.055 295.317 136.972 295.285 136.885 295.285C136.799 295.285 136.715 295.317 136.651 295.375C136.477 295.341 136.298 295.341 136.124 295.375C135.752 295.545 135.358 295.663 134.953 295.726H133.782C133.373 295.755 132.962 295.755 132.553 295.726C132.553 295.726 132.553 296.37 132.553 296.487L132.436 296.136Z" fill="#C31E21"/>
<path d="M135.01 300.878C135.516 301.254 136.137 301.44 136.766 301.405C137.036 301.465 137.316 301.465 137.586 301.405C137.763 301.309 137.918 301.175 138.039 301.013C138.161 300.852 138.246 300.666 138.288 300.468C138.356 300.364 138.393 300.242 138.393 300.117C138.393 299.992 138.356 299.87 138.288 299.766H137.879H137.469H136.708C136.187 299.911 135.66 300.028 135.127 300.117C135.127 300.117 135.127 300.468 135.127 300.585C135.073 300.757 135.073 300.941 135.127 301.112L135.01 300.878Z" fill="#C31E21"/>
<path d="M109.423 304.45C93.9684 304.899 78.9205 299.457 67.3272 289.227C60.0157 282.622 54.377 274.375 50.8752 265.164C50.6815 264.364 50.796 263.52 51.196 262.8C51.5959 262.081 52.252 261.538 53.0339 261.279C53.8158 261.021 54.6662 261.067 55.4161 261.407C56.1659 261.747 56.7604 262.357 57.0813 263.115C60.3201 271.309 65.4097 278.643 71.9525 284.544C86.2968 297.483 105.559 301.23 129.095 295.668C167.444 286.885 176.695 251.757 185.594 217.857C189.927 201.405 194.025 185.832 201.461 174.532C211.941 158.49 225.524 148.946 240.688 146.897C248.799 146.107 256.985 147.08 264.685 149.747C272.385 152.415 279.418 156.715 285.301 162.354C290.247 166.519 294.958 170.956 299.412 175.644C300.023 176.259 300.366 177.09 300.366 177.957C300.366 178.824 300.023 179.655 299.412 180.27C299.116 180.578 298.762 180.823 298.37 180.99C297.977 181.158 297.555 181.244 297.128 181.244C296.701 181.244 296.279 181.158 295.887 180.99C295.494 180.823 295.14 180.578 294.845 180.27C290.466 175.738 285.854 171.439 281.027 167.389C275.818 162.378 269.595 158.541 262.778 156.137C255.961 153.733 248.708 152.819 241.508 153.455C234.278 154.817 227.433 157.739 221.447 162.016C215.461 166.293 210.479 171.823 206.847 178.22C199.997 188.642 196.016 203.747 191.859 219.672C182.842 253.689 172.714 292.272 130.559 302.166C123.624 303.732 116.533 304.498 109.423 304.45Z" fill="#2D2B2B"/>
<path d="M223.946 109.602C223.266 111.804 223.174 114.145 223.677 116.394C224.18 118.643 225.262 120.722 226.815 122.424C237.645 132.177 249.301 140.973 261.651 148.712C263.7 149.649 263.7 153.923 263.817 154.86C263.934 155.796 261.475 158.958 261.944 160.012C262.128 160.428 262.394 160.804 262.725 161.116C263.057 161.427 263.449 161.669 263.876 161.827C263.653 162.187 263.535 162.603 263.535 163.027C263.535 163.451 263.653 163.867 263.876 164.227C264.813 165.457 266.101 165.047 267.155 165.34C268.208 165.632 269.379 166.569 270.668 166.101C271.956 165.632 273.653 166.101 274.942 164.988C276.334 162.775 277.103 160.226 277.166 157.611C276.689 154.853 275.61 152.234 274.005 149.942C272.717 149.005 258.607 132.846 248.829 122.248C239.052 111.651 236.593 108.782 230.738 108.138C224.883 107.494 223.946 109.602 223.946 109.602Z" fill="#FFAE83"/>
<path d="M204.506 91.6273C208.404 99.1519 212.704 106.461 217.387 113.524C222.12 118.908 227.164 124.01 232.492 128.805L244.963 117.096C240.088 112.942 235.619 108.335 231.614 103.337C228.921 98.8872 219.612 68.2081 213.698 65.1636C212.043 64.5954 210.285 64.3873 208.543 64.5531C206.8 64.7189 205.113 65.2548 203.595 66.125C202.076 66.9951 200.761 68.1795 199.737 69.5989C198.712 71.0184 198.003 72.6401 197.656 74.3556C198.478 80.5904 200.831 86.5245 204.506 91.6273Z" fill="#C2D1D5"/>
<path d="M289.869 175.117L298.827 190.925V194.379H316.743V191.627L298.534 174.59L289.869 175.117Z" fill="#2D2B2B"/>
<path d="M35.9475 231.089C35.8293 231.114 35.7068 231.107 35.5917 231.071C35.4766 231.034 35.3729 230.969 35.2905 230.881C35.2081 230.792 35.1499 230.684 35.1214 230.567C35.0929 230.45 35.0951 230.327 35.1279 230.211C35.4792 228.981 37.2356 222.717 39.1091 221.429C44.7416 220.2 50.5727 220.2 56.2052 221.429C58.0582 223.981 59.4093 226.862 60.1864 229.918C60.2229 230.006 60.2394 230.101 60.2348 230.196C60.2302 230.291 60.2046 230.384 60.1598 230.468C60.115 230.552 60.0521 230.625 59.9758 230.682C59.8994 230.738 59.8114 230.778 59.718 230.796C59.547 230.854 59.3604 230.843 59.1969 230.767C59.0334 230.691 58.9056 230.554 58.8398 230.386C58.2049 227.584 57.096 224.911 55.5611 222.482C50.4292 221.575 45.1778 221.575 40.0459 222.482C38.3703 224.899 37.1958 227.626 36.5916 230.504C36.5769 230.664 36.5027 230.813 36.3834 230.922C36.2642 231.03 36.1087 231.09 35.9475 231.089Z" fill="#2D2B2B"/>
<path d="M35.9472 235.48C38.16 236.145 40.4362 236.576 42.7388 236.768C45.1588 237.08 47.5592 237.256 49.9402 237.295C54.7718 237.467 59.6093 237.232 64.4016 236.592L68.3828 236.007C69.6876 235.964 70.9506 235.536 72.0128 234.777C72.0128 234.777 72.0128 234.25 72.0128 234.133C71.5406 233.958 71.0213 233.958 70.5491 234.133L68.7341 234.543L65.3969 235.07C62.9964 235.421 60.6545 235.714 58.254 235.831C53.4194 236.153 48.5687 236.153 43.7341 235.831C41.158 235.831 38.5233 235.363 35.8887 235.304L35.9472 235.48Z" fill="#C2D1D5"/>
<path d="M29.277 234.192C27.7742 233.905 26.2887 233.533 24.8274 233.08C24.3465 232.893 23.8773 232.678 23.4222 232.436C22.8042 231.97 22.1111 231.614 21.373 231.382C21.373 231.382 21.373 231.909 21.373 231.967C22.4443 233.128 23.7947 233.994 25.2958 234.485C26.7432 234.997 28.2685 235.255 29.804 235.246C29.804 235.246 29.804 234.485 29.804 234.426L29.277 234.192Z" fill="#C2D1D5"/>
<path d="M18.6172 244.613C20.0005 246.147 21.7852 247.262 23.7694 247.834C24.6896 248.161 25.628 248.434 26.5797 248.653L28.102 249.005C28.5742 249.179 29.0934 249.179 29.5657 249.005C29.5657 249.005 29.5657 248.595 29.5657 248.536C28.7285 248.035 27.7866 247.734 26.8139 247.658C25.7944 247.482 24.7944 247.207 23.828 246.838C22.91 246.544 22.0267 246.152 21.1933 245.667C20.4079 245.124 19.5863 244.635 18.7343 244.204C18.7343 244.204 18.7343 244.613 18.7343 244.731L18.6172 244.613Z" fill="#C2D1D5"/>
<path d="M34.4258 248.829C37.1459 249.375 39.9077 249.689 42.6811 249.766C45.4328 249.766 48.1846 250.059 50.9949 250.117C56.4707 250.274 61.9506 250.02 67.3883 249.356L71.7794 248.595L73.77 248.185C74.4696 248.009 75.14 247.733 75.7607 247.365V246.721C75.1785 246.633 74.5864 246.633 74.0042 246.721L72.0722 247.131C70.8426 247.131 69.5546 247.658 68.3251 247.834C65.6319 248.244 62.9972 248.478 60.304 248.653C54.7857 248.975 49.2532 248.975 43.7349 248.653C40.6319 248.653 37.5288 248.185 34.4258 248.302C34.4258 248.302 34.4258 248.653 34.4258 248.712V248.829Z" fill="#C2D1D5"/>
<path d="M51.9317 240.047C51.6701 240.276 51.4731 240.569 51.3601 240.898C51.2471 241.227 51.2221 241.579 51.2877 241.92C51.2745 242.301 51.3591 242.678 51.5334 243.016C51.7076 243.355 51.9657 243.642 52.283 243.852C52.5675 243.984 52.8771 244.052 53.1905 244.052C53.5038 244.052 53.8135 243.984 54.098 243.852C54.4041 243.7 54.6697 243.477 54.8733 243.203C55.0768 242.928 55.2124 242.609 55.2689 242.272C55.3862 241.771 55.3862 241.25 55.2689 240.749C55.2923 240.555 55.2923 240.358 55.2689 240.164C55.2689 240.164 55.2689 240.164 54.8591 240.164C54.8283 240.217 54.812 240.278 54.812 240.34C54.812 240.401 54.8283 240.462 54.8591 240.515V240.984H54.5078C54.0356 241.158 53.5164 241.158 53.0441 240.984L52.4586 240.574C52.4333 240.438 52.4333 240.299 52.4586 240.164C52.4284 240.029 52.4284 239.889 52.4586 239.754C52.4895 239.701 52.5057 239.64 52.5057 239.578C52.5057 239.517 52.4895 239.456 52.4586 239.403L51.9317 240.047Z" fill="#C2D1D5"/>
<path d="M31.3821 285.188C32.8445 285.275 34.3108 285.275 35.7732 285.188H48.8294H66.0425H70.8434C72.53 285.306 74.2248 285.188 75.8785 284.836C75.8785 284.836 75.8785 284.134 75.8785 284.075C74.4382 283.755 72.9604 283.637 71.4874 283.724H67.0378H58.4312L40.9839 284.017H36.4172C34.7408 283.9 33.0584 283.9 31.3821 284.017C31.0893 284.017 31.3821 284.895 31.3821 284.953V285.188Z" fill="#C2D1D5"/>
<path d="M18.0918 278.923C19.7486 280.463 21.5986 281.782 23.5953 282.845L26.5813 284.251L28.1621 284.895C28.379 285.007 28.62 285.066 28.8646 285.066C29.1092 285.066 29.3502 285.007 29.5672 284.895C29.5672 284.895 29.5672 284.309 29.5672 284.192C29.5672 284.075 27.6937 283.021 26.6984 282.611C25.6951 282.202 24.7175 281.733 23.771 281.206C21.8389 280.269 20.0824 279.04 18.2089 278.044C18.2089 278.044 18.2089 278.747 18.2089 278.864L18.0918 278.923Z" fill="#C2D1D5"/>
<path d="M31.5559 249.649C31.5559 258.138 30.7947 266.569 30.5605 275C30.5605 277.342 30.5605 279.743 30.5605 282.084C30.5605 282.084 30.5605 283.08 31.0289 283.08C31.4973 283.08 31.4388 282.319 31.4388 282.084C31.4388 273.654 31.9657 265.223 32.0828 256.733C32.0828 254.391 32.0828 252.049 32.0828 249.649C32.0828 249.122 31.7315 249.122 31.7315 249.649H31.5559Z" fill="#C2D1D5"/>
<path d="M33.9605 235.07C33.1409 234.661 32.087 235.363 31.6771 236.066C31.2104 237.112 31.0286 238.263 31.1502 239.403C31.1502 240.808 31.1502 242.213 31.1502 243.618C31.0046 244.961 31.0046 246.316 31.1502 247.658C31.1502 248.127 31.5015 247.658 31.5601 247.658C31.6186 246.527 31.6186 245.394 31.5601 244.262V240.808C31.4118 239.74 31.4118 238.656 31.5601 237.588C31.7187 237.144 32.0299 236.77 32.4383 236.534C32.8541 236.343 33.2849 236.186 33.7263 236.066C33.7263 236.066 33.7263 235.246 33.7263 235.187L33.9605 235.07Z" fill="#C2D1D5"/>
<path d="M227.167 56.9668C226.899 56.8161 226.66 56.6177 226.464 56.3813C226.022 55.7812 225.648 55.1331 225.352 54.4492C225.352 55.6202 225.352 56.9082 225.352 57.7279L227.167 56.9668Z" fill="#F99B7A"/>
<path d="M231.382 55.1521C230.914 55.7376 229.158 55.1521 229.158 55.1521C228.678 54.6317 228.228 54.0844 227.811 53.5128C226.97 52.4616 226.316 51.2732 225.879 49.9999C225.879 49.1802 225.879 48.946 225.879 49.5315C226.286 50.2988 226.843 50.9759 227.518 51.5222C228.246 52.2104 229.029 52.8371 229.86 53.3957C230.797 54.2154 231.265 54.6252 231.382 55.1521Z" fill="#F99B7A"/>
<path d="M218.269 23.4191C218.869 23.1801 219.537 23.1805 220.137 23.4202C220.736 23.6599 221.22 24.1206 221.49 24.7072C222.017 25.761 220.963 26.8734 219.967 27.2247C218.972 27.576 219.616 28.5713 219.967 28.5713C220.319 28.5713 220.553 28.1615 220.611 27.8102C220.773 27.3759 220.773 26.8979 220.611 26.4636C220.363 26.216 220.049 26.0456 219.706 25.9729C219.363 25.9001 219.007 25.9282 218.679 26.0538C218.35 26.1718 218.057 26.3747 217.831 26.642C217.605 26.9092 217.453 27.2314 217.391 27.576C217.304 28.001 217.304 28.4391 217.391 28.8641C217.391 28.8641 217.391 29.9179 217.86 29.9765C218.328 30.035 217.86 29.1568 217.86 29.0983C217.86 29.0983 217.86 29.0983 217.86 28.8055C217.885 28.6158 217.965 28.4375 218.09 28.2922C218.215 28.1468 218.379 28.0404 218.562 27.9859C218.923 27.8653 219.314 27.8653 219.675 27.9859H220.26C220.26 27.4004 220.26 27.2247 220.26 27.4004V28.6884C221.096 28.3716 221.776 27.7433 222.158 26.9353C222.54 26.1274 222.595 25.2029 222.309 24.3559C222.204 23.9372 222.008 23.5469 221.735 23.2129C221.462 22.8789 221.118 22.6094 220.728 22.4238C220.36 22.3626 219.984 22.3626 219.616 22.4238C219.195 22.4645 218.802 22.6509 218.504 22.9507C218.504 22.9507 218.504 23.8289 218.504 23.7118L218.269 23.4191Z" fill="#DC7C50"/>
<path d="M220.142 57.4942C219.964 57.234 219.807 56.9599 219.673 56.6745L219.029 55.7377C218.502 54.9766 218.092 54.1569 217.624 53.3958C216.629 51.6979 215.692 50 214.755 48.2436L213.35 45.6089L212.648 44.2623C212.202 43.5899 212.014 42.7787 212.121 41.9789C212.255 41.6372 212.411 41.3047 212.589 40.9836C213.039 40.053 213.43 39.0948 213.76 38.1148C213.76 37.7049 213.76 38.1148 213.76 38.1148C213.202 38.8798 212.731 39.7045 212.355 40.5738C211.867 41.2886 211.565 42.1136 211.477 42.9743C211.584 43.9123 211.905 44.8134 212.413 45.6089L213.818 48.4778C214.755 50.2927 215.751 52.0492 216.746 53.8056C217.321 54.8438 217.967 55.8414 218.678 56.7916L219.732 57.904L220.259 58.4895V58.7822C220.24 58.6463 220.24 58.5083 220.259 58.3724L220.142 57.4942Z" fill="#DC7C50"/>
<path d="M232.672 37.1196C233.947 37.6496 235.18 38.2759 236.36 38.9931C236.874 39.3709 237.363 39.7816 237.824 40.2226L238.527 40.9252C238.641 40.9577 238.763 40.9577 238.878 40.9252C238.878 40.9252 238.878 40.5739 238.878 40.4568C238.937 40.2661 238.937 40.0621 238.878 39.8713C238.878 39.2273 238.878 39.8713 238.878 39.4615C238.91 39.248 238.91 39.0309 238.878 38.8175C238.689 38.5417 238.451 38.3035 238.175 38.1149C237.718 37.6271 237.158 37.2471 236.536 37.0025C235.954 36.7271 235.346 36.5114 234.721 36.3584C234.026 36.2132 233.308 36.2132 232.613 36.3584L232.672 37.1196Z" fill="#5F2929"/>
<path d="M240.338 40.457V40.984V40.6912C240.369 40.7918 240.408 40.8897 240.455 40.984C240.455 40.984 240.455 40.5156 240.455 40.5741L240.338 40.457Z" fill="#5F2929"/>
<path d="M232.438 39.9294H232.964H233.433L234.487 40.3393C235.089 40.6208 235.642 40.9963 236.126 41.4517L236.536 41.9201V42.5641V43.9107C236.505 44.1634 236.505 44.4191 236.536 44.6718C236.536 44.6718 236.536 45.0816 236.536 45.1402C236.536 45.1987 236.887 44.3205 236.887 44.2034C237.15 43.1402 237.109 42.0246 236.77 40.9833C236.188 40.2095 235.363 39.6529 234.428 39.4025H233.433H232.964C232.814 39.3437 232.647 39.3437 232.496 39.4025C232.496 39.4025 232.496 40.0465 232.496 40.1051L232.438 39.9294Z" fill="#232323"/>
<path d="M236.243 43.9109C236.945 43.2669 237.18 42.3887 236.711 41.8618C236.431 41.6067 236.066 41.4653 235.687 41.4653C235.308 41.4653 234.942 41.6067 234.662 41.8618C234.346 42.0865 234.124 42.4194 234.038 42.7972C233.951 43.175 234.007 43.5713 234.194 43.9109C234.474 44.166 234.839 44.3074 235.218 44.3074C235.597 44.3074 235.962 44.166 236.243 43.9109Z" fill="#232323"/>
<path d="M264.695 77.8684H268.267H272.658H268.501H264.754H261.768H259.543V78.1611C259.543 78.1611 262.939 77.9855 264.695 77.8684Z" fill="#DC7C50"/>
<path d="M259.777 76.1123C260.497 76.1999 261.224 76.1999 261.944 76.1123H264.168H266.335C267.006 76.2911 267.713 76.2911 268.384 76.1123C267.712 75.9362 267.006 75.9362 266.335 76.1123H264.168H261.944C261.223 76.0549 260.498 76.0549 259.777 76.1123Z" fill="#DC7C50"/>
<path d="M258.43 74.7073H260.362C261.003 74.7151 261.64 74.5957 262.235 74.3561C261.616 74.2374 260.981 74.2374 260.362 74.3561H259.366H258.43V74.7073Z" fill="#DC7C50"/>
<path d="M263.992 158.08C265.527 159.818 267.426 161.197 269.554 162.119C270.525 162.573 271.547 162.907 272.599 163.115H274.297C274.554 163.231 274.834 163.291 275.116 163.291C275.399 163.291 275.678 163.231 275.936 163.115C275.963 163.05 275.977 162.98 275.977 162.91C275.977 162.839 275.963 162.77 275.936 162.705C275.511 162.401 274.993 162.256 274.472 162.295H272.833C271.692 162.094 270.574 161.78 269.496 161.358C267.512 160.615 265.655 159.568 263.992 158.255V158.08Z" fill="#DC7C50"/>
<path d="M262.818 161.534C263.27 161.901 263.82 162.125 264.399 162.178C264.948 162.209 265.495 162.087 265.98 161.827C265.98 161.827 266.507 161.475 266.565 161.124C266.591 160.969 266.591 160.811 266.565 160.656H266.156H265.336C264.696 160.735 264.047 160.633 263.462 160.363C263.462 160.363 263.462 160.773 263.462 160.89L262.818 161.534Z" fill="#DC7C50"/>
<path d="M264.871 165.164C265.796 165.51 266.815 165.51 267.74 165.164C268.213 165.03 268.666 164.833 269.087 164.578C269.337 164.471 269.561 164.311 269.743 164.109C269.925 163.907 270.06 163.667 270.14 163.407C270.14 163.407 270.14 162.998 270.14 162.939C270.14 162.881 269.789 162.939 269.672 162.939L269.321 163.934C268.901 164.206 268.449 164.422 267.974 164.578C267.072 164.801 266.15 164.938 265.222 164.988C265.222 164.988 265.222 165.398 265.222 165.457L264.871 165.164Z" fill="#DC7C50"/>
<path d="M270.023 166.276C270.314 166.329 270.611 166.329 270.902 166.276H271.78C272.363 166.07 272.9 165.752 273.361 165.34C273.658 165.13 273.867 164.817 273.946 164.461C273.946 164.461 273.946 164.11 273.946 163.993C273.946 163.876 273.946 163.993 273.536 163.993L272.892 164.637L272.073 165.105L271.077 165.515H270.55H270.023V165.866V166.276Z" fill="#DC7C50"/>
<path d="M197.775 44.3795C199.181 45.3749 200.644 46.2531 201.991 47.3655C203.332 48.4137 204.567 49.5903 205.679 50.8784C208.053 53.5878 210.025 56.6243 211.534 59.8948C212.003 60.773 212.412 61.7098 212.822 62.6465C213.232 63.5833 213.232 63.5833 213.408 64.1102C213.525 64.5765 213.768 65.0017 214.11 65.3397C214.52 65.691 214.696 64.5786 214.637 64.403C214.495 63.3807 214.178 62.3906 213.7 61.4756C213.349 60.5973 212.939 59.7777 212.529 58.8995C211.705 57.1529 210.787 55.4525 209.778 53.8058C207.94 50.7804 205.581 48.1044 202.81 45.9018C201.394 44.6723 199.71 43.7903 197.892 43.3257C197.541 43.3257 197.892 44.2039 197.892 44.3795H197.775Z" fill="#005C5F"/>
<path d="M210.774 65.1635C209.302 64.6057 207.678 64.6057 206.207 65.1635C204.768 65.5595 203.431 66.2582 202.284 67.2127C200.049 69.1592 198.576 71.8353 198.127 74.7654C197.015 81.8497 201.465 88.1728 204.86 94.0276L207.963 99.4141L209.603 102.166C209.895 102.751 210.481 104.098 211.301 103.981C212.12 103.864 211.301 103.63 211.301 103.454C210.943 101.684 210.182 100.021 209.076 98.5944C208.256 97.1307 207.378 95.667 206.5 94.2033C204.86 91.3344 203.104 88.3485 201.523 85.5382C200.099 82.9827 199.259 80.1433 199.064 77.2244C199.072 74.4899 200.143 71.8656 202.05 69.9059C203.165 68.7702 204.5 67.8737 205.973 67.2712C206.774 66.9755 207.596 66.7407 208.432 66.5686C209.221 66.4851 210.003 66.3482 210.774 66.1588C210.774 66.1588 210.774 65.2806 210.774 65.1635Z" fill="#005C5F"/>
<path d="M183.899 49.2977C185.305 50.4686 186.944 51.3468 188.349 52.4007C189.803 53.4852 191.156 54.7002 192.389 56.0307C193.558 57.3392 194.634 58.7282 195.609 60.1876C196.077 60.8902 196.487 61.6513 196.897 62.4124C197.307 63.1735 197.483 64.0517 198.127 64.2859C198.771 64.5201 198.127 63.9347 198.127 63.8176C197.837 61.8923 197.05 60.076 195.843 58.5482C194.865 57.0234 193.748 55.5926 192.506 54.2742C191.265 52.9642 189.892 51.7869 188.408 50.7614C187.042 49.6049 185.414 48.8008 183.665 48.4194C183.373 48.4194 183.665 49.1806 183.665 49.2977H183.899Z" fill="#005C5F"/>
<path d="M232.495 128.805L229.568 127.107C229.411 127 229.282 126.856 229.194 126.687C229.105 126.519 229.059 126.332 229.059 126.141C229.059 125.951 229.105 125.764 229.194 125.595C229.282 125.427 229.411 125.283 229.568 125.175L241.629 114.227C241.764 114.107 241.925 114.018 242.099 113.967C242.272 113.916 242.455 113.904 242.634 113.932C242.813 113.96 242.984 114.027 243.134 114.129C243.284 114.23 243.41 114.364 243.502 114.519L245.142 117.388L232.495 128.805Z" fill="#005C5F"/>
<path d="M156.794 118.326C154.015 120.848 151.989 124.09 150.94 127.693C149.597 131.093 148.844 134.696 148.715 138.349C148.715 139.754 148.715 141.101 148.715 142.447C148.715 143.794 148.715 145.199 148.715 146.546C148.715 149.59 149.066 152.401 149.417 155.738C150.179 162.881 151.291 169.965 152.52 176.991C153.75 184.017 155.331 192.096 156.912 199.59C158.492 207.084 159.839 213.349 161.595 220.141C161.595 220.902 162.005 221.546 162.239 222.248C162.474 222.951 162.239 222.248 162.708 222.248C162.82 221.946 162.82 221.614 162.708 221.312C162.298 218.091 161.361 214.93 160.659 211.768C159.956 208.607 159.078 204.86 158.317 201.405C156.736 194.145 155.272 186.885 153.926 179.567C152.579 172.248 151.467 165.457 150.588 158.373C150.237 155.328 149.886 152.225 149.71 149.18C149.535 146.136 149.71 143.677 149.359 140.925C149.359 139.696 149.359 138.408 149.359 137.12C149.475 135.377 149.77 133.65 150.237 131.967C151.231 128.164 152.833 124.546 154.979 121.253C155.506 120.492 156.033 119.789 156.619 119.087C157.204 118.384 156.619 118.033 156.619 118.209L156.794 118.326Z" fill="#005C5F"/>
<path d="M122.191 272.131C123.281 273.524 124.609 274.714 126.114 275.644C127.572 276.578 129.099 277.4 130.681 278.103C132.255 278.732 133.881 279.222 135.54 279.567L137.999 279.977C138.891 280.121 139.801 280.121 140.693 279.977C140.693 279.977 140.693 279.098 140.693 279.04C139.905 278.728 139.077 278.531 138.234 278.454L135.716 278.045C134.065 277.694 132.44 277.224 130.857 276.639C129.336 276.016 127.868 275.272 126.465 274.415C125.002 273.595 123.772 272.424 122.308 271.663C122.308 271.663 122.308 272.307 122.308 272.424L122.191 272.131Z" fill="#F37800"/>
<path d="M162.002 289.52C165.061 290.847 168.396 291.409 171.721 291.159C173.37 291.028 175 290.714 176.58 290.222L178.864 289.461L179.918 288.934L180.445 288.642C180.737 288.642 180.796 288.232 180.972 287.939C181.147 287.646 180.972 287.295 180.972 287.236C180.972 287.178 180.972 287.236 180.445 287.236H180.035L178.805 287.763L176.463 288.525C174.92 288.991 173.329 289.286 171.721 289.403C168.528 289.677 165.313 289.479 162.178 288.817C162.178 288.817 162.178 289.461 162.178 289.52H162.002Z" fill="#F37800"/>
<path d="M186.18 128.454C186.613 132.414 186.132 136.419 184.775 140.164C183.453 143.697 181.233 146.824 178.335 149.239C177.567 149.946 176.745 150.593 175.876 151.171L174.646 152.049C174.061 152.4 173.651 152.576 173.417 153.22C173.318 153.378 173.266 153.561 173.266 153.747C173.266 153.933 173.318 154.116 173.417 154.274C173.826 154.684 174.178 154.274 174.588 154.274L175.817 153.454L178.217 151.581C180.673 149.578 182.697 147.098 184.167 144.29C185.636 141.482 186.52 138.405 186.765 135.246C187.019 132.817 186.86 130.362 186.297 127.986C186.297 127.459 185.946 127.986 186.004 128.337L186.18 128.454Z" fill="#005C5F"/>
<path d="M164.283 315.047C167.264 315.595 170.275 315.966 173.3 316.159L182.257 316.628L191.098 317.096C194.026 317.096 196.953 317.506 199.939 317.096C202.925 316.686 205.794 316.218 206.906 313.525C206.906 313.525 206.906 312.412 206.906 312.471C206.906 312.529 206.204 312.881 205.794 313.115C205.321 313.463 204.81 313.758 204.271 313.993C203.109 314.518 201.857 314.816 200.583 314.871C197.698 315.076 194.803 315.076 191.918 314.871L174.353 314.403C171.02 314.169 167.675 314.169 164.342 314.403V315.105L164.283 315.047Z" fill="#C31E21"/>
<path d="M179.859 302.693C181.437 305.087 183.539 307.089 186.007 308.548C188.28 310.045 190.796 311.135 193.443 311.768C194.123 311.854 194.811 311.854 195.492 311.768C196.136 311.768 197.014 311.768 197.307 310.89C197.599 310.012 197.307 309.777 197.307 309.543H196.428H195.199C192.427 309.269 189.749 308.39 187.354 306.967C186.063 306.255 184.812 305.474 183.606 304.625C182.5 303.664 181.326 302.783 180.094 301.99C180.094 301.99 180.094 302.576 180.094 302.693H179.859Z" fill="#C31E21"/>
<path d="M183.197 303.747H184.134H185.012L185.832 303.396H186.242V303.103C186.242 303.103 186.242 303.103 186.242 302.81H185.89L185.129 303.162H184.31C184.31 303.162 183.958 303.162 183.841 303.162H183.431C183.431 303.162 183.431 303.513 183.431 303.689C183.431 303.864 183.431 304.157 183.431 304.215L183.197 303.747Z" fill="#C31E21"/>
<path d="M186.885 305.796C187.068 305.952 187.291 306.053 187.529 306.089H187.88L188.524 305.796C188.79 305.552 188.957 305.219 188.992 304.859C189.022 304.685 189.022 304.507 188.992 304.333L188.466 304.684H187.88C187.88 304.684 187.88 304.684 187.88 304.977C187.88 305.269 187.88 304.977 187.88 305.328L186.885 305.796Z" fill="#C31E21"/>
<path d="M190.457 307.845C190.683 308.003 190.944 308.104 191.218 308.138C191.449 308.195 191.69 308.195 191.921 308.138C192.056 308.13 192.187 308.095 192.308 308.035C192.429 307.974 192.536 307.89 192.623 307.787C192.899 307.543 193.085 307.213 193.15 306.85C193.204 306.678 193.204 306.495 193.15 306.323H192.74H192.155H191.452H190.75C190.75 306.323 190.75 306.674 190.75 306.791L190.457 307.845Z" fill="#C31E21"/>
<path d="M300.467 191.686C302.867 191.686 305.326 191.686 307.727 191.686C310.1 191.949 312.496 191.949 314.87 191.686C314.87 191.686 314.87 191.159 314.87 191.101C312.655 190.524 310.359 190.327 308.078 190.515C305.516 190.397 302.949 190.515 300.408 190.867V191.511L300.467 191.686Z" fill="white"/>
<path d="M231.967 22.1894C233.071 19.9928 234.558 18.0103 236.358 16.3346C237.318 15.495 238.357 14.7499 239.461 14.1098C240.029 13.8015 240.616 13.5278 241.217 13.2901L242.154 12.9388C242.324 12.9256 242.487 12.8633 242.622 12.7593C242.757 12.6553 242.859 12.5143 242.915 12.3533C243.015 12.2287 243.069 12.0738 243.069 11.9142C243.069 11.7546 243.015 11.5997 242.915 11.4751C242.505 11.4751 242.388 11.4751 241.978 11.4751L241.042 11.7093C240.395 11.9535 239.769 12.2472 239.168 12.5875C237.999 13.2738 236.918 14.0995 235.948 15.0465C233.861 16.9199 232.409 19.3956 231.791 22.1308C231.791 22.1308 231.791 22.7163 231.791 22.1308L231.967 22.1894Z" fill="#005C5F"/>
<path d="M243.855 11.0653V11.5337V11.7093C243.855 11.7093 243.855 11.7093 244.207 11.7093L244.851 12.1777C244.882 12.0729 244.936 11.9762 245.009 11.8941C245.081 11.812 245.17 11.7464 245.27 11.702C245.37 11.6575 245.479 11.6352 245.588 11.6364C245.698 11.6377 245.806 11.6626 245.905 11.7093C245.936 11.4566 245.936 11.201 245.905 10.9482L245.261 10.5969H244.851C244.851 10.5969 244.851 10.5969 244.851 10.8897C244.822 11.0445 244.822 11.2032 244.851 11.358L243.855 11.0653Z" fill="#005C5F"/>
<path d="M235.367 27.8692C237.651 29.0987 240.051 30.0354 242.334 31.265C243.505 31.8504 244.559 32.4945 245.672 33.1385L247.252 34.0753C247.762 34.4803 248.312 34.8333 248.892 35.1291C249.36 35.1291 249.302 34.0167 248.892 33.7825C247.964 32.9893 246.964 32.2838 245.906 31.6748C244.798 30.9897 243.644 30.3832 242.451 29.8598C240.216 28.6416 237.807 27.7728 235.309 27.2837C235.309 27.2837 235.309 27.8106 235.309 27.8692H235.367Z" fill="#005C5F"/>
<path d="M244.322 40.9833L245.961 41.6859L247.542 42.2714C248.533 42.6884 249.492 43.1776 250.411 43.7351C251.333 44.2521 252.214 44.8393 253.046 45.4915L254.334 46.5454C254.334 46.5454 255.036 47.4822 255.446 47.4822C255.856 47.4822 255.446 46.6625 255.446 46.4868C255.446 46.4868 255.446 46.4868 255.446 46.077C255.324 45.8907 255.187 45.7144 255.036 45.5501L253.69 44.4377C252.76 43.7267 251.782 43.0811 250.762 42.5056C249.792 41.9129 248.774 41.4037 247.718 40.9833L245.903 40.5735H244.146L244.322 40.9833Z" fill="#005C5F"/>
<path d="M271.957 192.038C277.812 194.907 284.896 192.682 291.336 193.15C292.265 193.196 293.187 193.333 294.088 193.56C295.025 193.56 295.903 194.145 296.84 194.321C296.162 193.956 295.431 193.699 294.674 193.56C293.887 193.342 293.084 193.186 292.273 193.092C290.655 192.974 289.031 192.974 287.414 193.092C284.135 193.092 280.798 193.443 277.519 193.092C275.62 192.962 273.748 192.567 271.957 191.921V192.038Z" fill="#1E3D33"/>
<path d="M303.28 199.063C301.129 201.351 298.541 203.182 295.668 204.45C292.507 205.445 289.228 203.806 286.066 204.918C286.066 204.918 286.066 205.621 286.066 205.562C287.718 205.075 289.452 204.936 291.16 205.152C292.749 205.258 294.343 205.039 295.844 204.508C298.684 203.248 301.22 201.391 303.28 199.063Z" fill="#1E3D33"/>
<path d="M319.848 191.042C323.308 191.291 326.761 190.473 329.742 188.7C331.389 187.976 333.093 187.388 334.836 186.944C335.653 186.857 336.478 186.857 337.295 186.944H338.524C338.934 186.944 339.52 187.295 339.93 186.944V186.651C339.403 186.124 338.232 186.124 337.471 186.065C336.672 186.005 335.869 186.005 335.07 186.065C333.389 186.466 331.759 187.055 330.211 187.822C327.106 189.753 323.503 190.73 319.848 190.632V191.042Z" fill="#1E3D33"/>
<path d="M320.607 195.726C324.756 196.912 329.203 196.45 333.02 194.438C335.107 193.613 337.333 193.195 339.577 193.208C341.836 193.538 344.018 194.272 346.017 195.375C348.166 196.595 350.699 196.951 353.102 196.37V195.784C348.769 197.248 344.963 193.677 340.806 192.974C336.327 193.059 331.908 194.034 327.809 195.843C325.468 196.599 322.948 196.599 320.607 195.843V195.726Z" fill="#1E3D33"/>
<path d="M314.113 199.883C315.836 199.789 317.553 200.152 319.09 200.937C320.608 201.497 322.176 201.908 323.774 202.166C325.369 202.342 326.979 202.342 328.575 202.166C329.422 202.16 330.266 202.062 331.092 201.873C331.872 201.795 332.64 201.618 333.376 201.346C333.376 201.346 333.376 200.937 333.376 200.995C333.376 201.054 331.736 201.405 330.917 201.581C330.146 201.759 329.363 201.877 328.575 201.932C326.94 202.107 325.291 202.107 323.657 201.932C321.979 201.635 320.333 201.184 318.739 200.585C317.318 199.844 315.697 199.577 314.113 199.824V199.883Z" fill="#1E3D33"/>
</svg>
