<svg width="48" height="48" viewBox="0 0 48 48" fill="none" xmlns="http://www.w3.org/2000/svg">
<path d="M36.5 11.25V3.75C36.5 3.35218 36.342 2.97064 36.0607 2.68934C35.7794 2.40804 35.3978 2.25 35 2.25H14C13.6022 2.25 13.2206 2.40804 12.9393 2.68934C12.658 2.97064 12.5 3.35218 12.5 3.75V11.25C12.5 11.6478 12.342 12.0294 12.0607 12.3107C11.7794 12.592 11.3978 12.75 11 12.75H8.75V45.75H17L20 44.25H29L32 45.75H40.25V12.75H38C37.6022 12.75 37.2206 12.592 36.9393 12.3107C36.658 12.0294 36.5 11.6478 36.5 11.25Z" fill="#F59E0B"/>
<path d="M20 14.25H29V17.25H20V14.25ZM20 20.25H29V23.25H20V20.25ZM17 14.25V17.25L11.75 19.5V16.5L17 14.25ZM17 20.25V23.25L11.75 25.5V22.5L17 20.25ZM20 26.25H29V29.25H20V26.25ZM20 32.25H29V35.25H20V32.25ZM17 26.25V29.25L11.75 31.5V28.5L17 26.25ZM17 32.25V35.25L11.75 37.5V34.5L17 32.25ZM20 38.25H29V41.25H20V38.25ZM17 38.25V41.25L11.75 43.5V40.5L17 38.25ZM32 14.25V17.25L37.25 19.5V16.5L32 14.25ZM32 20.25V23.25L37.25 25.5V22.5L32 20.25ZM32 26.25V29.25L37.25 31.5V28.5L32 26.25ZM32 32.25V35.25L37.25 37.5V34.5L32 32.25ZM32 38.25V41.25L37.25 43.5V40.5L32 38.25Z" fill="#D8B57B"/>
<path d="M14.75 4.5H23.75V6H14.75V4.5ZM14.75 7.5H23.75V9H14.75V7.5ZM14.75 10.5H23.75V12H14.75V10.5ZM25.25 4.5H34.25V6H25.25V4.5ZM25.25 7.5H34.25V9H25.25V7.5ZM25.25 10.5H34.25V12H25.25V10.5Z" fill="#7D8D9C"/>
<path d="M35 1.5H14C13.4033 1.5 12.831 1.73705 12.409 2.15901C11.9871 2.58097 11.75 3.15326 11.75 3.75V11.25C11.75 11.4489 11.671 11.6397 11.5303 11.7803C11.3897 11.921 11.1989 12 11 12H8.75C8.55109 12 8.36032 12.079 8.21967 12.2197C8.07902 12.3603 8 12.5511 8 12.75V45.75C8 45.9489 8.07902 46.1397 8.21967 46.2803C8.36032 46.421 8.55109 46.5 8.75 46.5H17C17.116 46.5013 17.2308 46.4756 17.3353 46.425L20.177 45H28.823L31.6648 46.425C31.7692 46.4756 31.884 46.5013 32 46.5H40.25C40.4489 46.5 40.6397 46.421 40.7803 46.2803C40.921 46.1397 41 45.9489 41 45.75V12.75C41 12.5511 40.921 12.3603 40.7803 12.2197C40.6397 12.079 40.4489 12 40.25 12H38C37.8011 12 37.6103 11.921 37.4697 11.7803C37.329 11.6397 37.25 11.4489 37.25 11.25V3.75C37.25 3.15326 37.0129 2.58097 36.591 2.15901C36.169 1.73705 35.5967 1.5 35 1.5ZM38 13.5H39.5V45H32.177L29.3352 43.575C29.2308 43.5244 29.116 43.4987 29 43.5H20C19.884 43.4987 19.7692 43.5244 19.6647 43.575L16.823 45H9.5V13.5H11C11.5967 13.5 12.169 13.2629 12.591 12.841C13.0129 12.419 13.25 11.8467 13.25 11.25V3.75C13.25 3.55109 13.329 3.36032 13.4697 3.21967C13.6103 3.07902 13.8011 3 14 3H35C35.1989 3 35.3897 3.07902 35.5303 3.21967C35.671 3.36032 35.75 3.55109 35.75 3.75V11.25C35.75 11.8467 35.9871 12.419 36.409 12.841C36.831 13.2629 37.4033 13.5 38 13.5Z" fill="#4D3B1B"/>
<path d="M29 13.5H20C19.8011 13.5 19.6103 13.579 19.4697 13.7197C19.329 13.8603 19.25 14.0511 19.25 14.25V17.25C19.25 17.4489 19.329 17.6397 19.4697 17.7803C19.6103 17.921 19.8011 18 20 18H29C29.1989 18 29.3897 17.921 29.5303 17.7803C29.671 17.6397 29.75 17.4489 29.75 17.25V14.25C29.75 14.0511 29.671 13.8603 29.5303 13.7197C29.3897 13.579 29.1989 13.5 29 13.5ZM28.25 16.5H20.75V15H28.25V16.5ZM29 19.5H20C19.8011 19.5 19.6103 19.579 19.4697 19.7197C19.329 19.8603 19.25 20.0511 19.25 20.25V23.25C19.25 23.4489 19.329 23.6397 19.4697 23.7803C19.6103 23.921 19.8011 24 20 24H29C29.1989 24 29.3897 23.921 29.5303 23.7803C29.671 23.6397 29.75 23.4489 29.75 23.25V20.25C29.75 20.0511 29.671 19.8603 29.5303 19.7197C29.3897 19.579 29.1989 19.5 29 19.5ZM28.25 22.5H20.75V21H28.25V22.5ZM17.4132 13.6237C17.3096 13.5554 17.1905 13.5138 17.0668 13.5028C16.9431 13.4919 16.8186 13.5117 16.7045 13.5607L11.4545 15.8107C11.3196 15.8686 11.2047 15.9647 11.1239 16.0872C11.0431 16.2097 11 16.3532 11 16.5V19.5C11 19.6989 11.079 19.8897 11.2197 20.0303C11.3603 20.171 11.5511 20.25 11.75 20.25C11.8516 20.2504 11.9522 20.2297 12.0455 20.1892L17.2955 17.9392C17.4304 17.8814 17.5453 17.7853 17.6261 17.6628C17.7069 17.5403 17.75 17.3968 17.75 17.25V14.25C17.7501 14.1259 17.7193 14.0037 17.6606 13.8944C17.6018 13.7851 17.5168 13.6921 17.4132 13.6237ZM16.25 16.7557L12.5 18.3622V16.9942L16.25 15.3877V16.7557ZM17.4132 19.6237C17.3096 19.5554 17.1905 19.5138 17.0668 19.5028C16.9431 19.4919 16.8186 19.5117 16.7045 19.5607L11.4545 21.8107C11.3196 21.8686 11.2047 21.9647 11.1239 22.0872C11.0431 22.2097 11 22.3532 11 22.5V25.5C11 25.6989 11.079 25.8897 11.2197 26.0303C11.3603 26.171 11.5511 26.25 11.75 26.25C11.8516 26.2504 11.9522 26.2297 12.0455 26.1892L17.2955 23.9392C17.4304 23.8814 17.5453 23.7853 17.6261 23.6628C17.7069 23.5403 17.75 23.3968 17.75 23.25V20.25C17.7501 20.1259 17.7193 20.0037 17.6606 19.8944C17.6018 19.7851 17.5168 19.6921 17.4132 19.6237ZM16.25 22.7557L12.5 24.3622V22.9942L16.25 21.3877V22.7557ZM29 25.5H20C19.8011 25.5 19.6103 25.579 19.4697 25.7197C19.329 25.8603 19.25 26.0511 19.25 26.25V29.25C19.25 29.4489 19.329 29.6397 19.4697 29.7803C19.6103 29.921 19.8011 30 20 30H29C29.1989 30 29.3897 29.921 29.5303 29.7803C29.671 29.6397 29.75 29.4489 29.75 29.25V26.25C29.75 26.0511 29.671 25.8603 29.5303 25.7197C29.3897 25.579 29.1989 25.5 29 25.5ZM28.25 28.5H20.75V27H28.25V28.5ZM29 31.5H20C19.8011 31.5 19.6103 31.579 19.4697 31.7197C19.329 31.8603 19.25 32.0511 19.25 32.25V35.25C19.25 35.4489 19.329 35.6397 19.4697 35.7803C19.6103 35.921 19.8011 36 20 36H29C29.1989 36 29.3897 35.921 29.5303 35.7803C29.671 35.6397 29.75 35.4489 29.75 35.25V32.25C29.75 32.0511 29.671 31.8603 29.5303 31.7197C29.3897 31.579 29.1989 31.5 29 31.5ZM28.25 34.5H20.75V33H28.25V34.5ZM17.4132 25.6238C17.3096 25.5554 17.1905 25.5138 17.0668 25.5028C16.9431 25.4919 16.8186 25.5117 16.7045 25.5608L11.4545 27.8108C11.3196 27.8686 11.2047 27.9647 11.1239 28.0872C11.0431 28.2097 11 28.3532 11 28.5V31.5C11 31.6989 11.079 31.8897 11.2197 32.0303C11.3603 32.171 11.5511 32.25 11.75 32.25C11.8516 32.2504 11.9522 32.2297 12.0455 32.1892L17.2955 29.9392C17.4304 29.8814 17.5453 29.7853 17.6261 29.6628C17.7069 29.5403 17.75 29.3968 17.75 29.25V26.25C17.7501 26.1259 17.7193 26.0037 17.6606 25.8944C17.6018 25.7851 17.5168 25.6921 17.4132 25.6238ZM16.25 28.7558L12.5 30.3623V28.9942L16.25 27.3877V28.7558ZM17.4132 31.6238C17.3096 31.5554 17.1905 31.5138 17.0668 31.5028C16.9431 31.4919 16.8186 31.5117 16.7045 31.5608L11.4545 33.8107C11.3196 33.8686 11.2047 33.9647 11.1239 34.0872C11.0431 34.2097 11 34.3532 11 34.5V37.5C11 37.6989 11.079 37.8897 11.2197 38.0303C11.3603 38.171 11.5511 38.25 11.75 38.25C11.8516 38.2504 11.9522 38.2297 12.0455 38.1892L17.2955 35.9392C17.4304 35.8814 17.5453 35.7853 17.6261 35.6628C17.7069 35.5403 17.75 35.3967 17.75 35.25V32.25C17.7501 32.1259 17.7193 32.0037 17.6606 31.8944C17.6018 31.7851 17.5168 31.6921 17.4132 31.6238ZM16.25 34.7557L12.5 36.3622V34.9942L16.25 33.3877V34.7557ZM29 37.5H20C19.8011 37.5 19.6103 37.579 19.4697 37.7197C19.329 37.8603 19.25 38.0511 19.25 38.25V41.25C19.25 41.4489 19.329 41.6397 19.4697 41.7803C19.6103 41.921 19.8011 42 20 42H29C29.1989 42 29.3897 41.921 29.5303 41.7803C29.671 41.6397 29.75 41.4489 29.75 41.25V38.25C29.75 38.0511 29.671 37.8603 29.5303 37.7197C29.3897 37.579 29.1989 37.5 29 37.5ZM28.25 40.5H20.75V39H28.25V40.5ZM17.4132 37.6237C17.3096 37.5554 17.1905 37.5138 17.0668 37.5028C16.9431 37.4919 16.8186 37.5117 16.7045 37.5607L11.4545 39.8107C11.3196 39.8686 11.2047 39.9647 11.1239 40.0872C11.0431 40.2097 11 40.3532 11 40.5V43.5C11 43.6989 11.079 43.8897 11.2197 44.0303C11.3603 44.171 11.5511 44.25 11.75 44.25C11.8516 44.2504 11.9522 44.2297 12.0455 44.1892L17.2955 41.9392C17.4304 41.8814 17.5453 41.7853 17.6261 41.6628C17.7069 41.5403 17.75 41.3968 17.75 41.25V38.25C17.7501 38.1259 17.7193 38.0037 17.6606 37.8944C17.6018 37.7851 17.5168 37.6921 17.4132 37.6237ZM16.25 40.7557L12.5 42.3622V40.9942L16.25 39.3877V40.7557ZM31.5868 13.6237C31.4832 13.6921 31.3982 13.7851 31.3394 13.8944C31.2807 14.0037 31.2499 14.1259 31.25 14.25V17.25C31.25 17.3968 31.2931 17.5403 31.3739 17.6628C31.4547 17.7853 31.5696 17.8814 31.7045 17.9392L36.9545 20.1892C37.0478 20.2297 37.1484 20.2504 37.25 20.25C37.4489 20.25 37.6397 20.171 37.7803 20.0303C37.921 19.8897 38 19.6989 38 19.5V16.5C38 16.3532 37.9569 16.2097 37.8761 16.0872C37.7953 15.9647 37.6804 15.8686 37.5455 15.8107L32.2955 13.5607C32.1815 13.5113 32.0569 13.4912 31.9331 13.5022C31.8093 13.5132 31.6903 13.555 31.5868 13.6237ZM32.75 15.3877L36.5 16.9942V18.3622L32.75 16.7557V15.3877ZM37.5455 21.8107L32.2955 19.5607C32.1814 19.5118 32.057 19.492 31.9334 19.503C31.8098 19.5141 31.6908 19.5556 31.5872 19.6239C31.4836 19.6922 31.3985 19.7852 31.3397 19.8945C31.2808 20.0037 31.25 20.1259 31.25 20.25V23.25C31.25 23.3968 31.2931 23.5403 31.3739 23.6628C31.4547 23.7853 31.5696 23.8814 31.7045 23.9392L36.9545 26.1892C37.0478 26.2297 37.1484 26.2504 37.25 26.25C37.4489 26.25 37.6397 26.171 37.7803 26.0303C37.921 25.8897 38 25.6989 38 25.5V22.5C38 22.3532 37.9569 22.2097 37.8761 22.0872C37.7953 21.9647 37.6804 21.8686 37.5455 21.8107ZM36.5 24.3622L32.75 22.7557V21.3877L36.5 22.9942V24.3622ZM37.5455 27.8108L32.2955 25.5608C32.1814 25.5119 32.057 25.492 31.9334 25.503C31.8098 25.5141 31.6908 25.5556 31.5872 25.6239C31.4836 25.6922 31.3985 25.7852 31.3397 25.8945C31.2808 26.0037 31.25 26.1259 31.25 26.25V29.25C31.25 29.3968 31.2931 29.5403 31.3739 29.6628C31.4547 29.7853 31.5696 29.8814 31.7045 29.9392L36.9545 32.1892C37.0478 32.2297 37.1484 32.2504 37.25 32.25C37.4489 32.25 37.6397 32.171 37.7803 32.0303C37.921 31.8897 38 31.6989 38 31.5V28.5C38 28.3532 37.9569 28.2097 37.8761 28.0872C37.7953 27.9647 37.6804 27.8686 37.5455 27.8108ZM36.5 30.3623L32.75 28.7558V27.3877L36.5 28.9942V30.3623ZM37.5455 33.8107L32.2955 31.5608C32.1815 31.5112 32.0569 31.491 31.9331 31.502C31.8093 31.513 31.6902 31.5549 31.5868 31.6238C31.4832 31.6921 31.3982 31.7851 31.3394 31.8944C31.2807 32.0037 31.2499 32.1259 31.25 32.25V35.25C31.25 35.3967 31.2931 35.5403 31.3739 35.6628C31.4547 35.7853 31.5696 35.8814 31.7045 35.9392L36.9545 38.1892C37.0478 38.2297 37.1484 38.2504 37.25 38.25C37.4489 38.25 37.6397 38.171 37.7803 38.0303C37.921 37.8897 38 37.6989 38 37.5V34.5C38 34.3532 37.9569 34.2097 37.8761 34.0872C37.7953 33.9647 37.6804 33.8686 37.5455 33.8107ZM36.5 36.3622L32.75 34.7557V33.3877L36.5 34.9942V36.3622ZM37.5455 39.8107L32.2955 37.5607C32.1814 37.5118 32.057 37.492 31.9334 37.503C31.8098 37.5141 31.6908 37.5556 31.5872 37.6239C31.4836 37.6922 31.3985 37.7852 31.3397 37.8945C31.2808 38.0037 31.25 38.1259 31.25 38.25V41.25C31.25 41.3968 31.2931 41.5403 31.3739 41.6628C31.4547 41.7853 31.5696 41.8814 31.7045 41.9392L36.9545 44.1892C37.0478 44.2297 37.1484 44.2504 37.25 44.25C37.4489 44.25 37.6397 44.171 37.7803 44.0303C37.921 43.8897 38 43.6989 38 43.5V40.5C38 40.3532 37.9569 40.2097 37.8761 40.0872C37.7953 39.9647 37.6804 39.8686 37.5455 39.8107ZM36.5 42.3622L32.75 40.7557V39.3877L36.5 40.9942V42.3622ZM14.75 4.5H23.75V6H14.75V4.5ZM14.75 7.5H23.75V9H14.75V7.5ZM14.75 10.5H23.75V12H14.75V10.5ZM25.25 4.5H34.25V6H25.25V4.5ZM25.25 7.5H34.25V9H25.25V7.5ZM25.25 10.5H34.25V12H25.25V10.5Z" fill="#4D3B1B"/>
</svg>
