<svg width="20" height="20" viewBox="0 0 20 20" fill="none" xmlns="http://www.w3.org/2000/svg">
<path d="M4.18262 4.68945C8.02206 4.29974 11.9136 4.3825 15.8291 4.7041L17.5088 4.85645C17.5716 4.86258 17.6251 4.92235 17.6182 4.99316L17.6172 5.00293C17.613 5.05789 17.5641 5.1084 17.499 5.1084H17.4502C13.31 4.69484 9.16241 4.52155 5.04102 4.86816L4.21484 4.94434L2.5166 5.10938C2.43702 5.11616 2.37868 5.06351 2.37207 4.99414C2.36485 4.91749 2.4154 4.86289 2.48145 4.85645L4.18164 4.68945H4.18262Z" fill="#F87171" stroke="#F87171"/>
<path d="M8.90918 1.5415H11.0928C11.9639 1.5415 12.3318 1.79306 12.5156 2.02393C12.7271 2.28963 12.7919 2.63655 12.8574 3.03857L12.8584 3.0415L13.042 4.12451V4.12549C13.0477 4.1589 13.0389 4.19209 13.0195 4.21924C13.0001 4.24635 12.9755 4.25964 12.9521 4.26318L12.9424 4.26514C12.909 4.27084 12.8758 4.26294 12.8486 4.24365C12.8213 4.2242 12.8072 4.19876 12.8037 4.17529L12.8027 4.1665L12.6191 3.0835C12.5918 2.91356 12.5643 2.73759 12.5225 2.58936C12.4787 2.43428 12.4047 2.25171 12.248 2.10107C12.0884 1.94774 11.8954 1.87747 11.7119 1.84229C11.5347 1.80832 11.3281 1.8003 11.1016 1.80029H8.91797C8.69419 1.80029 8.48944 1.80672 8.31543 1.8374C8.136 1.8691 7.94162 1.93359 7.7793 2.08545C7.61919 2.23531 7.54503 2.41962 7.50098 2.57373C7.45891 2.72087 7.42952 2.89789 7.40039 3.0708L7.20898 4.15479L7.20801 4.16162C7.19816 4.22203 7.14531 4.26594 7.08496 4.26611H7.0625L7.01953 4.24854C7.00595 4.23979 6.99303 4.22822 6.98242 4.21338C6.96132 4.18375 6.95654 4.15257 6.96094 4.12744V4.12451L7.14453 3.03271V3.03174C7.21457 2.61153 7.28176 2.26904 7.49121 2.01025C7.67288 1.78588 8.03743 1.54158 8.90918 1.5415Z" fill="#F87171" stroke="#F87171"/>
<path d="M15.7207 7.49072C15.7952 7.49925 15.8403 7.56088 15.8359 7.62256L15.835 7.62549L15.2939 16.0151C15.2461 16.6942 15.1916 17.2708 14.8838 17.7007C14.6089 18.0845 14.0408 18.4585 12.6758 18.4585H7.32617C5.96118 18.4585 5.39308 18.0845 5.11816 17.7007C4.88731 17.3782 4.79889 16.9732 4.74902 16.5044L4.70801 16.0151L4.16699 7.62549L4.16602 7.62158C4.16401 7.59378 4.17355 7.56371 4.19727 7.53662C4.2198 7.51099 4.24945 7.49479 4.28027 7.49072C4.36027 7.48949 4.41392 7.54542 4.41895 7.61084L4.95996 15.9985L4.96094 16.0024C4.98313 16.3091 5.00354 16.6103 5.05371 16.8687C5.10493 17.1323 5.19616 17.4067 5.39453 17.6382C5.79543 18.1055 6.46552 18.2085 7.32617 18.2085H12.6758C13.5398 18.2085 14.2131 18.1061 14.6143 17.6382C14.8133 17.4059 14.903 17.1301 14.9531 16.8657C15.0021 16.6069 15.0218 16.3061 15.042 15.9995V15.9985L15.583 7.61084C15.5878 7.54915 15.6456 7.49016 15.7207 7.49072Z" fill="#F87171" stroke="#F87171"/>
<path d="M8.60742 13.625H11.3828C11.4128 13.6251 11.4442 13.6376 11.4697 13.6631C11.4952 13.6887 11.5078 13.7199 11.5078 13.75C11.5078 13.7801 11.4952 13.8113 11.4697 13.8369C11.4442 13.8624 11.4128 13.8749 11.3828 13.875H8.60742C8.57727 13.875 8.54615 13.8626 8.52051 13.8369C8.49486 13.8113 8.48242 13.7801 8.48242 13.75C8.48242 13.7199 8.49486 13.6887 8.52051 13.6631C8.54615 13.6374 8.57727 13.625 8.60742 13.625Z" fill="#F87171" stroke="#F87171"/>
<path d="M7.91602 10.2915H12.083C12.1131 10.2916 12.1444 10.304 12.1699 10.3296C12.1955 10.3552 12.208 10.3864 12.208 10.4165C12.208 10.4466 12.1955 10.4778 12.1699 10.5034C12.1444 10.529 12.1131 10.5414 12.083 10.5415H7.91602C7.88587 10.5415 7.85475 10.5291 7.8291 10.5034C7.80346 10.4778 7.79102 10.4467 7.79102 10.4165C7.79102 10.3864 7.80346 10.3552 7.8291 10.3296C7.85475 10.3039 7.88587 10.2915 7.91602 10.2915Z" fill="#F87171" stroke="#F87171"/>
</svg>
