<svg width="140" height="160" viewBox="0 0 140 160" fill="none" xmlns="http://www.w3.org/2000/svg">
<g clip-path="url(#clip0_386_92692)">
<mask id="mask0_386_92692" style="mask-type:luminance" maskUnits="userSpaceOnUse" x="-21" y="-3" width="341" height="374">
<path d="M-21 -3.00003L320 -3L320 371L-21 371L-21 -3.00003Z" fill="white"/>
</mask>
<g mask="url(#mask0_386_92692)">
<path d="M265.366 498.763C267.761 498.763 270.096 498.618 272.388 498.329C278.01 497.613 283.619 496.296 289.057 494.414C291.916 493.431 295.19 492.163 297.864 489.55C299.892 487.569 301.414 484.83 302.517 481.176C303.487 477.963 304.01 474.51 304.516 471.171L304.53 471.076C306.1 460.708 308.285 450.334 310.398 440.301C311.151 436.723 311.93 433.024 312.668 429.388C314.26 421.533 315.984 413.161 318.006 404.751C320.187 395.68 322.443 387.736 324.904 380.467C330.809 363.048 338.827 346.787 347.932 328.857C353.937 317.031 359.567 304.279 360.093 291.154C360.227 287.811 360.055 284.476 359.567 280.96C359.131 277.82 358.45 274.601 357.486 271.119C355.692 264.641 353.252 258.433 350.669 251.86C349.373 248.564 348.033 245.156 346.797 241.74C345.794 238.972 345.028 236.673 344.385 234.508C343.898 232.865 343.428 231.183 342.975 229.556C341.141 222.985 339.246 216.19 335.688 210.301C333.364 206.456 331.349 202.288 329.53 197.562C327.943 193.441 326.712 189.432 325.626 185.895C325.189 184.471 324.775 183.127 324.358 181.831C323.209 178.261 321.792 174.555 319.227 171.636C316.338 168.349 312.367 166.467 307.086 165.882C300.912 165.198 294.489 166.823 288.277 168.393C287.679 168.544 287.082 168.695 286.486 168.844C272.053 172.438 256.552 175.246 239.095 177.428C231.247 178.41 224.387 178.752 217.507 178.509C210.358 178.256 203.031 177.333 195.107 175.689C183.833 173.349 172.528 169.901 161.596 166.566C158.737 165.694 155.781 164.792 152.88 163.927C150.293 163.155 147.52 162.344 144.772 161.635C139.721 160.336 135.305 159.699 131.271 159.689C131.205 159.688 131.139 159.688 131.073 159.688C127.011 159.688 123.299 160.348 120.039 161.648C116.304 163.139 113.282 165.439 111.055 168.482C108.488 171.992 107.135 176.393 107.035 181.564C106.952 185.812 107.703 190.485 109.266 195.453C110.104 198.116 111.118 200.803 112.099 203.401C114.347 209.355 116.671 215.512 117.22 222.172C117.543 226.131 117.262 230.088 116.363 234.27C115.566 237.977 114.302 241.762 112.496 245.841C109.155 253.39 104.53 260.622 100.056 267.614C98.9004 269.421 97.7056 271.289 96.5728 273.102C94.2898 276.784 91.7306 281.189 90.0604 285.944C87.4868 293.271 86.9415 300.196 88.2916 308.399C88.8907 312.073 89.8731 315.727 90.9132 319.595C91.8519 323.086 92.8224 326.696 93.4908 330.339C94.554 336.135 94.9902 341.776 95.4123 347.232C95.8403 352.765 96.2444 357.991 97.2486 363.3C98.7893 371.396 101.812 379.668 106.232 387.885C110.368 395.573 115.58 402.96 121.723 409.839C128.434 417.411 136.007 424.635 144.874 431.923C152.18 437.928 160.484 444.055 170.26 450.656C172.549 452.205 174.886 453.759 177.148 455.262C180.929 457.776 184.838 460.375 188.643 463.033C191.249 464.851 193.856 466.733 196.392 468.627C198.946 470.531 201.513 472.514 203.997 474.433C208.513 477.922 213.184 481.53 217.939 484.789C221.752 487.403 226.01 489.2 229.293 490.473C237.694 493.73 244.556 495.859 250.888 497.173C256.008 498.235 260.796 498.763 265.366 498.763ZM335.674 210.312L335.659 210.322C339.215 216.206 341.11 222.999 342.943 229.568C343.396 231.195 343.866 232.876 344.353 234.52C344.996 236.686 345.762 238.985 346.765 241.754C348.003 245.171 349.342 248.579 350.638 251.875C353.221 258.447 355.66 264.654 357.454 271.13C358.417 274.61 359.097 277.827 359.534 280.965C360.022 284.479 360.193 287.812 360.059 291.152C359.533 304.269 353.906 317.017 347.903 328.839C343.798 336.923 339.455 345.545 335.459 354.251C331.074 363.804 327.612 372.375 324.873 380.454C322.411 387.724 320.155 395.669 317.973 404.742C315.951 413.152 314.228 421.525 312.635 429.38C311.897 433.016 311.118 436.715 310.365 440.293C308.252 450.326 306.067 460.702 304.497 471.071L304.483 471.165C303.977 474.503 303.454 477.954 302.486 481.165C301.385 484.811 299.866 487.546 297.842 489.523C295.173 492.131 291.903 493.396 289.048 494.378C283.611 496.259 278.005 497.576 272.385 498.292C265.725 499.132 258.695 498.754 250.895 497.136C244.565 495.823 237.704 493.695 229.305 490.438C226.023 489.165 221.768 487.37 217.958 484.758C213.204 481.499 208.533 477.891 204.017 474.402C201.534 472.484 198.966 470.5 196.412 468.597C193.876 466.703 191.268 464.82 188.661 463.002C184.857 460.344 180.947 457.744 177.166 455.231C174.905 453.727 172.567 452.173 170.279 450.624C160.503 444.024 152.2 437.898 144.895 431.894C136.029 424.606 128.457 417.384 121.748 409.813C115.607 402.936 110.397 395.552 106.262 387.867C101.844 379.652 98.8227 371.385 97.2827 363.293C96.2792 357.985 95.8751 352.761 95.4471 347.229C95.0253 341.772 94.5885 336.13 93.5249 330.332C92.8562 326.687 91.8854 323.077 90.9469 319.585C89.9072 315.718 88.9252 312.065 88.326 308.393C86.977 300.197 87.5223 293.278 90.0934 285.957C91.7616 281.207 94.3194 276.804 96.6017 273.124C97.7342 271.311 98.9294 269.443 100.085 267.637C104.559 260.643 109.186 253.411 112.528 245.858C114.334 241.776 115.6 237.989 116.397 234.28C117.297 230.095 117.578 226.133 117.255 222.17C116.706 215.504 114.38 209.345 112.132 203.388C111.151 200.791 110.137 198.104 109.299 195.442C107.738 190.478 106.988 185.81 107.07 181.567C107.17 176.404 108.52 172.01 111.083 168.507C113.306 165.469 116.323 163.173 120.052 161.685C123.309 160.385 127.016 159.727 131.074 159.727C131.14 159.727 131.206 159.727 131.273 159.727C135.304 159.738 139.717 160.374 144.765 161.673C147.513 162.381 150.285 163.193 152.872 163.964C155.774 164.829 158.73 165.731 161.588 166.603C172.522 169.939 183.828 173.388 195.102 175.727C203.028 177.371 210.357 178.294 217.507 178.548C224.389 178.793 231.251 178.449 239.101 177.467C256.558 175.285 272.061 172.476 286.495 168.882C287.091 168.734 287.688 168.582 288.286 168.431C294.495 166.862 300.914 165.239 307.084 165.921C312.357 166.504 316.321 168.383 319.203 171.663C321.764 174.578 323.179 178.279 324.327 181.845C324.744 183.141 325.157 184.485 325.595 185.908C326.681 189.446 327.912 193.456 329.499 197.579C331.32 202.307 333.335 206.476 335.66 210.323L335.674 210.312Z" fill="#5EE1E5" fill-opacity="0.2"/>
<path d="M269.485 502.154C271.302 502.154 272.976 502.073 274.55 501.953C280.811 501.466 287.065 500.317 293.14 498.538C296.356 497.603 300.04 496.37 303.053 493.582C308.232 488.79 309.396 480.653 310.423 473.472C311.855 463.468 313.815 453.437 315.711 443.735C316.5 439.693 317.317 435.513 318.082 431.405C320.935 416.061 324.171 398.67 329.643 381.991C335.739 363.438 344.738 345.668 352.678 329.989C359.197 317.115 365.274 303.234 365.599 288.952C365.928 274.449 360.668 261.646 355.1 248.091C353.416 243.993 351.675 239.755 350.114 235.491C349.051 232.589 348.2 230.027 347.513 227.658C346.96 225.753 346.437 223.798 345.931 221.907C344.045 214.861 342.095 207.575 338.195 201.332C333.409 193.669 330.379 186.325 327.705 179.845C326.791 177.629 325.927 175.535 325.063 173.603C321.95 166.65 317.93 159.775 306.206 158.745C299.798 158.181 293.166 159.903 286.754 161.568L285.218 161.966C270.554 165.734 254.849 168.978 237.207 171.883C220.978 174.555 208.034 174.432 192.528 171.459C180.575 169.167 168.602 165.558 157.022 162.067C154.511 161.31 152.004 160.554 149.499 159.812C146.857 159.029 144.028 158.204 141.242 157.482C136.095 156.151 131.593 155.487 127.476 155.455C118.363 155.366 111.014 158.529 106.789 164.384C100.376 173.271 103.297 185.609 105.609 192.172C106.517 194.75 107.592 197.349 108.63 199.861C111.173 206.012 113.802 212.371 114.418 219.318C115.817 235.303 106.634 249.55 97.7523 263.329C96.0886 265.91 94.3679 268.579 92.7819 271.171C89.598 276.411 87.6338 280.536 86.413 284.546C84.1846 291.866 84.0165 299.003 85.8675 307.685C86.5477 310.899 87.4817 314.083 88.4706 317.455C89.6645 321.524 90.8985 325.732 91.6573 330.026C92.7638 336.29 93.0063 342.381 93.2406 348.272C93.4509 353.557 93.6497 358.55 94.4204 363.651C96.8838 379.825 105.477 396.794 118.618 411.434C131.031 425.37 146.222 437.799 167.875 451.731C170.125 453.184 172.424 454.639 174.647 456.047C178.567 458.528 182.62 461.093 186.558 463.737C189.248 465.541 191.891 467.387 194.413 469.224C197.559 471.511 200.703 473.925 203.745 476.26C207.752 479.337 211.896 482.518 216.086 485.442C219.727 487.984 223.686 489.804 227.421 491.393C248.119 500.191 260.525 502.154 269.485 502.154ZM337.942 201.523C341.814 207.722 343.757 214.982 345.636 222.003C346.143 223.896 346.666 225.852 347.22 227.761C347.91 230.138 348.763 232.708 349.829 235.618C351.392 239.888 353.134 244.129 354.819 248.231C360.373 261.749 365.619 274.518 365.291 288.945C364.969 303.153 358.91 316.99 352.409 329.827C344.464 345.516 335.459 363.299 329.354 381.878C323.875 398.58 320.637 415.983 317.781 431.339C317.017 435.445 316.2 439.624 315.41 443.666C313.514 453.371 311.553 463.408 310.12 473.422C309.101 480.543 307.947 488.614 302.855 493.326C299.891 496.069 296.245 497.288 293.06 498.214C287.004 499.988 280.769 501.133 274.528 501.618C272.984 501.736 271.439 501.793 269.899 501.793C254.902 501.794 240.172 496.453 227.532 491.08C223.811 489.498 219.869 487.686 216.251 485.159C212.066 482.239 207.925 479.06 203.921 475.986C200.878 473.65 197.731 471.234 194.582 468.945C192.057 467.106 189.411 465.258 186.717 463.452C182.777 460.806 178.722 458.239 174.801 455.756C172.578 454.349 170.279 452.895 168.03 451.443C146.402 437.525 131.231 425.114 118.837 411.2C105.74 396.608 97.176 379.703 94.7232 363.597C93.9553 358.516 93.7568 353.534 93.5471 348.258C93.3122 342.356 93.0694 336.252 91.9584 329.963C91.1969 325.65 89.9598 321.432 88.7632 317.353C87.776 313.988 86.8441 310.811 86.1668 307.609C84.3295 298.991 84.4956 291.911 86.7046 284.653C87.9165 280.673 89.8694 276.573 93.0373 271.359C94.6213 268.771 96.3406 266.104 98.0033 263.525C106.917 249.696 116.134 235.396 114.724 219.287C114.104 212.285 111.463 205.899 108.91 199.724C107.873 197.215 106.801 194.621 105.896 192.052C103.607 185.556 100.711 173.35 107.03 164.594C111.195 158.823 118.451 155.691 127.474 155.793C131.568 155.825 136.048 156.485 141.172 157.811C143.953 158.533 146.779 159.356 149.419 160.139C151.923 160.881 154.43 161.637 156.941 162.393C168.527 165.886 180.508 169.498 192.476 171.792C208.016 174.773 220.989 174.896 237.253 172.218C254.904 169.312 270.616 166.066 285.288 162.296L286.825 161.898C293.214 160.239 299.818 158.526 306.182 159.082C317.745 160.097 321.713 166.886 324.787 173.752C325.65 175.679 326.513 177.771 327.426 179.985C330.104 186.477 333.14 193.836 337.942 201.523Z" fill="#5EE1E5" fill-opacity="0.2"/>
<path d="M274.291 505.265C275.117 505.265 275.938 505.25 276.757 505.22C283.638 504.965 290.521 503.988 297.215 502.316C298.927 501.891 300.94 501.346 302.903 500.524C304.963 499.661 306.672 498.616 308.13 497.328C310.662 495.09 312.532 491.909 313.845 487.602C315.038 483.693 315.633 479.297 316.111 475.764C317.413 466.146 319.157 456.484 320.844 447.141C321.663 442.605 322.51 437.913 323.292 433.304C326.092 416.794 328.987 399.721 334.188 383.357C340.03 365.007 348.784 347.677 357.249 330.918C364.265 317.027 370.774 302.055 370.895 286.686C370.923 283.051 370.619 279.428 369.965 275.61C369.381 272.204 368.529 268.715 367.36 264.945C365.187 257.935 362.196 250.936 359.304 244.168C357.24 239.337 355.105 234.341 353.241 229.297C352.099 226.205 351.185 223.439 350.445 220.841C349.831 218.687 349.26 216.472 348.709 214.331C347.74 210.572 346.739 206.686 345.472 202.999C344.052 198.864 342.439 195.421 340.541 192.474C336.428 186.085 333.276 179.976 330.495 174.586C328.789 171.28 327.178 168.159 325.586 165.45C323.43 161.784 321.393 158.86 318.46 156.506C314.991 153.722 310.709 152.198 305.368 151.848C298.747 151.415 291.913 153.234 285.305 154.995C284.895 155.104 284.485 155.214 284.075 155.322C269.082 159.29 253.168 162.971 235.424 166.576C227.117 168.263 220.066 169.138 213.234 169.328C205.728 169.538 198.335 168.945 189.967 167.466C177.35 165.237 164.732 161.474 152.529 157.834C150.424 157.206 148.248 156.557 146.111 155.928C143.584 155.183 140.643 154.325 137.714 153.562C132.493 152.202 127.923 151.515 123.743 151.461C123.534 151.458 123.324 151.456 123.117 151.456C119.016 151.456 115.294 152.096 112.044 153.361C108.17 154.868 105.06 157.241 102.802 160.412C100.143 164.144 98.8835 168.803 99.056 174.26C99.1955 178.674 100.307 183.676 102.271 188.725C103.243 191.223 104.373 193.742 105.466 196.178C108.317 202.534 111.265 209.106 111.952 216.378C113.422 232.116 104.305 246.079 95.4888 259.582C93.3917 262.794 91.2229 266.115 89.2826 269.349C86.1481 274.61 84.1802 279.006 83.0894 283.185C82.066 287.105 81.6555 290.973 81.8338 295.01C81.9934 298.613 82.6092 302.373 83.7734 306.844C84.4919 309.622 85.3727 312.368 86.305 315.274C87.7856 319.89 89.3164 324.663 90.1559 329.597C91.2908 336.269 91.3099 342.744 91.3283 349.005C91.3433 354.118 91.3576 358.946 91.926 363.896C92.9115 372.387 95.6153 381.093 99.9624 389.773C102.005 393.852 104.407 397.899 107.099 401.8C109.727 405.607 112.646 409.295 115.774 412.762C122.581 420.368 130.329 427.507 139.461 434.587C147.027 440.454 155.607 446.31 165.692 452.492C167.922 453.863 170.201 455.235 172.404 456.562C176.447 458.996 180.626 461.513 184.68 464.128C187.439 465.906 190.121 467.717 192.65 469.513C196.371 472.151 200.065 474.978 203.637 477.712C207.154 480.404 210.791 483.188 214.446 485.784C218.128 488.401 222.193 490.352 225.715 491.974C235.568 496.513 243.597 499.609 250.986 501.72C259.312 504.099 266.965 505.264 274.291 505.265ZM303.343 151.821C304.019 151.821 304.694 151.842 305.366 151.886C310.7 152.236 314.977 153.757 318.44 156.537C321.369 158.887 323.403 161.809 325.557 165.472C327.149 168.178 328.76 171.3 330.465 174.605C333.247 179.996 336.399 186.106 340.513 192.497C342.409 195.441 344.02 198.88 345.44 203.013C346.707 206.698 347.708 210.584 348.676 214.342C349.228 216.483 349.798 218.698 350.412 220.853C351.152 223.452 352.067 226.219 353.21 229.311C355.074 234.356 357.209 239.353 359.273 244.184C362.165 250.952 365.155 257.95 367.328 264.958C368.496 268.726 369.348 272.212 369.931 275.617C370.585 279.432 370.889 283.053 370.861 286.686C370.74 302.046 364.233 317.013 357.219 330.9C348.753 347.66 339.999 364.991 334.156 383.345C328.954 399.712 326.059 416.786 323.259 433.298C322.476 437.907 321.63 442.597 320.811 447.134C319.124 456.478 317.379 466.139 316.077 475.759C315.599 479.29 315.005 483.684 313.813 487.59C312.501 491.89 310.636 495.066 308.108 497.299C306.654 498.585 304.947 499.628 302.891 500.489C300.93 501.311 298.918 501.855 297.208 502.279C290.516 503.951 283.634 504.928 276.755 505.183C275.938 505.213 275.116 505.227 274.291 505.227C266.966 505.228 259.318 504.062 250.993 501.685C243.606 499.574 235.577 496.479 225.727 491.941C222.206 490.319 218.142 488.369 214.463 485.754C210.809 483.158 207.172 480.374 203.655 477.683C200.082 474.948 196.388 472.121 192.667 469.483C190.137 467.687 187.455 465.874 184.696 464.097C180.641 461.482 176.462 458.964 172.419 456.53C170.216 455.203 167.937 453.831 165.707 452.46C155.623 446.279 147.044 440.423 139.48 434.558C130.349 427.478 122.602 420.341 115.796 412.737C112.669 409.271 109.752 405.584 107.125 401.778C104.433 397.878 102.033 393.833 99.991 389.756C95.646 381.08 92.9432 372.378 91.9584 363.892C91.3903 358.944 91.376 354.117 91.361 349.005C91.3422 342.742 91.3235 336.266 90.188 329.591C89.3481 324.654 87.817 319.879 86.336 315.262C85.4041 312.356 84.5233 309.611 83.8048 306.834C82.642 302.367 82.0261 298.609 81.8665 295.008C81.6885 290.976 82.0984 287.112 83.1207 283.196C84.2109 279.021 86.1775 274.627 89.3099 269.369C91.2502 266.136 93.4183 262.816 95.5151 259.604C104.335 246.096 113.455 232.127 111.985 216.374C111.297 209.096 108.348 202.52 105.495 196.162C104.403 193.726 103.273 191.208 102.302 188.711C100.339 183.666 99.2285 178.669 99.0891 174.258C98.9169 168.81 100.175 164.16 102.827 160.436C105.083 157.27 108.187 154.902 112.055 153.396C115.301 152.133 119.02 151.494 123.116 151.494C123.324 151.494 123.532 151.495 123.742 151.499C127.919 151.553 132.487 152.24 137.705 153.599C140.634 154.362 143.575 155.22 146.101 155.964C148.238 156.594 150.414 157.243 152.519 157.87C164.723 161.51 177.342 165.274 189.961 167.504C198.331 168.982 205.728 169.573 213.234 169.365C220.068 169.175 227.121 168.301 235.429 166.613C253.175 163.008 269.089 159.327 284.083 155.359C284.492 155.251 284.902 155.141 285.312 155.032C291.247 153.45 297.363 151.821 303.343 151.821Z" fill="#5EE1E5" fill-opacity="0.2"/>
<path d="M278.867 509.861C278.921 509.861 278.975 509.861 279.03 509.861C286.536 509.839 294.057 509.032 301.385 507.462C303.259 507.063 305.465 506.544 307.621 505.716C309.881 504.848 311.755 503.767 313.352 502.411C316.133 500.05 318.176 496.654 319.595 492.034C320.808 488.086 321.42 483.76 321.991 479.304C323.167 470.126 324.7 460.89 326.184 451.958C327.028 446.876 327.901 441.621 328.693 436.458L328.89 435.178C330.137 427.044 331.427 418.634 332.998 410.42C334.758 401.211 336.696 393.222 338.919 385.997C344.527 367.808 353.276 350.445 361.738 333.654L361.996 333.143C365.162 326.86 369.163 318.555 372.029 310.032C374.997 301.201 376.422 293.225 376.384 285.648C376.365 281.845 375.997 278.057 375.259 274.068C374.601 270.508 373.661 266.865 372.385 262.929C370.012 255.611 366.786 248.318 363.666 241.265C361.227 235.75 358.704 230.047 356.553 224.271C355.331 220.989 354.353 218.023 353.563 215.204C352.893 212.812 352.28 210.348 351.687 207.964C350.691 203.96 349.662 199.819 348.33 195.9C346.836 191.505 345.112 187.86 343.056 184.756C340.051 180.216 337.36 175.797 334.985 171.897C331.815 166.692 329.077 162.197 326.288 158.457C324.079 155.495 321.566 152.437 318.164 150.14C314.412 147.608 309.974 146.263 304.597 146.027C304.116 146.005 303.632 145.995 303.148 145.995C296.729 145.995 290.169 147.788 283.812 149.525L282.959 149.757C267.35 154.005 251.229 158.123 233.676 162.345C225.026 164.426 218.09 165.533 211.187 165.935C203.559 166.378 196.029 165.939 187.486 164.552C174.231 162.401 160.992 158.49 148.188 154.708C146.426 154.187 144.604 153.649 142.815 153.125C140.106 152.332 137.214 151.493 134.273 150.722C128.967 149.332 124.321 148.62 120.068 148.544C115.615 148.451 111.601 149.081 108.136 150.413C104.193 151.93 101.039 154.338 98.7637 157.574C96.0602 161.417 94.8463 166.205 95.1555 171.804C95.4059 176.335 96.688 181.437 98.8629 186.557C99.8954 188.99 101.08 191.442 102.225 193.812C105.384 200.352 108.65 207.114 109.406 214.677C110.946 230.228 101.827 243.973 93.0079 257.265C90.5241 261.01 87.9553 264.881 85.7252 268.668C82.5815 274.044 80.6641 278.599 79.6915 283.002C78.8063 287.009 78.5778 290.997 78.9939 295.191C79.3488 298.772 80.1775 302.609 81.6015 307.263C82.3261 309.642 83.1476 311.986 84.0178 314.468C85.8122 319.587 87.6672 324.88 88.5756 330.423C89.7244 337.435 89.5 344.235 89.2832 350.812C89.1253 355.591 88.9627 360.533 89.3521 365.39C89.7098 369.785 90.5551 374.309 91.8649 378.838C93.1228 383.188 94.822 387.587 96.9147 391.914C98.9396 396.1 101.346 400.245 104.067 404.236C106.726 408.135 109.693 411.898 112.886 415.42C119.742 423.043 127.578 430.139 136.842 437.116C144.537 442.912 153.256 448.633 163.495 454.607C165.709 455.903 167.972 457.199 170.161 458.451C174.319 460.832 178.62 463.293 182.786 465.873C185.654 467.647 188.297 469.374 190.865 471.153C195.142 474.111 199.356 477.335 203.432 480.453C206.481 482.786 209.634 485.199 212.786 487.478C216.366 490.069 220.295 492.082 224.013 493.922C234.47 499.096 243.08 502.684 251.109 505.216C261.025 508.341 270.107 509.861 278.867 509.861ZM343.043 184.767L343.029 184.778C345.082 187.879 346.806 191.521 348.298 195.913C349.63 199.83 350.659 203.97 351.655 207.974C352.247 210.357 352.86 212.821 353.53 215.214C354.32 218.034 355.299 221.001 356.521 224.284C358.673 230.061 361.196 235.765 363.636 241.281C366.755 248.333 369.981 255.625 372.353 262.941C373.628 266.874 374.568 270.517 375.226 274.074C375.963 278.061 376.33 281.847 376.35 285.647C376.388 293.219 374.964 301.191 371.996 310.018C369.132 318.538 365.131 326.842 361.966 333.124L361.708 333.635C353.246 350.427 344.495 367.792 338.887 385.984C336.662 393.21 334.725 401.201 332.964 410.411C331.393 418.626 330.103 427.037 328.855 435.171L328.659 436.45C327.867 441.614 326.994 446.868 326.15 451.951C324.666 460.883 323.132 470.119 321.957 479.297C321.386 483.751 320.774 488.076 319.562 492.021C318.145 496.635 316.107 500.023 313.331 502.381C311.737 503.734 309.866 504.813 307.61 505.679C305.456 506.506 303.251 507.025 301.378 507.424C294.053 508.994 286.534 509.8 279.031 509.822C278.976 509.822 278.921 509.822 278.867 509.822C270.11 509.822 261.033 508.303 251.12 505.178C243.092 502.647 234.483 499.059 224.028 493.886C220.312 492.047 216.384 490.035 212.805 487.445C209.654 485.167 206.502 482.754 203.452 480.421C199.377 477.303 195.162 474.078 190.885 471.12C188.316 469.341 185.673 467.614 182.804 465.839C178.637 463.259 174.337 460.797 170.178 458.417C167.99 457.164 165.727 455.869 163.513 454.573C153.275 448.599 144.557 442.878 136.863 437.084C127.6 430.109 119.766 423.013 112.911 415.392C109.719 411.871 106.753 408.11 104.096 404.212C101.375 400.223 98.9707 396.079 96.9465 391.894C94.8544 387.57 93.1563 383.172 91.8987 378.825C90.5896 374.298 89.7449 369.777 89.3875 365.385C88.9978 360.531 89.1611 355.589 89.3186 350.811C89.5359 344.233 89.7599 337.43 88.6104 330.414C87.702 324.868 85.8456 319.573 84.0509 314.453C83.181 311.971 82.3595 309.627 81.6356 307.249C80.2119 302.597 79.3836 298.763 79.0286 295.184C78.6133 290.995 78.8414 287.012 79.726 283.008C80.6978 278.61 82.6136 274.059 85.7552 268.686C87.9843 264.9 90.5527 261.028 93.0369 257.285C101.859 243.987 110.982 230.236 109.441 214.67C108.684 207.101 105.417 200.335 102.257 193.792C101.111 191.422 99.9272 188.97 98.8946 186.539C96.0173 179.764 92.1779 166.996 98.792 157.594C101.063 154.365 104.211 151.96 108.148 150.446C111.61 149.115 115.623 148.486 120.069 148.579C124.32 148.655 128.964 149.367 134.267 150.756C137.208 151.526 140.099 152.365 142.808 153.158C144.597 153.682 146.419 154.221 148.181 154.741C160.985 158.523 174.226 162.434 187.483 164.586C196.028 165.974 203.56 166.413 211.191 165.97C218.096 165.568 225.034 164.461 233.685 162.379C251.238 158.156 267.359 154.039 282.968 149.791L283.822 149.558C290.656 147.691 297.722 145.76 304.598 146.061C309.968 146.297 314.401 147.641 318.147 150.17C321.546 152.463 324.056 155.518 326.263 158.477C329.052 162.217 331.789 166.712 334.958 171.916C337.333 175.815 340.025 180.235 343.031 184.775L343.043 184.767Z" fill="#5EE1E5" fill-opacity="0.2"/>
<path d="M284.398 514.669C291.516 514.669 298.633 514.021 305.6 512.736C307.637 512.362 310.036 511.868 312.386 511.035C314.845 510.163 316.884 509.047 318.62 507.623C321.652 505.136 323.867 501.528 325.392 496.593C326.719 492.302 327.343 487.701 327.917 482.97C328.966 474.313 330.293 465.587 331.576 457.147C332.445 451.439 333.342 445.536 334.141 439.739C334.249 438.949 334.358 438.159 334.466 437.369C335.57 429.333 336.711 421.022 338.144 412.904C339.753 403.801 341.569 395.905 343.697 388.764C349.093 370.683 357.755 353.459 366.132 336.802L366.789 335.496C370.388 328.337 374.471 319.804 377.466 310.799C380.607 301.353 382.064 292.828 381.92 284.735C381.862 280.759 381.436 276.799 380.618 272.63C379.889 268.911 378.861 265.105 377.476 260.996C374.901 253.357 371.429 245.755 368.072 238.403C365.254 232.231 362.34 225.85 359.91 219.37C358.606 215.89 357.564 212.725 356.727 209.692C356.003 207.068 355.352 204.361 354.721 201.742C353.698 197.487 352.64 193.088 351.242 188.935C349.673 184.276 347.834 180.426 345.619 177.164C344.556 175.599 343.518 174.061 342.514 172.574C336.834 164.155 331.928 156.884 327.036 151.589C324.5 148.843 321.639 146.012 317.913 143.903C313.884 141.622 309.291 140.454 303.873 140.331C303.606 140.325 303.338 140.322 303.071 140.322C296.159 140.322 289.105 142.298 282.275 144.21L281.888 144.318C277.945 145.42 274.026 146.516 270.137 147.604C256.836 151.322 244.274 154.834 231.976 158.241C223.099 160.7 216.07 162.066 209.187 162.668C201.444 163.347 193.774 163.059 185.052 161.763C171.175 159.701 157.333 155.647 143.946 151.728C142.51 151.307 141.025 150.872 139.566 150.447C136.797 149.641 133.847 148.789 130.879 148.007C125.488 146.587 120.765 145.85 116.439 145.752C116.082 145.743 115.727 145.739 115.376 145.739C111.244 145.739 107.514 146.361 104.274 147.592C100.261 149.117 97.064 151.562 94.7718 154.861C92.0223 158.817 90.855 163.733 91.3014 169.474C91.6632 174.123 93.1149 179.324 95.5002 184.515C96.5914 186.89 97.8282 189.284 99.0244 191.599C102.494 198.313 106.081 205.256 106.907 213.102C107.294 216.81 107.086 220.489 106.271 224.351C105.547 227.785 104.357 231.279 102.633 235.033C99.4343 242 94.8737 248.753 90.4632 255.284C87.6241 259.489 84.6877 263.837 82.2151 268.113C79.0547 273.616 77.1885 278.329 76.3407 282.945C75.5882 287.045 75.5421 291.151 76.1999 295.498C76.7452 299.098 77.7559 302.895 79.4773 307.808C80.1787 309.818 80.9685 311.884 81.7323 313.884C83.8676 319.47 86.0752 325.247 87.0423 331.374C88.1966 338.686 87.7155 345.775 87.2496 352.63C86.9295 357.34 86.599 362.21 86.8255 367.011C87.042 371.501 87.7765 376.133 89.0079 380.776C90.1904 385.235 91.8412 389.745 93.9145 394.181C95.9209 398.473 98.3322 402.718 101.082 406.798C103.771 410.789 106.787 414.626 110.045 418.204C113.582 422.117 117.488 425.969 121.654 429.651C125.537 433.083 129.781 436.487 134.27 439.771C142.095 445.495 150.952 451.081 161.346 456.848C163.552 458.076 165.807 459.302 167.988 460.487C172.257 462.807 176.67 465.205 180.939 467.743C183.868 469.482 186.547 471.175 189.128 472.919C193.948 476.169 198.656 479.781 203.21 483.273C205.81 485.268 208.498 487.33 211.173 489.299C214.684 491.883 218.468 493.941 222.359 495.994C233.345 501.793 242.532 505.879 251.271 508.852C261.946 512.484 271.784 514.373 281.35 514.628C282.366 514.655 283.383 514.669 284.398 514.669ZM345.605 177.176L345.592 177.187C347.805 180.445 349.643 184.292 351.21 188.947C352.607 193.1 353.665 197.498 354.689 201.751C355.319 204.37 355.971 207.078 356.695 209.703C357.532 212.736 358.574 215.903 359.879 219.385C362.309 225.865 365.224 232.248 368.042 238.419C371.399 245.77 374.87 253.372 377.444 261.009C378.828 265.117 379.855 268.92 380.585 272.638C381.402 276.805 381.828 280.762 381.886 284.737C382.03 292.824 380.574 301.345 377.434 310.786C374.44 319.789 370.358 328.32 366.759 335.477L366.102 336.784C357.725 353.443 349.062 370.668 343.664 388.752C341.536 395.895 339.72 403.792 338.111 412.897C336.677 421.016 335.535 429.327 334.432 437.363C334.324 438.153 334.215 438.943 334.107 439.733C333.308 445.53 332.411 451.433 331.543 457.141C330.259 465.58 328.932 474.307 327.883 482.965C327.309 487.694 326.685 492.293 325.36 496.58C323.836 501.508 321.625 505.11 318.6 507.592C316.867 509.014 314.831 510.128 312.375 510.999C310.027 511.832 307.629 512.325 305.594 512.698C298.63 513.983 291.514 514.631 284.398 514.631C283.382 514.631 282.367 514.618 281.351 514.591C271.789 514.336 261.953 512.447 251.281 508.817C242.544 505.845 233.358 501.759 222.374 495.961C218.484 493.908 214.702 491.851 211.193 489.268C208.518 487.299 205.83 485.237 203.23 483.243C198.676 479.75 193.967 476.138 189.147 472.887C186.565 471.143 183.886 469.451 180.955 467.711C176.686 465.173 172.272 462.774 168.004 460.455C165.823 459.269 163.568 458.044 161.362 456.816C150.969 451.049 142.114 445.463 134.289 439.741C129.801 436.458 125.557 433.054 121.676 429.623C117.51 425.941 113.606 422.09 110.07 418.178C106.812 414.602 103.798 410.766 101.109 406.776C98.3608 402.698 95.9506 398.455 93.9452 394.164C91.8729 389.73 90.2228 385.223 89.0409 380.767C87.8103 376.126 87.0761 371.497 86.8599 367.009C86.6338 362.211 86.9646 357.342 87.2841 352.634C87.7496 345.776 88.231 338.685 87.0761 331.369C86.1087 325.237 83.9 319.458 81.764 313.87C81.0005 311.871 80.2104 309.805 79.5097 307.796C77.7886 302.885 76.7782 299.091 76.234 295.493C75.5769 291.151 75.6229 287.049 76.3745 282.953C77.2208 278.342 79.0861 273.633 82.2441 268.134C84.716 263.859 87.6517 259.512 90.4912 255.307C99.3715 242.156 108.554 228.558 106.941 213.098C106.114 205.245 102.525 198.299 99.0541 191.582C97.8582 189.267 96.6214 186.873 95.5309 184.499C93.1476 179.313 91.697 174.116 91.3355 169.471C90.8895 163.74 92.0547 158.832 94.7991 154.884C97.0872 151.591 100.279 149.15 104.285 147.628C107.797 146.294 111.885 145.675 116.438 145.79C120.762 145.888 125.483 146.625 130.871 148.044C133.838 148.826 136.789 149.678 139.557 150.484C141.015 150.909 142.501 151.344 143.937 151.765C157.325 155.685 171.168 159.739 185.047 161.801C193.772 163.098 201.444 163.385 209.19 162.706C216.075 162.103 223.105 160.738 231.984 158.279C244.283 154.872 256.845 151.359 270.145 147.641C274.035 146.553 277.954 145.457 281.897 144.356L282.284 144.247C289.111 142.336 296.164 140.361 303.071 140.361C303.339 140.361 303.605 140.364 303.873 140.37C309.286 140.492 313.873 141.659 317.898 143.937C321.62 146.044 324.478 148.872 327.013 151.616C331.903 156.909 336.808 164.179 342.487 172.597C343.491 174.085 344.529 175.623 345.592 177.188L345.605 177.176Z" fill="#5EE1E5" fill-opacity="0.2"/>
<path d="M290.131 519.525C296.75 519.525 303.356 519.005 309.85 517.973C312.056 517.624 314.653 517.155 317.187 516.322C319.85 515.445 322.053 514.293 323.924 512.798C327.209 510.194 329.599 506.375 331.23 501.122C332.666 496.5 333.326 491.414 333.878 486.601C334.798 478.581 335.921 470.481 337.006 462.648C337.899 456.2 338.823 449.533 339.624 442.984C339.758 441.886 339.891 440.789 340.024 439.691C340.992 431.723 341.992 423.485 343.298 415.435C344.764 406.407 346.468 398.577 348.51 391.496C350.843 383.416 354.066 374.807 358.362 365.175C362.189 356.597 366.479 348.05 370.629 339.785C370.959 339.127 371.289 338.47 371.619 337.813C375.444 330.187 379.779 321.102 382.928 311.531C386.235 301.476 387.728 292.402 387.491 283.789C387.389 279.631 386.901 275.491 385.998 271.134C385.194 267.248 384.076 263.273 382.581 258.982C379.8 251.006 376.082 243.079 372.486 235.412C369.298 228.615 366.002 221.587 363.304 214.436C361.917 210.758 360.812 207.392 359.928 204.145C359.151 201.294 358.463 198.345 357.798 195.493C356.746 190.986 355.659 186.325 354.195 181.935C352.552 177.011 350.596 172.956 348.217 169.538C344.115 163.644 340.79 159.145 337.753 155.379C334.167 150.932 330.919 147.435 327.821 144.686C325.111 142.282 321.789 139.564 317.699 137.633C313.398 135.603 308.651 134.611 303.185 134.601C295.69 134.588 288.148 136.752 280.855 138.844C262.735 144.034 245.136 149.47 230.311 154.103C221.209 156.946 214.088 158.57 207.223 159.368C199.366 160.281 191.558 160.146 182.652 158.939C168.169 156.978 153.74 152.786 139.785 148.732C138.64 148.399 137.495 148.067 136.352 147.735C133.514 146.914 130.495 146.045 127.521 145.257C122.048 143.809 117.248 143.046 112.847 142.926C105.816 142.716 96.2931 144.141 90.8167 152.113C88.0218 156.182 86.9006 161.228 87.4841 167.11C87.9577 171.879 89.5795 177.179 92.1742 182.439C93.321 184.764 94.6093 187.107 95.8546 189.373C99.637 196.254 103.548 203.37 104.444 211.492C104.849 215.19 104.65 218.854 103.837 222.692C103.114 226.107 101.918 229.578 100.181 233.306C96.9567 240.224 92.3392 246.936 87.8738 253.428C84.7018 258.039 81.4217 262.806 78.7415 267.524C75.56 273.16 73.7441 278.032 73.0263 282.854C72.4023 287.051 72.5387 291.276 73.443 295.771C74.3562 300.31 75.9507 304.66 77.3898 308.318C78.0441 309.988 78.7551 311.699 79.4429 313.356C81.9435 319.377 84.5293 325.603 85.5468 332.291C86.6998 339.874 85.9519 347.223 85.2287 354.331C84.7536 358.999 84.2623 363.826 84.3363 368.596C84.412 373.184 85.0353 377.923 86.1889 382.681C87.2955 387.247 88.8978 391.867 90.952 396.413C92.9393 400.812 95.3557 405.156 98.1338 409.325C100.854 413.408 103.919 417.32 107.243 420.954C110.803 424.874 114.744 428.717 118.958 432.377C122.885 435.788 127.185 439.158 131.736 442.391C139.691 448.042 148.686 453.493 159.235 459.055C161.435 460.219 163.685 461.378 165.86 462.5C170.236 464.755 174.76 467.088 179.13 469.58C182.118 471.281 184.832 472.939 187.43 474.651C192.775 478.165 197.949 482.154 202.952 486.01C205.125 487.685 207.371 489.416 209.599 491.084C213.067 493.681 216.698 495.768 220.743 498.034C232.04 504.361 242.089 509.083 251.461 512.471C256.889 514.433 262.248 515.999 267.388 517.126C272.912 518.337 278.403 519.09 283.708 519.362C285.846 519.47 287.99 519.525 290.131 519.525ZM303.114 134.638C303.138 134.638 303.161 134.638 303.184 134.638C308.645 134.649 313.388 135.639 317.684 137.668C321.77 139.596 325.09 142.313 327.798 144.716C330.894 147.463 334.142 150.959 337.726 155.404C340.762 159.17 344.087 163.668 348.188 169.561C350.566 172.976 352.519 177.028 354.161 181.949C355.625 186.337 356.712 190.997 357.763 195.503C358.429 198.355 359.117 201.304 359.894 204.157C360.779 207.405 361.884 210.771 363.272 214.45C365.969 221.603 369.266 228.632 372.455 235.43C376.05 243.095 379.767 251.022 382.548 258.996C384.043 263.285 385.16 267.259 385.965 271.143C386.866 275.497 387.354 279.635 387.457 283.79C387.693 292.398 386.201 301.468 382.895 311.518C379.747 321.087 375.413 330.171 371.588 337.795C371.258 338.452 370.928 339.11 370.598 339.767C366.449 348.033 362.158 356.58 358.331 365.159C354.034 374.792 350.811 383.403 348.477 391.485C346.435 398.567 344.73 406.399 343.264 415.428C341.958 423.479 340.957 431.719 339.99 439.686C339.857 440.784 339.724 441.881 339.589 442.979C338.789 449.528 337.865 456.195 336.972 462.643C335.886 470.476 334.764 478.576 333.844 486.597C333.291 491.408 332.632 496.491 331.197 501.11C329.568 506.355 327.182 510.169 323.903 512.768C322.036 514.26 319.835 515.411 317.177 516.286C314.645 517.119 312.05 517.588 309.845 517.936C301.252 519.303 292.458 519.77 283.706 519.324C278.403 519.052 272.915 518.299 267.392 517.088C262.253 515.961 256.896 514.396 251.469 512.435C242.098 509.047 232.052 504.326 220.756 497.999C216.712 495.734 213.082 493.648 209.616 491.053C207.388 489.385 205.142 487.653 202.969 485.979C197.965 482.122 192.791 478.133 187.445 474.618C184.847 472.906 182.132 471.247 179.144 469.546C174.773 467.053 170.248 464.721 165.872 462.465C163.697 461.344 161.448 460.184 159.247 459.021C148.7 453.459 139.706 448.009 131.753 442.359C127.202 439.126 122.903 435.757 118.977 432.346C114.764 428.687 110.824 424.845 107.265 420.927C103.942 417.294 100.878 413.383 98.1594 409.303C95.383 405.135 92.9677 400.792 90.9803 396.395C88.9275 391.851 87.3258 387.234 86.22 382.67C85.067 377.915 84.4444 373.179 84.3683 368.595C84.2947 363.826 84.7857 359.001 85.2607 354.334C85.984 347.224 86.7321 339.872 85.5782 332.284C84.5607 325.591 81.9738 319.362 79.4722 313.339C78.7844 311.683 78.0738 309.971 77.4194 308.303C75.9807 304.647 74.3869 300.298 73.4748 295.762C72.5714 291.272 72.4354 287.051 73.0587 282.859C73.7752 278.041 75.5896 273.174 78.7684 267.543C81.4484 262.827 84.7281 258.059 87.899 253.449C92.3658 246.957 96.984 240.243 100.209 233.322C101.948 229.591 103.144 226.117 103.869 222.699C104.683 218.857 104.882 215.189 104.476 211.487C103.579 203.357 99.6663 196.238 95.8819 189.353C94.6365 187.087 93.3486 184.745 92.2021 182.421C89.6092 177.165 87.9891 171.869 87.5161 167.105C86.933 161.232 88.0522 156.196 90.8419 152.135C95.9883 144.644 104.72 142.944 111.581 142.944C112.01 142.944 112.431 142.951 112.844 142.963C117.243 143.083 122.041 143.845 127.511 145.294C130.485 146.081 133.504 146.95 136.342 147.771C137.486 148.102 138.63 148.435 139.775 148.767C153.731 152.822 168.162 157.015 182.647 158.976C191.555 160.183 199.365 160.318 207.226 159.405C214.092 158.607 221.214 156.982 230.318 154.138C245.144 149.506 262.742 144.07 280.862 138.881C288.13 136.795 295.646 134.638 303.114 134.638Z" fill="#5EE1E5" fill-opacity="0.2"/>
<path d="M295.907 524.424C302.02 524.424 308.119 524.011 314.13 523.186C316.499 522.863 319.289 522.419 322.017 521.58C324.879 520.699 327.248 519.511 329.258 517.948C332.793 515.218 335.357 511.186 337.095 505.62C338.65 500.644 339.342 495.055 339.869 490.207C340.653 482.984 341.572 475.677 342.46 468.612C343.383 461.264 344.338 453.665 345.137 446.204C345.282 444.841 345.426 443.479 345.57 442.116C346.407 434.196 347.273 426.007 348.459 418.003C349.788 409.027 351.389 401.242 353.353 394.203C355.606 386.136 358.768 377.548 363.021 367.947C366.808 359.396 371.076 350.881 375.204 342.647C375.629 341.799 376.054 340.952 376.478 340.104C380.529 332.011 385.116 322.372 388.419 312.237C391.893 301.573 393.422 291.95 393.093 282.816C392.947 278.472 392.397 274.149 391.411 269.599C390.531 265.542 389.323 261.394 387.715 256.917C384.727 248.595 380.759 240.333 376.922 232.344C373.365 224.939 369.688 217.282 366.727 209.475C365.256 205.595 364.088 202.029 363.158 198.574C362.33 195.498 361.608 192.31 360.909 189.228C359.83 184.466 358.713 179.542 357.181 174.913C355.462 169.722 353.389 165.461 350.844 161.886C347.045 156.552 343.296 151.854 339.699 147.92C335.943 143.812 332.22 140.393 328.635 137.759C325.649 135.566 321.993 133.087 317.513 131.34C312.949 129.559 308.045 128.743 302.526 128.846C294.671 128.991 286.453 131.405 279.849 133.345C260.647 138.977 242.414 145.17 228.675 149.937C219.223 153.216 212.23 155.042 205.29 156.042C197.32 157.19 189.373 157.206 180.283 156.089C165.201 154.236 150.192 149.907 135.677 145.72C134.84 145.479 134.004 145.238 133.168 144.996C130.124 144.12 127.148 143.268 124.192 142.481C118.635 141.002 113.759 140.214 109.283 140.073C108.775 140.055 108.273 140.047 107.777 140.047C103.62 140.047 99.8842 140.653 96.6519 141.853C92.5016 143.394 89.2174 145.913 86.8901 149.338C84.0492 153.521 82.9744 158.695 83.696 164.718C84.1042 168.127 85.3348 173.605 88.8771 180.336C90.0781 182.617 91.4155 184.916 92.7096 187.139C96.8071 194.181 101.044 201.462 102.01 209.855C102.433 213.553 102.243 217.21 101.428 221.038C100.702 224.444 99.4955 227.904 97.739 231.615C94.4784 238.505 89.7896 245.193 85.2557 251.661C81.7666 256.637 78.1591 261.782 75.2964 266.907C73.7773 269.643 72.6029 272.172 71.7057 274.639C70.6936 277.421 70.0512 280.069 69.7412 282.735C69.242 287.033 69.5605 291.377 70.7144 296.017C71.8261 300.487 73.5904 304.803 75.3312 308.802C75.9187 310.155 76.5414 311.54 77.1433 312.88C80.0322 319.307 83.0194 325.953 84.0789 333.181C85.2267 341.011 84.2054 348.601 83.2178 355.941C82.5925 360.589 81.9456 365.394 81.875 370.155C81.8099 374.838 82.3217 379.684 83.3972 384.558C84.4277 389.231 85.9823 393.962 88.0167 398.617C91.9174 407.543 97.606 416.208 104.468 423.676C108.051 427.603 112.028 431.438 116.288 435.075C120.26 438.466 124.615 441.8 129.229 444.984C137.314 450.563 146.447 455.878 157.15 461.235C159.355 462.342 161.61 463.442 163.79 464.507C168.263 466.691 172.888 468.949 177.349 471.389C180.391 473.049 183.141 474.674 185.758 476.354C191.615 480.11 197.231 484.47 202.662 488.687C204.425 490.055 206.249 491.47 208.051 492.843C211.51 495.476 215.126 497.663 219.154 500.045C230.865 506.972 241.5 512.216 251.668 516.075C257.424 518.26 263.136 520.03 268.645 521.337C274.531 522.734 280.402 523.652 286.092 524.068C289.359 524.305 292.635 524.424 295.907 524.424ZM350.83 161.897L350.817 161.909C353.36 165.48 355.431 169.738 357.148 174.926C358.68 179.553 359.796 184.476 360.875 189.237C361.573 192.32 362.296 195.507 363.125 198.584C364.055 202.041 365.223 205.608 366.695 209.49C369.656 217.298 373.334 224.956 376.891 232.362C380.728 240.35 384.696 248.611 387.683 256.93C389.29 261.405 390.498 265.552 391.377 269.608C392.363 274.155 392.912 278.477 393.059 282.818C393.387 291.946 391.859 301.565 388.386 312.224C385.085 322.356 380.499 331.994 376.447 340.086C376.023 340.934 375.598 341.781 375.173 342.63C371.046 350.864 366.777 359.379 362.99 367.931C358.737 377.533 355.574 386.123 353.32 394.192C351.356 401.232 349.755 409.019 348.425 417.997C347.239 426.001 346.373 434.191 345.536 442.112C345.392 443.474 345.248 444.837 345.103 446.199C344.305 453.66 343.35 461.259 342.426 468.607C341.538 475.673 340.62 482.979 339.835 490.202C339.309 495.048 338.617 500.635 337.064 505.608C335.327 511.166 332.767 515.192 329.238 517.917C327.231 519.477 324.866 520.663 322.008 521.543C319.282 522.382 316.494 522.825 314.127 523.148C304.9 524.414 295.469 524.71 286.093 524.03C280.404 523.615 274.536 522.697 268.651 521.301C263.144 519.994 257.433 518.224 251.678 516.04C241.513 512.181 230.879 506.938 219.169 500.012C215.143 497.63 211.528 495.444 208.07 492.812C206.268 491.44 204.444 490.024 202.681 488.656C197.25 484.439 191.633 480.079 185.775 476.322C183.157 474.641 180.406 473.016 177.363 471.355C172.901 468.916 168.277 466.657 163.803 464.473C161.623 463.408 159.369 462.308 157.163 461.2C146.462 455.845 137.33 450.53 129.247 444.953C124.633 441.769 120.28 438.436 116.309 435.046C112.049 431.41 108.074 427.575 104.491 423.65C97.6326 416.185 91.9461 407.523 88.0471 398.601C86.0134 393.948 84.4598 389.22 83.4296 384.55C82.3555 379.679 81.8436 374.836 81.9084 370.156C81.9794 365.398 82.6259 360.593 83.2506 355.947C84.2388 348.604 85.2605 341.011 84.112 333.176C83.0514 325.942 80.0629 319.293 77.173 312.864C76.5708 311.524 75.9481 310.139 75.3606 308.786C73.6204 304.789 71.8571 300.475 70.7458 296.007C69.5932 291.372 69.275 287.033 69.7739 282.74C70.357 277.721 72.1207 272.697 75.3244 266.927C78.1861 261.804 81.7932 256.66 85.2813 251.684C89.8166 245.215 94.506 238.526 97.768 231.633C99.5258 227.919 100.733 224.456 101.459 221.047C102.276 217.215 102.466 213.553 102.043 209.851C101.075 201.449 96.8364 194.165 92.7369 187.12C91.4431 184.896 90.1054 182.598 88.9051 180.317C86.9515 176.605 84.4673 170.885 83.728 164.713C83.0078 158.701 84.0803 153.535 86.916 149.361C89.2393 145.941 92.518 143.428 96.6611 141.889C100.276 140.546 104.525 139.948 109.28 140.11C113.754 140.252 118.628 141.039 124.183 142.518C127.138 143.305 130.114 144.156 133.158 145.033C133.994 145.274 134.83 145.515 135.667 145.756C150.183 149.944 165.193 154.273 180.277 156.127C189.37 157.244 197.319 157.228 205.292 156.079C212.234 155.079 219.23 153.252 228.683 149.973C242.422 145.206 260.655 139.012 279.856 133.381C286.458 131.442 294.674 129.028 302.525 128.883C302.831 128.877 303.136 128.874 303.438 128.874C308.584 128.874 313.192 129.694 317.5 131.375C321.976 133.121 325.63 135.598 328.614 137.79C332.198 140.423 335.919 143.84 339.674 147.946C343.27 151.878 347.018 156.576 350.816 161.909L350.83 161.897Z" fill="#5EE1E5" fill-opacity="0.2"/>
<path d="M301.699 529.362C307.31 529.362 312.904 529.036 318.434 528.382C320.964 528.085 323.946 527.668 326.869 526.822C329.93 525.936 332.464 524.713 334.614 523.082C338.4 520.226 341.139 515.981 342.986 510.103C344.662 504.768 345.36 498.889 345.883 493.796C346.519 487.607 347.231 481.336 347.92 475.272C348.883 466.79 349.88 458.019 350.672 449.408C350.819 447.814 350.965 446.194 351.106 444.627C351.818 436.738 352.554 428.58 353.624 420.606C354.825 411.662 356.327 403.906 358.218 396.894C360.395 388.83 363.503 380.252 367.717 370.671C371.471 362.136 375.723 353.642 379.834 345.428C380.343 344.411 380.851 343.396 381.359 342.38C385.637 333.818 390.476 323.624 393.931 312.927C397.572 301.654 399.138 291.482 398.716 281.829C398.528 277.295 397.916 272.784 396.846 268.039C395.892 263.808 394.592 259.481 392.872 254.815C389.675 246.142 385.455 237.539 381.373 229.219C377.449 221.219 373.391 212.947 370.172 204.499C368.617 200.42 367.387 196.654 366.41 192.987C365.531 189.688 364.776 186.264 364.046 182.953C362.939 177.934 361.795 172.745 360.195 167.876C358.399 162.416 356.207 157.948 353.493 154.218C349.72 149.032 345.742 144.398 341.67 140.446C337.671 136.564 333.567 133.324 329.471 130.816C324.939 128.041 321.201 126.258 317.351 125.033C312.532 123.501 307.475 122.859 301.89 123.075C294.274 123.367 286.653 125.491 278.866 127.83C263.527 132.431 247.55 137.961 227.061 145.757C217.385 149.44 210.303 151.517 203.379 152.703C195.298 154.086 187.213 154.252 177.935 153.224C162.26 151.488 146.679 147.023 131.611 142.704L130.006 142.244C126.629 141.277 123.813 140.475 120.885 139.691C115.245 138.182 110.291 137.369 105.741 137.206C100.873 137.021 96.5463 137.609 92.8771 138.957C88.6586 140.506 85.3304 143.061 82.9857 146.55C80.0985 150.846 79.0707 156.15 79.9294 162.313C80.8119 168.645 83.5013 174.457 85.6015 178.218C86.855 180.462 88.2419 182.723 89.5834 184.91C93.9969 192.105 98.5612 199.546 99.5989 208.205C100.04 211.911 99.8563 215.572 99.0362 219.398C98.3065 222.803 97.0861 226.259 95.3054 229.963C91.999 236.841 87.2278 243.518 82.6137 249.976C78.8204 255.285 74.8982 260.774 71.8736 266.278C70.3404 269.083 69.1691 271.687 68.2924 274.241C67.3082 277.106 66.7149 279.841 66.4782 282.603C66.1008 287.005 66.601 291.469 68.0069 296.249C69.2315 300.412 71.0061 304.465 73.2942 309.271C73.807 310.351 74.3421 311.455 74.8597 312.522C78.1514 319.309 81.5549 326.328 82.6335 334.057C83.7864 342.119 82.4821 349.937 81.22 357.498C80.4456 362.138 79.6453 366.936 79.4362 371.7C79.2306 376.479 79.6313 381.432 80.6281 386.422C81.5832 391.202 83.089 396.043 85.1043 400.809C88.9716 409.954 94.7158 418.799 101.715 426.385C105.321 430.318 109.334 434.145 113.641 437.759C117.659 441.131 122.068 444.429 126.745 447.563C134.96 453.067 144.231 458.247 155.089 463.4C157.298 464.452 159.557 465.496 161.742 466.505C166.312 468.616 171.038 470.799 175.59 473.184C178.685 474.803 181.472 476.393 184.109 478.044C190.464 482.019 196.497 486.744 202.331 491.314C203.705 492.39 205.125 493.503 206.527 494.587C210.01 497.283 213.746 499.652 217.587 502.043C229.677 509.567 240.896 515.336 251.888 519.68C257.968 522.083 264.036 524.055 269.921 525.541C276.168 527.118 282.419 528.202 288.5 528.76C292.893 529.162 297.301 529.362 301.699 529.362ZM303.96 123.071C308.732 123.071 313.128 123.729 317.341 125.069C321.189 126.292 324.924 128.075 329.454 130.849C333.548 133.355 337.65 136.593 341.647 140.473C345.717 144.424 349.694 149.056 353.466 154.241C356.178 157.968 358.368 162.432 360.162 167.889C361.762 172.755 362.906 177.943 364.013 182.961C364.743 186.272 365.498 189.697 366.377 192.996C367.354 196.665 368.585 200.432 370.141 204.514C373.36 212.963 377.418 221.235 381.343 229.236C385.424 237.555 389.644 246.157 392.84 254.829C394.56 259.494 395.859 263.818 396.813 268.048C397.882 272.791 398.494 277.299 398.682 281.83C399.103 291.478 397.538 301.646 393.899 312.914C390.445 323.608 385.606 333.801 381.329 342.361C380.822 343.377 380.313 344.393 379.804 345.409C375.692 353.624 371.441 362.118 367.686 370.653C363.471 380.237 360.363 388.817 358.185 396.882C356.294 403.897 354.791 411.655 353.59 420.6C352.52 428.575 351.784 436.733 351.072 444.622C350.931 446.189 350.785 447.81 350.638 449.403C349.846 458.015 348.85 466.785 347.886 475.266C347.197 481.33 346.485 487.601 345.849 493.791C345.327 498.882 344.629 504.759 342.954 510.089C341.109 515.96 338.375 520.199 334.595 523.051C332.448 524.679 329.918 525.9 326.861 526.784C323.939 527.629 320.959 528.047 318.43 528.344C308.569 529.509 298.499 529.636 288.501 528.721C282.423 528.163 276.173 527.08 269.928 525.503C264.043 524.017 257.978 522.046 251.898 519.643C240.909 515.3 229.691 509.532 217.603 502.008C213.763 499.619 210.028 497.25 206.546 494.555C205.145 493.47 203.724 492.358 202.35 491.282C196.516 486.712 190.482 481.986 184.125 478.011C181.487 476.358 178.7 474.768 175.604 473.148C171.051 470.763 166.325 468.58 161.755 466.469C159.57 465.46 157.311 464.416 155.101 463.364C144.245 458.212 134.976 453.033 126.762 447.53C122.086 444.396 117.678 441.098 113.661 437.728C109.355 434.115 105.344 430.289 101.739 426.357C94.7417 418.774 89.0006 409.933 85.135 400.792C83.1207 396.028 81.6156 391.19 80.6611 386.413C79.665 381.426 79.2644 376.477 79.47 371.701C79.679 366.94 80.4794 362.143 81.2538 357.504C82.5158 349.94 83.8208 342.118 82.6676 334.05C81.588 326.315 78.1831 319.294 74.89 312.503C74.3724 311.436 73.8374 310.333 73.3242 309.253C71.0374 304.449 69.2635 300.397 68.0397 296.236C66.6351 291.461 66.1355 287.002 66.5123 282.606C66.7487 279.847 67.3417 277.114 68.3244 274.253C69.2001 271.702 70.3708 269.099 71.9029 266.296C74.9262 260.795 78.848 255.306 82.6406 249.998C87.2554 243.539 92.0273 236.861 95.3354 229.98C97.1178 226.273 98.3393 222.814 99.0697 219.405C99.8905 215.575 100.075 211.91 99.633 208.199C98.5943 199.531 94.0276 192.087 89.6117 184.888C88.2702 182.702 86.8837 180.441 85.6309 178.198C83.532 174.439 80.8449 168.632 79.9631 162.307C79.1055 156.153 80.1316 150.86 83.013 146.572C85.3536 143.089 88.676 140.539 92.888 138.991C96.5534 137.645 100.879 137.056 105.74 137.242C110.288 137.406 115.239 138.219 120.877 139.727C123.804 140.511 126.62 141.312 129.997 142.279L131.603 142.739C146.672 147.059 162.254 151.524 177.932 153.261C187.212 154.289 195.3 154.123 203.384 152.738C210.31 151.552 217.394 149.475 227.073 145.791C247.56 137.995 263.536 132.467 278.875 127.865C286.66 125.527 294.279 123.403 301.891 123.111C302.588 123.085 303.279 123.071 303.96 123.071Z" fill="#5EE1E5" fill-opacity="0.2"/>
<path d="M307.499 534.488C312.614 534.488 317.713 534.232 322.764 533.719C328.797 533.111 335.068 532.037 340.062 528.332C348.992 521.738 350.931 508.905 352.047 497.393C352.512 492.6 353.011 487.738 353.494 483.035C354.517 473.059 355.575 462.744 356.358 452.615C356.497 450.815 356.633 449.014 356.768 447.213C357.948 431.474 359.169 415.2 363.229 399.617C367.921 381.635 376.417 364.64 384.634 348.204C385.215 347.042 385.795 345.88 386.374 344.719C390.881 335.681 395.976 324.922 399.586 313.658C403.4 301.756 405.005 291.016 404.49 280.824C403.53 261.133 394.595 243.262 385.954 225.98C381.665 217.4 377.229 208.527 373.758 199.456C372.121 195.18 370.829 191.218 369.808 187.348C368.88 183.832 368.094 180.175 367.334 176.638C365.063 166.064 362.713 155.131 356.263 146.447C348.841 136.453 339.891 128.597 330.38 123.728C322.841 119.87 314.098 116.4 301.261 117.144C293.245 117.608 285.306 119.877 277.861 122.161C262.26 126.942 246.084 132.884 225.415 141.427C208.061 148.6 194.984 152.122 175.615 150.201C159.364 148.589 143.224 143.99 127.616 139.543L126.893 139.336C124.024 138.518 120.772 137.592 117.626 136.745C111.892 135.204 106.852 134.365 102.22 134.178C91.4668 133.728 83.4321 137.005 78.9862 143.662C76.0372 148.115 75.0497 153.587 76.0505 159.927C77.0783 166.441 79.9768 172.355 82.227 176.171C83.5327 178.385 84.9687 180.614 86.3572 182.769C91.0794 190.099 95.9625 197.679 97.0663 206.564C98.9729 221.989 89.2486 235.345 79.8448 248.261C75.7531 253.88 71.5227 259.691 68.3476 265.56C65.1177 271.56 63.3991 277.085 63.0928 282.45C62.5356 292.212 66.4131 300.613 71.1527 309.803C71.5711 310.616 71.995 311.431 72.4199 312.247C76.1286 319.375 79.9638 326.746 81.0673 334.944C82.2031 343.196 80.6199 351.211 79.0891 358.963C78.1701 363.617 77.2198 368.429 76.8757 373.223C75.5441 391.956 83.7707 412.878 98.8811 429.189C111.95 443.378 129.143 454.978 152.989 465.693C155.206 466.693 157.472 467.682 159.665 468.638C164.328 470.674 169.15 472.778 173.788 475.104C176.932 476.679 179.751 478.233 182.407 479.855C189.243 484.024 195.666 489.109 201.877 494.026C202.897 494.833 203.916 495.64 204.937 496.443C208.5 499.247 212.187 501.693 215.964 504.159C242.3 521.349 266.814 530.976 290.907 533.591C296.428 534.189 301.974 534.488 307.499 534.488ZM304.701 117.38C315.638 117.38 323.438 120.547 330.25 124.034C339.72 128.882 348.633 136.705 356.026 146.66C362.432 155.284 364.772 166.179 367.036 176.715C367.797 180.256 368.584 183.918 369.514 187.441C370.538 191.325 371.834 195.298 373.475 199.587C376.952 208.674 381.392 217.554 385.686 226.142C394.31 243.391 403.228 261.228 404.185 280.842C405.291 302.76 396.15 324.418 386.106 344.558C385.527 345.719 384.946 346.88 384.365 348.042C376.14 364.494 367.635 381.506 362.934 399.524C358.866 415.139 357.644 431.43 356.462 447.185C356.327 448.986 356.192 450.787 356.053 452.587C355.27 462.711 354.212 473.024 353.189 482.998C352.707 487.701 352.208 492.564 351.743 497.358C350.633 508.793 348.711 521.54 339.891 528.053C334.954 531.716 328.729 532.78 322.737 533.384C312.247 534.449 301.549 534.405 290.939 533.256C266.891 530.646 242.419 521.034 216.123 503.87C212.351 501.407 208.671 498.966 205.118 496.17C204.097 495.367 203.078 494.56 202.059 493.754C195.84 488.831 189.41 483.74 182.558 479.561C179.895 477.935 177.068 476.377 173.917 474.799C169.272 472.469 164.447 470.363 159.78 468.326C157.588 467.37 155.323 466.381 153.107 465.383C129.3 454.684 112.139 443.107 99.0983 428.951C84.051 412.708 75.8588 391.885 77.1833 373.25C77.526 368.479 78.4743 363.678 79.3913 359.035C80.9282 351.253 82.5172 343.207 81.3732 334.895C80.2608 326.635 76.4113 319.236 72.6882 312.081C72.2637 311.265 71.8402 310.451 71.4218 309.638C66.7071 300.496 62.849 292.141 63.4011 282.472C63.7046 277.161 65.4096 271.685 68.6136 265.732C71.7774 259.883 76.0014 254.082 80.0862 248.472C89.5302 235.5 99.2961 222.087 97.3722 206.52C96.2578 197.553 91.3529 189.939 86.6089 182.575C85.2224 180.423 83.7881 178.197 82.4858 175.989C72.0574 158.31 76.7386 147.632 79.2354 143.862C84.7716 135.571 94.7857 134.207 102.209 134.516C106.821 134.701 111.841 135.538 117.554 137.073C120.698 137.919 123.948 138.845 126.816 139.663L127.54 139.869C143.16 144.32 159.312 148.923 175.588 150.537C195.018 152.464 208.128 148.933 225.524 141.743C246.185 133.204 262.352 127.264 277.945 122.486C285.373 120.207 293.293 117.944 301.277 117.481C302.452 117.413 303.593 117.38 304.701 117.38Z" fill="#5EE1E5" fill-opacity="0.2"/>
<path d="M313.306 539.351C317.921 539.351 322.521 539.154 327.085 538.758C333.464 538.209 340.095 537.171 345.372 533.333C349.663 530.225 352.752 525.553 354.816 519.05C356.648 513.277 357.408 506.943 357.956 500.959C358.213 498.147 358.479 495.291 358.737 492.528C359.858 480.483 361.018 468.027 361.788 455.798C361.913 453.816 362.034 451.799 362.151 449.849C362.623 441.985 363.111 433.853 363.961 425.903C364.915 416.983 366.234 409.249 367.993 402.259C370.031 394.171 373.042 385.583 377.2 376.003C380.904 367.47 385.14 358.988 389.237 350.784C389.881 349.494 390.525 348.204 391.167 346.915C395.898 337.41 401.241 326.101 405 314.289C408.976 301.797 410.614 290.527 410.009 279.836C409.736 274.916 409.003 270.023 407.765 264.878C406.661 260.29 405.178 255.604 403.232 250.55C399.615 241.157 394.884 231.856 390.309 222.862C385.651 213.702 380.834 204.231 377.108 194.53C375.386 190.046 374.029 185.881 372.96 181.793C371.982 178.054 371.165 174.159 370.376 170.393C369.215 164.856 368.014 159.131 366.277 153.782C365.342 150.902 364.33 148.358 363.184 146.005C361.897 143.363 360.476 141.028 358.838 138.865C351.421 129.071 341.86 121.481 331.189 116.913C326.093 114.732 321.607 113.3 317.073 112.407C311.777 111.364 306.409 111.072 300.662 111.514C292.633 112.132 284.519 114.411 276.946 116.782C268.301 119.486 259.417 122.646 249.785 126.443C241.891 129.556 233.417 133.133 223.881 137.379C216.382 140.718 208.251 144.073 199.605 146.005C191.307 147.859 182.944 148.327 173.287 147.477C156.443 145.994 139.811 141.279 123.727 136.719L123.452 136.642C120.458 135.793 117.362 134.915 114.318 134.092C108.51 132.525 103.403 131.661 98.704 131.452C93.6347 131.219 89.1516 131.79 85.3794 133.148C81.0276 134.715 77.6107 137.341 75.2238 140.954C73.678 143.311 72.6741 145.984 72.2397 148.902C71.8441 151.557 71.9147 154.446 72.4494 157.488C73.6176 164.132 76.7095 170.115 79.0978 173.964C80.4516 176.146 81.934 178.344 83.3675 180.47C88.4187 187.96 93.6422 195.705 94.8213 204.885C95.3001 208.626 95.1269 212.311 94.2911 216.154C93.547 219.575 92.2915 223.041 90.4514 226.751C87.0343 233.641 82.0751 240.328 77.2783 246.795C72.9019 252.696 68.3761 258.798 65.0735 264.998C63.5101 267.945 62.3445 270.701 61.5108 273.423C60.5812 276.457 60.086 279.367 59.9971 282.318C59.9227 284.781 60.1232 287.199 60.6109 289.71C61.0497 291.97 61.7126 294.254 62.6374 296.693C64.3424 301.19 66.6479 305.467 69.2655 310.19C69.5775 310.754 69.8912 311.319 70.2059 311.884C74.3607 319.356 78.6569 327.083 79.788 335.79C80.2923 339.595 80.2381 343.678 79.6223 348.274C79.0733 352.371 78.1386 356.484 77.2353 360.462C76.1751 365.131 75.0785 369.958 74.6038 374.771C74.1168 379.742 74.2959 384.909 75.1354 390.129C75.9385 395.124 77.3482 400.185 79.3246 405.171C83.124 414.756 88.9783 423.957 96.2556 431.783C99.9084 435.73 103.992 439.54 108.392 443.108C112.5 446.439 117.019 449.667 121.822 452.701C130.297 458.056 139.845 462.966 151.011 467.711C153.239 468.66 155.517 469.598 157.721 470.505C162.475 472.462 167.392 474.486 172.117 476.754C175.318 478.288 178.177 479.81 180.857 481.406C188.175 485.758 194.973 491.206 201.547 496.474C202.206 497.002 202.864 497.53 203.524 498.056C207.226 501.017 211.131 503.719 214.5 506.018C227.096 514.616 239.828 521.644 252.342 526.905C259.064 529.731 265.848 532.098 272.508 533.941C279.47 535.869 286.486 537.277 293.36 538.125C299.994 538.942 306.665 539.351 313.306 539.351ZM305.744 111.352C309.624 111.352 313.363 111.714 317.067 112.444C321.599 113.336 326.083 114.767 331.177 116.948C341.842 121.513 351.399 129.1 358.812 138.889C361.867 142.922 364.298 147.798 366.246 153.794C367.982 159.142 369.182 164.865 370.343 170.401C371.133 174.168 371.949 178.063 372.928 181.804C373.997 185.892 375.354 190.059 377.077 194.544C380.804 204.247 385.622 213.719 390.28 222.88C394.854 231.874 399.584 241.173 403.201 250.564C405.147 255.617 406.629 260.301 407.732 264.887C408.97 270.03 409.703 274.92 409.975 279.838C410.58 290.524 408.943 301.789 404.969 314.277C401.21 326.085 395.868 337.393 391.137 346.896C390.495 348.186 389.851 349.476 389.207 350.766C385.11 358.97 380.874 367.453 377.17 375.987C373.011 385.569 369.999 394.159 367.961 402.248C366.201 409.241 364.882 416.977 363.928 425.898C363.077 433.85 362.589 441.982 362.117 449.846C362 451.797 361.879 453.813 361.754 455.796C360.985 468.023 359.825 480.479 358.703 492.524C358.445 495.287 358.179 498.143 357.922 500.955C357.375 506.937 356.615 513.269 354.784 519.038C352.722 525.533 349.637 530.198 345.354 533.302C340.083 537.136 333.457 538.172 327.083 538.721C315.951 539.686 304.606 539.473 293.364 538.088C286.492 537.24 279.477 535.833 272.516 533.905C265.858 532.062 259.075 529.695 252.355 526.87C239.842 521.61 227.112 514.583 214.518 505.987C211.15 503.687 207.246 500.986 203.544 498.026C202.885 497.5 202.226 496.972 201.568 496.444C194.993 491.175 188.194 485.726 180.873 481.373C178.193 479.776 175.333 478.254 172.131 476.72C167.406 474.452 162.488 472.428 157.733 470.471C155.53 469.564 153.251 468.626 151.024 467.676C139.859 462.932 130.313 458.023 121.839 452.67C117.037 449.635 112.52 446.409 108.413 443.078C104.014 439.511 99.9316 435.702 96.2801 431.756C89.0059 423.934 83.154 414.736 79.3563 405.156C77.3809 400.173 75.9722 395.114 75.1695 390.123C74.3306 384.906 74.152 379.742 74.6382 374.775C75.1126 369.965 76.2085 365.138 77.2687 360.472C78.1723 356.493 79.107 352.378 79.6564 348.279C80.2729 343.68 80.3271 339.593 79.8225 335.785C78.6904 327.07 74.392 319.34 70.2356 311.865C69.9212 311.299 69.6071 310.735 69.2955 310.171C66.6786 305.449 64.3735 301.174 62.6695 296.679C61.7454 294.242 61.0835 291.96 60.6446 289.702C60.1577 287.195 59.9571 284.78 60.0315 282.32C60.1205 279.372 60.6153 276.466 61.5435 273.436C62.3766 270.716 63.5411 267.962 65.1035 265.017C68.4051 258.819 72.9298 252.719 77.3056 246.819C82.1027 240.351 87.0636 233.662 90.4821 226.77C92.3232 223.057 93.5804 219.588 94.3249 216.163C95.161 212.317 95.3349 208.626 94.8558 204.88C93.6749 195.692 88.4491 187.942 83.3955 180.449C81.9622 178.323 80.4799 176.125 79.1265 173.944C76.7402 170.097 73.6504 164.119 72.4835 157.481C71.9495 154.444 71.8789 151.56 72.2737 148.908C72.7072 145.997 73.7094 143.328 75.2517 140.977C77.6343 137.37 81.0457 134.748 85.3903 133.184C89.1591 131.827 93.6388 131.259 98.7029 131.49C103.399 131.698 108.505 132.562 114.31 134.129C117.354 134.951 120.45 135.83 123.444 136.679L123.719 136.757C139.804 141.317 156.437 146.032 173.284 147.515C182.944 148.366 191.31 147.898 199.612 146.043C208.26 144.111 216.393 140.754 223.893 137.415C233.429 133.169 241.902 129.592 249.797 126.48C259.427 122.683 268.311 119.523 276.956 116.819C284.526 114.449 292.638 112.17 300.664 111.553C302.389 111.419 304.08 111.352 305.744 111.352Z" fill="#5EE1E5" fill-opacity="0.2"/>
<path d="M319.116 544.405C323.237 544.405 327.346 544.255 331.43 543.955C338.174 543.463 345.185 542.457 350.771 538.468C355.313 535.233 358.578 530.347 360.752 523.533C362.71 517.393 363.499 510.491 364.012 504.548C365.293 489.698 366.617 474.342 367.366 459.002C367.47 456.856 367.569 454.671 367.665 452.559C368.021 444.692 368.389 436.559 369.134 428.603C369.97 419.68 371.202 411.942 372.9 404.949C374.896 396.744 377.905 388.038 382.099 378.334C385.835 369.692 390.13 361.108 394.283 352.807C394.886 351.601 395.489 350.395 396.091 349.19C401.055 339.159 406.654 327.248 410.542 314.971C414.693 301.862 416.372 290.046 415.675 278.847C415.362 273.731 414.567 268.645 413.246 263.297C412.067 258.529 410.493 253.659 408.432 248.409C404.603 238.651 399.616 228.995 394.793 219.657C389.769 209.929 384.573 199.869 380.597 189.553C378.79 184.866 377.37 180.5 376.256 176.205C375.229 172.247 374.383 168.117 373.565 164.124C372.377 158.327 371.15 152.332 369.344 146.741C368.371 143.731 367.314 141.075 366.111 138.623C364.76 135.87 363.262 133.441 361.531 131.197C352.103 118.979 340.305 112.91 332.069 109.97C326.766 108.077 321.822 106.813 316.956 106.104C311.442 105.301 305.918 105.183 300.069 105.742C291.569 106.556 283.136 108.992 276.007 111.266C267.247 114.06 258.251 117.388 248.502 121.441C240.517 124.76 231.95 128.606 222.311 133.198C214.649 136.848 206.37 140.521 197.74 142.665C189.334 144.755 180.831 145.372 170.983 144.611C163.299 144.017 154.995 142.687 145.595 140.543C137.532 138.705 129.834 136.568 120.609 133.965L119.795 133.736C116.929 132.927 113.966 132.091 111.055 131.3C105.247 129.725 99.915 128.811 95.2061 128.583C94.3929 128.543 93.5943 128.523 92.8113 128.523C88.616 128.523 84.8701 129.101 81.6483 130.249C77.2273 131.824 73.7672 134.487 71.3628 138.164C69.7932 140.579 68.7906 143.317 68.3824 146.304C68.0111 149.021 68.127 151.974 68.7268 155.081C70.0397 161.881 73.3341 167.951 75.8667 171.845C77.2696 174.002 78.7989 176.175 80.2779 178.276C82.9547 182.079 85.7223 186.012 87.9316 190.109C90.4138 194.711 91.893 199.003 92.4536 203.233C92.9511 206.998 92.7823 210.704 91.9367 214.562C91.1837 217.998 89.907 221.477 88.0342 225.197C84.5547 232.106 79.4919 238.81 74.5954 245.293C69.9367 251.462 65.1194 257.841 61.6948 264.366C60.1156 267.386 58.9531 270.218 58.1412 273.023C57.2389 276.142 56.7929 279.139 56.7782 282.184C56.7659 284.714 57.0459 287.197 57.6344 289.776C58.1616 292.087 58.9268 294.425 59.9737 296.924C61.9791 301.71 64.7917 306.463 67.2728 310.657C67.4696 310.99 67.6666 311.324 67.8638 311.657C72.4717 319.442 77.2358 327.493 78.386 336.665C78.8828 340.558 78.7662 344.735 78.0303 349.436C77.3739 353.628 76.2967 357.84 75.2546 361.913C74.0536 366.608 72.8117 371.464 72.2081 376.314C71.5806 381.38 71.6485 386.655 72.4093 391.991C73.1366 397.093 74.4979 402.264 76.4549 407.361C80.2195 417.163 86.1294 426.544 93.5461 434.489C97.2221 438.443 101.341 442.246 105.788 445.791C109.942 449.102 114.515 452.294 119.381 455.279C127.985 460.558 137.671 465.332 148.992 469.875C151.233 470.776 153.525 471.664 155.741 472.523C160.585 474.4 165.594 476.341 170.4 478.546C173.651 480.036 176.546 481.524 179.25 483.093C187.036 487.608 194.185 493.417 201.1 499.035L202.041 499.799C205.812 502.862 209.685 505.67 212.976 508.014C225.884 517.206 239.207 524.786 252.574 530.541C266.941 536.727 281.487 540.857 295.81 542.815C303.558 543.874 311.358 544.405 319.116 544.405ZM361.517 131.21L361.504 131.222C363.234 133.463 364.73 135.89 366.08 138.641C367.282 141.092 368.339 143.745 369.311 146.754C371.117 152.342 372.344 158.336 373.531 164.133C374.349 168.127 375.195 172.257 376.223 176.216C377.337 180.512 378.758 184.88 380.565 189.568C384.542 199.887 389.738 209.947 394.763 219.676C399.586 229.013 404.573 238.668 408.401 248.424C410.46 253.673 412.034 258.541 413.212 263.307C414.534 268.652 415.328 273.737 415.641 278.85C416.337 290.044 414.659 301.855 410.509 314.959C406.623 327.234 401.024 339.143 396.061 349.173C395.459 350.378 394.856 351.583 394.253 352.79C390.099 361.091 385.805 369.675 382.068 378.319C377.873 388.024 374.863 396.732 372.868 404.94C371.169 411.935 369.937 419.674 369.101 428.6C368.355 436.556 367.987 444.691 367.631 452.557C367.536 454.67 367.437 456.854 367.332 459.001C366.584 474.34 365.259 489.695 363.978 504.545C363.466 510.485 362.678 517.385 360.721 523.521C358.549 530.327 355.289 535.206 350.753 538.437C345.173 542.421 338.168 543.426 331.429 543.918C319.659 544.782 307.677 544.399 295.815 542.779C281.495 540.822 266.951 536.693 252.588 530.508C239.223 524.753 225.902 517.175 212.995 507.984C209.705 505.641 205.833 502.833 202.062 499.77L201.121 499.006C194.206 493.388 187.054 487.577 179.266 483.061C176.561 481.491 173.665 480.003 170.414 478.513C165.606 476.307 160.597 474.366 155.753 472.489C153.537 471.63 151.245 470.742 149.004 469.841C137.686 465.299 128.001 460.525 119.398 455.247C114.533 452.263 109.961 449.071 105.809 445.762C101.363 442.217 97.2457 438.416 93.5707 434.463C86.157 426.522 80.2499 417.145 76.4869 407.347C74.5306 402.253 73.1701 397.085 72.4434 391.986C71.6833 386.654 71.6154 381.382 72.2425 376.32C72.8454 371.472 74.087 366.618 75.288 361.924C76.3301 357.85 77.4077 353.637 78.0644 349.443C78.801 344.739 78.9176 340.557 78.4204 336.66C77.2689 327.48 72.5027 319.426 67.8927 311.637C67.6956 311.304 67.4985 310.971 67.3018 310.638C64.821 306.445 62.0095 301.693 60.0051 296.909C58.9592 294.412 58.1947 292.076 57.6679 289.767C57.0803 287.192 56.8007 284.712 56.8126 282.185C56.8273 279.143 57.273 276.15 58.1743 273.035C58.9855 270.232 60.1466 267.402 61.7244 264.385C65.1477 257.863 69.9643 251.485 74.622 245.318C79.5192 238.833 84.5833 232.128 88.0646 225.215C89.9391 221.493 91.2165 218.011 91.9704 214.571C92.8164 210.709 92.9859 206.998 92.4877 203.228C91.9264 198.994 90.4458 194.697 87.9613 190.09C85.7509 185.992 82.982 182.058 80.3051 178.254C78.8262 176.154 77.2972 173.981 75.8946 171.824C73.3638 167.933 70.0721 161.868 68.7603 155.074C68.1611 151.972 68.0455 149.023 68.4165 146.31C68.8237 143.329 69.8245 140.597 71.3911 138.187C73.7907 134.516 77.2454 131.858 81.6589 130.285C85.4781 128.925 90.0332 128.366 95.2051 128.622C99.9116 128.849 105.242 129.763 111.047 131.338C113.958 132.128 116.921 132.964 119.787 133.773L120.6 134.002C129.827 136.605 137.525 138.742 145.589 140.581C154.99 142.724 163.296 144.055 170.981 144.649C180.834 145.411 189.339 144.793 197.748 142.703C206.38 140.558 214.662 136.884 222.324 133.233C231.963 128.642 240.53 124.796 248.514 121.476C258.262 117.424 267.258 114.097 276.017 111.303C283.144 109.029 291.575 106.594 300.072 105.78C305.919 105.221 311.44 105.339 316.952 106.142C321.816 106.851 326.758 108.114 332.058 110.006C340.291 112.945 352.083 119.011 361.505 131.222L361.517 131.21Z" fill="#5EE1E5" fill-opacity="0.2"/>
<path d="M324.925 549.501C328.557 549.501 332.18 549.39 335.785 549.168C342.893 548.732 350.284 547.758 356.178 543.618C358.689 541.858 360.873 539.562 362.669 536.793C364.273 534.32 365.63 531.372 366.7 528.032C368.781 521.537 369.575 514.339 370.076 508.155C371.181 494.545 372.386 478.445 372.952 462.223C373.032 459.927 373.104 457.59 373.174 455.33C373.416 447.454 373.666 439.309 374.308 431.343C375.029 422.406 376.177 414.658 377.817 407.656C379.74 399.452 382.697 390.756 386.855 381.067C390.558 372.439 394.836 363.874 398.973 355.59C399.646 354.243 400.342 352.851 401.023 351.482C406.212 340.987 412.063 328.526 416.106 315.678C420.423 301.961 422.138 289.596 421.349 277.876C420.996 272.563 420.14 267.281 418.734 261.728C417.481 256.779 415.814 251.725 413.64 246.276C409.599 236.151 404.354 226.137 399.282 216.453C393.891 206.161 388.317 195.52 384.092 184.594C382.201 179.703 380.718 175.137 379.558 170.634C378.483 166.458 377.608 162.094 376.764 157.874C375.55 151.815 374.296 145.549 372.42 139.716C371.411 136.575 370.307 133.808 369.046 131.256C367.631 128.392 366.056 125.87 364.231 123.546C360.259 118.489 355.368 114.116 349.694 110.548C344.652 107.377 339.02 104.852 332.955 103.044C321.451 99.6664 310.813 98.6959 299.483 99.9877C292.42 100.793 284.893 102.577 275.074 105.768C266.203 108.65 257.094 112.146 247.227 116.456C239.157 119.98 230.496 124.095 220.748 129.034C211.732 133.604 204.053 137.102 195.884 139.327C187.382 141.642 178.74 142.416 168.686 141.763C160.843 141.221 152.402 139.93 142.882 137.815C134.37 135.925 126.018 133.62 117.497 131.228L116.004 130.809C113.313 130.053 110.531 129.272 107.799 128.526C101.909 126.922 96.4976 125.982 91.7154 125.732C86.4388 125.451 81.7978 126.002 77.9247 127.368C73.4351 128.951 69.9309 131.651 67.5095 135.391C65.916 137.865 64.9145 140.668 64.5326 143.722C64.1851 146.503 64.3461 149.52 65.0106 152.691C66.4694 159.649 69.9661 165.804 72.6426 169.744C74.0932 171.879 75.6689 174.029 77.1925 176.109C80.0293 179.981 82.9626 183.985 85.3039 188.166C87.9337 192.862 89.5006 197.256 90.0929 201.598C90.6096 205.392 90.4441 209.121 89.5882 212.999C88.8251 216.454 87.5265 219.948 85.618 223.681C82.0729 230.618 76.902 237.345 71.9013 243.851C66.9646 250.273 61.8605 256.914 58.323 263.753C56.7274 266.844 55.568 269.752 54.7786 272.641C53.9029 275.845 53.506 278.929 53.5661 282.068C53.6155 284.652 53.9711 287.188 54.6542 289.821C55.2639 292.174 56.1242 294.554 57.2833 297.099C59.4401 301.835 62.2366 306.286 65.1972 311L65.5123 311.502C70.5833 319.582 75.8268 327.937 76.992 337.557C77.4804 341.535 77.3013 345.803 76.4451 350.605C75.6809 354.889 74.4598 359.196 73.2789 363.361C71.9377 368.09 70.5509 372.982 69.8211 377.876C69.0532 383.038 69.0099 388.419 69.6919 393.871C70.3432 399.08 71.6564 404.361 73.594 409.568C77.3228 419.589 83.2886 429.149 90.8452 437.215C94.5447 441.176 98.6987 444.97 103.193 448.492C107.392 451.783 112.02 454.939 116.948 457.875C125.683 463.077 135.508 467.716 146.982 472.057C149.236 472.912 151.542 473.751 153.772 474.563C158.704 476.359 163.804 478.216 168.693 480.359C171.997 481.806 174.928 483.259 177.652 484.801C185.898 489.462 193.356 495.613 200.568 501.561C203.74 504.177 207.303 506.946 211.461 510.029C224.672 519.821 238.582 527.956 252.806 534.207C267.766 540.782 283.062 545.263 298.269 547.524C307.126 548.84 316.053 549.501 324.925 549.501ZM364.218 123.558L364.205 123.57C366.029 125.892 367.603 128.412 369.017 131.275C370.276 133.825 371.379 136.59 372.388 139.729C374.263 145.56 375.517 151.824 376.731 157.883C377.576 162.103 378.45 166.468 379.526 170.645C380.686 175.149 382.169 179.717 384.061 184.609C388.287 195.536 393.861 206.179 399.253 216.472C404.324 226.155 409.569 236.167 413.609 246.291C415.783 251.738 417.449 256.791 418.702 261.739C420.107 267.289 420.962 272.568 421.316 277.879C422.104 289.593 420.39 301.954 416.075 315.666C412.032 328.512 406.182 340.971 400.993 351.465C400.313 352.833 399.617 354.226 398.944 355.572C394.807 363.856 390.529 372.423 386.825 381.052C382.666 390.742 379.709 399.441 377.784 407.646C376.143 414.65 374.995 422.4 374.275 431.34C373.633 439.307 373.382 447.452 373.14 455.329C373.071 457.589 372.999 459.926 372.919 462.222C372.353 478.443 371.148 494.542 370.043 508.151C369.541 514.334 368.748 521.529 366.668 528.02C365.599 531.357 364.244 534.301 362.642 536.771C360.848 539.537 358.668 541.829 356.16 543.587C350.272 547.723 342.887 548.696 335.783 549.131C332.18 549.353 328.556 549.464 324.926 549.464C316.054 549.464 307.13 548.803 298.274 547.487C283.07 545.226 267.777 540.747 252.819 534.172C238.598 527.922 224.69 519.788 211.481 509.998C207.323 506.916 203.76 504.146 200.589 501.531C193.376 495.582 185.917 489.43 177.669 484.767C174.943 483.225 172.011 481.771 168.706 480.323C163.816 478.18 158.716 476.323 153.783 474.527C151.553 473.715 149.248 472.876 146.994 472.022C135.521 467.682 125.698 463.043 116.965 457.842C112.037 454.907 107.411 451.751 103.213 448.461C98.7202 444.94 94.5672 441.147 90.8694 437.187C83.3159 429.125 77.3531 419.57 73.626 409.554C71.6891 404.349 70.377 399.071 69.7257 393.866C69.0443 388.418 69.0877 383.04 69.8549 377.881C70.5843 372.99 71.9708 368.1 73.3116 363.371C74.4928 359.205 75.7143 354.898 76.4785 350.612C77.3357 345.806 77.5148 341.534 77.0261 337.552C75.8599 327.923 70.6136 319.565 65.5406 311.481L65.2251 310.979C62.2653 306.266 59.4698 301.816 57.314 297.083C56.1553 294.539 55.2963 292.161 54.6869 289.811C54.0049 287.181 53.6492 284.648 53.5998 282.067C53.5401 278.932 53.936 275.852 54.8111 272.652C55.5998 269.765 56.7585 266.86 58.3526 263.771C61.8888 256.936 66.9922 250.296 71.9275 243.875C76.9293 237.368 82.1009 230.639 85.648 223.7C87.5579 219.964 88.8575 216.466 89.621 213.008C90.4786 209.126 90.644 205.392 90.1267 201.593C89.5333 197.246 87.9651 192.848 85.3326 188.147C82.9902 183.963 80.0559 179.959 77.2188 176.086C75.6952 174.006 74.1198 171.856 72.6695 169.721C69.9951 165.786 66.5009 159.634 65.0438 152.683C64.3802 149.516 64.2192 146.504 64.5663 143.728C64.9472 140.68 65.9471 137.882 67.5375 135.414C69.9542 131.68 73.4525 128.985 77.9349 127.404C81.8042 126.04 86.4402 125.49 91.7137 125.77C96.4938 126.02 101.903 126.959 107.791 128.564C110.523 129.308 113.305 130.09 115.996 130.846L117.489 131.265C126.009 133.658 134.363 135.962 142.876 137.853C152.397 139.967 160.839 141.259 168.684 141.8C178.742 142.454 187.387 141.68 195.892 139.364C204.063 137.139 211.744 133.639 220.762 129.068C230.51 124.129 239.171 120.015 247.24 116.491C257.107 112.182 266.215 108.687 275.085 105.805C284.9 102.614 292.426 100.831 299.486 100.025C310.815 98.7325 321.447 99.7042 332.947 103.081C339.009 104.888 344.638 107.411 349.678 110.581C355.349 114.147 360.237 118.518 364.206 123.571L364.218 123.558Z" fill="#5EE1E5" fill-opacity="0.2"/>
<path d="M330.731 554.801C333.881 554.801 337.022 554.721 340.152 554.562C347.644 554.182 355.435 553.237 361.665 548.927C372.603 541.37 375.155 526.619 376.284 511.805C377.603 494.489 378.387 479.335 378.682 465.479C378.733 463.047 378.773 460.612 378.813 458.176C379.074 442.386 379.343 426.058 382.872 410.431C387.005 392.143 395.551 375.004 403.816 358.429C404.573 356.911 405.329 355.395 406.082 353.878C417.325 331.125 429.154 304.538 427.167 276.924C425.525 253.962 414.528 233.235 403.894 213.191C398.14 202.345 392.189 191.13 387.721 179.608C385.747 174.516 384.202 169.755 383 165.055C381.877 160.666 380.976 156.07 380.105 151.625C377.622 138.956 375.054 125.856 367.041 115.828C357.421 103.788 343.698 98.4017 333.88 96.004C322.154 93.1724 310.708 92.5546 298.888 94.1164C291.487 95.0937 283.614 97.0138 274.111 100.158C257.703 105.585 240.747 113.175 219.133 124.768C202.354 133.768 188.751 140.042 166.404 138.797C149.211 137.791 132.693 133.483 114.427 128.378L112.215 127.759C109.667 127.046 107.124 126.334 104.584 125.639C98.604 124.002 93.105 123.035 88.2393 122.763C76.452 122.096 68.1465 125.395 63.5519 132.564C60.4144 137.476 59.6127 143.466 61.17 150.368C62.7806 157.509 66.49 163.77 69.3179 167.765C70.8169 169.883 72.4391 172.015 74.0076 174.076C80.0102 181.966 86.2175 190.124 87.605 200.018C89.8239 215.868 79.2863 229.344 69.0959 242.377C63.8813 249.046 58.4894 255.942 54.8394 263.096C51.4713 269.709 49.9621 275.889 50.225 281.989C50.6638 292.871 56.5433 301.725 62.7683 311.1L63.1976 311.747C68.655 319.975 74.2985 328.484 75.4695 338.499C76.5338 347.515 73.8109 356.288 71.1773 364.773C69.6954 369.548 68.1632 374.485 67.306 379.439C65.5294 389.728 66.6727 400.939 70.6126 411.861C74.3132 422.119 80.3448 431.876 88.0555 440.077C101.407 454.308 120.013 465.539 144.936 474.411C147.206 475.22 149.528 476.012 151.772 476.779C156.79 478.491 161.978 480.262 166.943 482.34C170.288 483.738 173.251 485.154 176 486.671C184.649 491.437 192.617 498.109 199.019 503.471C202.618 506.485 206.27 509.42 209.874 512.195C237.441 533.42 268.853 547.326 300.715 552.41C310.684 554.002 320.745 554.801 330.731 554.801ZM311.443 93.6153C318.9 93.6153 326.299 94.5181 333.813 96.3327C343.586 98.7196 357.244 104.078 366.81 116.05C374.771 126.013 377.331 139.069 379.805 151.696C380.677 156.145 381.579 160.746 382.704 165.145C383.91 169.86 385.459 174.634 387.438 179.739C391.914 191.281 397.87 202.505 403.629 213.36C414.246 233.372 425.225 254.065 426.861 276.95C428.842 304.473 417.035 331.007 405.812 353.717C405.06 355.233 404.304 356.75 403.547 358.267C395.273 374.861 386.717 392.019 382.574 410.35C379.036 426.014 378.767 442.361 378.506 458.17C378.466 460.605 378.426 463.039 378.374 465.47C378.08 479.32 377.296 494.467 375.978 511.777C374.855 526.504 372.325 541.163 361.501 548.642C355.332 552.91 347.587 553.848 340.138 554.226C327.102 554.888 313.853 554.167 300.759 552.078C268.944 547.001 237.578 533.115 210.051 511.92C206.45 509.147 202.801 506.215 199.205 503.204C192.793 497.834 184.812 491.151 176.138 486.37C173.379 484.849 170.407 483.428 167.053 482.025C162.078 479.944 156.886 478.172 151.864 476.457C149.62 475.691 147.299 474.899 145.031 474.091C120.154 465.236 101.587 454.03 88.2696 439.835C80.59 431.668 74.5829 421.951 70.8984 411.737C66.98 400.875 65.842 389.728 67.6078 379.502C68.4606 374.571 69.9893 369.645 71.4678 364.881C74.1127 356.36 76.8471 347.549 75.7737 338.456C74.5924 328.356 68.9257 319.812 63.4459 311.549L63.0162 310.902C56.8192 301.569 50.9659 292.755 50.5312 281.974C50.2713 275.938 51.768 269.817 55.107 263.261C58.7421 256.135 64.1238 249.252 69.3288 242.596C79.5646 229.506 90.1486 215.97 87.9078 199.967C86.5073 189.98 80.2725 181.786 74.2433 173.861C72.6764 171.801 71.0559 169.672 69.5603 167.559C55.9094 148.274 61.7027 136.046 63.8033 132.758C68.3331 125.689 76.5553 122.436 88.2236 123.1C93.0692 123.37 98.5484 124.334 104.509 125.965C107.049 126.66 109.592 127.372 112.139 128.085L114.351 128.704C132.633 133.814 149.167 138.125 166.388 139.133C168.297 139.239 170.145 139.291 171.934 139.291C191.156 139.291 203.879 133.324 219.268 125.07C240.866 113.486 257.807 105.902 274.2 100.48C283.685 97.3418 291.542 95.4258 298.925 94.4508C303.135 93.8943 307.298 93.6153 311.443 93.6153Z" fill="#5EE1E5" fill-opacity="0.2"/>
<path d="M336.541 559.866C339.206 559.866 341.863 559.811 344.514 559.702C352.352 559.38 360.503 558.469 367.014 554.027C369.786 552.137 372.196 549.657 374.178 546.656C375.951 543.971 377.446 540.769 378.619 537.137C380.964 529.884 381.779 521.75 382.227 515.475C383.401 499.014 384.029 483.738 384.146 468.771C384.166 466.214 384.172 463.609 384.179 461.091C384.198 453.176 384.218 444.992 384.659 436.985C385.155 428.001 386.139 420.213 387.67 413.178C389.459 404.958 392.321 396.258 396.419 386.58C400.068 377.959 404.325 369.409 408.442 361.14C409.252 359.512 410.09 357.829 410.909 356.175C416.549 344.755 422.902 331.193 427.258 317.201C431.906 302.267 433.693 288.804 432.72 276.041C432.286 270.329 431.309 264.654 429.735 258.69C428.332 253.374 426.482 247.947 424.078 242.099C419.613 231.231 413.85 220.496 408.277 210.113C402.154 198.708 395.823 186.915 391.106 174.782C389.044 169.48 387.435 164.514 386.186 159.599C385.014 154.989 384.086 150.157 383.189 145.483C381.924 138.897 380.616 132.087 378.603 125.768C377.518 122.367 376.322 119.377 374.945 116.627C373.4 113.54 371.669 110.833 369.653 108.351C365.532 103.278 360.187 99.0304 353.766 95.7261C348.168 92.8456 341.77 90.6835 334.752 89.3001C328.769 88.1283 322.679 87.4768 316.651 87.3624C310.67 87.2509 304.508 87.6612 298.332 88.5853C290.573 89.7474 282.362 91.8059 273.232 94.8779C264.165 97.9282 254.834 101.764 244.705 106.604C236.444 110.552 227.845 115.067 217.645 120.813C208.008 126.28 200.389 130.194 192.197 132.81C187.885 134.188 183.62 135.126 179.158 135.681C174.458 136.266 169.537 136.426 164.115 136.172C155.986 135.78 147.272 134.578 137.476 132.5C128.449 130.584 119.594 128.17 111.297 125.861C110.229 125.565 109.163 125.267 108.098 124.97C105.871 124.348 103.569 123.705 101.309 123.085C95.258 121.422 89.6884 120.43 84.7559 120.137C79.2685 119.809 74.4727 120.339 70.498 121.712C65.8709 123.312 62.2799 126.084 59.8244 129.953C58.1825 132.544 57.1836 135.476 56.8542 138.668C56.5548 141.573 56.8058 144.719 57.6003 148.017C58.3205 151.007 59.4833 154.116 61.056 157.258C62.4865 160.115 64.2226 162.938 66.2154 165.647C67.7598 167.746 69.4266 169.86 71.0381 171.905C74.1965 175.911 77.4622 180.053 80.0675 184.398C81.4707 186.739 82.5714 188.943 83.4321 191.137C84.3995 193.603 85.0406 195.99 85.3922 198.436C85.947 202.294 85.7884 206.079 84.9073 210.006C84.1219 213.506 82.776 217.04 80.7928 220.811C77.1069 227.818 71.7096 234.607 66.4906 241.171C61.0097 248.065 55.3422 255.194 51.5994 262.63C48.214 269.363 46.7627 275.68 47.162 281.941C47.3267 284.582 47.8147 287.173 48.6535 289.859C49.401 292.255 50.4131 294.674 51.7474 297.255C54.2272 302.052 57.4858 306.713 60.6369 311.22C60.8698 311.553 61.1024 311.886 61.3349 312.219C64.4913 316.741 67.2892 320.839 69.5701 325.207C72.1839 330.211 73.7058 334.869 74.2231 339.447C74.6933 343.588 74.3874 348.029 73.2894 353.024C72.3087 357.482 70.7987 361.972 69.3386 366.313C67.7192 371.127 66.0449 376.106 65.0655 381.104C64.0176 386.457 63.752 392.053 64.2757 397.737C64.7756 403.158 65.992 408.659 67.8914 414.089C71.5493 424.545 77.6252 434.463 85.4624 442.77C89.2079 446.745 93.4336 450.523 98.0214 453.999C102.31 457.249 107.048 460.335 112.102 463.171C121.097 468.219 131.198 472.588 142.981 476.526C145.264 477.29 147.6 478.035 149.859 478.756C154.966 480.386 160.247 482.072 165.297 484.087C168.698 485.442 171.7 486.827 174.477 488.319C182.812 492.798 190.191 498.854 197.642 505.188C201.637 508.585 205.005 511.411 208.451 514.162C222.24 525.171 237.316 534.426 253.26 541.668C269.372 548.986 286.177 554.16 303.207 557.047C314.273 558.922 325.453 559.866 336.541 559.866ZM369.629 108.376C371.643 110.856 373.372 113.56 374.916 116.645C376.292 119.393 377.487 122.381 378.571 125.781C380.584 132.097 381.891 138.906 383.156 145.491C384.054 150.165 384.982 154.998 386.154 159.609C387.403 164.526 389.013 169.493 391.075 174.796C395.793 186.931 402.125 198.726 408.248 210.132C413.82 220.514 419.583 231.248 424.048 242.114C426.45 247.961 428.3 253.387 429.703 258.701C431.276 264.662 432.252 270.335 432.686 276.044C433.659 288.801 431.873 302.26 427.226 317.189C422.871 331.179 416.518 344.738 410.879 356.157C410.06 357.812 409.222 359.495 408.412 361.122C404.295 369.391 400.038 377.942 396.388 386.564C392.289 396.245 389.427 404.947 387.637 413.17C386.106 420.207 385.121 427.997 384.625 436.983C384.183 444.991 384.163 453.176 384.144 461.091C384.138 463.609 384.132 466.214 384.112 468.772C383.995 483.737 383.367 499.013 382.193 515.472C381.745 521.745 380.931 529.876 378.587 537.125C377.415 540.752 375.922 543.952 374.15 546.635C372.171 549.631 369.764 552.108 366.996 553.995C360.492 558.433 352.346 559.343 344.513 559.665C330.831 560.227 316.934 559.335 303.213 557.01C286.186 554.124 269.384 548.951 253.275 541.634C237.334 534.393 222.26 525.14 208.472 514.133C205.027 511.382 201.659 508.556 197.664 505.159C190.212 498.824 182.832 492.766 174.493 488.286C171.716 486.793 168.712 485.408 165.311 484.052C160.259 482.037 154.977 480.351 149.87 478.721C147.611 478 145.276 477.255 142.993 476.491C131.211 472.553 121.113 468.186 112.119 463.139C107.066 460.303 102.33 457.218 98.0426 453.968C93.4565 450.493 89.2321 446.716 85.4883 442.743C77.6538 434.44 71.581 424.527 67.9251 414.076C66.0271 408.65 64.8111 403.152 64.3115 397.734C63.7881 392.053 64.0534 386.461 65.101 381.113C66.0797 376.117 67.7536 371.14 69.3727 366.327C70.8332 361.985 72.3438 357.494 73.3245 353.034C74.4242 348.034 74.7298 343.589 74.2592 339.444C73.7416 334.86 72.218 330.197 69.6022 325.189C67.3202 320.82 64.5213 316.721 61.3646 312.198C61.1317 311.864 60.8992 311.532 60.6666 311.199C57.5158 306.692 54.2579 302.033 51.7791 297.238C50.4462 294.659 49.4347 292.242 48.6876 289.849C47.8501 287.165 47.3628 284.577 47.1981 281.939C46.7991 275.686 48.2494 269.376 51.6315 262.65C55.3726 255.217 61.0387 248.09 66.5182 241.198C71.7389 234.631 77.1369 227.841 80.8241 220.831C82.8091 217.058 84.1561 213.52 84.942 210.017C85.8242 206.085 85.9831 202.296 85.428 198.431C85.0757 195.982 84.4336 193.592 83.4652 191.124C82.6038 188.928 81.502 186.721 80.0975 184.379C77.4905 180.032 74.2241 175.889 71.0654 171.881C69.4539 169.838 67.7877 167.724 66.2433 165.625C64.2516 162.918 62.5169 160.097 61.0874 157.241C59.5161 154.102 58.3543 150.997 57.6348 148.009C56.8413 144.715 56.5903 141.574 56.8894 138.673C57.2181 135.488 58.2152 132.561 59.8533 129.976C64.4343 122.758 72.813 119.461 84.7545 120.175C89.685 120.468 95.2522 121.46 101.302 123.122C103.561 123.743 105.863 124.386 108.09 125.007C109.155 125.304 110.221 125.602 111.288 125.899C119.586 128.207 128.442 130.621 137.47 132.538C147.268 134.617 155.983 135.819 164.114 136.211C169.537 136.466 174.46 136.304 179.163 135.719C183.626 135.165 187.893 134.225 192.207 132.847C196.111 131.6 200.162 129.955 204.592 127.815C208.243 126.053 212.273 123.904 217.661 120.848C227.86 115.102 236.458 110.587 244.719 106.639C254.847 101.8 264.177 97.9645 273.243 94.9142C282.371 91.8425 290.579 89.7848 298.337 88.6231C304.511 87.6986 310.672 87.2857 316.651 87.4001C322.677 87.5142 328.765 88.1657 334.746 89.3367C341.762 90.7194 348.156 92.8807 353.752 95.7602C360.169 99.0622 365.51 103.307 369.629 108.376Z" fill="#5EE1E5" fill-opacity="0.2"/>
<path d="M342.213 565.303C344.438 565.303 346.663 565.267 348.89 565.196C357.111 564.929 365.663 564.048 372.51 559.436C384.739 551.199 387.428 534.486 388.446 519.223C389.486 503.617 389.971 487.77 389.887 472.122C389.872 469.447 389.841 466.722 389.812 464.087C389.631 448.199 389.445 431.77 392.737 416.05C396.58 397.705 405.094 380.577 413.329 364.013C414.215 362.231 415.1 360.45 415.979 358.669C428.159 333.993 440.952 305.157 438.548 275.187C436.573 250.561 424.537 228.379 412.896 206.927C403.776 190.119 394.345 172.738 389.639 154.119C388.421 149.298 387.467 144.233 386.545 139.335C383.96 125.607 381.288 111.411 372.473 100.731C362.573 88.7326 346.999 84.1167 335.678 82.357C292.476 75.6437 250.954 95.9239 216.036 116.65C199.151 126.672 186.229 133.38 165.668 133.381C164.421 133.381 163.148 133.356 161.842 133.306C142.128 132.55 122.684 127.136 103.88 121.9C101.952 121.363 100.027 120.827 98.1049 120.297C89.0459 117.798 81.1347 116.783 74.595 117.284C65.9057 117.948 59.6081 121.294 55.8775 127.227C52.6452 132.369 51.9369 138.617 53.7725 145.799C55.2596 151.618 58.5033 158.001 62.9059 163.773C64.4977 165.859 66.2098 167.959 67.8657 169.99C74.5128 178.143 81.3864 186.573 82.9161 196.957C85.2939 213.094 74.3035 226.696 63.6752 239.851C53.2679 252.733 42.5059 266.053 43.8331 281.969C44.7674 293.17 51.6525 302.555 58.3109 311.631C64.81 320.49 71.5301 329.65 72.7124 340.488C73.7347 349.853 70.4372 358.974 67.2485 367.794C65.489 372.661 63.6693 377.695 62.5645 382.762C58.0043 403.675 65.714 427.804 82.6856 445.733C96.2683 460.082 115.327 470.958 140.952 478.983C143.255 479.704 145.611 480.405 147.89 481.083C156.282 483.581 164.959 486.164 172.839 490.291C182.391 495.293 190.749 502.548 198.833 509.562C201.453 511.836 204.163 514.187 206.873 516.426C226.612 532.739 249.074 545.287 273.636 553.721C296.042 561.416 319.08 565.303 342.213 565.303ZM318.533 81.3843C324.197 81.3843 329.9 81.7983 335.634 82.6895C346.906 84.4417 362.406 89.0326 372.246 100.956C381.004 111.568 383.668 125.718 386.244 139.403C387.168 144.306 388.122 149.376 389.343 154.209C394.06 172.871 403.502 190.272 412.633 207.099C424.255 228.519 436.274 250.667 438.243 275.216C440.639 305.093 427.868 333.875 415.709 358.509C414.83 360.289 413.945 362.069 413.059 363.852C404.815 380.436 396.29 397.584 392.438 415.974C389.137 431.733 389.324 448.183 389.505 464.09C389.535 466.725 389.566 469.45 389.58 472.124C389.664 487.763 389.179 503.601 388.14 519.198C387.128 534.376 384.461 550.991 372.35 559.148C365.564 563.719 357.06 564.594 348.881 564.859C323.546 565.677 298.257 561.823 273.728 553.4C249.2 544.977 226.769 532.447 207.057 516.157C204.351 513.92 201.643 511.57 199.023 509.297C190.927 502.271 182.554 495.005 172.972 489.986C165.066 485.846 156.376 483.259 147.971 480.758C145.693 480.079 143.338 479.378 141.037 478.658C115.462 470.649 96.4446 459.799 82.8994 445.489C66.0059 427.643 58.3286 403.637 62.8636 382.838C63.9637 377.795 65.7792 372.773 67.5346 367.917C70.7376 359.058 74.0491 349.897 73.0182 340.447C71.8251 329.513 65.0767 320.315 58.5506 311.419C51.9209 302.382 45.0651 293.038 44.1393 281.937C42.8241 266.166 53.541 252.902 63.9053 240.074C74.581 226.86 85.6202 213.196 83.2196 196.901C81.6759 186.421 74.7717 177.953 68.0949 169.765C66.4403 167.736 64.7302 165.638 63.1415 163.555C58.7665 157.819 55.5444 151.481 54.0689 145.707C52.2585 138.626 52.9528 132.472 56.1306 127.417C59.8052 121.572 66.0254 118.276 74.6169 117.618C81.1276 117.121 89.003 118.132 98.0309 120.622C99.9528 121.152 101.877 121.688 103.805 122.225C122.625 127.465 142.085 132.883 161.832 133.641C184.744 134.524 198.229 127.601 216.183 116.944C246.418 98.9989 281.609 81.3843 318.533 81.3843Z" fill="#5EE1E5" fill-opacity="0.2"/>
</g>
</g>
<defs>
<clipPath id="clip0_386_92692">
<rect width="320" height="374" fill="white" transform="matrix(-1 -8.74228e-08 -8.74228e-08 1 320 -3)"/>
</clipPath>
</defs>
</svg>
