<svg width="90" height="90" viewBox="0 0 90 90" fill="none" xmlns="http://www.w3.org/2000/svg">
<g opacity="0.98">
<path d="M44.8 0C69.5251 0 89.6 20.0749 89.6 44.8C89.6 69.5251 69.5251 89.6 44.8 89.6C20.0749 89.6 0 69.5251 0 44.8C0 20.0749 20.0749 0 44.8 0Z" fill="#F59E0B"/>
</g>
<path d="M44.7998 2.8C67.9796 2.8 86.7998 21.6202 86.7998 44.8C86.7998 67.9798 67.9796 86.8 44.7998 86.8C21.62 86.8 2.7998 67.9798 2.7998 44.8C2.7998 21.6202 21.62 2.8 44.7998 2.8Z" stroke="#F59E0B" stroke-width="2.688" stroke-linecap="round" stroke-linejoin="round"/>
<g opacity="0.263375">
<path d="M44.8 0C69.5251 0 89.6 20.0749 89.6 44.8C89.6 69.5251 69.5251 89.6 44.8 89.6C20.0749 89.6 0 69.5251 0 44.8C0 20.0749 20.0749 0 44.8 0Z" fill="#F59E0B"/>
</g>
<path d="M21.5039 48.1152L34.0091 61.376L68.0959 28.224" stroke="white" stroke-width="7.168" stroke-linecap="round" stroke-linejoin="round"/>
</svg>
