<svg width="48" height="48" viewBox="0 0 48 48" fill="none" xmlns="http://www.w3.org/2000/svg">
<g clip-path="url(#clip0_6507_48286)">
<path d="M35.5867 12.4138V4.96552C35.5867 2.22621 30.3978 0 24.0005 0C17.6033 0 12.4143 2.22621 12.4143 4.96552V12.4138C6.01709 12.4138 0.828125 14.64 0.828125 17.3793V37.2414C0.828125 39.9807 6.01709 42.2069 12.4143 42.2069V48C12.4143 48 24.0005 47.0069 24.0005 38.069V37.2414C24.0005 39.9807 29.1895 42.2069 35.5867 42.2069V48C35.5867 48 47.173 47.0069 47.173 38.069V17.3793C47.173 14.64 41.984 12.4138 35.5867 12.4138Z" fill="#ECF0F1"/>
<path d="M12.4133 19.0345C14.6986 19.0345 16.5513 18.2934 16.5513 17.3793C16.5513 16.4652 14.6986 15.7241 12.4133 15.7241C10.128 15.7241 8.27539 16.4652 8.27539 17.3793C8.27539 18.2934 10.128 19.0345 12.4133 19.0345Z" fill="#6F6961"/>
<path d="M23.9993 6.62089C26.2846 6.62089 28.1372 5.87985 28.1372 4.96572C28.1372 4.05159 26.2846 3.31055 23.9993 3.31055C21.7139 3.31055 19.8613 4.05159 19.8613 4.96572C19.8613 5.87985 21.7139 6.62089 23.9993 6.62089Z" fill="#6F6961"/>
<path d="M24.0005 17.3794C24.0005 26.3173 12.4143 27.3104 12.4143 27.3104V42.207C6.01709 42.207 0.828125 39.9808 0.828125 37.2415V17.3794C0.828125 20.1187 6.01709 22.3449 12.4143 22.3449C18.8116 22.3449 24.0005 20.1187 24.0005 17.3794ZM47.173 17.3794C47.173 26.3173 35.5867 27.3104 35.5867 27.3104V42.207C29.1895 42.207 24.0005 39.9808 24.0005 37.2415V17.3794C24.0005 20.1187 29.1895 22.3449 35.5867 22.3449C41.984 22.3449 47.173 20.1187 47.173 17.3794Z" fill="#BDC3C7"/>
<path d="M35.5871 19.0345C37.8725 19.0345 39.7251 18.2934 39.7251 17.3793C39.7251 16.4652 37.8725 15.7241 35.5871 15.7241C33.3018 15.7241 31.4492 16.4652 31.4492 17.3793C31.4492 18.2934 33.3018 19.0345 35.5871 19.0345Z" fill="#6F6961"/>
<path d="M35.5865 4.96582V12.4141C29.1892 12.4141 24.0003 14.6403 24.0003 17.3796C24.0003 14.6403 18.8113 12.4141 12.4141 12.4141V4.96582C12.4141 7.70513 17.603 9.93134 24.0003 9.93134C30.3975 9.93134 35.5865 7.70513 35.5865 4.96582Z" fill="#BDC3C7"/>
</g>
<defs>
<clipPath id="clip0_6507_48286">
<rect width="48" height="48" fill="white"/>
</clipPath>
</defs>
</svg>
