<svg width="48" height="48" viewBox="0 0 48 48" fill="none" xmlns="http://www.w3.org/2000/svg">
<path d="M47.7682 20.1833V43.9889C47.7682 45.2391 46.7547 46.2525 45.5046 46.2525H44.2684C43.9129 46.2525 43.5624 46.1688 43.2453 46.0081L40.8221 44.7804C40.505 44.6197 40.1545 44.536 39.799 44.536H8.2053C7.8498 44.536 7.49927 44.6197 7.1822 44.7804L4.75905 46.0081C4.44194 46.1688 4.09144 46.2525 3.73595 46.2525H2.49602C1.24586 46.2525 0.232422 45.2391 0.232422 43.9889V20.1833C0.232422 18.9331 1.24586 17.9197 2.49602 17.9197H3.73595C4.09145 17.9197 4.44198 18.0034 4.75905 18.1641L7.1822 19.3918C7.49931 19.5525 7.8498 19.6362 8.2053 19.6362H39.799C40.1545 19.6362 40.505 19.5525 40.8221 19.3918L43.2453 18.1641C43.5624 18.0034 43.9129 17.9197 44.2684 17.9197H45.5046C46.7547 17.9197 47.7682 18.9331 47.7682 20.1833Z" fill="#F59E0B"/>
<path d="M7.95358 19.6213V44.554C7.68339 44.5827 7.42145 44.6563 7.17995 44.7792L4.76083 46.0072C4.61804 46.081 4.46685 46.1374 4.31055 46.175V17.9961C4.46689 18.0336 4.61809 18.09 4.76083 18.164L7.17995 19.392C7.42173 19.5149 7.6839 19.5926 7.95358 19.6213ZM43.6887 17.9961V46.1749C43.5351 46.1374 43.3866 46.081 43.2467 46.0071L40.8235 44.7791C40.5778 44.6562 40.3158 44.5783 40.0457 44.5539V19.6213C40.3166 19.592 40.58 19.5144 40.8235 19.392L43.2467 18.164C43.3881 18.0935 43.5362 18.0373 43.6887 17.9961Z" fill="#4D3B1B"/>
<path d="M37.7073 32.0854C37.7073 33.3681 37.1867 34.5302 36.3454 35.3715C35.5041 36.2128 34.3421 36.7335 33.0556 36.7335H14.9467C12.3775 36.7335 10.2949 34.6547 10.2949 32.0855C10.2949 30.8028 10.8155 29.6408 11.6569 28.7994C12.4982 27.9581 13.6602 27.4375 14.9467 27.4375H33.0555C35.6248 27.4374 37.7073 29.5162 37.7073 32.0854Z" fill="#4D3B1B"/>
<path d="M30.7599 31.9786H17.5688C17.9439 27.381 12.0056 19.7381 9.5582 16.7969C9.14223 16.2955 9.53963 15.59 10.2304 15.59H16.0015L13.7288 13.0201C13.3945 12.6412 13.543 12.0878 14.0259 11.8725C19.2102 9.55144 20.1572 5.31413 24.4503 2.14997C24.8439 1.86028 25.4419 1.95309 25.7055 2.34309C28.2494 6.10875 28.4834 9.32859 28.2717 12.5595H28.2755C29.0368 12.5818 31.1648 12.4258 33.133 10.3054C33.6159 9.78544 34.548 10.0268 34.6223 10.7027C35.1384 15.4636 35.8254 27.251 30.7599 31.9786Z" fill="#CFE9FF"/>
<path d="M27.9788 21.9248C27.9227 21.9247 27.8685 21.9042 27.8262 21.8672C27.784 21.8302 27.7566 21.7792 27.749 21.7235C27.4161 19.2247 27.6353 16.9649 27.8473 14.7791C28.2332 10.7991 28.5979 7.03973 25.5123 2.4741C25.4243 2.34426 25.2747 2.25248 25.1015 2.22276C24.9168 2.19013 24.7298 2.23251 24.5884 2.33629C22.8015 3.65282 21.5889 5.17457 20.416 6.64588C18.747 8.73998 17.1703 10.7183 14.1212 12.0834C13.9465 12.1618 13.8261 12.2999 13.7908 12.4631C13.7598 12.6067 13.7999 12.7503 13.9036 12.8674L20.0214 19.7824C20.0622 19.8285 20.083 19.889 20.0792 19.9504C20.0754 20.0119 20.0474 20.0693 20.0013 20.1101C19.9551 20.1508 19.8947 20.1716 19.8333 20.1679C19.7718 20.1641 19.7144 20.136 19.6736 20.0899L13.5558 13.1749C13.3547 12.9475 13.2749 12.6524 13.337 12.3651C13.404 12.0557 13.6206 11.7986 13.9314 11.6597C16.8776 10.3403 18.42 8.4051 20.0529 6.35638C21.2447 4.86144 22.4766 3.31541 24.313 1.9626C24.5554 1.78345 24.872 1.71238 25.1803 1.76498C25.4773 1.81607 25.7385 1.98004 25.8967 2.21395C29.0759 6.91813 28.7034 10.7584 28.3092 14.824C28.0998 16.9833 27.8832 19.2163 28.2091 21.6617C28.2131 21.6919 28.2112 21.7227 28.2034 21.7522C28.1955 21.7816 28.182 21.8093 28.1634 21.8335C28.1449 21.8577 28.1218 21.878 28.0954 21.8933C28.069 21.9086 28.0398 21.9185 28.0096 21.9224C27.9994 21.924 27.9891 21.9248 27.9788 21.9248Z" fill="#99CCFF"/>
<path d="M34.1338 32.3178H13.8682C13.8078 32.3161 13.7504 32.2908 13.7083 32.2475C13.6661 32.2042 13.6426 32.1461 13.6426 32.0856C13.6426 32.0252 13.6661 31.9671 13.7083 31.9238C13.7504 31.8804 13.8078 31.8552 13.8682 31.8535H34.1338C34.1942 31.8552 34.2516 31.8804 34.2937 31.9238C34.3358 31.9671 34.3594 32.0252 34.3594 32.0856C34.3594 32.1461 34.3358 32.2042 34.2937 32.2475C34.2516 32.2908 34.1942 32.3161 34.1338 32.3178Z" fill="#3E484F"/>
</svg>
