<svg width="24" height="24" viewBox="0 0 24 24" fill="none" xmlns="http://www.w3.org/2000/svg">
<path d="M20 17.6484C19.8943 18.5035 19.848 18.8745 19.4531 19.7079L13.3896 20.9599C13.529 20.059 13.7146 19.364 14.0166 18.9472L20 17.6484ZM11.5547 11.7519L13.3662 11.3593V5.63373C14.0413 4.87588 14.4566 4.53557 15.2715 4.10541V10.9453L20 9.91888C19.8943 10.7737 19.8478 11.1443 19.4531 11.9775L15.2715 12.8613V14.7851L20 13.7841C19.8943 14.6392 19.848 15.0101 19.4531 15.8437L15.2715 16.707V16.7245L13.3662 17.1181V13.2636L11.5547 13.6464V16.0761L11.5234 16.082C11.1067 16.8127 10.5183 17.6906 9.95117 18.3915L4 19.5253C4.05336 18.7596 4.16448 18.3279 4.51074 17.5566L9.64941 16.4423V14.0497L4.88672 15.0576C4.94008 14.2919 5.05224 13.861 5.39844 13.0898L9.64941 12.166V4.5683C10.3245 3.81045 10.7398 3.47014 11.5547 3.03998V11.7519Z" fill="#E5E5E5"/>
</svg>
