<svg width="123" height="59" viewBox="0 0 123 59" fill="none" xmlns="http://www.w3.org/2000/svg">
<g clip-path="url(#clip0_822_106700)">
<path d="M36.4078 0H48.4117L48.4655 0.00720391C49.1521 0.0960161 50.1176 0.0962902 50.8336 0.127323C52.7538 0.210547 54.6776 0.195559 56.5994 0.233452C57.4827 0.250869 58.2294 0.420409 59.0705 0.468629C62.8657 0.693516 66.9633 1.36277 70.2262 3.43795C71.769 4.41961 73.4824 5.93802 74.7613 7.24025C75.4693 7.96109 76.7404 8.99617 77.3198 9.72084C79.1535 9.49937 80.7651 9.73012 82.4253 10.5585C84.0393 11.3638 84.8059 12.4817 83.9406 14.2517C84.6611 14.3748 85.3829 14.552 86.0741 14.6659C87.9898 14.9653 89.9162 15.1937 91.8487 15.3504C97.78 15.8025 104.533 15.5916 109.713 18.8359C110.484 19.3183 111.443 19.8604 112.106 20.4413C116.077 23.9206 119.332 27.9733 119.85 33.4143C119.95 33.8402 119.903 34.5882 120.015 34.9815C120.477 36.6045 121.327 37.8153 121.614 39.5249C121.98 41.7061 121.797 43.6351 121.586 45.7302C121.511 46.4837 122.369 49.5518 122.524 50.5416C121.86 52.0351 120.169 53.5208 118.639 54.1111C117.115 54.6989 114.947 54.9183 113.29 54.9732C112.703 54.9926 111.57 54.8025 110.851 54.7966C109.001 54.7814 107.084 54.6965 105.242 54.8507C102.922 55.0625 100.605 55.3033 98.2905 55.573C97.7017 55.6416 97.1301 55.7483 96.5299 55.8117C92.4106 56.2468 88.2178 56.5942 84.1087 57.083C80.6724 57.4917 77.1773 58.3874 73.6542 58.4508C72.1125 58.4786 70.4955 58.4726 68.9568 58.455C67.1884 58.4347 65.0542 58.5406 63.3109 58.3086C61.1834 58.0254 59.0478 57.5659 56.8923 57.3546C54.3036 57.1009 51.7111 56.7662 49.1575 56.27C48.1142 56.0673 47.6011 56.1084 46.5575 55.7059C45.9701 56.0612 45.3365 56.5783 44.75 56.9514C39.5172 60.2805 34.6436 56.8719 32.7484 51.6501C32.6058 51.2571 32.4236 50.8632 32.3091 50.4446C31.7822 50.1625 30.9251 49.8446 30.3498 49.6137L27.1882 48.3412L17.0783 44.2632L13.2786 42.726C12.3345 42.3442 11.5168 42.0532 10.6056 41.5989C8.88198 42.946 8.0327 43.8489 5.6516 43.5678C1.4601 43.073 0.359982 38.8233 0.221208 35.2444C0.202222 34.7548 0.173914 33.6335 0 33.2651V30.9047C0.181712 30.5928 0.153803 29.7006 0.16161 29.3131C0.190277 28.0953 0.205858 26.8772 0.208352 25.659C0.213326 23.3877 0.0360773 20.628 1.46644 18.7415C2.09695 17.9099 2.83299 17.2871 3.54761 16.5239C4.51432 15.4915 5.5547 13.7886 6.74708 13.0552C8.08399 12.2329 9.6613 11.8679 10.9467 10.8556C11.586 10.3522 12.0725 9.8263 12.6588 9.31675C13.8794 8.25593 15.0881 7.09623 16.3332 6.08503C20.064 3.05491 24.0213 1.51442 28.7616 0.775351C29.4873 0.6622 31.0586 0.280696 31.7219 0.24029C33.2946 0.144485 34.787 0.263237 36.4078 0ZM52.0771 22.3179C53.9587 23.7555 55.8076 25.3699 57.3623 27.1639C58.612 27.1639 59.6968 27.3586 60.9242 27.5533C65.5031 28.2576 69.9676 29.5696 74.1994 31.4547C75.1539 31.8866 78.8225 33.371 76.5041 34.4444C75.8152 34.3686 75.0354 34.2556 74.352 34.2192C73.0252 34.1484 71.6505 34.1792 70.3183 34.1891L65.6814 34.2128C64.3103 34.229 61.8177 34.2972 60.5095 34.1543C56.9224 33.7624 52.5019 32.5533 49.6818 30.211C49.3713 29.9531 48.9479 29.6426 48.6773 29.3548C46.696 29.2766 45.3605 29.3585 43.3922 29.5166C43.9261 30.1622 44.2152 30.8396 44.5802 31.5952C46.5788 35.7321 47.6157 40.4148 47.924 44.9816C47.9933 46.0072 48.1688 48.191 47.9649 49.1705C48.7045 49.2718 50.2113 49.7963 50.9533 50.0524C52.0393 47.7408 54.0919 45.6729 56.0671 44.0823C58.7538 41.9188 62.108 39.7705 65.7161 40.72C66.2847 40.8697 67.4643 40.8557 67.3883 41.7522C67.3212 41.8715 67.2285 42.0106 67.0669 42.0206C65.8053 42.0986 64.6892 41.4978 63.3546 41.7387C60.0379 42.3374 56.8881 44.9223 54.5708 47.2724C53.7268 48.1283 52.973 49.2661 52.2389 50.1441C53.9484 49.9336 57.4589 50.9921 59.2611 51.2819C61.3025 51.6101 63.3133 51.9191 65.375 52.1964C67.7934 52.5216 70.0777 52.9982 72.5566 52.8418C74.4603 52.7217 76.355 52.4637 78.2599 52.498C80.8651 52.6008 83.4307 53.416 86.0519 53.4379C88.6762 53.4817 91.2867 53.1922 93.9014 52.9899C95.0511 52.9007 96.2019 52.9237 97.351 52.8326C101.327 52.4481 105.337 51.8135 109.051 50.2833C109.734 50.0077 111.288 49.4974 111.715 48.8531C112.623 47.4834 113.123 45.8736 113.826 44.3826C114.775 42.3716 115.732 40.2105 116.88 38.3004C117.158 37.8365 118.078 36.6709 118.662 37.1372C119.216 37.5547 118.662 37.9889 118.381 38.3202C117.51 39.3478 116.953 40.8166 116.383 42.0175C115.751 43.3458 115.165 44.5987 114.591 45.9441C114.315 46.5976 113.56 48.3374 113.168 48.8544C114.359 48.6776 117.131 49.0304 117.882 48.0239C118.09 47.7461 118.45 46.9372 118.797 46.8821C118.957 46.8566 119.154 46.9262 119.278 47.0269C119.41 47.1344 119.481 47.2974 119.495 47.4644C119.538 47.9339 119.198 48.5223 118.899 48.868C118.248 49.6185 117.105 49.9254 116.145 49.9795C113.257 50.142 112.909 49.807 110.102 51.2067C104.233 53.8666 97.8435 54.0199 91.5375 54.4253C89.5996 54.5498 87.7372 54.8606 85.782 54.75C83.4319 54.617 81.1565 53.7998 78.8141 53.7507C77.3138 53.7193 75.835 53.89 74.34 53.9692C71.9102 54.098 69.4739 54.0761 67.0651 53.7316C65.0608 53.4451 63.0416 53.2018 61.0469 52.8594C58.4065 52.4061 55.7848 51.7272 53.1243 51.4503C52.9347 51.4306 52.7511 51.3395 52.5631 51.3616C52.5477 51.5089 52.612 51.6004 52.7032 51.7154C52.8593 51.9123 53.0655 52.0632 53.2203 52.2659C54.1835 53.5271 55.0277 54.8742 56.0368 56.0999C57.8448 56.0362 59.729 56.4903 61.5071 56.7872C62.4252 56.9405 63.3636 57.0262 64.2888 57.132C66.5211 57.3876 69.2674 57.2852 71.544 57.2457C74.3717 57.1898 77.1917 56.942 79.9859 56.504C80.5203 56.4232 81.044 56.2697 81.5754 56.1669C82.3175 56.0232 83.1027 55.9197 83.8526 55.8257C87.8258 55.328 91.8301 55.0486 95.8135 54.6394C96.5233 54.5665 97.2247 54.4408 97.9321 54.3522C100.021 54.0906 102.13 53.8317 104.227 53.6403C106.068 53.4721 108 53.4566 109.847 53.5264C111.836 53.6016 113.895 53.8407 115.87 53.4982C117.917 53.143 119.328 52.6519 120.804 51.0811C120.979 50.8949 121.125 50.6775 121.261 50.4623C121.097 49.5959 120.945 48.7169 120.756 47.8562C120.599 47.1395 120.351 46.4064 120.332 45.6689C120.315 45.0192 120.452 44.3436 120.515 43.6954C120.62 42.598 120.619 41.3577 120.443 40.2627C120.342 39.6316 120.194 38.967 119.965 38.3685C119.465 37.0627 118.597 35.8089 118.735 34.3598C117.797 35.8213 115.173 36.9158 113.529 37.2756C112.725 37.4514 111.912 37.5633 111.102 37.7012C106.717 38.4474 102.304 38.7766 97.8716 39.0578C93.9918 39.3391 90.1053 39.5148 86.2159 39.5847C84.624 39.622 83.0429 39.6921 81.4498 39.6597C80.0033 39.6302 78.5646 39.4569 77.1205 39.3809C74.8212 39.2598 72.5434 39.1497 70.2549 38.8574C66.0016 38.3142 61.7836 37.3578 57.5959 36.4551C56.738 36.2701 51.4898 35.2972 51.0948 35.0463C50.9667 34.9648 50.8497 34.853 50.8141 34.7008C50.791 34.6018 50.819 34.4904 50.8733 34.4047C50.9624 34.2642 51.0841 34.1573 51.252 34.129C52.4279 33.9305 62.6203 36.2654 64.6305 36.6547C66.8275 37.0673 69.034 37.4243 71.2489 37.725C71.8007 37.7994 72.3663 37.8027 72.9216 37.851C74.6357 37.9997 76.3215 38.099 78.0397 38.1775C79.5185 38.2451 80.986 38.3848 82.4689 38.3968C83.9861 38.4091 85.5127 38.3267 87.0292 38.2826C88.8294 38.2303 90.6344 38.2101 92.4328 38.1302C93.9283 38.0638 95.4197 37.9439 96.9135 37.855C97.6161 37.8132 98.3211 37.8147 99.0237 37.7696C99.9609 37.7095 100.896 37.5985 101.833 37.5217C104.889 37.2711 107.932 36.99 110.952 36.4457C112.161 36.2277 113.347 36.0562 114.514 35.6424C116.072 35.0895 117.406 34.1664 118.4 32.8365C118.425 32.8025 118.449 32.7676 118.471 32.732C118.192 31.6386 118.023 30.4461 117.603 29.4019C116.566 30.6063 114.928 31.273 113.37 31.389C112.556 31.4496 111.792 31.3568 110.995 31.1978L110.682 30.6581C110.83 30.0493 110.998 29.4695 111.25 28.8931C111.804 27.6219 113.19 25.3023 114.373 24.584C114.402 24.5667 114.431 24.55 114.46 24.5338C113.626 23.8075 112.937 22.8984 112.123 22.1421C111.195 21.2788 107.7 18.8636 106.554 18.6422C107.433 20.3787 107.758 22.0533 107.788 24.0512C107.807 25.3834 108.033 27.6899 106.931 28.7583C106.04 29.4247 103.251 29.5215 102.146 29.5987L97.8453 29.9326C89.3267 30.6664 79.7579 31.9201 71.3597 29.4432C70.5194 29.1952 69.6169 28.7924 68.7851 28.4804C66.5438 27.6434 64.3205 26.7579 62.1176 25.8246C59.1501 24.5663 56.2431 23.2423 53.0822 22.5486C52.7481 22.4753 52.4099 22.3965 52.0771 22.3179ZM105.874 27.9811C106.217 27.6127 106.356 27.3477 106.433 26.8163C106.75 24.5964 106.426 21.6044 105.661 19.503C105.53 19.1437 105.045 18.4538 104.828 18.1323C103.111 17.2261 94.431 16.7538 92.1904 16.6446C90.2137 16.5482 88.0831 16.1472 86.0914 15.8611C85.2279 15.737 83.9579 15.4021 83.1111 15.3584C79.0056 15.1461 74.8511 15.2168 70.7373 15.2019C67.5187 15.1745 64.2996 15.1747 61.081 15.2025C58.737 15.2003 56.3891 15.1894 54.0448 15.2203C52.3055 15.2433 50.5073 15.4733 48.7849 15.5369C46.2749 15.6294 43.7465 15.7768 41.2416 15.9765C39.2816 16.1328 37.2458 16.4667 35.2453 16.4631C34.9254 16.5016 34.5765 16.5366 34.2609 16.5868C34.5488 16.626 34.9003 16.6878 35.185 16.6727C36.8155 16.8787 38.4423 17.1134 40.0647 17.3767C42.0696 17.6865 44.1519 18.0146 46.049 18.7478C46.9066 19.0862 47.7401 19.4827 48.5437 19.9347C48.8864 20.1277 49.9414 20.8037 50.2326 20.892L50.2729 20.904C50.8212 21.0697 52.274 21.1593 52.9649 21.2801C54.4183 21.534 55.4949 21.881 56.8784 22.3369C58.83 22.98 60.6023 23.8524 62.4844 24.6103C64.5204 25.4303 66.4995 26.2893 68.5612 27.0399C69.7169 27.4605 70.7157 27.9336 71.9294 28.2811C73.8223 28.8232 75.8302 29.2542 77.7907 29.4425C78.452 29.5059 79.2456 29.5102 79.9356 29.5644C81.3666 29.6356 82.8573 29.7668 84.2901 29.6939C86.2602 29.5937 88.2513 29.4895 90.2191 29.3552C91.1012 29.295 91.9809 29.1455 92.8583 29.0702L97.3767 28.7074C99.439 28.5591 101.473 28.3535 103.537 28.2651C104.293 28.2328 105.041 27.9725 105.84 27.9805L105.874 27.9811ZM25.8793 41.1947C25.5146 40.2965 25.6173 40.0103 25.4044 39.2506C24.6444 33.9411 25.0132 27.5446 25.8992 22.218C26.1409 20.7651 26.5898 19.2902 27.2516 17.9656C27.4135 17.6417 27.8475 16.9474 28.0562 16.5972C28.033 16.5735 28.0097 16.5498 27.9865 16.5261L27.931 16.5267C27.6208 16.5275 27.3133 16.4692 27.0086 16.4165C26.1337 16.2652 25.2455 16.2072 24.3721 16.0479C24.5956 16.572 24.6676 16.7803 24.4461 17.347C24.083 18.2755 22.8851 19.1383 21.8815 18.726C21.2038 18.4475 20.5854 17.5152 20.2632 16.8818C19.3938 16.3084 16.883 16.0773 15.7604 15.6747C15.4301 15.5563 14.6157 15.0267 14.5132 15.0207C12.988 15.8283 11.8692 16.3342 11.3519 18.1705C10.1048 22.598 10.8285 29.0369 12.8684 33.1099C14.7075 36.7821 16.9429 38.5921 20.8433 39.7824C22.1936 40.1945 24.6789 40.7206 25.8793 41.1947ZM29.3612 16.6831C28.8358 17.5707 28.1623 18.6704 27.8875 19.6601C26.3972 25.0267 26.1905 30.8217 26.3659 36.3608C26.418 38.0071 26.8489 39.8865 27.2238 41.4867C28.0562 41.7778 30.256 42.3133 30.7828 42.6013C30.5786 41.6634 30.5784 40.797 30.519 39.8264C30.2604 35.6005 30.4589 30.6077 32.7281 26.9054C33.3868 25.8307 34.5809 24.6821 35.8373 24.4164C36.3806 24.3015 36.7897 24.3129 37.3425 24.3164C39.3997 24.6589 40.8763 25.8639 42.1095 27.5215C42.2846 27.7567 42.613 28.1681 42.7319 28.4038C44.0786 28.2439 45.4304 28.131 46.7849 28.0653C47.8067 28.0227 48.7489 28.1088 49.7552 27.8523C50.901 27.5602 52.1722 27.5254 53.3261 27.3145C54.0014 27.1911 54.9982 27.3044 55.5644 27.1689L55.5784 27.0834C55.0537 26.3991 53.3152 24.9647 52.5821 24.3212C50.5001 22.4934 47.5748 20.5929 44.9366 19.6811C43.2374 19.1683 41.4514 18.8674 39.6991 18.5985C37.8812 18.3194 35.9907 17.9805 34.1738 17.733C33.3725 17.6239 30.8585 16.5908 30.4385 16.6686C30.0934 16.6755 29.7026 16.6912 29.3612 16.6831ZM42.5185 9.51577C44.6346 10.0587 45.5942 10.9005 46.8256 12.7978C47.0335 13.1179 47.4695 14.0297 47.556 14.378C51.5085 13.9423 56.2311 13.8997 60.2276 13.9361C60.8638 13.9251 61.5879 13.8942 62.2157 13.9496C61.7268 13.1752 57.8442 6.49026 57.7964 6.13094C58.4383 4.62443 63.3977 4.64051 64.7784 4.67532C61.5939 3.55293 54.6327 3.33705 51.1116 3.3538C48.2978 5.94403 45.937 7.80391 42.5185 9.51577ZM35.119 29.2705C36.1228 28.8306 37.0871 28.6361 38.1407 29.0463C40.1399 29.8247 41.3713 31.8637 42.1842 33.7437C44.1355 38.2558 44.5556 45.1192 42.7156 49.7537C42.0523 51.4242 41.0367 53.1616 39.3159 53.9037C38.4172 54.2913 37.5017 54.2872 36.5967 53.9217C35.6644 53.5451 35.0156 52.9459 34.3495 52.2123C34.5533 52.6696 34.8407 53.0457 35.0745 53.48C35.9621 54.9728 37.4403 56.3989 39.1606 56.834C40.9272 57.2809 42.5585 56.7399 44.0694 55.8262C45.0497 55.2334 45.8417 54.8345 46.1271 53.6547C46.6001 51.6997 46.7255 49.6372 46.7186 47.6323C46.703 43.135 45.9766 38.785 44.4367 34.5557C43.9566 33.2373 43.4016 31.8614 42.6653 30.6634C42.2859 30.046 41.9222 29.3967 41.4936 28.8128C41.1017 28.2787 40.646 27.7866 40.2312 27.2698C39.9011 27.1593 39.3694 26.909 39.0286 26.9617C37.3441 27.0527 36.2318 28.1251 35.119 29.2705ZM59.2882 6.48433C60.0774 7.96905 61.1582 9.53313 61.9961 11.0258C62.3211 11.6043 63.2355 13.4516 63.5491 13.8186C63.9884 13.9503 65.9597 13.8935 66.548 13.8931L71.1239 13.9246C71.8917 13.9298 73.3166 13.9152 74.0444 13.9679C75.0031 14.0476 76.3107 13.9785 77.1241 14.1078C76.3299 13.4641 75.6788 12.7051 74.9289 12.0034C73.3005 10.48 71.2465 8.33021 69.4057 7.12861C67.6163 5.96079 64.4863 5.85983 62.4007 5.95182C61.4868 6.04822 60.6202 6.15788 59.7297 6.39269C59.5887 6.42986 59.432 6.4638 59.2882 6.48433ZM28.5095 15.3753C29.0502 15.3816 29.8451 15.3664 30.3655 15.4108C30.0607 14.4425 29.9683 13.4464 29.8294 12.4418C29.4987 10.0502 29.2254 7.23049 30.3169 4.99056C30.771 4.05855 31.7147 3.562 32.6726 3.27743C34.0229 2.87627 35.5266 2.75075 36.9255 2.61771C38.601 2.45836 40.5044 2.20673 42.1709 2.12671C44.3704 2.02111 46.7261 2.10539 48.9306 2.08283C51.6877 2.05461 54.4289 2.10799 57.1782 2.31547C57.9672 2.37501 58.7626 2.36279 59.5532 2.43728C60.7692 2.55405 61.9787 2.72785 63.1781 2.95811C63.5425 3.02702 64.1751 3.22713 64.4689 3.26451C64.9818 3.33419 65.9346 3.73508 66.4331 3.9423C71.0604 5.8655 75.1156 10.3614 78.4814 14.001C78.9039 13.9911 79.0876 14.0077 79.5071 14.0639C78.1666 13.0467 77.1504 11.3589 75.9828 10.2026C72.6212 6.87405 69.3015 3.37076 64.4312 2.47266C55.6542 0.761608 46.6001 1.4409 37.7085 1.26271C36.8336 1.24518 35.87 1.25063 34.9949 1.28451C33.3012 1.32184 31.3906 1.37019 29.7532 1.77719C29.0038 1.96346 24.4027 2.91828 24.0545 3.26594C24.2928 3.43462 28.2261 3.39498 28.3682 4.49391C28.429 4.96328 28.0385 5.91598 27.9344 6.41615C27.8557 6.92786 27.8508 7.63721 27.8448 8.14765C27.8229 10.0066 28.1151 11.7347 28.2641 13.5764C28.315 14.2039 28.5746 14.7288 28.5095 15.3753ZM9.46722 34.9445C10.0958 35.1945 10.6612 35.4434 11.1958 35.8683C11.8896 36.4195 12.4014 37.1672 12.9447 37.8594C14.228 39.4943 15.506 41.3627 17.1273 42.6864C17.5376 43.0215 18.1646 43.3244 18.6469 43.54C19.6908 44.0067 20.7909 44.3931 21.8546 44.815L27.3978 47.0525L30.6995 48.4127C31.0408 48.5534 31.4841 48.8142 31.8355 48.8727C31.4958 47.254 31.0919 45.5391 31.0814 43.8749C30.3469 43.7939 29.5957 43.4974 28.8878 43.2839C28.1291 43.0577 27.367 42.8433 26.6017 42.6406L22.5351 41.5514C19.1085 40.6413 15.9239 39.5973 13.6186 36.7178C11.8725 34.5368 12.4182 33.8386 9.35471 32.7553C9.40055 33.4619 9.54047 34.2469 9.46722 34.9445ZM30.7277 8.8922C31.8578 8.80254 33.3799 8.89489 34.5578 8.90626C40.5203 8.75369 41.6858 9.24726 46.6396 5.38565C47.0951 5.03049 47.545 4.66593 48.0113 4.32498C48.3433 4.08221 48.8263 3.82332 49.1002 3.52414C49.1329 3.48851 49.1623 3.4495 49.1901 3.41011C48.8292 3.22606 45.9608 3.29457 45.3851 3.32517C42.6446 3.38932 40.0637 3.41294 37.3198 3.86525C35.7109 4.13046 33.0709 3.99068 31.7134 5.10478C30.9906 5.80402 30.9374 7.90045 30.7277 8.8922ZM2.42426 19.4678C6.4454 17.682 8.02492 25.5911 8.65086 28.1186C8.85074 28.8294 9.18319 30.7656 9.20569 31.5047C9.74635 31.6985 10.6774 32.0484 11.1789 32.3186C10.7159 31.4989 10.3382 30.1281 10.1389 29.208C9.34968 25.5638 9.06948 21.744 10.0021 18.0971C10.344 16.7598 11.1941 15.4679 12.3996 14.7777C12.7273 14.5916 13.5309 14.2602 13.7573 14.0581C13.8085 13.6878 13.566 13.1243 13.6941 12.7452C13.9496 11.9885 14.8231 11.1635 14.9708 10.3622C15.0463 9.95254 15.7956 8.4203 15.7191 8.30406L15.675 8.29065C15.1565 8.87029 14.5717 9.32064 14.03 9.84468C12.7666 11.0671 11.8317 11.9907 10.2415 12.8281C9.39439 13.2742 8.03456 13.7079 7.327 14.2356C6.32098 14.9859 5.39639 16.4703 4.52062 17.4203C3.86996 18.1261 3.04718 18.7771 2.42426 19.4678ZM18.9966 10.0846C23.0226 9.86856 23.4172 11.1877 23.7991 14.7691L23.8529 14.8737L23.8915 14.8718C24.3117 14.8555 25.1201 15.0392 25.5867 15.0857C26.1289 15.1397 26.777 15.1456 27.3004 15.2224C27.0744 14.583 26.9505 13.373 26.8898 12.6915C26.7112 10.6812 26.2452 6.76487 27.1431 4.96025C25.6994 4.81061 25.3323 4.5077 23.6753 4.5738C22.902 4.62091 21.5983 4.66622 21.1012 5.30828C20.05 6.66641 19.5938 8.60274 18.9966 10.0846ZM2.44805 39.6196C2.5824 38.5889 3.33116 32.3235 5.10949 34.2912C5.18932 34.7707 5.40814 35.3813 5.6149 35.8226C5.6022 34.9013 5.7605 33.9732 5.8026 33.0594C5.83628 32.3282 5.79951 31.6457 5.84958 30.9026C5.31945 30.5905 4.96873 30.2813 4.55981 29.8195C4.41998 29.602 4.33388 29.3943 4.22891 29.1598C3.96715 28.2796 4.58378 26.574 4.94251 25.7595C4.7411 25.2135 4.11543 23.6693 3.41649 23.7262C1.89845 24.6204 3.68306 28.185 4.12434 29.2957C4.24128 29.5399 4.41775 29.8722 4.44522 30.1334C3.99845 31.311 2.11343 30.0383 1.38902 29.6538C1.42625 30.1613 1.475 30.3827 1.2581 30.8541C1.38173 30.858 1.50527 30.8645 1.62862 30.8736C2.25628 30.9211 4.18182 31.222 4.66132 31.7209C4.97567 32.048 4.43026 32.7368 4.18527 33.0623C2.89655 34.774 2.20746 36.7201 1.96394 38.8462L2.44805 39.6196ZM23.3247 16.8594C23.0711 16.3741 22.6413 15.2809 22.5573 14.7606C22.3472 13.4604 22.7114 11.9247 21.0586 11.419C20.6711 11.3005 20.3669 11.1963 19.9502 11.2746C18.6218 11.4291 16.1975 11.9833 15.0579 12.6743C14.9767 12.8558 14.8648 13.0868 14.7954 13.2678C16.0208 15.2145 18.4387 14.71 20.2454 15.4499C20.6116 15.6087 20.833 15.7243 21.1284 16.0161C21.8914 16.7694 22.2331 18.4341 23.3247 16.8594ZM36.338 39.3961C35.2915 38.3977 34.3202 36.513 33.8117 35.1699C33.6545 34.7545 33.5356 34.0196 33.2853 33.6802C32.7047 35.5323 32.56 36.7331 32.2966 38.6115C33.225 38.9046 34.2043 39.1745 35.1751 39.2691C35.5699 39.2864 35.9484 39.3314 36.338 39.3961ZM40.7323 35.6708C40.956 35.4614 41.1744 35.31 41.4369 35.1551C41.2594 34.802 40.6835 33.2685 40.413 33.1326C40.4061 33.1291 40.3993 33.1252 40.3924 33.1215C40.3862 34.1525 40.2981 35.176 40.2269 36.204L40.7323 35.6708ZM8.99246 39.6799C10.1678 40.0725 11.3164 40.5683 12.4644 41.034C13.0765 41.2822 13.8613 41.5212 14.4068 41.8867L14.5124 41.9047L14.524 41.8189C14.1077 41.3403 13.6659 40.8943 13.2741 40.3933C12.2571 39.0927 10.9603 36.8303 9.37602 36.2261C9.26746 37.3452 9.27123 38.5944 8.99246 39.6799ZM82.5982 12.5697C82.8113 12.567 82.8436 12.6045 82.9866 12.496C82.8969 12.2174 82.2894 11.9132 82.0183 11.7793C80.8902 11.2233 79.4072 10.7813 78.1504 10.7858C78.2127 10.9895 79.7382 12.5911 80.0218 12.9897C80.5952 12.8175 81.9501 12.6442 82.5982 12.5697ZM38.245 52.9399C37.6513 51.503 37.4988 49.6567 37.6875 48.1181C37.7141 47.9012 37.9176 47.2208 37.7721 47.0855C37.0125 48.2929 36.3221 50.84 36.6464 52.2323C36.6952 52.442 36.7615 52.7169 36.9646 52.8271C37.0465 52.8715 37.1457 52.8764 37.237 52.8855C37.5734 52.8992 37.9094 52.9118 38.245 52.9399ZM35.7413 30.2739C35.8831 31.2326 36.0413 32.1779 36.3351 33.104C36.4703 33.5303 36.6623 33.9354 36.8 34.3576L36.9032 34.5031C36.9538 34.4669 36.9765 34.4701 36.9866 34.4057C37.0538 33.9742 36.9786 33.4908 36.9756 33.0523C36.969 32.0917 37.2476 31.0712 37.5953 30.1827C37.3691 30.1396 37.1409 30.0878 36.911 30.071C36.5138 30.1117 36.1312 30.1891 35.7413 30.2739ZM113.849 30.0796C114.877 29.9724 115.887 29.4054 116.537 28.6032C116.685 28.4197 116.811 28.2123 116.937 28.0131C116.362 27.2574 115.782 25.9623 115.107 25.3512C114.334 26.3367 113.601 27.2305 112.986 28.3353C112.645 28.9484 112.405 29.6472 112.029 30.2333C112.654 30.2297 113.236 30.1995 113.849 30.0796ZM39.633 31.8597C39.3928 31.5357 39.0574 31.0066 38.6759 30.8399C38.2135 32.477 38.2149 34.1054 38.3795 35.7863C38.4208 36.2084 38.5917 36.6559 38.5807 37.0708C38.5747 37.2999 38.4804 37.6512 38.2727 37.7798C38.1842 37.8346 38.0529 37.8391 37.9537 37.8111C37.1622 37.5876 36.2217 35.8159 35.8388 35.084C35.2085 33.879 34.8744 32.5207 34.7091 31.1759C34.4988 31.4531 34.269 31.7258 34.1177 32.0408C34.5734 33.9168 35.2363 35.7876 36.3491 37.3873C36.7496 37.9631 37.4306 38.6189 37.7196 39.2193C37.8378 39.4648 37.8528 39.77 37.7028 40.0071C37.51 40.3118 37.127 40.4362 36.7928 40.5068C35.5273 40.774 33.3166 40.2206 32.1428 39.6892C32.2196 40.4592 32.2206 41.2427 32.2429 42.0163C33.9764 41.8052 36.2243 40.9466 37.7888 42.0592C37.9401 42.3764 38.2135 42.7966 38.0921 43.1575C37.8516 43.8723 37.2063 44.4953 36.7764 45.107C36.435 45.5927 36.1534 46.1131 35.9019 46.65C35.6097 47.274 35.3263 47.9068 35.1553 48.5767C34.9852 49.2429 34.9194 49.9588 34.6485 50.5931C34.873 50.8228 35.071 51.0578 35.264 51.3144C35.3811 51.1721 35.298 50.8018 35.3145 50.6031C35.3671 49.9676 35.5462 49.0779 35.8284 48.5021L35.845 48.4663C36.0921 47.9265 36.267 47.3622 36.5308 46.8238C36.8 46.2747 37.9944 44.3393 38.49 44.1527C38.6181 44.1045 38.8009 44.1205 38.9246 44.1825C39.0525 44.2466 39.1532 44.3394 39.1892 44.4813C39.3864 45.2593 39.0117 46.6259 38.9375 47.4652C38.7903 49.1296 38.9072 50.9369 39.3549 52.5445C40.1226 51.7448 40.8313 50.8875 41.28 49.8605C40.3033 48.1516 39.626 46.4352 39.4507 44.4599C39.4188 44.1013 39.3591 43.6711 39.4525 43.3192C39.5009 43.1372 39.5821 42.9881 39.7468 42.8886C39.8692 42.8147 40.0164 42.8054 40.1514 42.846C40.8007 43.0408 41.9632 43.7789 42.5448 44.1745C42.5585 43.7546 42.5768 43.3344 42.5681 42.9142C41.6198 42.5612 39.6895 42.4819 39.2248 41.4458C39.0552 41.0675 39.1497 40.6394 39.2992 40.2721C39.7065 39.2715 40.8896 37.9033 41.8891 37.4925C41.9508 37.4673 42.0132 37.4433 42.076 37.4208C41.9352 37.0622 41.8414 36.7135 41.7623 36.3367C41.5203 36.5815 41.2742 36.8243 41.0773 37.1079C40.7562 37.5701 40.2965 38.799 39.6755 38.8155C39.5435 38.8191 39.4229 38.7639 39.3311 38.6704C38.8356 38.1655 38.9535 36.7522 38.9761 36.0806C39.0254 34.6151 39.1221 33.243 39.633 31.8597ZM1.74621 26.6778C1.56344 27.2877 1.655 27.922 1.51638 28.5339C1.88893 28.6517 2.20034 28.7972 2.53502 29.0019L2.60192 28.8992C2.45763 28.6112 1.74769 26.6792 1.74621 26.6778ZM19.0931 6.21193C18.7642 6.51791 18.0353 7.1935 17.7672 7.50068C17.4266 7.89111 16.1924 10.3218 16.2324 10.7782L16.2635 10.8053C16.7283 10.6988 17.0387 10.6191 17.4888 10.4659C17.9503 9.16735 18.2913 7.85538 18.9809 6.65121C19.0683 6.49852 19.1676 6.40867 19.1246 6.24311L19.0931 6.21193ZM40.2674 41.0051C40.5149 41.0577 40.7675 41.1028 41.0089 41.179C41.5279 41.3364 42.0728 41.409 42.5832 41.5767C42.4757 41.0559 42.3892 38.7615 42.2291 38.5359C41.3707 39.2585 40.8142 40.0341 40.2674 41.0051ZM36.9127 42.8561C36.1398 42.8319 35.2745 42.6874 34.5114 42.8177C33.7838 42.9321 33.0563 43.0569 32.3244 43.1399C32.59 44.1233 32.7016 45.1573 32.9422 46.1533C33.168 47.088 33.5255 47.991 33.7431 48.9218C33.7976 48.5995 33.8617 48.2994 33.9673 47.9892C34.3274 46.5672 35.8524 43.8149 36.9127 42.8561ZM3.44268 20.339C2.77352 20.707 2.19178 21.6317 1.99995 22.3582C1.98897 22.3998 1.98396 22.4434 1.98041 22.4862L2.02663 22.5134L2.14083 22.4116C2.47154 21.7525 3.07298 20.9216 3.74133 20.5873L3.77619 20.4711C3.65596 20.3702 3.59301 20.366 3.44268 20.339ZM56.1544 32.065C55.7458 31.3244 55.5057 30.6646 55.752 29.8104C55.9032 29.2858 56.2098 28.7906 56.5834 28.3959C56.0349 28.412 55.4771 28.4077 54.9308 28.4562C53.7087 28.5591 51.0866 28.6431 50.0383 28.9357L50.0428 29.0322C50.9481 29.77 52.0366 30.4437 53.1201 30.8912C53.6204 31.1192 54.123 31.3591 54.6396 31.5467C55.1402 31.7285 55.6623 31.8631 56.1544 32.065ZM38.1038 25.7333C37.0917 25.4919 36.4067 25.4054 35.4339 25.9535C33.6513 26.9577 32.8546 29.4615 32.3312 31.3194C32.2613 31.5115 32.1442 31.7516 32.1968 31.9389C32.3365 31.8634 32.4114 31.6316 32.4594 31.4723C33.3195 29.4456 34.9137 27.0089 37.0792 26.1709C37.4334 26.0338 37.7611 25.9003 38.1038 25.7333ZM81.1727 14.1069C81.6688 14.1282 82.5563 14.2494 82.919 13.9023C82.9178 13.7784 82.9381 13.7998 82.8747 13.7306C82.436 13.7736 81.5054 13.8395 81.1469 14.0252C81.1535 14.053 81.1571 14.0889 81.1727 14.1069ZM8.00829 40.5476C7.84598 40.2342 7.72791 39.9569 7.71869 39.5965C7.69882 38.8181 7.91517 38.0317 7.97771 37.2546C8.12965 35.365 8.1582 33.445 7.97693 31.5552C7.91403 30.8992 7.74742 30.2227 7.62276 29.5743C7.21293 27.4419 6.74726 25.2702 5.90703 23.2592C5.7184 22.8077 5.21564 21.4823 4.73583 21.2915C4.16623 21.6219 3.80368 22.0003 3.37303 22.4938C4.01387 22.504 4.47313 22.7092 4.93018 23.1743C6.87462 25.153 7.09934 29.8883 7.052 32.5331C7.0061 35.1006 6.73954 39.2256 4.7894 41.106C4.53922 41.3468 4.26547 41.5619 3.97228 41.748C4.38174 41.9702 4.80808 42.167 5.27184 42.2389C6.30626 42.3951 7.4945 42.4373 8.37652 41.7875C8.67025 41.5711 8.91819 41.2852 9.16578 41.019C8.7441 40.915 8.37628 40.7877 8.00829 40.5476ZM5.59882 29.2285C5.6651 28.9482 5.64838 28.1262 5.52319 27.8683C5.38983 28.1891 5.28849 28.603 5.42483 28.9407C5.46638 29.0436 5.5302 29.1419 5.59882 29.2285ZM5.10357 37.9627C4.87989 37.6263 4.57926 36.5078 4.38525 36.3686C4.11068 37.052 3.38786 39.8581 3.50467 40.476L3.6142 40.502C3.70642 40.4363 3.80031 40.3734 3.88335 40.2961C4.42264 39.5619 4.7577 38.7996 5.10357 37.9627ZM1.31909 32.0054C1.316 33.1788 1.34335 34.3261 1.45046 35.4943C1.63538 35.0338 1.81424 34.5698 2.00722 34.1127C2.34153 33.5247 2.68892 32.8577 3.18636 32.3905C2.56461 32.1964 1.96887 32.058 1.31909 32.0054ZM40.5972 44.4119C40.7453 45.0909 41.2949 47.7931 41.7717 48.166C41.7915 48.1816 41.8186 48.1914 41.8409 48.2013C41.9274 48.093 41.9396 48.0042 41.9549 47.8688C42.087 47.0518 42.3519 46.2588 42.4213 45.432C41.8279 45.061 41.2353 44.7014 40.5972 44.4119ZM74.6398 33.074C71.3997 31.418 67.9041 30.3374 64.3732 29.5038C63.6981 29.3444 62.9417 29.0903 62.257 29.0332C62.257 29.0445 62.2564 29.0558 62.2564 29.0671C62.2576 29.3596 62.3384 29.6542 62.3785 29.9438C62.5197 30.9715 62.2444 31.7708 61.5203 32.5114C61.3384 32.6977 61.1295 32.8405 60.9093 32.9775C62.7974 33.0292 64.6646 33.0684 66.5552 33.0165C68.587 32.9608 70.9365 32.8097 72.9372 32.8907C73.5051 32.9334 74.0761 33.043 74.6398 33.074ZM58.3784 28.4831C57.7395 28.9258 57.1167 29.4123 56.9725 30.2307C56.8875 30.7165 57.0049 31.216 57.2976 31.6131C57.5912 32.0148 58.0365 32.2788 58.5299 32.3436C58.8052 32.3811 59.4454 32.3922 59.7015 32.2654C60.315 31.8417 61.0068 31.3958 61.157 30.6052C61.2582 30.0746 61.0703 29.548 60.7639 29.1168C60.6687 28.9822 60.5502 28.859 60.4365 28.7395C59.862 28.678 58.9128 28.4096 58.3784 28.4831ZM47.9272 50.2388C47.8139 51.6565 47.7061 53.4488 47.0769 54.7399C47.7999 54.711 48.5999 54.915 49.3118 55.0354C50.7018 55.2704 52.095 55.5392 53.4975 55.6868C53.7578 55.7214 54.0192 55.7635 54.2807 55.7859C53.0814 54.35 51.7472 51.9138 50.1241 51.0756C49.427 50.7156 48.6563 50.5199 47.9272 50.2388ZM30.8772 10.0215C30.8482 10.2095 30.9603 10.8796 30.981 11.1231C31.1118 12.6511 31.2903 14.031 31.6598 15.5269C32.6615 15.2886 33.7054 15.3765 34.7897 15.2024C35.0469 14.4075 35.5027 13.476 35.9412 12.7666C36.7465 11.5437 37.5491 10.7747 38.81 10.0462C37.0825 10.1311 35.3523 10.1441 33.6238 10.0853C33.0402 10.0695 31.366 9.98205 30.8772 10.0215ZM41.1117 10.6117C39.2288 10.9196 38.3343 11.7443 37.1853 13.2682C36.6776 13.9416 36.4557 14.5663 36.0543 15.2281C37.4583 15.1312 39.6953 14.8119 40.8981 14.8293C42.3274 14.5799 44.8785 14.4014 46.3173 14.4064C45.1283 12.515 43.6796 10.3679 41.1117 10.6117Z" fill="white"/>
<path d="M112.904 39.3467C113.171 39.298 113.523 39.3058 113.772 39.4195C113.881 39.5206 113.926 39.6134 113.941 39.7606C114.049 40.7969 112.49 44.5891 111.946 45.6333C111.596 46.3041 111.167 46.9641 110.693 47.5551C108.171 50.6997 103.888 51.3571 100.12 51.7677C99.5379 51.8311 98.9502 51.8355 98.3667 51.8812C97.493 51.9497 96.6204 52.0728 95.7454 52.1152C93.8537 52.2068 91.9458 52.1611 90.0517 52.2002C88.7398 52.228 87.4274 52.2385 86.115 52.2315C85.0054 52.2302 83.8468 52.2723 82.754 52.0543C80.6899 51.6427 78.4516 50.5929 76.816 49.2806C76.3774 49.0189 75.9369 48.5029 75.6059 48.1139C74.5718 46.8982 73.8273 45.5006 73.3192 43.9923C73.1133 43.3824 72.9589 42.769 72.7285 42.1651C72.7866 42.006 72.8464 41.7908 72.9416 41.6521C73.2498 41.204 73.9207 41.2052 74.3994 41.2288C75.5192 41.2838 76.6245 41.2481 77.7442 41.2375C79.5193 41.2299 81.2943 41.1873 83.0676 41.1098C84.2442 41.0537 85.4219 40.9571 86.5991 40.9298C87.7595 40.9028 88.9248 40.9359 90.0864 40.9302C91.1959 40.9247 92.3025 40.8536 93.4114 40.8412C95.3062 40.8199 97.2069 40.8499 99.1004 40.777C100.112 40.7381 101.118 40.5614 102.129 40.4883C102.837 40.4372 103.548 40.4335 104.255 40.3717C106.185 40.2031 108.114 39.9361 110.036 39.6972C110.997 39.5777 111.946 39.5055 112.904 39.3467ZM77.5378 48.227C79.323 49.5044 81.198 50.4659 83.3692 50.9046C84.6499 51.1635 86.0814 51.0627 87.3843 51.0616C90.792 51.0552 94.199 50.923 97.5971 50.665C99.1872 50.5413 100.749 50.4404 102.327 50.1769C105.711 49.6115 108.139 48.9113 110.216 45.9852C111.198 44.6005 111.973 42.2908 112.645 40.677L112.623 40.5787C112.58 40.5839 112.52 40.5833 112.48 40.6006C110.352 40.9361 108.215 41.2188 106.073 41.4486C105.16 41.5397 104.242 41.5696 103.329 41.6499C102.242 41.7453 101.159 41.8961 100.069 41.9528C96.6455 42.101 93.2193 42.1852 89.7925 42.2053C88.7614 42.213 87.7296 42.1775 86.6991 42.1953C84.6613 42.2306 82.6181 42.395 80.5804 42.4662C78.472 42.5399 76.3588 42.5154 74.2504 42.5726C74.3174 43.684 75.5449 45.981 76.2529 46.8932C76.6329 47.3826 77.0883 47.8027 77.5378 48.227Z" fill="white"/>
<path d="M82.8742 13.7305C82.9377 13.7997 82.9173 13.7783 82.9185 13.9022C82.5559 14.2494 81.6683 14.1281 81.1722 14.1068C81.1567 14.0888 81.1531 14.0529 81.1465 14.0251C81.505 13.8394 82.4356 13.7735 82.8742 13.7305Z" fill="white"/>
<path d="M5.52442 27.8682C5.64961 28.1261 5.66634 28.9481 5.60005 29.2284C5.53144 29.1418 5.46761 29.0435 5.42606 28.9405C5.28972 28.6029 5.39106 28.1889 5.52442 27.8682Z" fill="white"/>
<path d="M4.22956 29.1602C4.33453 29.3947 4.42064 29.6024 4.56047 29.8199C4.48542 29.9544 4.45504 29.9851 4.44587 30.1338C4.4184 29.8726 4.24194 29.5403 4.125 29.2961L4.22956 29.1602Z" fill="white"/>
<path d="M34.2598 16.5866C34.5754 16.5365 34.9243 16.5014 35.2442 16.4629C35.2096 16.5506 35.1868 16.5807 35.1839 16.6725C34.8992 16.6876 34.5477 16.6258 34.2598 16.5866Z" fill="white"/>
<path d="M32.3312 31.3193L32.4594 31.4722C32.4114 31.6315 32.3365 31.8633 32.1968 31.9388C32.1442 31.7515 32.2613 31.5114 32.3312 31.3193Z" fill="white"/>
</g>
<defs>
<clipPath id="clip0_822_106700">
<rect width="122.565" height="58.5387" fill="white"/>
</clipPath>
</defs>
</svg>
